<?xml version="1.0" encoding="UTF-8"?>
<svg xmlns="http://www.w3.org/2000/svg" xmlns:xlink="http://www.w3.org/1999/xlink" width="407pt" height="407pt" viewBox="0 0 407 407" version="1.1">
<defs>
<g id="surface6626" clip-path="url(#clip1)">
<rect x="0" y="0" width="16777215" height="16777215" style="fill:rgb(100%,100%,100%);fill-opacity:1;stroke:none;"/>
<path style="fill:none;stroke-width:2;stroke-linecap:butt;stroke-linejoin:miter;stroke:rgb(0%,0%,0%);stroke-opacity:1;stroke-miterlimit:10;" d="M 5 0 L 5 -5 L 10 -5 L 10 0 L 15 0 L 15 -5 L 10 -5 L 10 -10 L 15 -10 L 15 -15 L 20 -15 L 20 -20 L 25 -20 L 25 -15 L 30 -15 L 30 -10 L 35 -10 L 35 -5 L 30 -5 L 30 0 L 35 0 L 35 -5 L 40 -5 L 40 0 L 45 0 L 45 -5 L 40 -5 L 40 -10 L 45 -10 L 45 -15 L 40 -15 L 40 -10 L 35 -10 L 35 -15 L 30 -15 L 30 -20 L 25 -20 L 25 -25 L 30 -25 L 30 -30 L 35 -30 L 35 -35 L 40 -35 L 40 -30 L 45 -30 L 45 -35 L 40 -35 L 40 -40 L 45 -40 L 45 -45 L 50 -45 L 50 -50 L 55 -50 L 55 -45 L 60 -45 L 60 -50 L 55 -50 L 55 -55 L 60 -55 L 60 -60 L 65 -60 L 65 -65 L 70 -65 L 70 -60 L 75 -60 L 75 -55 L 80 -55 L 80 -50 L 75 -50 L 75 -45 L 80 -45 L 80 -50 L 85 -50 L 85 -45 L 90 -45 L 90 -40 L 95 -40 L 95 -35 L 90 -35 L 90 -30 L 95 -30 L 95 -35 L 100 -35 L 100 -30 L 105 -30 L 105 -25 L 110 -25 L 110 -20 L 105 -20 L 105 -15 L 100 -15 L 100 -10 L 95 -10 L 95 -15 L 90 -15 L 90 -10 L 95 -10 L 95 -5 L 90 -5 L 90 0 L 95 0 L 95 -5 L 100 -5 L 100 0 L 105 0 L 105 -5 L 100 -5 L 100 -10 L 105 -10 L 105 -15 L 110 -15 L 110 -20 L 115 -20 L 115 -15 L 120 -15 L 120 -10 L 125 -10 L 125 -5 L 120 -5 L 120 0 L 125 0 L 125 -5 L 130 -5 L 130 0 L 135 0 L 135 -5 L 130 -5 L 130 -10 L 135 -10 L 135 -15 L 130 -15 L 130 -10 L 125 -10 L 125 -15 L 120 -15 L 120 -20 L 115 -20 L 115 -25 L 120 -25 L 120 -30 L 125 -30 L 125 -35 L 130 -35 L 130 -30 L 135 -30 L 135 -35 L 130 -35 L 130 -40 L 135 -40 L 135 -45 L 130 -45 L 130 -40 L 125 -40 L 125 -45 L 120 -45 L 120 -40 L 125 -40 L 125 -35 L 120 -35 L 120 -30 L 115 -30 L 115 -25 L 110 -25 L 110 -30 L 105 -30 L 105 -35 L 100 -35 L 100 -40 L 105 -40 L 105 -45 L 100 -45 L 100 -40 L 95 -40 L 95 -45 L 90 -45 L 90 -50 L 85 -50 L 85 -55 L 90 -55 L 90 -60 L 85 -60 L 85 -55 L 80 -55 L 80 -60 L 75 -60 L 75 -65 L 70 -65 L 70 -70 L 75 -70 L 75 -75 L 80 -75 L 80 -80 L 85 -80 L 85 -75 L 90 -75 L 90 -80 L 85 -80 L 85 -85 L 90 -85 L 90 -90 L 95 -90 L 95 -95 L 100 -95 L 100 -90 L 105 -90 L 105 -95 L 100 -95 L 100 -100 L 105 -100 L 105 -105 L 110 -105 L 110 -110 L 115 -110 L 115 -105 L 120 -105 L 120 -100 L 125 -100 L 125 -95 L 120 -95 L 120 -90 L 125 -90 L 125 -95 L 130 -95 L 130 -90 L 135 -90 L 135 -95 L 130 -95 L 130 -100 L 135 -100 L 135 -105 L 130 -105 L 130 -100 L 125 -100 L 125 -105 L 120 -105 L 120 -110 L 115 -110 L 115 -115 L 120 -115 L 120 -120 L 125 -120 L 125 -125 L 130 -125 L 130 -120 L 135 -120 L 135 -125 L 130 -125 L 130 -130 L 135 -130 L 135 -135 L 140 -135 L 140 -140 L 145 -140 L 145 -135 L 150 -135 L 150 -140 L 145 -140 L 145 -145 L 150 -145 L 150 -150 L 155 -150 L 155 -155 L 160 -155 L 160 -150 L 165 -150 L 165 -145 L 170 -145 L 170 -140 L 165 -140 L 165 -135 L 170 -135 L 170 -140 L 175 -140 L 175 -135 L 180 -135 L 180 -140 L 175 -140 L 175 -145 L 180 -145 L 180 -150 L 175 -150 L 175 -145 L 170 -145 L 170 -150 L 165 -150 L 165 -155 L 160 -155 L 160 -160 L 165 -160 L 165 -165 L 170 -165 L 170 -170 L 175 -170 L 175 -165 L 180 -165 L 180 -170 L 175 -170 L 175 -175 L 180 -175 L 180 -180 L 185 -180 L 185 -185 L 190 -185 L 190 -180 L 195 -180 L 195 -185 L 190 -185 L 190 -190 L 195 -190 L 195 -195 L 200 -195 L 200 -200 L 205 -200 L 205 -195 L 210 -195 L 210 -190 L 215 -190 L 215 -185 L 210 -185 L 210 -180 L 215 -180 L 215 -185 L 220 -185 L 220 -180 L 225 -180 L 225 -175 L 230 -175 L 230 -170 L 225 -170 L 225 -165 L 230 -165 L 230 -170 L 235 -170 L 235 -165 L 240 -165 L 240 -160 L 245 -160 L 245 -155 L 240 -155 L 240 -150 L 235 -150 L 235 -145 L 230 -145 L 230 -150 L 225 -150 L 225 -145 L 230 -145 L 230 -140 L 225 -140 L 225 -135 L 230 -135 L 230 -140 L 235 -140 L 235 -135 L 240 -135 L 240 -140 L 235 -140 L 235 -145 L 240 -145 L 240 -150 L 245 -150 L 245 -155 L 250 -155 L 250 -150 L 255 -150 L 255 -145 L 260 -145 L 260 -140 L 255 -140 L 255 -135 L 260 -135 L 260 -140 L 265 -140 L 265 -135 L 270 -135 L 270 -130 L 275 -130 L 275 -125 L 270 -125 L 270 -120 L 275 -120 L 275 -125 L 280 -125 L 280 -120 L 285 -120 L 285 -115 L 290 -115 L 290 -110 L 285 -110 L 285 -105 L 280 -105 L 280 -100 L 275 -100 L 275 -105 L 270 -105 L 270 -100 L 275 -100 L 275 -95 L 270 -95 L 270 -90 L 275 -90 L 275 -95 L 280 -95 L 280 -90 L 285 -90 L 285 -95 L 280 -95 L 280 -100 L 285 -100 L 285 -105 L 290 -105 L 290 -110 L 295 -110 L 295 -105 L 300 -105 L 300 -100 L 305 -100 L 305 -95 L 300 -95 L 300 -90 L 305 -90 L 305 -95 L 310 -95 L 310 -90 L 315 -90 L 315 -85 L 320 -85 L 320 -80 L 315 -80 L 315 -75 L 320 -75 L 320 -80 L 325 -80 L 325 -75 L 330 -75 L 330 -70 L 335 -70 L 335 -65 L 330 -65 L 330 -60 L 325 -60 L 325 -55 L 320 -55 L 320 -60 L 315 -60 L 315 -55 L 320 -55 L 320 -50 L 315 -50 L 315 -45 L 310 -45 L 310 -40 L 305 -40 L 305 -45 L 300 -45 L 300 -40 L 305 -40 L 305 -35 L 300 -35 L 300 -30 L 295 -30 L 295 -25 L 290 -25 L 290 -30 L 285 -30 L 285 -35 L 280 -35 L 280 -40 L 285 -40 L 285 -45 L 280 -45 L 280 -40 L 275 -40 L 275 -45 L 270 -45 L 270 -40 L 275 -40 L 275 -35 L 270 -35 L 270 -30 L 275 -30 L 275 -35 L 280 -35 L 280 -30 L 285 -30 L 285 -25 L 290 -25 L 290 -20 L 285 -20 L 285 -15 L 280 -15 L 280 -10 L 275 -10 L 275 -15 L 270 -15 L 270 -10 L 275 -10 L 275 -5 L 270 -5 L 270 0 L 275 0 L 275 -5 L 280 -5 L 280 0 L 285 0 L 285 -5 L 280 -5 L 280 -10 L 285 -10 L 285 -15 L 290 -15 L 290 -20 L 295 -20 L 295 -15 L 300 -15 L 300 -10 L 305 -10 L 305 -5 L 300 -5 L 300 0 L 305 0 L 305 -5 L 310 -5 L 310 0 L 315 0 L 315 -5 L 310 -5 L 310 -10 L 315 -10 L 315 -15 L 310 -15 L 310 -10 L 305 -10 L 305 -15 L 300 -15 L 300 -20 L 295 -20 L 295 -25 L 300 -25 L 300 -30 L 305 -30 L 305 -35 L 310 -35 L 310 -30 L 315 -30 L 315 -35 L 310 -35 L 310 -40 L 315 -40 L 315 -45 L 320 -45 L 320 -50 L 325 -50 L 325 -45 L 330 -45 L 330 -50 L 325 -50 L 325 -55 L 330 -55 L 330 -60 L 335 -60 L 335 -65 L 340 -65 L 340 -60 L 345 -60 L 345 -55 L 350 -55 L 350 -50 L 345 -50 L 345 -45 L 350 -45 L 350 -50 L 355 -50 L 355 -45 L 360 -45 L 360 -40 L 365 -40 L 365 -35 L 360 -35 L 360 -30 L 365 -30 L 365 -35 L 370 -35 L 370 -30 L 375 -30 L 375 -25 L 380 -25 L 380 -20 L 375 -20 L 375 -15 L 370 -15 L 370 -10 L 365 -10 L 365 -15 L 360 -15 L 360 -10 L 365 -10 L 365 -5 L 360 -5 L 360 0 L 365 0 L 365 -5 L 370 -5 L 370 0 L 375 0 L 375 -5 L 370 -5 L 370 -10 L 375 -10 L 375 -15 L 380 -15 L 380 -20 L 385 -20 L 385 -15 L 390 -15 L 390 -10 L 395 -10 L 395 -5 L 390 -5 L 390 0 L 395 0 L 395 -5 L 400 -5 L 400 0 L 405 0 L 405 -5 L 400 -5 L 400 -10 L 405 -10 L 405 -15 L 400 -15 L 400 -10 L 395 -10 L 395 -15 L 390 -15 L 390 -20 L 385 -20 L 385 -25 L 390 -25 L 390 -30 L 395 -30 L 395 -35 L 400 -35 L 400 -30 L 405 -30 L 405 -35 L 400 -35 L 400 -40 L 405 -40 L 405 -45 L 400 -45 L 400 -40 L 395 -40 L 395 -45 L 390 -45 L 390 -40 L 395 -40 L 395 -35 L 390 -35 L 390 -30 L 385 -30 L 385 -25 L 380 -25 L 380 -30 L 375 -30 L 375 -35 L 370 -35 L 370 -40 L 375 -40 L 375 -45 L 370 -45 L 370 -40 L 365 -40 L 365 -45 L 360 -45 L 360 -50 L 355 -50 L 355 -55 L 360 -55 L 360 -60 L 355 -60 L 355 -55 L 350 -55 L 350 -60 L 345 -60 L 345 -65 L 340 -65 L 340 -70 L 345 -70 L 345 -75 L 350 -75 L 350 -80 L 355 -80 L 355 -75 L 360 -75 L 360 -80 L 355 -80 L 355 -85 L 360 -85 L 360 -90 L 365 -90 L 365 -95 L 370 -95 L 370 -90 L 375 -90 L 375 -95 L 370 -95 L 370 -100 L 375 -100 L 375 -105 L 380 -105 L 380 -110 L 385 -110 L 385 -105 L 390 -105 L 390 -100 L 395 -100 L 395 -95 L 390 -95 L 390 -90 L 395 -90 L 395 -95 L 400 -95 L 400 -90 L 405 -90 L 405 -95 L 400 -95 L 400 -100 L 405 -100 L 405 -105 L 400 -105 L 400 -100 L 395 -100 L 395 -105 L 390 -105 L 390 -110 L 385 -110 L 385 -115 L 390 -115 L 390 -120 L 395 -120 L 395 -125 L 400 -125 L 400 -120 L 405 -120 L 405 -125 L 400 -125 L 400 -130 L 405 -130 L 405 -135 L 400 -135 L 400 -130 L 395 -130 L 395 -135 L 390 -135 L 390 -130 L 395 -130 L 395 -125 L 390 -125 L 390 -120 L 385 -120 L 385 -115 L 380 -115 L 380 -120 L 375 -120 L 375 -125 L 370 -125 L 370 -130 L 375 -130 L 375 -135 L 370 -135 L 370 -130 L 365 -130 L 365 -135 L 360 -135 L 360 -130 L 365 -130 L 365 -125 L 360 -125 L 360 -120 L 365 -120 L 365 -125 L 370 -125 L 370 -120 L 375 -120 L 375 -115 L 380 -115 L 380 -110 L 375 -110 L 375 -105 L 370 -105 L 370 -100 L 365 -100 L 365 -105 L 360 -105 L 360 -100 L 365 -100 L 365 -95 L 360 -95 L 360 -90 L 355 -90 L 355 -85 L 350 -85 L 350 -90 L 345 -90 L 345 -85 L 350 -85 L 350 -80 L 345 -80 L 345 -75 L 340 -75 L 340 -70 L 335 -70 L 335 -75 L 330 -75 L 330 -80 L 325 -80 L 325 -85 L 330 -85 L 330 -90 L 325 -90 L 325 -85 L 320 -85 L 320 -90 L 315 -90 L 315 -95 L 310 -95 L 310 -100 L 315 -100 L 315 -105 L 310 -105 L 310 -100 L 305 -100 L 305 -105 L 300 -105 L 300 -110 L 295 -110 L 295 -115 L 300 -115 L 300 -120 L 305 -120 L 305 -125 L 310 -125 L 310 -120 L 315 -120 L 315 -125 L 310 -125 L 310 -130 L 315 -130 L 315 -135 L 310 -135 L 310 -130 L 305 -130 L 305 -135 L 300 -135 L 300 -130 L 305 -130 L 305 -125 L 300 -125 L 300 -120 L 295 -120 L 295 -115 L 290 -115 L 290 -120 L 285 -120 L 285 -125 L 280 -125 L 280 -130 L 285 -130 L 285 -135 L 280 -135 L 280 -130 L 275 -130 L 275 -135 L 270 -135 L 270 -140 L 265 -140 L 265 -145 L 270 -145 L 270 -150 L 265 -150 L 265 -145 L 260 -145 L 260 -150 L 255 -150 L 255 -155 L 250 -155 L 250 -160 L 255 -160 L 255 -165 L 260 -165 L 260 -170 L 265 -170 L 265 -165 L 270 -165 L 270 -170 L 265 -170 L 265 -175 L 270 -175 L 270 -180 L 265 -180 L 265 -175 L 260 -175 L 260 -180 L 255 -180 L 255 -175 L 260 -175 L 260 -170 L 255 -170 L 255 -165 L 250 -165 L 250 -160 L 245 -160 L 245 -165 L 240 -165 L 240 -170 L 235 -170 L 235 -175 L 240 -175 L 240 -180 L 235 -180 L 235 -175 L 230 -175 L 230 -180 L 225 -180 L 225 -185 L 220 -185 L 220 -190 L 225 -190 L 225 -195 L 220 -195 L 220 -190 L 215 -190 L 215 -195 L 210 -195 L 210 -200 L 205 -200 L 205 -205 L 210 -205 L 210 -210 L 215 -210 L 215 -215 L 220 -215 L 220 -210 L 225 -210 L 225 -215 L 220 -215 L 220 -220 L 225 -220 L 225 -225 L 230 -225 L 230 -230 L 235 -230 L 235 -225 L 240 -225 L 240 -230 L 235 -230 L 235 -235 L 240 -235 L 240 -240 L 245 -240 L 245 -245 L 250 -245 L 250 -240 L 255 -240 L 255 -235 L 260 -235 L 260 -230 L 255 -230 L 255 -225 L 260 -225 L 260 -230 L 265 -230 L 265 -225 L 270 -225 L 270 -230 L 265 -230 L 265 -235 L 270 -235 L 270 -240 L 265 -240 L 265 -235 L 260 -235 L 260 -240 L 255 -240 L 255 -245 L 250 -245 L 250 -250 L 255 -250 L 255 -255 L 260 -255 L 260 -260 L 265 -260 L 265 -255 L 270 -255 L 270 -260 L 265 -260 L 265 -265 L 270 -265 L 270 -270 L 275 -270 L 275 -275 L 280 -275 L 280 -270 L 285 -270 L 285 -275 L 280 -275 L 280 -280 L 285 -280 L 285 -285 L 290 -285 L 290 -290 L 295 -290 L 295 -285 L 300 -285 L 300 -280 L 305 -280 L 305 -275 L 300 -275 L 300 -270 L 305 -270 L 305 -275 L 310 -275 L 310 -270 L 315 -270 L 315 -275 L 310 -275 L 310 -280 L 315 -280 L 315 -285 L 310 -285 L 310 -280 L 305 -280 L 305 -285 L 300 -285 L 300 -290 L 295 -290 L 295 -295 L 300 -295 L 300 -300 L 305 -300 L 305 -305 L 310 -305 L 310 -300 L 315 -300 L 315 -305 L 310 -305 L 310 -310 L 315 -310 L 315 -315 L 320 -315 L 320 -320 L 325 -320 L 325 -315 L 330 -315 L 330 -320 L 325 -320 L 325 -325 L 330 -325 L 330 -330 L 335 -330 L 335 -335 L 340 -335 L 340 -330 L 345 -330 L 345 -325 L 350 -325 L 350 -320 L 345 -320 L 345 -315 L 350 -315 L 350 -320 L 355 -320 L 355 -315 L 360 -315 L 360 -310 L 365 -310 L 365 -305 L 360 -305 L 360 -300 L 365 -300 L 365 -305 L 370 -305 L 370 -300 L 375 -300 L 375 -295 L 380 -295 L 380 -290 L 375 -290 L 375 -285 L 370 -285 L 370 -280 L 365 -280 L 365 -285 L 360 -285 L 360 -280 L 365 -280 L 365 -275 L 360 -275 L 360 -270 L 365 -270 L 365 -275 L 370 -275 L 370 -270 L 375 -270 L 375 -275 L 370 -275 L 370 -280 L 375 -280 L 375 -285 L 380 -285 L 380 -290 L 385 -290 L 385 -285 L 390 -285 L 390 -280 L 395 -280 L 395 -275 L 390 -275 L 390 -270 L 395 -270 L 395 -275 L 400 -275 L 400 -270 L 405 -270 L 405 -275 L 400 -275 L 400 -280 L 405 -280 L 405 -285 L 400 -285 L 400 -280 L 395 -280 L 395 -285 L 390 -285 L 390 -290 L 385 -290 L 385 -295 L 390 -295 L 390 -300 L 395 -300 L 395 -305 L 400 -305 L 400 -300 L 405 -300 L 405 -305 L 400 -305 L 400 -310 L 405 -310 L 405 -315 L 400 -315 L 400 -310 L 395 -310 L 395 -315 L 390 -315 L 390 -310 L 395 -310 L 395 -305 L 390 -305 L 390 -300 L 385 -300 L 385 -295 L 380 -295 L 380 -300 L 375 -300 L 375 -305 L 370 -305 L 370 -310 L 375 -310 L 375 -315 L 370 -315 L 370 -310 L 365 -310 L 365 -315 L 360 -315 L 360 -320 L 355 -320 L 355 -325 L 360 -325 L 360 -330 L 355 -330 L 355 -325 L 350 -325 L 350 -330 L 345 -330 L 345 -335 L 340 -335 L 340 -340 L 345 -340 L 345 -345 L 350 -345 L 350 -350 L 355 -350 L 355 -345 L 360 -345 L 360 -350 L 355 -350 L 355 -355 L 360 -355 L 360 -360 L 365 -360 L 365 -365 L 370 -365 L 370 -360 L 375 -360 L 375 -365 L 370 -365 L 370 -370 L 375 -370 L 375 -375 L 380 -375 L 380 -380 L 385 -380 L 385 -375 L 390 -375 L 390 -370 L 395 -370 L 395 -365 L 390 -365 L 390 -360 L 395 -360 L 395 -365 L 400 -365 L 400 -360 L 405 -360 L 405 -365 L 400 -365 L 400 -370 L 405 -370 L 405 -375 L 400 -375 L 400 -370 L 395 -370 L 395 -375 L 390 -375 L 390 -380 L 385 -380 L 385 -385 L 390 -385 L 390 -390 L 395 -390 L 395 -395 L 400 -395 L 400 -390 L 405 -390 L 405 -395 L 400 -395 L 400 -400 L 405 -400 L 405 -405 L 400 -405 L 400 -400 L 395 -400 L 395 -405 L 390 -405 L 390 -400 L 395 -400 L 395 -395 L 390 -395 L 390 -390 L 385 -390 L 385 -385 L 380 -385 L 380 -390 L 375 -390 L 375 -395 L 370 -395 L 370 -400 L 375 -400 L 375 -405 L 370 -405 L 370 -400 L 365 -400 L 365 -405 L 360 -405 L 360 -400 L 365 -400 L 365 -395 L 360 -395 L 360 -390 L 365 -390 L 365 -395 L 370 -395 L 370 -390 L 375 -390 L 375 -385 L 380 -385 L 380 -380 L 375 -380 L 375 -375 L 370 -375 L 370 -370 L 365 -370 L 365 -375 L 360 -375 L 360 -370 L 365 -370 L 365 -365 L 360 -365 L 360 -360 L 355 -360 L 355 -355 L 350 -355 L 350 -360 L 345 -360 L 345 -355 L 350 -355 L 350 -350 L 345 -350 L 345 -345 L 340 -345 L 340 -340 L 335 -340 L 335 -345 L 330 -345 L 330 -350 L 325 -350 L 325 -355 L 330 -355 L 330 -360 L 325 -360 L 325 -355 L 320 -355 L 320 -360 L 315 -360 L 315 -365 L 310 -365 L 310 -370 L 315 -370 L 315 -375 L 310 -375 L 310 -370 L 305 -370 L 305 -375 L 300 -375 L 300 -380 L 295 -380 L 295 -385 L 300 -385 L 300 -390 L 305 -390 L 305 -395 L 310 -395 L 310 -390 L 315 -390 L 315 -395 L 310 -395 L 310 -400 L 315 -400 L 315 -405 L 310 -405 L 310 -400 L 305 -400 L 305 -405 L 300 -405 L 300 -400 L 305 -400 L 305 -395 L 300 -395 L 300 -390 L 295 -390 L 295 -385 L 290 -385 L 290 -390 L 285 -390 L 285 -395 L 280 -395 L 280 -400 L 285 -400 L 285 -405 L 280 -405 L 280 -400 L 275 -400 L 275 -405 L 270 -405 L 270 -400 L 275 -400 L 275 -395 L 270 -395 L 270 -390 L 275 -390 L 275 -395 L 280 -395 L 280 -390 L 285 -390 L 285 -385 L 290 -385 L 290 -380 L 285 -380 L 285 -375 L 280 -375 L 280 -370 L 275 -370 L 275 -375 L 270 -375 L 270 -370 L 275 -370 L 275 -365 L 270 -365 L 270 -360 L 275 -360 L 275 -365 L 280 -365 L 280 -360 L 285 -360 L 285 -365 L 280 -365 L 280 -370 L 285 -370 L 285 -375 L 290 -375 L 290 -380 L 295 -380 L 295 -375 L 300 -375 L 300 -370 L 305 -370 L 305 -365 L 300 -365 L 300 -360 L 305 -360 L 305 -365 L 310 -365 L 310 -360 L 315 -360 L 315 -355 L 320 -355 L 320 -350 L 315 -350 L 315 -345 L 320 -345 L 320 -350 L 325 -350 L 325 -345 L 330 -345 L 330 -340 L 335 -340 L 335 -335 L 330 -335 L 330 -330 L 325 -330 L 325 -325 L 320 -325 L 320 -330 L 315 -330 L 315 -325 L 320 -325 L 320 -320 L 315 -320 L 315 -315 L 310 -315 L 310 -310 L 305 -310 L 305 -315 L 300 -315 L 300 -310 L 305 -310 L 305 -305 L 300 -305 L 300 -300 L 295 -300 L 295 -295 L 290 -295 L 290 -300 L 285 -300 L 285 -305 L 280 -305 L 280 -310 L 285 -310 L 285 -315 L 280 -315 L 280 -310 L 275 -310 L 275 -315 L 270 -315 L 270 -310 L 275 -310 L 275 -305 L 270 -305 L 270 -300 L 275 -300 L 275 -305 L 280 -305 L 280 -300 L 285 -300 L 285 -295 L 290 -295 L 290 -290 L 285 -290 L 285 -285 L 280 -285 L 280 -280 L 275 -280 L 275 -285 L 270 -285 L 270 -280 L 275 -280 L 275 -275 L 270 -275 L 270 -270 L 265 -270 L 265 -265 L 260 -265 L 260 -270 L 255 -270 L 255 -265 L 260 -265 L 260 -260 L 255 -260 L 255 -255 L 250 -255 L 250 -250 L 245 -250 L 245 -255 L 240 -255 L 240 -260 L 235 -260 L 235 -265 L 240 -265 L 240 -270 L 235 -270 L 235 -265 L 230 -265 L 230 -270 L 225 -270 L 225 -265 L 230 -265 L 230 -260 L 225 -260 L 225 -255 L 230 -255 L 230 -260 L 235 -260 L 235 -255 L 240 -255 L 240 -250 L 245 -250 L 245 -245 L 240 -245 L 240 -240 L 235 -240 L 235 -235 L 230 -235 L 230 -240 L 225 -240 L 225 -235 L 230 -235 L 230 -230 L 225 -230 L 225 -225 L 220 -225 L 220 -220 L 215 -220 L 215 -225 L 210 -225 L 210 -220 L 215 -220 L 215 -215 L 210 -215 L 210 -210 L 205 -210 L 205 -205 L 200 -205 L 200 -210 L 195 -210 L 195 -215 L 190 -215 L 190 -220 L 195 -220 L 195 -225 L 190 -225 L 190 -220 L 185 -220 L 185 -225 L 180 -225 L 180 -230 L 175 -230 L 175 -235 L 180 -235 L 180 -240 L 175 -240 L 175 -235 L 170 -235 L 170 -240 L 165 -240 L 165 -245 L 160 -245 L 160 -250 L 165 -250 L 165 -255 L 170 -255 L 170 -260 L 175 -260 L 175 -255 L 180 -255 L 180 -260 L 175 -260 L 175 -265 L 180 -265 L 180 -270 L 175 -270 L 175 -265 L 170 -265 L 170 -270 L 165 -270 L 165 -265 L 170 -265 L 170 -260 L 165 -260 L 165 -255 L 160 -255 L 160 -250 L 155 -250 L 155 -255 L 150 -255 L 150 -260 L 145 -260 L 145 -265 L 150 -265 L 150 -270 L 145 -270 L 145 -265 L 140 -265 L 140 -270 L 135 -270 L 135 -275 L 130 -275 L 130 -280 L 135 -280 L 135 -285 L 130 -285 L 130 -280 L 125 -280 L 125 -285 L 120 -285 L 120 -290 L 115 -290 L 115 -295 L 120 -295 L 120 -300 L 125 -300 L 125 -305 L 130 -305 L 130 -300 L 135 -300 L 135 -305 L 130 -305 L 130 -310 L 135 -310 L 135 -315 L 130 -315 L 130 -310 L 125 -310 L 125 -315 L 120 -315 L 120 -310 L 125 -310 L 125 -305 L 120 -305 L 120 -300 L 115 -300 L 115 -295 L 110 -295 L 110 -300 L 105 -300 L 105 -305 L 100 -305 L 100 -310 L 105 -310 L 105 -315 L 100 -315 L 100 -310 L 95 -310 L 95 -315 L 90 -315 L 90 -320 L 85 -320 L 85 -325 L 90 -325 L 90 -330 L 85 -330 L 85 -325 L 80 -325 L 80 -330 L 75 -330 L 75 -335 L 70 -335 L 70 -340 L 75 -340 L 75 -345 L 80 -345 L 80 -350 L 85 -350 L 85 -345 L 90 -345 L 90 -350 L 85 -350 L 85 -355 L 90 -355 L 90 -360 L 95 -360 L 95 -365 L 100 -365 L 100 -360 L 105 -360 L 105 -365 L 100 -365 L 100 -370 L 105 -370 L 105 -375 L 110 -375 L 110 -380 L 115 -380 L 115 -375 L 120 -375 L 120 -370 L 125 -370 L 125 -365 L 120 -365 L 120 -360 L 125 -360 L 125 -365 L 130 -365 L 130 -360 L 135 -360 L 135 -365 L 130 -365 L 130 -370 L 135 -370 L 135 -375 L 130 -375 L 130 -370 L 125 -370 L 125 -375 L 120 -375 L 120 -380 L 115 -380 L 115 -385 L 120 -385 L 120 -390 L 125 -390 L 125 -395 L 130 -395 L 130 -390 L 135 -390 L 135 -395 L 130 -395 L 130 -400 L 135 -400 L 135 -405 L 130 -405 L 130 -400 L 125 -400 L 125 -405 L 120 -405 L 120 -400 L 125 -400 L 125 -395 L 120 -395 L 120 -390 L 115 -390 L 115 -385 L 110 -385 L 110 -390 L 105 -390 L 105 -395 L 100 -395 L 100 -400 L 105 -400 L 105 -405 L 100 -405 L 100 -400 L 95 -400 L 95 -405 L 90 -405 L 90 -400 L 95 -400 L 95 -395 L 90 -395 L 90 -390 L 95 -390 L 95 -395 L 100 -395 L 100 -390 L 105 -390 L 105 -385 L 110 -385 L 110 -380 L 105 -380 L 105 -375 L 100 -375 L 100 -370 L 95 -370 L 95 -375 L 90 -375 L 90 -370 L 95 -370 L 95 -365 L 90 -365 L 90 -360 L 85 -360 L 85 -355 L 80 -355 L 80 -360 L 75 -360 L 75 -355 L 80 -355 L 80 -350 L 75 -350 L 75 -345 L 70 -345 L 70 -340 L 65 -340 L 65 -345 L 60 -345 L 60 -350 L 55 -350 L 55 -355 L 60 -355 L 60 -360 L 55 -360 L 55 -355 L 50 -355 L 50 -360 L 45 -360 L 45 -365 L 40 -365 L 40 -370 L 45 -370 L 45 -375 L 40 -375 L 40 -370 L 35 -370 L 35 -375 L 30 -375 L 30 -380 L 25 -380 L 25 -385 L 30 -385 L 30 -390 L 35 -390 L 35 -395 L 40 -395 L 40 -390 L 45 -390 L 45 -395 L 40 -395 L 40 -400 L 45 -400 L 45 -405 L 40 -405 L 40 -400 L 35 -400 L 35 -405 L 30 -405 L 30 -400 L 35 -400 L 35 -395 L 30 -395 L 30 -390 L 25 -390 L 25 -385 L 20 -385 L 20 -390 L 15 -390 L 15 -395 L 10 -395 L 10 -400 L 15 -400 L 15 -405 L 10 -405 L 10 -400 L 5 -400 L 5 -405 L 0 -405 L 0 -400 L 5 -400 L 5 -395 L 0 -395 L 0 -390 L 5 -390 L 5 -395 L 10 -395 L 10 -390 L 15 -390 L 15 -385 L 20 -385 L 20 -380 L 15 -380 L 15 -375 L 10 -375 L 10 -370 L 5 -370 L 5 -375 L 0 -375 L 0 -370 L 5 -370 L 5 -365 L 0 -365 L 0 -360 L 5 -360 L 5 -365 L 10 -365 L 10 -360 L 15 -360 L 15 -365 L 10 -365 L 10 -370 L 15 -370 L 15 -375 L 20 -375 L 20 -380 L 25 -380 L 25 -375 L 30 -375 L 30 -370 L 35 -370 L 35 -365 L 30 -365 L 30 -360 L 35 -360 L 35 -365 L 40 -365 L 40 -360 L 45 -360 L 45 -355 L 50 -355 L 50 -350 L 45 -350 L 45 -345 L 50 -345 L 50 -350 L 55 -350 L 55 -345 L 60 -345 L 60 -340 L 65 -340 L 65 -335 L 60 -335 L 60 -330 L 55 -330 L 55 -325 L 50 -325 L 50 -330 L 45 -330 L 45 -325 L 50 -325 L 50 -320 L 45 -320 L 45 -315 L 40 -315 L 40 -310 L 35 -310 L 35 -315 L 30 -315 L 30 -310 L 35 -310 L 35 -305 L 30 -305 L 30 -300 L 25 -300 L 25 -295 L 20 -295 L 20 -300 L 15 -300 L 15 -305 L 10 -305 L 10 -310 L 15 -310 L 15 -315 L 10 -315 L 10 -310 L 5 -310 L 5 -315 L 0 -315 L 0 -310 L 5 -310 L 5 -305 L 0 -305 L 0 -300 L 5 -300 L 5 -305 L 10 -305 L 10 -300 L 15 -300 L 15 -295 L 20 -295 L 20 -290 L 15 -290 L 15 -285 L 10 -285 L 10 -280 L 5 -280 L 5 -285 L 0 -285 L 0 -280 L 5 -280 L 5 -275 L 0 -275 L 0 -270 L 5 -270 L 5 -275 L 10 -275 L 10 -270 L 15 -270 L 15 -275 L 10 -275 L 10 -280 L 15 -280 L 15 -285 L 20 -285 L 20 -290 L 25 -290 L 25 -285 L 30 -285 L 30 -280 L 35 -280 L 35 -275 L 30 -275 L 30 -270 L 35 -270 L 35 -275 L 40 -275 L 40 -270 L 45 -270 L 45 -275 L 40 -275 L 40 -280 L 45 -280 L 45 -285 L 40 -285 L 40 -280 L 35 -280 L 35 -285 L 30 -285 L 30 -290 L 25 -290 L 25 -295 L 30 -295 L 30 -300 L 35 -300 L 35 -305 L 40 -305 L 40 -300 L 45 -300 L 45 -305 L 40 -305 L 40 -310 L 45 -310 L 45 -315 L 50 -315 L 50 -320 L 55 -320 L 55 -315 L 60 -315 L 60 -320 L 55 -320 L 55 -325 L 60 -325 L 60 -330 L 65 -330 L 65 -335 L 70 -335 L 70 -330 L 75 -330 L 75 -325 L 80 -325 L 80 -320 L 75 -320 L 75 -315 L 80 -315 L 80 -320 L 85 -320 L 85 -315 L 90 -315 L 90 -310 L 95 -310 L 95 -305 L 90 -305 L 90 -300 L 95 -300 L 95 -305 L 100 -305 L 100 -300 L 105 -300 L 105 -295 L 110 -295 L 110 -290 L 105 -290 L 105 -285 L 100 -285 L 100 -280 L 95 -280 L 95 -285 L 90 -285 L 90 -280 L 95 -280 L 95 -275 L 90 -275 L 90 -270 L 95 -270 L 95 -275 L 100 -275 L 100 -270 L 105 -270 L 105 -275 L 100 -275 L 100 -280 L 105 -280 L 105 -285 L 110 -285 L 110 -290 L 115 -290 L 115 -285 L 120 -285 L 120 -280 L 125 -280 L 125 -275 L 120 -275 L 120 -270 L 125 -270 L 125 -275 L 130 -275 L 130 -270 L 135 -270 L 135 -265 L 140 -265 L 140 -260 L 135 -260 L 135 -255 L 140 -255 L 140 -260 L 145 -260 L 145 -255 L 150 -255 L 150 -250 L 155 -250 L 155 -245 L 150 -245 L 150 -240 L 145 -240 L 145 -235 L 140 -235 L 140 -240 L 135 -240 L 135 -235 L 140 -235 L 140 -230 L 135 -230 L 135 -225 L 140 -225 L 140 -230 L 145 -230 L 145 -225 L 150 -225 L 150 -230 L 145 -230 L 145 -235 L 150 -235 L 150 -240 L 155 -240 L 155 -245 L 160 -245 L 160 -240 L 165 -240 L 165 -235 L 170 -235 L 170 -230 L 165 -230 L 165 -225 L 170 -225 L 170 -230 L 175 -230 L 175 -225 L 180 -225 L 180 -220 L 185 -220 L 185 -215 L 180 -215 L 180 -210 L 185 -210 L 185 -215 L 190 -215 L 190 -210 L 195 -210 L 195 -205 L 200 -205 L 200 -200 L 195 -200 L 195 -195 L 190 -195 L 190 -190 L 185 -190 L 185 -195 L 180 -195 L 180 -190 L 185 -190 L 185 -185 L 180 -185 L 180 -180 L 175 -180 L 175 -175 L 170 -175 L 170 -180 L 165 -180 L 165 -175 L 170 -175 L 170 -170 L 165 -170 L 165 -165 L 160 -165 L 160 -160 L 155 -160 L 155 -165 L 150 -165 L 150 -170 L 145 -170 L 145 -175 L 150 -175 L 150 -180 L 145 -180 L 145 -175 L 140 -175 L 140 -180 L 135 -180 L 135 -175 L 140 -175 L 140 -170 L 135 -170 L 135 -165 L 140 -165 L 140 -170 L 145 -170 L 145 -165 L 150 -165 L 150 -160 L 155 -160 L 155 -155 L 150 -155 L 150 -150 L 145 -150 L 145 -145 L 140 -145 L 140 -150 L 135 -150 L 135 -145 L 140 -145 L 140 -140 L 135 -140 L 135 -135 L 130 -135 L 130 -130 L 125 -130 L 125 -135 L 120 -135 L 120 -130 L 125 -130 L 125 -125 L 120 -125 L 120 -120 L 115 -120 L 115 -115 L 110 -115 L 110 -120 L 105 -120 L 105 -125 L 100 -125 L 100 -130 L 105 -130 L 105 -135 L 100 -135 L 100 -130 L 95 -130 L 95 -135 L 90 -135 L 90 -130 L 95 -130 L 95 -125 L 90 -125 L 90 -120 L 95 -120 L 95 -125 L 100 -125 L 100 -120 L 105 -120 L 105 -115 L 110 -115 L 110 -110 L 105 -110 L 105 -105 L 100 -105 L 100 -100 L 95 -100 L 95 -105 L 90 -105 L 90 -100 L 95 -100 L 95 -95 L 90 -95 L 90 -90 L 85 -90 L 85 -85 L 80 -85 L 80 -90 L 75 -90 L 75 -85 L 80 -85 L 80 -80 L 75 -80 L 75 -75 L 70 -75 L 70 -70 L 65 -70 L 65 -75 L 60 -75 L 60 -80 L 55 -80 L 55 -85 L 60 -85 L 60 -90 L 55 -90 L 55 -85 L 50 -85 L 50 -90 L 45 -90 L 45 -95 L 40 -95 L 40 -100 L 45 -100 L 45 -105 L 40 -105 L 40 -100 L 35 -100 L 35 -105 L 30 -105 L 30 -110 L 25 -110 L 25 -115 L 30 -115 L 30 -120 L 35 -120 L 35 -125 L 40 -125 L 40 -120 L 45 -120 L 45 -125 L 40 -125 L 40 -130 L 45 -130 L 45 -135 L 40 -135 L 40 -130 L 35 -130 L 35 -135 L 30 -135 L 30 -130 L 35 -130 L 35 -125 L 30 -125 L 30 -120 L 25 -120 L 25 -115 L 20 -115 L 20 -120 L 15 -120 L 15 -125 L 10 -125 L 10 -130 L 15 -130 L 15 -135 L 10 -135 L 10 -130 L 5 -130 L 5 -135 L 0 -135 L 0 -130 L 5 -130 L 5 -125 L 0 -125 L 0 -120 L 5 -120 L 5 -125 L 10 -125 L 10 -120 L 15 -120 L 15 -115 L 20 -115 L 20 -110 L 15 -110 L 15 -105 L 10 -105 L 10 -100 L 5 -100 L 5 -105 L 0 -105 L 0 -100 L 5 -100 L 5 -95 L 0 -95 L 0 -90 L 5 -90 L 5 -95 L 10 -95 L 10 -90 L 15 -90 L 15 -95 L 10 -95 L 10 -100 L 15 -100 L 15 -105 L 20 -105 L 20 -110 L 25 -110 L 25 -105 L 30 -105 L 30 -100 L 35 -100 L 35 -95 L 30 -95 L 30 -90 L 35 -90 L 35 -95 L 40 -95 L 40 -90 L 45 -90 L 45 -85 L 50 -85 L 50 -80 L 45 -80 L 45 -75 L 50 -75 L 50 -80 L 55 -80 L 55 -75 L 60 -75 L 60 -70 L 65 -70 L 65 -65 L 60 -65 L 60 -60 L 55 -60 L 55 -55 L 50 -55 L 50 -60 L 45 -60 L 45 -55 L 50 -55 L 50 -50 L 45 -50 L 45 -45 L 40 -45 L 40 -40 L 35 -40 L 35 -45 L 30 -45 L 30 -40 L 35 -40 L 35 -35 L 30 -35 L 30 -30 L 25 -30 L 25 -25 L 20 -25 L 20 -30 L 15 -30 L 15 -35 L 10 -35 L 10 -40 L 15 -40 L 15 -45 L 10 -45 L 10 -40 L 5 -40 L 5 -45 L 0 -45 L 0 -40 L 5 -40 L 5 -35 L 0 -35 L 0 -30 L 5 -30 L 5 -35 L 10 -35 L 10 -30 L 15 -30 L 15 -25 L 20 -25 L 20 -20 L 15 -20 L 15 -15 L 10 -15 L 10 -10 L 5 -10 L 5 -15 L 0 -15 L 0 -10 L 5 -10 L 5 -5 L 0 -5 L 0 0 "/>
</g>
</defs>
<g id="surface6623">
<use xlink:href="#surface6626" transform="matrix(1,0,0,1,1,406)"/>
</g>
</svg>
