<?xml version="1.0" encoding="UTF-8"?>
<svg xmlns="http://www.w3.org/2000/svg" xmlns:xlink="http://www.w3.org/1999/xlink" width="488pt" height="488pt" viewBox="0 0 488 488" version="1.1">
<defs>
<g id="surface1323" clip-path="url(#clip1)">
<rect x="0" y="0" width="16777215" height="16777215" style="fill:rgb(100%,100%,100%);fill-opacity:1;stroke:none;"/>
<path style="fill:none;stroke-width:2;stroke-linecap:butt;stroke-linejoin:miter;stroke:rgb(0%,0%,0%);stroke-opacity:1;stroke-miterlimit:10;" d="M 6 0 L 12 0 L 12 6 L 12 0 L 30 0 L 30 6 L 30 0 L 36 0 L 36 12 L 30 12 L 36 12 L 36 18 L 36 6 L 42 6 L 36 6 L 36 0 L 48 0 L 48 6 L 48 0 L 66 0 L 66 6 L 66 0 L 84 0 L 84 6 L 84 0 L 90 0 L 90 12 L 84 12 L 90 12 L 90 18 L 90 6 L 96 6 L 90 6 L 90 0 L 102 0 L 102 6 L 102 0 L 108 0 L 108 12 L 102 12 L 108 12 L 108 30 L 102 30 L 108 30 L 108 36 L 96 36 L 96 30 L 96 36 L 90 36 L 102 36 L 102 42 L 102 36 L 108 36 L 108 48 L 102 48 L 108 48 L 108 54 L 108 42 L 114 42 L 108 42 L 108 24 L 114 24 L 108 24 L 108 18 L 120 18 L 120 24 L 120 18 L 126 18 L 114 18 L 114 12 L 114 18 L 108 18 L 108 6 L 114 6 L 108 6 L 108 0 L 120 0 L 120 6 L 120 0 L 138 0 L 138 6 L 138 0 L 144 0 L 144 12 L 138 12 L 144 12 L 144 18 L 144 6 L 150 6 L 144 6 L 144 0 L 156 0 L 156 6 L 156 0 L 174 0 L 174 6 L 174 0 L 192 0 L 192 6 L 192 0 L 198 0 L 198 12 L 192 12 L 198 12 L 198 18 L 198 6 L 204 6 L 198 6 L 198 0 L 210 0 L 210 6 L 210 0 L 228 0 L 228 6 L 228 0 L 246 0 L 246 6 L 246 0 L 252 0 L 252 12 L 246 12 L 252 12 L 252 18 L 252 6 L 258 6 L 252 6 L 252 0 L 264 0 L 264 6 L 264 0 L 270 0 L 270 12 L 264 12 L 270 12 L 270 30 L 264 30 L 270 30 L 270 36 L 258 36 L 258 30 L 258 36 L 252 36 L 264 36 L 264 42 L 264 36 L 270 36 L 270 48 L 264 48 L 270 48 L 270 54 L 270 42 L 276 42 L 270 42 L 270 24 L 276 24 L 270 24 L 270 18 L 282 18 L 282 24 L 282 18 L 288 18 L 276 18 L 276 12 L 276 18 L 270 18 L 270 6 L 276 6 L 270 6 L 270 0 L 282 0 L 282 6 L 282 0 L 300 0 L 300 6 L 300 0 L 306 0 L 306 12 L 300 12 L 306 12 L 306 18 L 306 6 L 312 6 L 306 6 L 306 0 L 318 0 L 318 6 L 318 0 L 324 0 L 324 12 L 318 12 L 324 12 L 324 30 L 318 30 L 324 30 L 324 36 L 312 36 L 312 30 L 312 36 L 306 36 L 318 36 L 318 42 L 318 36 L 324 36 L 324 48 L 318 48 L 324 48 L 324 66 L 318 66 L 324 66 L 324 84 L 318 84 L 324 84 L 324 90 L 312 90 L 312 84 L 312 90 L 306 90 L 318 90 L 318 96 L 318 90 L 324 90 L 324 102 L 318 102 L 324 102 L 324 108 L 312 108 L 312 102 L 312 108 L 294 108 L 294 102 L 294 108 L 288 108 L 288 96 L 294 96 L 288 96 L 288 90 L 288 102 L 282 102 L 288 102 L 288 108 L 276 108 L 276 102 L 276 108 L 270 108 L 282 108 L 282 114 L 282 108 L 300 108 L 300 114 L 300 108 L 306 108 L 306 120 L 300 120 L 306 120 L 306 126 L 306 114 L 312 114 L 306 114 L 306 108 L 318 108 L 318 114 L 318 108 L 324 108 L 324 120 L 318 120 L 324 120 L 324 138 L 318 138 L 324 138 L 324 144 L 312 144 L 312 138 L 312 144 L 306 144 L 318 144 L 318 150 L 318 144 L 324 144 L 324 156 L 318 156 L 324 156 L 324 162 L 324 150 L 330 150 L 324 150 L 324 132 L 330 132 L 324 132 L 324 126 L 336 126 L 336 132 L 336 126 L 342 126 L 330 126 L 330 120 L 330 126 L 324 126 L 324 114 L 330 114 L 324 114 L 324 96 L 330 96 L 324 96 L 324 78 L 330 78 L 324 78 L 324 72 L 336 72 L 336 78 L 336 72 L 342 72 L 330 72 L 330 66 L 330 72 L 324 72 L 324 60 L 330 60 L 324 60 L 324 54 L 336 54 L 336 60 L 336 54 L 354 54 L 354 60 L 354 54 L 360 54 L 360 66 L 354 66 L 360 66 L 360 72 L 360 60 L 366 60 L 360 60 L 360 54 L 372 54 L 372 60 L 372 54 L 378 54 L 366 54 L 366 48 L 366 54 L 348 54 L 348 48 L 348 54 L 342 54 L 342 42 L 348 42 L 342 42 L 342 36 L 342 48 L 336 48 L 342 48 L 342 54 L 330 54 L 330 48 L 330 54 L 324 54 L 324 42 L 330 42 L 324 42 L 324 24 L 330 24 L 324 24 L 324 18 L 336 18 L 336 24 L 336 18 L 342 18 L 330 18 L 330 12 L 330 18 L 324 18 L 324 6 L 330 6 L 324 6 L 324 0 L 336 0 L 336 6 L 336 0 L 354 0 L 354 6 L 354 0 L 360 0 L 360 12 L 354 12 L 360 12 L 360 18 L 360 6 L 366 6 L 360 6 L 360 0 L 372 0 L 372 6 L 372 0 L 390 0 L 390 6 L 390 0 L 408 0 L 408 6 L 408 0 L 414 0 L 414 12 L 408 12 L 414 12 L 414 18 L 414 6 L 420 6 L 414 6 L 414 0 L 426 0 L 426 6 L 426 0 L 432 0 L 432 12 L 426 12 L 432 12 L 432 30 L 426 30 L 432 30 L 432 36 L 420 36 L 420 30 L 420 36 L 414 36 L 426 36 L 426 42 L 426 36 L 432 36 L 432 48 L 426 48 L 432 48 L 432 54 L 432 42 L 438 42 L 432 42 L 432 24 L 438 24 L 432 24 L 432 18 L 444 18 L 444 24 L 444 18 L 450 18 L 438 18 L 438 12 L 438 18 L 432 18 L 432 6 L 438 6 L 432 6 L 432 0 L 444 0 L 444 6 L 444 0 L 462 0 L 462 6 L 462 0 L 468 0 L 468 12 L 462 12 L 468 12 L 468 18 L 468 6 L 474 6 L 468 6 L 468 0 L 480 0 L 480 6 L 480 0 L 486 0 L 486 12 L 480 12 L 486 12 L 486 30 L 480 30 L 486 30 L 486 36 L 474 36 L 474 30 L 474 36 L 468 36 L 480 36 L 480 42 L 480 36 L 486 36 L 486 48 L 480 48 L 486 48 L 486 66 L 480 66 L 486 66 L 486 84 L 480 84 L 486 84 L 486 90 L 474 90 L 474 84 L 474 90 L 468 90 L 480 90 L 480 96 L 480 90 L 486 90 L 486 102 L 480 102 L 486 102 L 486 108 L 474 108 L 474 102 L 474 108 L 456 108 L 456 102 L 456 108 L 450 108 L 450 96 L 456 96 L 450 96 L 450 90 L 450 102 L 444 102 L 450 102 L 450 108 L 438 108 L 438 102 L 438 108 L 432 108 L 444 108 L 444 114 L 444 108 L 462 108 L 462 114 L 462 108 L 468 108 L 468 120 L 462 120 L 468 120 L 468 126 L 468 114 L 474 114 L 468 114 L 468 108 L 480 108 L 480 114 L 480 108 L 486 108 L 486 120 L 480 120 L 486 120 L 486 138 L 480 138 L 486 138 L 486 144 L 474 144 L 474 138 L 474 144 L 468 144 L 480 144 L 480 150 L 480 144 L 486 144 L 486 156 L 480 156 L 486 156 L 486 174 L 480 174 L 486 174 L 486 192 L 480 192 L 486 192 L 486 198 L 474 198 L 474 192 L 474 198 L 468 198 L 480 198 L 480 204 L 480 198 L 486 198 L 486 210 L 480 210 L 486 210 L 486 228 L 480 228 L 486 228 L 486 246 L 480 246 L 486 246 L 486 252 L 474 252 L 474 246 L 474 252 L 468 252 L 480 252 L 480 258 L 480 252 L 486 252 L 486 264 L 480 264 L 486 264 L 486 270 L 474 270 L 474 264 L 474 270 L 456 270 L 456 264 L 456 270 L 450 270 L 450 258 L 456 258 L 450 258 L 450 252 L 450 264 L 444 264 L 450 264 L 450 270 L 438 270 L 438 264 L 438 270 L 432 270 L 444 270 L 444 276 L 444 270 L 462 270 L 462 276 L 462 270 L 468 270 L 468 282 L 462 282 L 468 282 L 468 288 L 468 276 L 474 276 L 468 276 L 468 270 L 480 270 L 480 276 L 480 270 L 486 270 L 486 282 L 480 282 L 486 282 L 486 300 L 480 300 L 486 300 L 486 306 L 474 306 L 474 300 L 474 306 L 468 306 L 480 306 L 480 312 L 480 306 L 486 306 L 486 318 L 480 318 L 486 318 L 486 324 L 474 324 L 474 318 L 474 324 L 456 324 L 456 318 L 456 324 L 450 324 L 450 312 L 456 312 L 450 312 L 450 306 L 450 318 L 444 318 L 450 318 L 450 324 L 438 324 L 438 318 L 438 324 L 420 324 L 420 318 L 420 324 L 402 324 L 402 318 L 402 324 L 396 324 L 396 312 L 402 312 L 396 312 L 396 306 L 396 318 L 390 318 L 396 318 L 396 324 L 384 324 L 384 318 L 384 324 L 378 324 L 378 312 L 384 312 L 378 312 L 378 294 L 384 294 L 378 294 L 378 288 L 390 288 L 390 294 L 390 288 L 396 288 L 384 288 L 384 282 L 384 288 L 378 288 L 378 276 L 384 276 L 378 276 L 378 270 L 378 282 L 372 282 L 378 282 L 378 300 L 372 300 L 378 300 L 378 306 L 366 306 L 366 300 L 366 306 L 360 306 L 372 306 L 372 312 L 372 306 L 378 306 L 378 318 L 372 318 L 378 318 L 378 324 L 366 324 L 366 318 L 366 324 L 348 324 L 348 318 L 348 324 L 342 324 L 342 312 L 348 312 L 342 312 L 342 306 L 342 318 L 336 318 L 342 318 L 342 324 L 330 324 L 330 318 L 330 324 L 324 324 L 336 324 L 336 330 L 336 324 L 354 324 L 354 330 L 354 324 L 360 324 L 360 336 L 354 336 L 360 336 L 360 342 L 360 330 L 366 330 L 360 330 L 360 324 L 372 324 L 372 330 L 372 324 L 390 324 L 390 330 L 390 324 L 408 324 L 408 330 L 408 324 L 414 324 L 414 336 L 408 336 L 414 336 L 414 342 L 414 330 L 420 330 L 414 330 L 414 324 L 426 324 L 426 330 L 426 324 L 432 324 L 432 336 L 426 336 L 432 336 L 432 354 L 426 354 L 432 354 L 432 360 L 420 360 L 420 354 L 420 360 L 414 360 L 426 360 L 426 366 L 426 360 L 432 360 L 432 372 L 426 372 L 432 372 L 432 378 L 432 366 L 438 366 L 432 366 L 432 348 L 438 348 L 432 348 L 432 342 L 444 342 L 444 348 L 444 342 L 450 342 L 438 342 L 438 336 L 438 342 L 432 342 L 432 330 L 438 330 L 432 330 L 432 324 L 444 324 L 444 330 L 444 324 L 462 324 L 462 330 L 462 324 L 468 324 L 468 336 L 462 336 L 468 336 L 468 342 L 468 330 L 474 330 L 468 330 L 468 324 L 480 324 L 480 330 L 480 324 L 486 324 L 486 336 L 480 336 L 486 336 L 486 354 L 480 354 L 486 354 L 486 360 L 474 360 L 474 354 L 474 360 L 468 360 L 480 360 L 480 366 L 480 360 L 486 360 L 486 372 L 480 372 L 486 372 L 486 390 L 480 390 L 486 390 L 486 408 L 480 408 L 486 408 L 486 414 L 474 414 L 474 408 L 474 414 L 468 414 L 480 414 L 480 420 L 480 414 L 486 414 L 486 426 L 480 426 L 486 426 L 486 432 L 474 432 L 474 426 L 474 432 L 456 432 L 456 426 L 456 432 L 450 432 L 450 420 L 456 420 L 450 420 L 450 414 L 450 426 L 444 426 L 450 426 L 450 432 L 438 432 L 438 426 L 438 432 L 432 432 L 444 432 L 444 438 L 444 432 L 462 432 L 462 438 L 462 432 L 468 432 L 468 444 L 462 444 L 468 444 L 468 450 L 468 438 L 474 438 L 468 438 L 468 432 L 480 432 L 480 438 L 480 432 L 486 432 L 486 444 L 480 444 L 486 444 L 486 462 L 480 462 L 486 462 L 486 468 L 474 468 L 474 462 L 474 468 L 468 468 L 480 468 L 480 474 L 480 468 L 486 468 L 486 480 L 480 480 L 486 480 L 486 486 L 474 486 L 474 480 L 474 486 L 456 486 L 456 480 L 456 486 L 450 486 L 450 474 L 456 474 L 450 474 L 450 468 L 450 480 L 444 480 L 450 480 L 450 486 L 438 486 L 438 480 L 438 486 L 420 486 L 420 480 L 420 486 L 402 486 L 402 480 L 402 486 L 396 486 L 396 474 L 402 474 L 396 474 L 396 468 L 396 480 L 390 480 L 396 480 L 396 486 L 384 486 L 384 480 L 384 486 L 378 486 L 378 474 L 384 474 L 378 474 L 378 456 L 384 456 L 378 456 L 378 450 L 390 450 L 390 456 L 390 450 L 396 450 L 384 450 L 384 444 L 384 450 L 378 450 L 378 438 L 384 438 L 378 438 L 378 432 L 378 444 L 372 444 L 378 444 L 378 462 L 372 462 L 378 462 L 378 468 L 366 468 L 366 462 L 366 468 L 360 468 L 372 468 L 372 474 L 372 468 L 378 468 L 378 480 L 372 480 L 378 480 L 378 486 L 366 486 L 366 480 L 366 486 L 348 486 L 348 480 L 348 486 L 342 486 L 342 474 L 348 474 L 342 474 L 342 468 L 342 480 L 336 480 L 342 480 L 342 486 L 330 486 L 330 480 L 330 486 L 312 486 L 312 480 L 312 486 L 294 486 L 294 480 L 294 486 L 288 486 L 288 474 L 294 474 L 288 474 L 288 468 L 288 480 L 282 480 L 288 480 L 288 486 L 276 486 L 276 480 L 276 486 L 258 486 L 258 480 L 258 486 L 240 486 L 240 480 L 240 486 L 234 486 L 234 474 L 240 474 L 234 474 L 234 468 L 234 480 L 228 480 L 234 480 L 234 486 L 222 486 L 222 480 L 222 486 L 216 486 L 216 474 L 222 474 L 216 474 L 216 456 L 222 456 L 216 456 L 216 450 L 228 450 L 228 456 L 228 450 L 234 450 L 222 450 L 222 444 L 222 450 L 216 450 L 216 438 L 222 438 L 216 438 L 216 432 L 216 444 L 210 444 L 216 444 L 216 462 L 210 462 L 216 462 L 216 468 L 204 468 L 204 462 L 204 468 L 198 468 L 210 468 L 210 474 L 210 468 L 216 468 L 216 480 L 210 480 L 216 480 L 216 486 L 204 486 L 204 480 L 204 486 L 186 486 L 186 480 L 186 486 L 180 486 L 180 474 L 186 474 L 180 474 L 180 468 L 180 480 L 174 480 L 180 480 L 180 486 L 168 486 L 168 480 L 168 486 L 162 486 L 162 474 L 168 474 L 162 474 L 162 456 L 168 456 L 162 456 L 162 450 L 174 450 L 174 456 L 174 450 L 180 450 L 168 450 L 168 444 L 168 450 L 162 450 L 162 438 L 168 438 L 162 438 L 162 420 L 168 420 L 162 420 L 162 402 L 168 402 L 162 402 L 162 396 L 174 396 L 174 402 L 174 396 L 180 396 L 168 396 L 168 390 L 168 396 L 162 396 L 162 384 L 168 384 L 162 384 L 162 378 L 174 378 L 174 384 L 174 378 L 192 378 L 192 384 L 192 378 L 198 378 L 198 390 L 192 390 L 198 390 L 198 396 L 198 384 L 204 384 L 198 384 L 198 378 L 210 378 L 210 384 L 210 378 L 216 378 L 204 378 L 204 372 L 204 378 L 186 378 L 186 372 L 186 378 L 180 378 L 180 366 L 186 366 L 180 366 L 180 360 L 180 372 L 174 372 L 180 372 L 180 378 L 168 378 L 168 372 L 168 378 L 162 378 L 162 366 L 168 366 L 162 366 L 162 348 L 168 348 L 162 348 L 162 342 L 174 342 L 174 348 L 174 342 L 180 342 L 168 342 L 168 336 L 168 342 L 162 342 L 162 330 L 168 330 L 162 330 L 162 324 L 162 336 L 156 336 L 162 336 L 162 354 L 156 354 L 162 354 L 162 360 L 150 360 L 150 354 L 150 360 L 144 360 L 156 360 L 156 366 L 156 360 L 162 360 L 162 372 L 156 372 L 162 372 L 162 390 L 156 390 L 162 390 L 162 408 L 156 408 L 162 408 L 162 414 L 150 414 L 150 408 L 150 414 L 144 414 L 156 414 L 156 420 L 156 414 L 162 414 L 162 426 L 156 426 L 162 426 L 162 432 L 150 432 L 150 426 L 150 432 L 132 432 L 132 426 L 132 432 L 126 432 L 126 420 L 132 420 L 126 420 L 126 414 L 126 426 L 120 426 L 126 426 L 126 432 L 114 432 L 114 426 L 114 432 L 108 432 L 120 432 L 120 438 L 120 432 L 138 432 L 138 438 L 138 432 L 144 432 L 144 444 L 138 444 L 144 444 L 144 450 L 144 438 L 150 438 L 144 438 L 144 432 L 156 432 L 156 438 L 156 432 L 162 432 L 162 444 L 156 444 L 162 444 L 162 462 L 156 462 L 162 462 L 162 468 L 150 468 L 150 462 L 150 468 L 144 468 L 156 468 L 156 474 L 156 468 L 162 468 L 162 480 L 156 480 L 162 480 L 162 486 L 150 486 L 150 480 L 150 486 L 132 486 L 132 480 L 132 486 L 126 486 L 126 474 L 132 474 L 126 474 L 126 468 L 126 480 L 120 480 L 126 480 L 126 486 L 114 486 L 114 480 L 114 486 L 96 486 L 96 480 L 96 486 L 78 486 L 78 480 L 78 486 L 72 486 L 72 474 L 78 474 L 72 474 L 72 468 L 72 480 L 66 480 L 72 480 L 72 486 L 60 486 L 60 480 L 60 486 L 54 486 L 54 474 L 60 474 L 54 474 L 54 456 L 60 456 L 54 456 L 54 450 L 66 450 L 66 456 L 66 450 L 72 450 L 60 450 L 60 444 L 60 450 L 54 450 L 54 438 L 60 438 L 54 438 L 54 432 L 54 444 L 48 444 L 54 444 L 54 462 L 48 462 L 54 462 L 54 468 L 42 468 L 42 462 L 42 468 L 36 468 L 48 468 L 48 474 L 48 468 L 54 468 L 54 480 L 48 480 L 54 480 L 54 486 L 42 486 L 42 480 L 42 486 L 24 486 L 24 480 L 24 486 L 18 486 L 18 474 L 24 474 L 18 474 L 18 468 L 18 480 L 12 480 L 18 480 L 18 486 L 6 486 L 6 480 L 6 486 L 0 486 L 0 474 L 6 474 L 0 474 L 0 456 L 6 456 L 0 456 L 0 450 L 12 450 L 12 456 L 12 450 L 18 450 L 6 450 L 6 444 L 6 450 L 0 450 L 0 438 L 6 438 L 0 438 L 0 420 L 6 420 L 0 420 L 0 402 L 6 402 L 0 402 L 0 396 L 12 396 L 12 402 L 12 396 L 18 396 L 6 396 L 6 390 L 6 396 L 0 396 L 0 384 L 6 384 L 0 384 L 0 378 L 12 378 L 12 384 L 12 378 L 30 378 L 30 384 L 30 378 L 36 378 L 36 390 L 30 390 L 36 390 L 36 396 L 36 384 L 42 384 L 36 384 L 36 378 L 48 378 L 48 384 L 48 378 L 54 378 L 42 378 L 42 372 L 42 378 L 24 378 L 24 372 L 24 378 L 18 378 L 18 366 L 24 366 L 18 366 L 18 360 L 18 372 L 12 372 L 18 372 L 18 378 L 6 378 L 6 372 L 6 378 L 0 378 L 0 366 L 6 366 L 0 366 L 0 348 L 6 348 L 0 348 L 0 342 L 12 342 L 12 348 L 12 342 L 18 342 L 6 342 L 6 336 L 6 342 L 0 342 L 0 330 L 6 330 L 0 330 L 0 312 L 6 312 L 0 312 L 0 294 L 6 294 L 0 294 L 0 288 L 12 288 L 12 294 L 12 288 L 18 288 L 6 288 L 6 282 L 6 288 L 0 288 L 0 276 L 6 276 L 0 276 L 0 258 L 6 258 L 0 258 L 0 240 L 6 240 L 0 240 L 0 234 L 12 234 L 12 240 L 12 234 L 18 234 L 6 234 L 6 228 L 6 234 L 0 234 L 0 222 L 6 222 L 0 222 L 0 216 L 12 216 L 12 222 L 12 216 L 30 216 L 30 222 L 30 216 L 36 216 L 36 228 L 30 228 L 36 228 L 36 234 L 36 222 L 42 222 L 36 222 L 36 216 L 48 216 L 48 222 L 48 216 L 54 216 L 42 216 L 42 210 L 42 216 L 24 216 L 24 210 L 24 216 L 18 216 L 18 204 L 24 204 L 18 204 L 18 198 L 18 210 L 12 210 L 18 210 L 18 216 L 6 216 L 6 210 L 6 216 L 0 216 L 0 204 L 6 204 L 0 204 L 0 186 L 6 186 L 0 186 L 0 180 L 12 180 L 12 186 L 12 180 L 18 180 L 6 180 L 6 174 L 6 180 L 0 180 L 0 168 L 6 168 L 0 168 L 0 162 L 12 162 L 12 168 L 12 162 L 30 162 L 30 168 L 30 162 L 36 162 L 36 174 L 30 174 L 36 174 L 36 180 L 36 168 L 42 168 L 36 168 L 36 162 L 48 162 L 48 168 L 48 162 L 66 162 L 66 168 L 66 162 L 84 162 L 84 168 L 84 162 L 90 162 L 90 174 L 84 174 L 90 174 L 90 180 L 90 168 L 96 168 L 90 168 L 90 162 L 102 162 L 102 168 L 102 162 L 108 162 L 108 174 L 102 174 L 108 174 L 108 192 L 102 192 L 108 192 L 108 198 L 96 198 L 96 192 L 96 198 L 90 198 L 102 198 L 102 204 L 102 198 L 108 198 L 108 210 L 102 210 L 108 210 L 108 216 L 108 204 L 114 204 L 108 204 L 108 186 L 114 186 L 108 186 L 108 180 L 120 180 L 120 186 L 120 180 L 126 180 L 114 180 L 114 174 L 114 180 L 108 180 L 108 168 L 114 168 L 108 168 L 108 162 L 120 162 L 120 168 L 120 162 L 138 162 L 138 168 L 138 162 L 144 162 L 144 174 L 138 174 L 144 174 L 144 180 L 144 168 L 150 168 L 144 168 L 144 162 L 156 162 L 156 168 L 156 162 L 162 162 L 150 162 L 150 156 L 150 162 L 132 162 L 132 156 L 132 162 L 126 162 L 126 150 L 132 150 L 126 150 L 126 144 L 126 156 L 120 156 L 126 156 L 126 162 L 114 162 L 114 156 L 114 162 L 96 162 L 96 156 L 96 162 L 78 162 L 78 156 L 78 162 L 72 162 L 72 150 L 78 150 L 72 150 L 72 144 L 72 156 L 66 156 L 72 156 L 72 162 L 60 162 L 60 156 L 60 162 L 54 162 L 54 150 L 60 150 L 54 150 L 54 132 L 60 132 L 54 132 L 54 126 L 66 126 L 66 132 L 66 126 L 72 126 L 60 126 L 60 120 L 60 126 L 54 126 L 54 114 L 60 114 L 54 114 L 54 108 L 54 120 L 48 120 L 54 120 L 54 138 L 48 138 L 54 138 L 54 144 L 42 144 L 42 138 L 42 144 L 36 144 L 48 144 L 48 150 L 48 144 L 54 144 L 54 156 L 48 156 L 54 156 L 54 162 L 42 162 L 42 156 L 42 162 L 24 162 L 24 156 L 24 162 L 18 162 L 18 150 L 24 150 L 18 150 L 18 144 L 18 156 L 12 156 L 18 156 L 18 162 L 6 162 L 6 156 L 6 162 L 0 162 L 0 150 L 6 150 L 0 150 L 0 132 L 6 132 L 0 132 L 0 126 L 12 126 L 12 132 L 12 126 L 18 126 L 6 126 L 6 120 L 6 126 L 0 126 L 0 114 L 6 114 L 0 114 L 0 96 L 6 96 L 0 96 L 0 78 L 6 78 L 0 78 L 0 72 L 12 72 L 12 78 L 12 72 L 18 72 L 6 72 L 6 66 L 6 72 L 0 72 L 0 60 L 6 60 L 0 60 L 0 54 L 12 54 L 12 60 L 12 54 L 30 54 L 30 60 L 30 54 L 36 54 L 36 66 L 30 66 L 36 66 L 36 72 L 36 60 L 42 60 L 36 60 L 36 54 L 48 54 L 48 60 L 48 54 L 54 54 L 42 54 L 42 48 L 42 54 L 24 54 L 24 48 L 24 54 L 18 54 L 18 42 L 24 42 L 18 42 L 18 36 L 18 48 L 12 48 L 18 48 L 18 54 L 6 54 L 6 48 L 6 54 L 0 54 L 0 42 L 6 42 L 0 42 L 0 24 L 6 24 L 0 24 L 0 18 L 12 18 L 12 24 L 12 18 L 18 18 L 6 18 L 6 12 L 6 18 L 0 18 L 0 6 L 6 6 L 0 6 L 0 0 Z M 6 0 "/>
</g>
</defs>
<g id="surface1320">
<use xlink:href="#surface1323" transform="matrix(1,0,0,1,1,1)"/>
</g>
</svg>
