<?xml version="1.0" encoding="UTF-8"?>
<svg xmlns="http://www.w3.org/2000/svg" xmlns:xlink="http://www.w3.org/1999/xlink" width="1486pt" height="1780pt" viewBox="0 0 1486 1780" version="1.1">
<defs>
<g id="surface2093" clip-path="url(#clip1)">
<rect x="0" y="0" width="16777215" height="16777215" style="fill:rgb(100%,100%,100%);fill-opacity:1;stroke:none;"/>
<path style="fill:none;stroke-width:2;stroke-linecap:butt;stroke-linejoin:miter;stroke:rgb(0%,0%,0%);stroke-opacity:1;stroke-miterlimit:10;" d="M 7 0 L 7 14 L -7 14 L -7 28 L -21 28 L -21 14 L -35 14 L -35 28 L -49 28 L -49 14 L -35 14 L -35 0 L -49 0 L -49 -14 L -63 -14 L -63 0 L -77 0 L -77 -14 L -63 -14 L -63 -28 L -49 -28 L -49 -14 L -35 -14 L -35 -28 L -49 -28 L -49 -42 L -35 -42 L -35 -56 L -49 -56 L -49 -70 L -63 -70 L -63 -56 L -77 -56 L -77 -70 L -63 -70 L -63 -84 L -49 -84 L -49 -70 L -35 -70 L -35 -84 L -21 -84 L -21 -70 L -35 -70 L -35 -56 L -21 -56 L -21 -42 L -7 -42 L -7 -56 L -21 -56 L -21 -70 L -7 -70 L -7 -84 L 7 -84 L 7 -70 L 21 -70 L 21 -84 L 7 -84 L 7 -98 L 21 -98 L 21 -112 L 7 -112 L 7 -126 L -7 -126 L -7 -112 L -21 -112 L -21 -126 L -7 -126 L -7 -140 L 7 -140 L 7 -126 L 21 -126 L 21 -140 L 35 -140 L 35 -126 L 21 -126 L 21 -112 L 35 -112 L 35 -98 L 49 -98 L 49 -112 L 63 -112 L 63 -98 L 49 -98 L 49 -84 L 35 -84 L 35 -98 L 21 -98 L 21 -84 L 35 -84 L 35 -70 L 21 -70 L 21 -56 L 35 -56 L 35 -42 L 49 -42 L 49 -56 L 35 -56 L 35 -70 L 49 -70 L 49 -84 L 63 -84 L 63 -70 L 77 -70 L 77 -84 L 91 -84 L 91 -70 L 77 -70 L 77 -56 L 91 -56 L 91 -42 L 105 -42 L 105 -56 L 91 -56 L 91 -70 L 105 -70 L 105 -84 L 119 -84 L 119 -70 L 133 -70 L 133 -84 L 119 -84 L 119 -98 L 133 -98 L 133 -112 L 119 -112 L 119 -126 L 105 -126 L 105 -112 L 91 -112 L 91 -126 L 105 -126 L 105 -140 L 119 -140 L 119 -126 L 133 -126 L 133 -140 L 147 -140 L 147 -126 L 133 -126 L 133 -112 L 147 -112 L 147 -98 L 161 -98 L 161 -112 L 175 -112 L 175 -98 L 161 -98 L 161 -84 L 147 -84 L 147 -98 L 133 -98 L 133 -84 L 147 -84 L 147 -70 L 133 -70 L 133 -56 L 147 -56 L 147 -42 L 161 -42 L 161 -56 L 175 -56 L 175 -42 L 161 -42 L 161 -28 L 147 -28 L 147 -42 L 133 -42 L 133 -28 L 119 -28 L 119 -42 L 133 -42 L 133 -56 L 119 -56 L 119 -70 L 105 -70 L 105 -56 L 119 -56 L 119 -42 L 105 -42 L 105 -28 L 91 -28 L 91 -42 L 77 -42 L 77 -28 L 91 -28 L 91 -14 L 77 -14 L 77 0 L 91 0 L 91 14 L 105 14 L 105 0 L 91 0 L 91 -14 L 105 -14 L 105 -28 L 119 -28 L 119 -14 L 133 -14 L 133 -28 L 147 -28 L 147 -14 L 133 -14 L 133 0 L 147 0 L 147 14 L 161 14 L 161 0 L 175 0 L 175 14 L 161 14 L 161 28 L 147 28 L 147 14 L 133 14 L 133 28 L 147 28 L 147 42 L 133 42 L 133 56 L 147 56 L 147 70 L 161 70 L 161 56 L 147 56 L 147 42 L 161 42 L 161 28 L 175 28 L 175 42 L 189 42 L 189 28 L 203 28 L 203 42 L 189 42 L 189 56 L 203 56 L 203 70 L 217 70 L 217 56 L 203 56 L 203 42 L 217 42 L 217 28 L 231 28 L 231 42 L 245 42 L 245 28 L 231 28 L 231 14 L 245 14 L 245 0 L 231 0 L 231 -14 L 217 -14 L 217 0 L 203 0 L 203 -14 L 217 -14 L 217 -28 L 231 -28 L 231 -14 L 245 -14 L 245 -28 L 259 -28 L 259 -14 L 245 -14 L 245 0 L 259 0 L 259 14 L 273 14 L 273 0 L 287 0 L 287 14 L 273 14 L 273 28 L 259 28 L 259 14 L 245 14 L 245 28 L 259 28 L 259 42 L 245 42 L 245 56 L 259 56 L 259 70 L 273 70 L 273 56 L 287 56 L 287 70 L 273 70 L 273 84 L 259 84 L 259 70 L 245 70 L 245 84 L 231 84 L 231 70 L 245 70 L 245 56 L 231 56 L 231 42 L 217 42 L 217 56 L 231 56 L 231 70 L 217 70 L 217 84 L 203 84 L 203 70 L 189 70 L 189 84 L 203 84 L 203 98 L 189 98 L 189 112 L 203 112 L 203 126 L 217 126 L 217 112 L 231 112 L 231 126 L 217 126 L 217 140 L 203 140 L 203 126 L 189 126 L 189 140 L 175 140 L 175 126 L 189 126 L 189 112 L 175 112 L 175 98 L 161 98 L 161 112 L 147 112 L 147 98 L 161 98 L 161 84 L 175 84 L 175 98 L 189 98 L 189 84 L 175 84 L 175 70 L 189 70 L 189 56 L 175 56 L 175 42 L 161 42 L 161 56 L 175 56 L 175 70 L 161 70 L 161 84 L 147 84 L 147 70 L 133 70 L 133 84 L 119 84 L 119 70 L 133 70 L 133 56 L 119 56 L 119 42 L 105 42 L 105 56 L 119 56 L 119 70 L 105 70 L 105 84 L 91 84 L 91 70 L 77 70 L 77 84 L 91 84 L 91 98 L 77 98 L 77 112 L 91 112 L 91 126 L 105 126 L 105 112 L 91 112 L 91 98 L 105 98 L 105 84 L 119 84 L 119 98 L 133 98 L 133 84 L 147 84 L 147 98 L 133 98 L 133 112 L 147 112 L 147 126 L 161 126 L 161 112 L 175 112 L 175 126 L 161 126 L 161 140 L 147 140 L 147 126 L 133 126 L 133 140 L 147 140 L 147 154 L 133 154 L 133 168 L 147 168 L 147 182 L 161 182 L 161 168 L 175 168 L 175 182 L 161 182 L 161 196 L 147 196 L 147 182 L 133 182 L 133 196 L 119 196 L 119 182 L 133 182 L 133 168 L 119 168 L 119 154 L 105 154 L 105 168 L 119 168 L 119 182 L 105 182 L 105 196 L 91 196 L 91 182 L 77 182 L 77 196 L 91 196 L 91 210 L 77 210 L 77 224 L 91 224 L 91 238 L 105 238 L 105 224 L 91 224 L 91 210 L 105 210 L 105 196 L 119 196 L 119 210 L 133 210 L 133 196 L 147 196 L 147 210 L 133 210 L 133 224 L 147 224 L 147 238 L 161 238 L 161 224 L 175 224 L 175 238 L 161 238 L 161 252 L 147 252 L 147 238 L 133 238 L 133 252 L 147 252 L 147 266 L 133 266 L 133 280 L 147 280 L 147 294 L 161 294 L 161 280 L 147 280 L 147 266 L 161 266 L 161 252 L 175 252 L 175 266 L 189 266 L 189 252 L 203 252 L 203 266 L 189 266 L 189 280 L 203 280 L 203 294 L 217 294 L 217 280 L 203 280 L 203 266 L 217 266 L 217 252 L 231 252 L 231 266 L 245 266 L 245 252 L 231 252 L 231 238 L 245 238 L 245 224 L 231 224 L 231 210 L 217 210 L 217 224 L 203 224 L 203 210 L 217 210 L 217 196 L 231 196 L 231 210 L 245 210 L 245 196 L 259 196 L 259 210 L 245 210 L 245 224 L 259 224 L 259 238 L 273 238 L 273 224 L 287 224 L 287 238 L 273 238 L 273 252 L 259 252 L 259 238 L 245 238 L 245 252 L 259 252 L 259 266 L 245 266 L 245 280 L 259 280 L 259 294 L 273 294 L 273 280 L 287 280 L 287 294 L 273 294 L 273 308 L 259 308 L 259 294 L 245 294 L 245 308 L 231 308 L 231 294 L 245 294 L 245 280 L 231 280 L 231 266 L 217 266 L 217 280 L 231 280 L 231 294 L 217 294 L 217 308 L 203 308 L 203 294 L 189 294 L 189 308 L 203 308 L 203 322 L 189 322 L 189 336 L 203 336 L 203 350 L 217 350 L 217 336 L 231 336 L 231 350 L 217 350 L 217 364 L 203 364 L 203 350 L 189 350 L 189 364 L 175 364 L 175 350 L 189 350 L 189 336 L 175 336 L 175 322 L 161 322 L 161 336 L 147 336 L 147 322 L 161 322 L 161 308 L 175 308 L 175 322 L 189 322 L 189 308 L 175 308 L 175 294 L 189 294 L 189 280 L 175 280 L 175 266 L 161 266 L 161 280 L 175 280 L 175 294 L 161 294 L 161 308 L 147 308 L 147 294 L 133 294 L 133 308 L 119 308 L 119 294 L 133 294 L 133 280 L 119 280 L 119 266 L 105 266 L 105 280 L 119 280 L 119 294 L 105 294 L 105 308 L 91 308 L 91 294 L 77 294 L 77 308 L 91 308 L 91 322 L 77 322 L 77 336 L 91 336 L 91 350 L 105 350 L 105 336 L 119 336 L 119 350 L 105 350 L 105 364 L 91 364 L 91 350 L 77 350 L 77 364 L 63 364 L 63 350 L 77 350 L 77 336 L 63 336 L 63 322 L 49 322 L 49 336 L 35 336 L 35 322 L 49 322 L 49 308 L 63 308 L 63 322 L 77 322 L 77 308 L 63 308 L 63 294 L 77 294 L 77 280 L 63 280 L 63 266 L 49 266 L 49 280 L 35 280 L 35 266 L 49 266 L 49 252 L 63 252 L 63 266 L 77 266 L 77 252 L 91 252 L 91 266 L 77 266 L 77 280 L 91 280 L 91 294 L 105 294 L 105 280 L 91 280 L 91 266 L 105 266 L 105 252 L 119 252 L 119 266 L 133 266 L 133 252 L 119 252 L 119 238 L 133 238 L 133 224 L 119 224 L 119 210 L 105 210 L 105 224 L 119 224 L 119 238 L 105 238 L 105 252 L 91 252 L 91 238 L 77 238 L 77 252 L 63 252 L 63 238 L 77 238 L 77 224 L 63 224 L 63 210 L 49 210 L 49 224 L 35 224 L 35 210 L 49 210 L 49 196 L 63 196 L 63 210 L 77 210 L 77 196 L 63 196 L 63 182 L 77 182 L 77 168 L 63 168 L 63 154 L 49 154 L 49 168 L 63 168 L 63 182 L 49 182 L 49 196 L 35 196 L 35 182 L 21 182 L 21 196 L 7 196 L 7 182 L 21 182 L 21 168 L 7 168 L 7 154 L -7 154 L -7 168 L 7 168 L 7 182 L -7 182 L -7 196 L -21 196 L -21 182 L -35 182 L -35 196 L -21 196 L -21 210 L -35 210 L -35 224 L -21 224 L -21 238 L -7 238 L -7 224 L -21 224 L -21 210 L -7 210 L -7 196 L 7 196 L 7 210 L 21 210 L 21 196 L 35 196 L 35 210 L 21 210 L 21 224 L 35 224 L 35 238 L 49 238 L 49 224 L 63 224 L 63 238 L 49 238 L 49 252 L 35 252 L 35 238 L 21 238 L 21 252 L 35 252 L 35 266 L 21 266 L 21 280 L 35 280 L 35 294 L 49 294 L 49 280 L 63 280 L 63 294 L 49 294 L 49 308 L 35 308 L 35 294 L 21 294 L 21 308 L 7 308 L 7 294 L 21 294 L 21 280 L 7 280 L 7 266 L -7 266 L -7 280 L 7 280 L 7 294 L -7 294 L -7 308 L -21 308 L -21 294 L -35 294 L -35 308 L -21 308 L -21 322 L -35 322 L -35 336 L -21 336 L -21 350 L -7 350 L -7 336 L 7 336 L 7 350 L -7 350 L -7 364 L -21 364 L -21 350 L -35 350 L -35 364 L -49 364 L -49 350 L -35 350 L -35 336 L -49 336 L -49 322 L -63 322 L -63 336 L -77 336 L -77 322 L -63 322 L -63 308 L -49 308 L -49 322 L -35 322 L -35 308 L -49 308 L -49 294 L -35 294 L -35 280 L -49 280 L -49 266 L -63 266 L -63 280 L -49 280 L -49 294 L -63 294 L -63 308 L -77 308 L -77 294 L -91 294 L -91 308 L -105 308 L -105 294 L -91 294 L -91 280 L -105 280 L -105 266 L -119 266 L -119 280 L -105 280 L -105 294 L -119 294 L -119 308 L -133 308 L -133 294 L -147 294 L -147 308 L -133 308 L -133 322 L -147 322 L -147 336 L -133 336 L -133 350 L -119 350 L -119 336 L -133 336 L -133 322 L -119 322 L -119 308 L -105 308 L -105 322 L -91 322 L -91 308 L -77 308 L -77 322 L -91 322 L -91 336 L -77 336 L -77 350 L -63 350 L -63 336 L -49 336 L -49 350 L -63 350 L -63 364 L -77 364 L -77 350 L -91 350 L -91 364 L -77 364 L -77 378 L -91 378 L -91 392 L -77 392 L -77 406 L -63 406 L -63 392 L -49 392 L -49 406 L -63 406 L -63 420 L -77 420 L -77 406 L -91 406 L -91 420 L -105 420 L -105 406 L -91 406 L -91 392 L -105 392 L -105 378 L -119 378 L -119 392 L -105 392 L -105 406 L -119 406 L -119 420 L -133 420 L -133 406 L -147 406 L -147 420 L -133 420 L -133 434 L -147 434 L -147 448 L -133 448 L -133 462 L -119 462 L -119 448 L -133 448 L -133 434 L -119 434 L -119 420 L -105 420 L -105 434 L -91 434 L -91 420 L -77 420 L -77 434 L -91 434 L -91 448 L -77 448 L -77 462 L -63 462 L -63 448 L -49 448 L -49 462 L -63 462 L -63 476 L -77 476 L -77 462 L -91 462 L -91 476 L -77 476 L -77 490 L -91 490 L -91 504 L -77 504 L -77 518 L -63 518 L -63 504 L -77 504 L -77 490 L -63 490 L -63 476 L -49 476 L -49 490 L -35 490 L -35 476 L -21 476 L -21 490 L -35 490 L -35 504 L -21 504 L -21 518 L -7 518 L -7 504 L -21 504 L -21 490 L -7 490 L -7 476 L 7 476 L 7 490 L 21 490 L 21 476 L 7 476 L 7 462 L 21 462 L 21 448 L 7 448 L 7 434 L -7 434 L -7 448 L -21 448 L -21 434 L -7 434 L -7 420 L 7 420 L 7 434 L 21 434 L 21 420 L 35 420 L 35 434 L 21 434 L 21 448 L 35 448 L 35 462 L 49 462 L 49 448 L 63 448 L 63 462 L 49 462 L 49 476 L 35 476 L 35 462 L 21 462 L 21 476 L 35 476 L 35 490 L 21 490 L 21 504 L 35 504 L 35 518 L 49 518 L 49 504 L 63 504 L 63 518 L 49 518 L 49 532 L 35 532 L 35 518 L 21 518 L 21 532 L 7 532 L 7 518 L 21 518 L 21 504 L 7 504 L 7 490 L -7 490 L -7 504 L 7 504 L 7 518 L -7 518 L -7 532 L -21 532 L -21 518 L -35 518 L -35 532 L -21 532 L -21 546 L -35 546 L -35 560 L -21 560 L -21 574 L -7 574 L -7 560 L 7 560 L 7 574 L -7 574 L -7 588 L -21 588 L -21 574 L -35 574 L -35 588 L -49 588 L -49 574 L -35 574 L -35 560 L -49 560 L -49 546 L -63 546 L -63 560 L -77 560 L -77 546 L -63 546 L -63 532 L -49 532 L -49 546 L -35 546 L -35 532 L -49 532 L -49 518 L -35 518 L -35 504 L -49 504 L -49 490 L -63 490 L -63 504 L -49 504 L -49 518 L -63 518 L -63 532 L -77 532 L -77 518 L -91 518 L -91 532 L -105 532 L -105 518 L -91 518 L -91 504 L -105 504 L -105 490 L -119 490 L -119 504 L -105 504 L -105 518 L -119 518 L -119 532 L -133 532 L -133 518 L -147 518 L -147 532 L -133 532 L -133 546 L -147 546 L -147 560 L -133 560 L -133 574 L -119 574 L -119 560 L -105 560 L -105 574 L -119 574 L -119 588 L -133 588 L -133 574 L -147 574 L -147 588 L -161 588 L -161 574 L -147 574 L -147 560 L -161 560 L -161 546 L -175 546 L -175 560 L -189 560 L -189 546 L -175 546 L -175 532 L -161 532 L -161 546 L -147 546 L -147 532 L -161 532 L -161 518 L -147 518 L -147 504 L -161 504 L -161 490 L -175 490 L -175 504 L -189 504 L -189 490 L -175 490 L -175 476 L -161 476 L -161 490 L -147 490 L -147 476 L -133 476 L -133 490 L -147 490 L -147 504 L -133 504 L -133 518 L -119 518 L -119 504 L -133 504 L -133 490 L -119 490 L -119 476 L -105 476 L -105 490 L -91 490 L -91 476 L -105 476 L -105 462 L -91 462 L -91 448 L -105 448 L -105 434 L -119 434 L -119 448 L -105 448 L -105 462 L -119 462 L -119 476 L -133 476 L -133 462 L -147 462 L -147 476 L -161 476 L -161 462 L -147 462 L -147 448 L -161 448 L -161 434 L -175 434 L -175 448 L -189 448 L -189 434 L -175 434 L -175 420 L -161 420 L -161 434 L -147 434 L -147 420 L -161 420 L -161 406 L -147 406 L -147 392 L -161 392 L -161 378 L -175 378 L -175 392 L -161 392 L -161 406 L -175 406 L -175 420 L -189 420 L -189 406 L -203 406 L -203 420 L -217 420 L -217 406 L -203 406 L -203 392 L -217 392 L -217 378 L -231 378 L -231 392 L -217 392 L -217 406 L -231 406 L -231 420 L -245 420 L -245 406 L -259 406 L -259 420 L -245 420 L -245 434 L -259 434 L -259 448 L -245 448 L -245 462 L -231 462 L -231 448 L -217 448 L -217 462 L -231 462 L -231 476 L -245 476 L -245 462 L -259 462 L -259 476 L -273 476 L -273 462 L -259 462 L -259 448 L -273 448 L -273 434 L -287 434 L -287 448 L -301 448 L -301 434 L -287 434 L -287 420 L -273 420 L -273 434 L -259 434 L -259 420 L -273 420 L -273 406 L -259 406 L -259 392 L -273 392 L -273 378 L -287 378 L -287 392 L -301 392 L -301 378 L -287 378 L -287 364 L -273 364 L -273 378 L -259 378 L -259 364 L -245 364 L -245 378 L -259 378 L -259 392 L -245 392 L -245 406 L -231 406 L -231 392 L -245 392 L -245 378 L -231 378 L -231 364 L -217 364 L -217 378 L -203 378 L -203 364 L -217 364 L -217 350 L -203 350 L -203 336 L -217 336 L -217 322 L -231 322 L -231 336 L -245 336 L -245 322 L -231 322 L -231 308 L -217 308 L -217 322 L -203 322 L -203 308 L -189 308 L -189 322 L -203 322 L -203 336 L -189 336 L -189 350 L -175 350 L -175 336 L -161 336 L -161 350 L -175 350 L -175 364 L -189 364 L -189 350 L -203 350 L -203 364 L -189 364 L -189 378 L -203 378 L -203 392 L -189 392 L -189 406 L -175 406 L -175 392 L -189 392 L -189 378 L -175 378 L -175 364 L -161 364 L -161 378 L -147 378 L -147 364 L -133 364 L -133 378 L -147 378 L -147 392 L -133 392 L -133 406 L -119 406 L -119 392 L -133 392 L -133 378 L -119 378 L -119 364 L -105 364 L -105 378 L -91 378 L -91 364 L -105 364 L -105 350 L -91 350 L -91 336 L -105 336 L -105 322 L -119 322 L -119 336 L -105 336 L -105 350 L -119 350 L -119 364 L -133 364 L -133 350 L -147 350 L -147 364 L -161 364 L -161 350 L -147 350 L -147 336 L -161 336 L -161 322 L -175 322 L -175 336 L -189 336 L -189 322 L -175 322 L -175 308 L -161 308 L -161 322 L -147 322 L -147 308 L -161 308 L -161 294 L -147 294 L -147 280 L -161 280 L -161 266 L -175 266 L -175 280 L -189 280 L -189 266 L -175 266 L -175 252 L -161 252 L -161 266 L -147 266 L -147 252 L -133 252 L -133 266 L -147 266 L -147 280 L -133 280 L -133 294 L -119 294 L -119 280 L -133 280 L -133 266 L -119 266 L -119 252 L -105 252 L -105 266 L -91 266 L -91 252 L -105 252 L -105 238 L -91 238 L -91 224 L -105 224 L -105 210 L -119 210 L -119 224 L -105 224 L -105 238 L -119 238 L -119 252 L -133 252 L -133 238 L -147 238 L -147 252 L -161 252 L -161 238 L -147 238 L -147 224 L -161 224 L -161 210 L -175 210 L -175 224 L -189 224 L -189 210 L -175 210 L -175 196 L -161 196 L -161 210 L -147 210 L -147 196 L -161 196 L -161 182 L -147 182 L -147 168 L -161 168 L -161 154 L -175 154 L -175 168 L -161 168 L -161 182 L -175 182 L -175 196 L -189 196 L -189 182 L -203 182 L -203 196 L -217 196 L -217 182 L -203 182 L -203 168 L -217 168 L -217 154 L -231 154 L -231 168 L -217 168 L -217 182 L -231 182 L -231 196 L -245 196 L -245 182 L -259 182 L -259 196 L -245 196 L -245 210 L -259 210 L -259 224 L -245 224 L -245 238 L -231 238 L -231 224 L -245 224 L -245 210 L -231 210 L -231 196 L -217 196 L -217 210 L -203 210 L -203 196 L -189 196 L -189 210 L -203 210 L -203 224 L -189 224 L -189 238 L -175 238 L -175 224 L -161 224 L -161 238 L -175 238 L -175 252 L -189 252 L -189 238 L -203 238 L -203 252 L -189 252 L -189 266 L -203 266 L -203 280 L -189 280 L -189 294 L -175 294 L -175 280 L -161 280 L -161 294 L -175 294 L -175 308 L -189 308 L -189 294 L -203 294 L -203 308 L -217 308 L -217 294 L -203 294 L -203 280 L -217 280 L -217 266 L -231 266 L -231 280 L -217 280 L -217 294 L -231 294 L -231 308 L -245 308 L -245 294 L -259 294 L -259 308 L -245 308 L -245 322 L -259 322 L -259 336 L -245 336 L -245 350 L -231 350 L -231 336 L -217 336 L -217 350 L -231 350 L -231 364 L -245 364 L -245 350 L -259 350 L -259 364 L -273 364 L -273 350 L -259 350 L -259 336 L -273 336 L -273 322 L -287 322 L -287 336 L -301 336 L -301 322 L -287 322 L -287 308 L -273 308 L -273 322 L -259 322 L -259 308 L -273 308 L -273 294 L -259 294 L -259 280 L -273 280 L -273 266 L -287 266 L -287 280 L -273 280 L -273 294 L -287 294 L -287 308 L -301 308 L -301 294 L -315 294 L -315 308 L -329 308 L -329 294 L -315 294 L -315 280 L -329 280 L -329 266 L -343 266 L -343 280 L -329 280 L -329 294 L -343 294 L -343 308 L -357 308 L -357 294 L -371 294 L -371 308 L -357 308 L -357 322 L -371 322 L -371 336 L -357 336 L -357 350 L -343 350 L -343 336 L -329 336 L -329 350 L -343 350 L -343 364 L -357 364 L -357 350 L -371 350 L -371 364 L -385 364 L -385 350 L -371 350 L -371 336 L -385 336 L -385 322 L -399 322 L -399 336 L -413 336 L -413 322 L -399 322 L -399 308 L -385 308 L -385 322 L -371 322 L -371 308 L -385 308 L -385 294 L -371 294 L -371 280 L -385 280 L -385 266 L -399 266 L -399 280 L -413 280 L -413 266 L -399 266 L -399 252 L -385 252 L -385 266 L -371 266 L -371 252 L -357 252 L -357 266 L -371 266 L -371 280 L -357 280 L -357 294 L -343 294 L -343 280 L -357 280 L -357 266 L -343 266 L -343 252 L -329 252 L -329 266 L -315 266 L -315 252 L -329 252 L -329 238 L -315 238 L -315 224 L -329 224 L -329 210 L -343 210 L -343 224 L -329 224 L -329 238 L -343 238 L -343 252 L -357 252 L -357 238 L -371 238 L -371 252 L -385 252 L -385 238 L -371 238 L -371 224 L -385 224 L -385 210 L -399 210 L -399 224 L -413 224 L -413 210 L -399 210 L -399 196 L -385 196 L -385 210 L -371 210 L -371 196 L -385 196 L -385 182 L -371 182 L -371 168 L -385 168 L -385 154 L -399 154 L -399 168 L -385 168 L -385 182 L -399 182 L -399 196 L -413 196 L -413 182 L -427 182 L -427 196 L -441 196 L -441 182 L -427 182 L -427 168 L -441 168 L -441 154 L -455 154 L -455 168 L -441 168 L -441 182 L -455 182 L -455 196 L -469 196 L -469 182 L -483 182 L -483 196 L -469 196 L -469 210 L -483 210 L -483 224 L -469 224 L -469 238 L -455 238 L -455 224 L -469 224 L -469 210 L -455 210 L -455 196 L -441 196 L -441 210 L -427 210 L -427 196 L -413 196 L -413 210 L -427 210 L -427 224 L -413 224 L -413 238 L -399 238 L -399 224 L -385 224 L -385 238 L -399 238 L -399 252 L -413 252 L -413 238 L -427 238 L -427 252 L -413 252 L -413 266 L -427 266 L -427 280 L -413 280 L -413 294 L -399 294 L -399 280 L -385 280 L -385 294 L -399 294 L -399 308 L -413 308 L -413 294 L -427 294 L -427 308 L -441 308 L -441 294 L -427 294 L -427 280 L -441 280 L -441 266 L -455 266 L -455 280 L -441 280 L -441 294 L -455 294 L -455 308 L -469 308 L -469 294 L -483 294 L -483 308 L -469 308 L -469 322 L -483 322 L -483 336 L -469 336 L -469 350 L -455 350 L -455 336 L -441 336 L -441 350 L -455 350 L -455 364 L -469 364 L -469 350 L -483 350 L -483 364 L -497 364 L -497 350 L -483 350 L -483 336 L -497 336 L -497 322 L -511 322 L -511 336 L -525 336 L -525 322 L -511 322 L -511 308 L -497 308 L -497 322 L -483 322 L -483 308 L -497 308 L -497 294 L -483 294 L -483 280 L -497 280 L -497 266 L -511 266 L -511 280 L -497 280 L -497 294 L -511 294 L -511 308 L -525 308 L -525 294 L -539 294 L -539 308 L -553 308 L -553 294 L -539 294 L -539 280 L -553 280 L -553 266 L -567 266 L -567 280 L -553 280 L -553 294 L -567 294 L -567 308 L -581 308 L -581 294 L -595 294 L -595 308 L -581 308 L -581 322 L -595 322 L -595 336 L -581 336 L -581 350 L -567 350 L -567 336 L -581 336 L -581 322 L -567 322 L -567 308 L -553 308 L -553 322 L -539 322 L -539 308 L -525 308 L -525 322 L -539 322 L -539 336 L -525 336 L -525 350 L -511 350 L -511 336 L -497 336 L -497 350 L -511 350 L -511 364 L -525 364 L -525 350 L -539 350 L -539 364 L -525 364 L -525 378 L -539 378 L -539 392 L -525 392 L -525 406 L -511 406 L -511 392 L -497 392 L -497 406 L -511 406 L -511 420 L -525 420 L -525 406 L -539 406 L -539 420 L -553 420 L -553 406 L -539 406 L -539 392 L -553 392 L -553 378 L -567 378 L -567 392 L -553 392 L -553 406 L -567 406 L -567 420 L -581 420 L -581 406 L -595 406 L -595 420 L -581 420 L -581 434 L -595 434 L -595 448 L -581 448 L -581 462 L -567 462 L -567 448 L -581 448 L -581 434 L -567 434 L -567 420 L -553 420 L -553 434 L -539 434 L -539 420 L -525 420 L -525 434 L -539 434 L -539 448 L -525 448 L -525 462 L -511 462 L -511 448 L -497 448 L -497 462 L -511 462 L -511 476 L -525 476 L -525 462 L -539 462 L -539 476 L -525 476 L -525 490 L -539 490 L -539 504 L -525 504 L -525 518 L -511 518 L -511 504 L -525 504 L -525 490 L -511 490 L -511 476 L -497 476 L -497 490 L -483 490 L -483 476 L -469 476 L -469 490 L -483 490 L -483 504 L -469 504 L -469 518 L -455 518 L -455 504 L -469 504 L -469 490 L -455 490 L -455 476 L -441 476 L -441 490 L -427 490 L -427 476 L -441 476 L -441 462 L -427 462 L -427 448 L -441 448 L -441 434 L -455 434 L -455 448 L -469 448 L -469 434 L -455 434 L -455 420 L -441 420 L -441 434 L -427 434 L -427 420 L -413 420 L -413 434 L -427 434 L -427 448 L -413 448 L -413 462 L -399 462 L -399 448 L -385 448 L -385 462 L -399 462 L -399 476 L -413 476 L -413 462 L -427 462 L -427 476 L -413 476 L -413 490 L -427 490 L -427 504 L -413 504 L -413 518 L -399 518 L -399 504 L -385 504 L -385 518 L -399 518 L -399 532 L -413 532 L -413 518 L -427 518 L -427 532 L -441 532 L -441 518 L -427 518 L -427 504 L -441 504 L -441 490 L -455 490 L -455 504 L -441 504 L -441 518 L -455 518 L -455 532 L -469 532 L -469 518 L -483 518 L -483 532 L -469 532 L -469 546 L -483 546 L -483 560 L -469 560 L -469 574 L -455 574 L -455 560 L -441 560 L -441 574 L -455 574 L -455 588 L -469 588 L -469 574 L -483 574 L -483 588 L -497 588 L -497 574 L -483 574 L -483 560 L -497 560 L -497 546 L -511 546 L -511 560 L -525 560 L -525 546 L -511 546 L -511 532 L -497 532 L -497 546 L -483 546 L -483 532 L -497 532 L -497 518 L -483 518 L -483 504 L -497 504 L -497 490 L -511 490 L -511 504 L -497 504 L -497 518 L -511 518 L -511 532 L -525 532 L -525 518 L -539 518 L -539 532 L -553 532 L -553 518 L -539 518 L -539 504 L -553 504 L -553 490 L -567 490 L -567 504 L -553 504 L -553 518 L -567 518 L -567 532 L -581 532 L -581 518 L -595 518 L -595 532 L -581 532 L -581 546 L -595 546 L -595 560 L -581 560 L -581 574 L -567 574 L -567 560 L -553 560 L -553 574 L -567 574 L -567 588 L -581 588 L -581 574 L -595 574 L -595 588 L -609 588 L -609 574 L -595 574 L -595 560 L -609 560 L -609 546 L -623 546 L -623 560 L -637 560 L -637 546 L -623 546 L -623 532 L -609 532 L -609 546 L -595 546 L -595 532 L -609 532 L -609 518 L -595 518 L -595 504 L -609 504 L -609 490 L -623 490 L -623 504 L -637 504 L -637 490 L -623 490 L -623 476 L -609 476 L -609 490 L -595 490 L -595 476 L -581 476 L -581 490 L -595 490 L -595 504 L -581 504 L -581 518 L -567 518 L -567 504 L -581 504 L -581 490 L -567 490 L -567 476 L -553 476 L -553 490 L -539 490 L -539 476 L -553 476 L -553 462 L -539 462 L -539 448 L -553 448 L -553 434 L -567 434 L -567 448 L -553 448 L -553 462 L -567 462 L -567 476 L -581 476 L -581 462 L -595 462 L -595 476 L -609 476 L -609 462 L -595 462 L -595 448 L -609 448 L -609 434 L -623 434 L -623 448 L -637 448 L -637 434 L -623 434 L -623 420 L -609 420 L -609 434 L -595 434 L -595 420 L -609 420 L -609 406 L -595 406 L -595 392 L -609 392 L -609 378 L -623 378 L -623 392 L -609 392 L -609 406 L -623 406 L -623 420 L -637 420 L -637 406 L -651 406 L -651 420 L -665 420 L -665 406 L -651 406 L -651 392 L -665 392 L -665 378 L -679 378 L -679 392 L -665 392 L -665 406 L -679 406 L -679 420 L -693 420 L -693 406 L -707 406 L -707 420 L -693 420 L -693 434 L -707 434 L -707 448 L -693 448 L -693 462 L -679 462 L -679 448 L -665 448 L -665 462 L -679 462 L -679 476 L -693 476 L -693 462 L -707 462 L -707 476 L -721 476 L -721 462 L -707 462 L -707 448 L -721 448 L -721 434 L -735 434 L -735 448 L -749 448 L -749 434 L -735 434 L -735 420 L -721 420 L -721 434 L -707 434 L -707 420 L -721 420 L -721 406 L -707 406 L -707 392 L -721 392 L -721 378 L -735 378 L -735 392 L -749 392 L -749 378 L -735 378 L -735 364 L -721 364 L -721 378 L -707 378 L -707 364 L -693 364 L -693 378 L -707 378 L -707 392 L -693 392 L -693 406 L -679 406 L -679 392 L -693 392 L -693 378 L -679 378 L -679 364 L -665 364 L -665 378 L -651 378 L -651 364 L -665 364 L -665 350 L -651 350 L -651 336 L -665 336 L -665 322 L -679 322 L -679 336 L -693 336 L -693 322 L -679 322 L -679 308 L -665 308 L -665 322 L -651 322 L -651 308 L -637 308 L -637 322 L -651 322 L -651 336 L -637 336 L -637 350 L -623 350 L -623 336 L -609 336 L -609 350 L -623 350 L -623 364 L -637 364 L -637 350 L -651 350 L -651 364 L -637 364 L -637 378 L -651 378 L -651 392 L -637 392 L -637 406 L -623 406 L -623 392 L -637 392 L -637 378 L -623 378 L -623 364 L -609 364 L -609 378 L -595 378 L -595 364 L -581 364 L -581 378 L -595 378 L -595 392 L -581 392 L -581 406 L -567 406 L -567 392 L -581 392 L -581 378 L -567 378 L -567 364 L -553 364 L -553 378 L -539 378 L -539 364 L -553 364 L -553 350 L -539 350 L -539 336 L -553 336 L -553 322 L -567 322 L -567 336 L -553 336 L -553 350 L -567 350 L -567 364 L -581 364 L -581 350 L -595 350 L -595 364 L -609 364 L -609 350 L -595 350 L -595 336 L -609 336 L -609 322 L -623 322 L -623 336 L -637 336 L -637 322 L -623 322 L -623 308 L -609 308 L -609 322 L -595 322 L -595 308 L -609 308 L -609 294 L -595 294 L -595 280 L -609 280 L -609 266 L -623 266 L -623 280 L -637 280 L -637 266 L -623 266 L -623 252 L -609 252 L -609 266 L -595 266 L -595 252 L -581 252 L -581 266 L -595 266 L -595 280 L -581 280 L -581 294 L -567 294 L -567 280 L -581 280 L -581 266 L -567 266 L -567 252 L -553 252 L -553 266 L -539 266 L -539 252 L -553 252 L -553 238 L -539 238 L -539 224 L -553 224 L -553 210 L -567 210 L -567 224 L -553 224 L -553 238 L -567 238 L -567 252 L -581 252 L -581 238 L -595 238 L -595 252 L -609 252 L -609 238 L -595 238 L -595 224 L -609 224 L -609 210 L -623 210 L -623 224 L -637 224 L -637 210 L -623 210 L -623 196 L -609 196 L -609 210 L -595 210 L -595 196 L -609 196 L -609 182 L -595 182 L -595 168 L -609 168 L -609 154 L -623 154 L -623 168 L -609 168 L -609 182 L -623 182 L -623 196 L -637 196 L -637 182 L -651 182 L -651 196 L -665 196 L -665 182 L -651 182 L -651 168 L -665 168 L -665 154 L -679 154 L -679 168 L -665 168 L -665 182 L -679 182 L -679 196 L -693 196 L -693 182 L -707 182 L -707 196 L -693 196 L -693 210 L -707 210 L -707 224 L -693 224 L -693 238 L -679 238 L -679 224 L -665 224 L -665 238 L -679 238 L -679 252 L -693 252 L -693 238 L -707 238 L -707 252 L -721 252 L -721 238 L -707 238 L -707 224 L -721 224 L -721 210 L -735 210 L -735 224 L -749 224 L -749 210 L -735 210 L -735 196 L -721 196 L -721 210 L -707 210 L -707 196 L -721 196 L -721 182 L -707 182 L -707 168 L -721 168 L -721 154 L -735 154 L -735 168 L -749 168 L -749 154 L -735 154 L -735 140 L -721 140 L -721 154 L -707 154 L -707 140 L -693 140 L -693 154 L -707 154 L -707 168 L -693 168 L -693 182 L -679 182 L -679 168 L -693 168 L -693 154 L -679 154 L -679 140 L -665 140 L -665 154 L -651 154 L -651 140 L -665 140 L -665 126 L -651 126 L -651 112 L -665 112 L -665 98 L -679 98 L -679 112 L -693 112 L -693 98 L -679 98 L -679 84 L -665 84 L -665 98 L -651 98 L -651 84 L -637 84 L -637 98 L -651 98 L -651 112 L -637 112 L -637 126 L -623 126 L -623 112 L -609 112 L -609 126 L -623 126 L -623 140 L -637 140 L -637 126 L -651 126 L -651 140 L -637 140 L -637 154 L -651 154 L -651 168 L -637 168 L -637 182 L -623 182 L -623 168 L -637 168 L -637 154 L -623 154 L -623 140 L -609 140 L -609 154 L -595 154 L -595 140 L -581 140 L -581 154 L -595 154 L -595 168 L -581 168 L -581 182 L -567 182 L -567 168 L -581 168 L -581 154 L -567 154 L -567 140 L -553 140 L -553 154 L -539 154 L -539 140 L -553 140 L -553 126 L -539 126 L -539 112 L -553 112 L -553 98 L -567 98 L -567 112 L -581 112 L -581 98 L -567 98 L -567 84 L -553 84 L -553 98 L -539 98 L -539 84 L -525 84 L -525 98 L -539 98 L -539 112 L -525 112 L -525 126 L -511 126 L -511 112 L -497 112 L -497 126 L -511 126 L -511 140 L -525 140 L -525 126 L -539 126 L -539 140 L -525 140 L -525 154 L -539 154 L -539 168 L -525 168 L -525 182 L -511 182 L -511 168 L -497 168 L -497 182 L -511 182 L -511 196 L -525 196 L -525 182 L -539 182 L -539 196 L -553 196 L -553 182 L -539 182 L -539 168 L -553 168 L -553 154 L -567 154 L -567 168 L -553 168 L -553 182 L -567 182 L -567 196 L -581 196 L -581 182 L -595 182 L -595 196 L -581 196 L -581 210 L -595 210 L -595 224 L -581 224 L -581 238 L -567 238 L -567 224 L -581 224 L -581 210 L -567 210 L -567 196 L -553 196 L -553 210 L -539 210 L -539 196 L -525 196 L -525 210 L -539 210 L -539 224 L -525 224 L -525 238 L -511 238 L -511 224 L -497 224 L -497 238 L -511 238 L -511 252 L -525 252 L -525 238 L -539 238 L -539 252 L -525 252 L -525 266 L -539 266 L -539 280 L -525 280 L -525 294 L -511 294 L -511 280 L -525 280 L -525 266 L -511 266 L -511 252 L -497 252 L -497 266 L -483 266 L -483 252 L -469 252 L -469 266 L -483 266 L -483 280 L -469 280 L -469 294 L -455 294 L -455 280 L -469 280 L -469 266 L -455 266 L -455 252 L -441 252 L -441 266 L -427 266 L -427 252 L -441 252 L -441 238 L -427 238 L -427 224 L -441 224 L -441 210 L -455 210 L -455 224 L -441 224 L -441 238 L -455 238 L -455 252 L -469 252 L -469 238 L -483 238 L -483 252 L -497 252 L -497 238 L -483 238 L -483 224 L -497 224 L -497 210 L -511 210 L -511 224 L -525 224 L -525 210 L -511 210 L -511 196 L -497 196 L -497 210 L -483 210 L -483 196 L -497 196 L -497 182 L -483 182 L -483 168 L -497 168 L -497 154 L -511 154 L -511 168 L -525 168 L -525 154 L -511 154 L -511 140 L -497 140 L -497 154 L -483 154 L -483 140 L -469 140 L -469 154 L -483 154 L -483 168 L -469 168 L -469 182 L -455 182 L -455 168 L -469 168 L -469 154 L -455 154 L -455 140 L -441 140 L -441 154 L -427 154 L -427 140 L -441 140 L -441 126 L -427 126 L -427 112 L -441 112 L -441 98 L -455 98 L -455 112 L -469 112 L -469 98 L -455 98 L -455 84 L -441 84 L -441 98 L -427 98 L -427 84 L -413 84 L -413 98 L -427 98 L -427 112 L -413 112 L -413 126 L -399 126 L -399 112 L -385 112 L -385 126 L -399 126 L -399 140 L -413 140 L -413 126 L -427 126 L -427 140 L -413 140 L -413 154 L -427 154 L -427 168 L -413 168 L -413 182 L -399 182 L -399 168 L -413 168 L -413 154 L -399 154 L -399 140 L -385 140 L -385 154 L -371 154 L -371 140 L -357 140 L -357 154 L -371 154 L -371 168 L -357 168 L -357 182 L -343 182 L -343 168 L -357 168 L -357 154 L -343 154 L -343 140 L -329 140 L -329 154 L -315 154 L -315 140 L -329 140 L -329 126 L -315 126 L -315 112 L -329 112 L -329 98 L -343 98 L -343 112 L -329 112 L -329 126 L -343 126 L -343 140 L -357 140 L -357 126 L -371 126 L -371 140 L -385 140 L -385 126 L -371 126 L -371 112 L -385 112 L -385 98 L -399 98 L -399 112 L -413 112 L -413 98 L -399 98 L -399 84 L -385 84 L -385 98 L -371 98 L -371 84 L -385 84 L -385 70 L -371 70 L -371 56 L -385 56 L -385 42 L -399 42 L -399 56 L -413 56 L -413 42 L -399 42 L -399 28 L -385 28 L -385 42 L -371 42 L -371 28 L -357 28 L -357 42 L -371 42 L -371 56 L -357 56 L -357 70 L -343 70 L -343 56 L -357 56 L -357 42 L -343 42 L -343 28 L -329 28 L -329 42 L -315 42 L -315 28 L -329 28 L -329 14 L -315 14 L -315 0 L -329 0 L -329 -14 L -343 -14 L -343 0 L -329 0 L -329 14 L -343 14 L -343 28 L -357 28 L -357 14 L -371 14 L -371 28 L -385 28 L -385 14 L -371 14 L -371 0 L -385 0 L -385 -14 L -399 -14 L -399 0 L -413 0 L -413 -14 L -399 -14 L -399 -28 L -385 -28 L -385 -14 L -371 -14 L -371 -28 L -385 -28 L -385 -42 L -371 -42 L -371 -56 L -385 -56 L -385 -70 L -399 -70 L -399 -56 L -385 -56 L -385 -42 L -399 -42 L -399 -28 L -413 -28 L -413 -42 L -427 -42 L -427 -28 L -441 -28 L -441 -42 L -427 -42 L -427 -56 L -441 -56 L -441 -70 L -455 -70 L -455 -56 L -441 -56 L -441 -42 L -455 -42 L -455 -28 L -469 -28 L -469 -42 L -483 -42 L -483 -28 L -469 -28 L -469 -14 L -483 -14 L -483 0 L -469 0 L -469 14 L -455 14 L -455 0 L -469 0 L -469 -14 L -455 -14 L -455 -28 L -441 -28 L -441 -14 L -427 -14 L -427 -28 L -413 -28 L -413 -14 L -427 -14 L -427 0 L -413 0 L -413 14 L -399 14 L -399 0 L -385 0 L -385 14 L -399 14 L -399 28 L -413 28 L -413 14 L -427 14 L -427 28 L -413 28 L -413 42 L -427 42 L -427 56 L -413 56 L -413 70 L -399 70 L -399 56 L -385 56 L -385 70 L -399 70 L -399 84 L -413 84 L -413 70 L -427 70 L -427 84 L -441 84 L -441 70 L -427 70 L -427 56 L -441 56 L -441 42 L -455 42 L -455 56 L -441 56 L -441 70 L -455 70 L -455 84 L -469 84 L -469 70 L -483 70 L -483 84 L -469 84 L -469 98 L -483 98 L -483 112 L -469 112 L -469 126 L -455 126 L -455 112 L -441 112 L -441 126 L -455 126 L -455 140 L -469 140 L -469 126 L -483 126 L -483 140 L -497 140 L -497 126 L -483 126 L -483 112 L -497 112 L -497 98 L -511 98 L -511 112 L -525 112 L -525 98 L -511 98 L -511 84 L -497 84 L -497 98 L -483 98 L -483 84 L -497 84 L -497 70 L -483 70 L -483 56 L -497 56 L -497 42 L -511 42 L -511 56 L -497 56 L -497 70 L -511 70 L -511 84 L -525 84 L -525 70 L -539 70 L -539 84 L -553 84 L -553 70 L -539 70 L -539 56 L -553 56 L -553 42 L -567 42 L -567 56 L -553 56 L -553 70 L -567 70 L -567 84 L -581 84 L -581 70 L -595 70 L -595 84 L -581 84 L -581 98 L -595 98 L -595 112 L -581 112 L -581 126 L -567 126 L -567 112 L -553 112 L -553 126 L -567 126 L -567 140 L -581 140 L -581 126 L -595 126 L -595 140 L -609 140 L -609 126 L -595 126 L -595 112 L -609 112 L -609 98 L -623 98 L -623 112 L -637 112 L -637 98 L -623 98 L -623 84 L -609 84 L -609 98 L -595 98 L -595 84 L -609 84 L -609 70 L -595 70 L -595 56 L -609 56 L -609 42 L -623 42 L -623 56 L -637 56 L -637 42 L -623 42 L -623 28 L -609 28 L -609 42 L -595 42 L -595 28 L -581 28 L -581 42 L -595 42 L -595 56 L -581 56 L -581 70 L -567 70 L -567 56 L -581 56 L -581 42 L -567 42 L -567 28 L -553 28 L -553 42 L -539 42 L -539 28 L -553 28 L -553 14 L -539 14 L -539 0 L -553 0 L -553 -14 L -567 -14 L -567 0 L -553 0 L -553 14 L -567 14 L -567 28 L -581 28 L -581 14 L -595 14 L -595 28 L -609 28 L -609 14 L -595 14 L -595 0 L -609 0 L -609 -14 L -623 -14 L -623 0 L -637 0 L -637 -14 L -623 -14 L -623 -28 L -609 -28 L -609 -14 L -595 -14 L -595 -28 L -609 -28 L -609 -42 L -595 -42 L -595 -56 L -609 -56 L -609 -70 L -623 -70 L -623 -56 L -609 -56 L -609 -42 L -623 -42 L -623 -28 L -637 -28 L -637 -42 L -651 -42 L -651 -28 L -665 -28 L -665 -42 L -651 -42 L -651 -56 L -665 -56 L -665 -70 L -679 -70 L -679 -56 L -665 -56 L -665 -42 L -679 -42 L -679 -28 L -693 -28 L -693 -42 L -707 -42 L -707 -28 L -693 -28 L -693 -14 L -707 -14 L -707 0 L -693 0 L -693 14 L -679 14 L -679 0 L -665 0 L -665 14 L -679 14 L -679 28 L -693 28 L -693 14 L -707 14 L -707 28 L -721 28 L -721 14 L -707 14 L -707 0 L -721 0 L -721 -14 L -735 -14 L -735 0 L -749 0 L -749 -14 L -735 -14 L -735 -28 L -721 -28 L -721 -14 L -707 -14 L -707 -28 L -721 -28 L -721 -42 L -707 -42 L -707 -56 L -721 -56 L -721 -70 L -735 -70 L -735 -56 L -749 -56 L -749 -70 L -735 -70 L -735 -84 L -721 -84 L -721 -70 L -707 -70 L -707 -84 L -693 -84 L -693 -70 L -707 -70 L -707 -56 L -693 -56 L -693 -42 L -679 -42 L -679 -56 L -693 -56 L -693 -70 L -679 -70 L -679 -84 L -665 -84 L -665 -70 L -651 -70 L -651 -84 L -665 -84 L -665 -98 L -651 -98 L -651 -112 L -665 -112 L -665 -126 L -679 -126 L -679 -112 L -693 -112 L -693 -126 L -679 -126 L -679 -140 L -665 -140 L -665 -126 L -651 -126 L -651 -140 L -637 -140 L -637 -126 L -651 -126 L -651 -112 L -637 -112 L -637 -98 L -623 -98 L -623 -112 L -609 -112 L -609 -98 L -623 -98 L -623 -84 L -637 -84 L -637 -98 L -651 -98 L -651 -84 L -637 -84 L -637 -70 L -651 -70 L -651 -56 L -637 -56 L -637 -42 L -623 -42 L -623 -56 L -637 -56 L -637 -70 L -623 -70 L -623 -84 L -609 -84 L -609 -70 L -595 -70 L -595 -84 L -581 -84 L -581 -70 L -595 -70 L -595 -56 L -581 -56 L -581 -42 L -567 -42 L -567 -56 L -581 -56 L -581 -70 L -567 -70 L -567 -84 L -553 -84 L -553 -70 L -539 -70 L -539 -84 L -553 -84 L -553 -98 L -539 -98 L -539 -112 L -553 -112 L -553 -126 L -567 -126 L -567 -112 L -553 -112 L -553 -98 L -567 -98 L -567 -84 L -581 -84 L -581 -98 L -595 -98 L -595 -84 L -609 -84 L -609 -98 L -595 -98 L -595 -112 L -609 -112 L -609 -126 L -623 -126 L -623 -112 L -637 -112 L -637 -126 L -623 -126 L -623 -140 L -609 -140 L -609 -126 L -595 -126 L -595 -140 L -609 -140 L -609 -154 L -595 -154 L -595 -168 L -609 -168 L -609 -182 L -623 -182 L -623 -168 L -637 -168 L -637 -182 L -623 -182 L -623 -196 L -609 -196 L -609 -182 L -595 -182 L -595 -196 L -581 -196 L -581 -182 L -595 -182 L -595 -168 L -581 -168 L -581 -154 L -567 -154 L -567 -168 L -581 -168 L -581 -182 L -567 -182 L -567 -196 L -553 -196 L -553 -182 L -539 -182 L -539 -196 L -553 -196 L -553 -210 L -539 -210 L -539 -224 L -553 -224 L -553 -238 L -567 -238 L -567 -224 L -553 -224 L -553 -210 L -567 -210 L -567 -196 L -581 -196 L -581 -210 L -595 -210 L -595 -196 L -609 -196 L -609 -210 L -595 -210 L -595 -224 L -609 -224 L -609 -238 L -623 -238 L -623 -224 L -637 -224 L -637 -238 L -623 -238 L -623 -252 L -609 -252 L -609 -238 L -595 -238 L -595 -252 L -609 -252 L -609 -266 L -595 -266 L -595 -280 L -609 -280 L -609 -294 L -623 -294 L -623 -280 L -609 -280 L -609 -266 L -623 -266 L -623 -252 L -637 -252 L -637 -266 L -651 -266 L -651 -252 L -665 -252 L -665 -266 L -651 -266 L -651 -280 L -665 -280 L -665 -294 L -679 -294 L -679 -280 L -665 -280 L -665 -266 L -679 -266 L -679 -252 L -693 -252 L -693 -266 L -707 -266 L -707 -252 L -693 -252 L -693 -238 L -707 -238 L -707 -224 L -693 -224 L -693 -210 L -679 -210 L -679 -224 L -693 -224 L -693 -238 L -679 -238 L -679 -252 L -665 -252 L -665 -238 L -651 -238 L -651 -252 L -637 -252 L -637 -238 L -651 -238 L -651 -224 L -637 -224 L -637 -210 L -623 -210 L -623 -224 L -609 -224 L -609 -210 L -623 -210 L -623 -196 L -637 -196 L -637 -210 L -651 -210 L -651 -196 L -637 -196 L -637 -182 L -651 -182 L -651 -168 L -637 -168 L -637 -154 L -623 -154 L -623 -168 L -609 -168 L -609 -154 L -623 -154 L -623 -140 L -637 -140 L -637 -154 L -651 -154 L -651 -140 L -665 -140 L -665 -154 L -651 -154 L -651 -168 L -665 -168 L -665 -182 L -679 -182 L -679 -168 L -665 -168 L -665 -154 L -679 -154 L -679 -140 L -693 -140 L -693 -154 L -707 -154 L -707 -140 L -693 -140 L -693 -126 L -707 -126 L -707 -112 L -693 -112 L -693 -98 L -679 -98 L -679 -112 L -665 -112 L -665 -98 L -679 -98 L -679 -84 L -693 -84 L -693 -98 L -707 -98 L -707 -84 L -721 -84 L -721 -98 L -707 -98 L -707 -112 L -721 -112 L -721 -126 L -735 -126 L -735 -112 L -749 -112 L -749 -126 L -735 -126 L -735 -140 L -721 -140 L -721 -126 L -707 -126 L -707 -140 L -721 -140 L -721 -154 L -707 -154 L -707 -168 L -721 -168 L -721 -182 L -735 -182 L -735 -168 L -721 -168 L -721 -154 L -735 -154 L -735 -140 L -749 -140 L -749 -154 L -763 -154 L -763 -140 L -777 -140 L -777 -154 L -763 -154 L -763 -168 L -777 -168 L -777 -182 L -791 -182 L -791 -168 L -777 -168 L -777 -154 L -791 -154 L -791 -140 L -805 -140 L -805 -154 L -819 -154 L -819 -140 L -805 -140 L -805 -126 L -819 -126 L -819 -112 L -805 -112 L -805 -98 L -791 -98 L -791 -112 L -777 -112 L -777 -98 L -791 -98 L -791 -84 L -805 -84 L -805 -98 L -819 -98 L -819 -84 L -833 -84 L -833 -98 L -819 -98 L -819 -112 L -833 -112 L -833 -126 L -847 -126 L -847 -112 L -861 -112 L -861 -126 L -847 -126 L -847 -140 L -833 -140 L -833 -126 L -819 -126 L -819 -140 L -833 -140 L -833 -154 L -819 -154 L -819 -168 L -833 -168 L -833 -182 L -847 -182 L -847 -168 L -861 -168 L -861 -182 L -847 -182 L -847 -196 L -833 -196 L -833 -182 L -819 -182 L -819 -196 L -805 -196 L -805 -182 L -819 -182 L -819 -168 L -805 -168 L -805 -154 L -791 -154 L -791 -168 L -805 -168 L -805 -182 L -791 -182 L -791 -196 L -777 -196 L -777 -182 L -763 -182 L -763 -196 L -777 -196 L -777 -210 L -763 -210 L -763 -224 L -777 -224 L -777 -238 L -791 -238 L -791 -224 L -777 -224 L -777 -210 L -791 -210 L -791 -196 L -805 -196 L -805 -210 L -819 -210 L -819 -196 L -833 -196 L -833 -210 L -819 -210 L -819 -224 L -833 -224 L -833 -238 L -847 -238 L -847 -224 L -861 -224 L -861 -238 L -847 -238 L -847 -252 L -833 -252 L -833 -238 L -819 -238 L -819 -252 L -833 -252 L -833 -266 L -819 -266 L -819 -280 L -833 -280 L -833 -294 L -847 -294 L -847 -280 L -833 -280 L -833 -266 L -847 -266 L -847 -252 L -861 -252 L -861 -266 L -875 -266 L -875 -252 L -889 -252 L -889 -266 L -875 -266 L -875 -280 L -889 -280 L -889 -294 L -903 -294 L -903 -280 L -889 -280 L -889 -266 L -903 -266 L -903 -252 L -917 -252 L -917 -266 L -931 -266 L -931 -252 L -917 -252 L -917 -238 L -931 -238 L -931 -224 L -917 -224 L -917 -210 L -903 -210 L -903 -224 L -917 -224 L -917 -238 L -903 -238 L -903 -252 L -889 -252 L -889 -238 L -875 -238 L -875 -252 L -861 -252 L -861 -238 L -875 -238 L -875 -224 L -861 -224 L -861 -210 L -847 -210 L -847 -224 L -833 -224 L -833 -210 L -847 -210 L -847 -196 L -861 -196 L -861 -210 L -875 -210 L -875 -196 L -861 -196 L -861 -182 L -875 -182 L -875 -168 L -861 -168 L -861 -154 L -847 -154 L -847 -168 L -833 -168 L -833 -154 L -847 -154 L -847 -140 L -861 -140 L -861 -154 L -875 -154 L -875 -140 L -889 -140 L -889 -154 L -875 -154 L -875 -168 L -889 -168 L -889 -182 L -903 -182 L -903 -168 L -889 -168 L -889 -154 L -903 -154 L -903 -140 L -917 -140 L -917 -154 L -931 -154 L -931 -140 L -917 -140 L -917 -126 L -931 -126 L -931 -112 L -917 -112 L -917 -98 L -903 -98 L -903 -112 L -889 -112 L -889 -98 L -903 -98 L -903 -84 L -917 -84 L -917 -98 L -931 -98 L -931 -84 L -945 -84 L -945 -98 L -931 -98 L -931 -112 L -945 -112 L -945 -126 L -959 -126 L -959 -112 L -973 -112 L -973 -126 L -959 -126 L -959 -140 L -945 -140 L -945 -126 L -931 -126 L -931 -140 L -945 -140 L -945 -154 L -931 -154 L -931 -168 L -945 -168 L -945 -182 L -959 -182 L -959 -168 L -945 -168 L -945 -154 L -959 -154 L -959 -140 L -973 -140 L -973 -154 L -987 -154 L -987 -140 L -1001 -140 L -1001 -154 L -987 -154 L -987 -168 L -1001 -168 L -1001 -182 L -1015 -182 L -1015 -168 L -1001 -168 L -1001 -154 L -1015 -154 L -1015 -140 L -1029 -140 L -1029 -154 L -1043 -154 L -1043 -140 L -1029 -140 L -1029 -126 L -1043 -126 L -1043 -112 L -1029 -112 L -1029 -98 L -1015 -98 L -1015 -112 L -1029 -112 L -1029 -126 L -1015 -126 L -1015 -140 L -1001 -140 L -1001 -126 L -987 -126 L -987 -140 L -973 -140 L -973 -126 L -987 -126 L -987 -112 L -973 -112 L -973 -98 L -959 -98 L -959 -112 L -945 -112 L -945 -98 L -959 -98 L -959 -84 L -973 -84 L -973 -98 L -987 -98 L -987 -84 L -973 -84 L -973 -70 L -987 -70 L -987 -56 L -973 -56 L -973 -42 L -959 -42 L -959 -56 L -945 -56 L -945 -42 L -959 -42 L -959 -28 L -973 -28 L -973 -42 L -987 -42 L -987 -28 L -1001 -28 L -1001 -42 L -987 -42 L -987 -56 L -1001 -56 L -1001 -70 L -1015 -70 L -1015 -56 L -1001 -56 L -1001 -42 L -1015 -42 L -1015 -28 L -1029 -28 L -1029 -42 L -1043 -42 L -1043 -28 L -1029 -28 L -1029 -14 L -1043 -14 L -1043 0 L -1029 0 L -1029 14 L -1015 14 L -1015 0 L -1029 0 L -1029 -14 L -1015 -14 L -1015 -28 L -1001 -28 L -1001 -14 L -987 -14 L -987 -28 L -973 -28 L -973 -14 L -987 -14 L -987 0 L -973 0 L -973 14 L -959 14 L -959 0 L -945 0 L -945 14 L -959 14 L -959 28 L -973 28 L -973 14 L -987 14 L -987 28 L -973 28 L -973 42 L -987 42 L -987 56 L -973 56 L -973 70 L -959 70 L -959 56 L -973 56 L -973 42 L -959 42 L -959 28 L -945 28 L -945 42 L -931 42 L -931 28 L -917 28 L -917 42 L -931 42 L -931 56 L -917 56 L -917 70 L -903 70 L -903 56 L -917 56 L -917 42 L -903 42 L -903 28 L -889 28 L -889 42 L -875 42 L -875 28 L -889 28 L -889 14 L -875 14 L -875 0 L -889 0 L -889 -14 L -903 -14 L -903 0 L -917 0 L -917 -14 L -903 -14 L -903 -28 L -889 -28 L -889 -14 L -875 -14 L -875 -28 L -861 -28 L -861 -14 L -875 -14 L -875 0 L -861 0 L -861 14 L -847 14 L -847 0 L -833 0 L -833 14 L -847 14 L -847 28 L -861 28 L -861 14 L -875 14 L -875 28 L -861 28 L -861 42 L -875 42 L -875 56 L -861 56 L -861 70 L -847 70 L -847 56 L -833 56 L -833 70 L -847 70 L -847 84 L -861 84 L -861 70 L -875 70 L -875 84 L -889 84 L -889 70 L -875 70 L -875 56 L -889 56 L -889 42 L -903 42 L -903 56 L -889 56 L -889 70 L -903 70 L -903 84 L -917 84 L -917 70 L -931 70 L -931 84 L -917 84 L -917 98 L -931 98 L -931 112 L -917 112 L -917 126 L -903 126 L -903 112 L -889 112 L -889 126 L -903 126 L -903 140 L -917 140 L -917 126 L -931 126 L -931 140 L -945 140 L -945 126 L -931 126 L -931 112 L -945 112 L -945 98 L -959 98 L -959 112 L -973 112 L -973 98 L -959 98 L -959 84 L -945 84 L -945 98 L -931 98 L -931 84 L -945 84 L -945 70 L -931 70 L -931 56 L -945 56 L -945 42 L -959 42 L -959 56 L -945 56 L -945 70 L -959 70 L -959 84 L -973 84 L -973 70 L -987 70 L -987 84 L -1001 84 L -1001 70 L -987 70 L -987 56 L -1001 56 L -1001 42 L -1015 42 L -1015 56 L -1001 56 L -1001 70 L -1015 70 L -1015 84 L -1029 84 L -1029 70 L -1043 70 L -1043 84 L -1029 84 L -1029 98 L -1043 98 L -1043 112 L -1029 112 L -1029 126 L -1015 126 L -1015 112 L -1001 112 L -1001 126 L -1015 126 L -1015 140 L -1029 140 L -1029 126 L -1043 126 L -1043 140 L -1057 140 L -1057 126 L -1043 126 L -1043 112 L -1057 112 L -1057 98 L -1071 98 L -1071 112 L -1085 112 L -1085 98 L -1071 98 L -1071 84 L -1057 84 L -1057 98 L -1043 98 L -1043 84 L -1057 84 L -1057 70 L -1043 70 L -1043 56 L -1057 56 L -1057 42 L -1071 42 L -1071 56 L -1085 56 L -1085 42 L -1071 42 L -1071 28 L -1057 28 L -1057 42 L -1043 42 L -1043 28 L -1029 28 L -1029 42 L -1043 42 L -1043 56 L -1029 56 L -1029 70 L -1015 70 L -1015 56 L -1029 56 L -1029 42 L -1015 42 L -1015 28 L -1001 28 L -1001 42 L -987 42 L -987 28 L -1001 28 L -1001 14 L -987 14 L -987 0 L -1001 0 L -1001 -14 L -1015 -14 L -1015 0 L -1001 0 L -1001 14 L -1015 14 L -1015 28 L -1029 28 L -1029 14 L -1043 14 L -1043 28 L -1057 28 L -1057 14 L -1043 14 L -1043 0 L -1057 0 L -1057 -14 L -1071 -14 L -1071 0 L -1085 0 L -1085 -14 L -1071 -14 L -1071 -28 L -1057 -28 L -1057 -14 L -1043 -14 L -1043 -28 L -1057 -28 L -1057 -42 L -1043 -42 L -1043 -56 L -1057 -56 L -1057 -70 L -1071 -70 L -1071 -56 L -1057 -56 L -1057 -42 L -1071 -42 L -1071 -28 L -1085 -28 L -1085 -42 L -1099 -42 L -1099 -28 L -1113 -28 L -1113 -42 L -1099 -42 L -1099 -56 L -1113 -56 L -1113 -70 L -1127 -70 L -1127 -56 L -1113 -56 L -1113 -42 L -1127 -42 L -1127 -28 L -1141 -28 L -1141 -42 L -1155 -42 L -1155 -28 L -1141 -28 L -1141 -14 L -1155 -14 L -1155 0 L -1141 0 L -1141 14 L -1127 14 L -1127 0 L -1113 0 L -1113 14 L -1127 14 L -1127 28 L -1141 28 L -1141 14 L -1155 14 L -1155 28 L -1169 28 L -1169 14 L -1155 14 L -1155 0 L -1169 0 L -1169 -14 L -1183 -14 L -1183 0 L -1197 0 L -1197 -14 L -1183 -14 L -1183 -28 L -1169 -28 L -1169 -14 L -1155 -14 L -1155 -28 L -1169 -28 L -1169 -42 L -1155 -42 L -1155 -56 L -1169 -56 L -1169 -70 L -1183 -70 L -1183 -56 L -1197 -56 L -1197 -70 L -1183 -70 L -1183 -84 L -1169 -84 L -1169 -70 L -1155 -70 L -1155 -84 L -1141 -84 L -1141 -70 L -1155 -70 L -1155 -56 L -1141 -56 L -1141 -42 L -1127 -42 L -1127 -56 L -1141 -56 L -1141 -70 L -1127 -70 L -1127 -84 L -1113 -84 L -1113 -70 L -1099 -70 L -1099 -84 L -1113 -84 L -1113 -98 L -1099 -98 L -1099 -112 L -1113 -112 L -1113 -126 L -1127 -126 L -1127 -112 L -1141 -112 L -1141 -126 L -1127 -126 L -1127 -140 L -1113 -140 L -1113 -126 L -1099 -126 L -1099 -140 L -1085 -140 L -1085 -126 L -1099 -126 L -1099 -112 L -1085 -112 L -1085 -98 L -1071 -98 L -1071 -112 L -1057 -112 L -1057 -98 L -1071 -98 L -1071 -84 L -1085 -84 L -1085 -98 L -1099 -98 L -1099 -84 L -1085 -84 L -1085 -70 L -1099 -70 L -1099 -56 L -1085 -56 L -1085 -42 L -1071 -42 L -1071 -56 L -1085 -56 L -1085 -70 L -1071 -70 L -1071 -84 L -1057 -84 L -1057 -70 L -1043 -70 L -1043 -84 L -1029 -84 L -1029 -70 L -1043 -70 L -1043 -56 L -1029 -56 L -1029 -42 L -1015 -42 L -1015 -56 L -1029 -56 L -1029 -70 L -1015 -70 L -1015 -84 L -1001 -84 L -1001 -70 L -987 -70 L -987 -84 L -1001 -84 L -1001 -98 L -987 -98 L -987 -112 L -1001 -112 L -1001 -126 L -1015 -126 L -1015 -112 L -1001 -112 L -1001 -98 L -1015 -98 L -1015 -84 L -1029 -84 L -1029 -98 L -1043 -98 L -1043 -84 L -1057 -84 L -1057 -98 L -1043 -98 L -1043 -112 L -1057 -112 L -1057 -126 L -1071 -126 L -1071 -112 L -1085 -112 L -1085 -126 L -1071 -126 L -1071 -140 L -1057 -140 L -1057 -126 L -1043 -126 L -1043 -140 L -1057 -140 L -1057 -154 L -1043 -154 L -1043 -168 L -1057 -168 L -1057 -182 L -1071 -182 L -1071 -168 L -1085 -168 L -1085 -182 L -1071 -182 L -1071 -196 L -1057 -196 L -1057 -182 L -1043 -182 L -1043 -196 L -1029 -196 L -1029 -182 L -1043 -182 L -1043 -168 L -1029 -168 L -1029 -154 L -1015 -154 L -1015 -168 L -1029 -168 L -1029 -182 L -1015 -182 L -1015 -196 L -1001 -196 L -1001 -182 L -987 -182 L -987 -196 L -1001 -196 L -1001 -210 L -987 -210 L -987 -224 L -1001 -224 L -1001 -238 L -1015 -238 L -1015 -224 L -1001 -224 L -1001 -210 L -1015 -210 L -1015 -196 L -1029 -196 L -1029 -210 L -1043 -210 L -1043 -196 L -1057 -196 L -1057 -210 L -1043 -210 L -1043 -224 L -1057 -224 L -1057 -238 L -1071 -238 L -1071 -224 L -1085 -224 L -1085 -238 L -1071 -238 L -1071 -252 L -1057 -252 L -1057 -238 L -1043 -238 L -1043 -252 L -1057 -252 L -1057 -266 L -1043 -266 L -1043 -280 L -1057 -280 L -1057 -294 L -1071 -294 L -1071 -280 L -1057 -280 L -1057 -266 L -1071 -266 L -1071 -252 L -1085 -252 L -1085 -266 L -1099 -266 L -1099 -252 L -1113 -252 L -1113 -266 L -1099 -266 L -1099 -280 L -1113 -280 L -1113 -294 L -1127 -294 L -1127 -280 L -1113 -280 L -1113 -266 L -1127 -266 L -1127 -252 L -1141 -252 L -1141 -266 L -1155 -266 L -1155 -252 L -1141 -252 L -1141 -238 L -1155 -238 L -1155 -224 L -1141 -224 L -1141 -210 L -1127 -210 L -1127 -224 L -1113 -224 L -1113 -210 L -1127 -210 L -1127 -196 L -1141 -196 L -1141 -210 L -1155 -210 L -1155 -196 L -1169 -196 L -1169 -210 L -1155 -210 L -1155 -224 L -1169 -224 L -1169 -238 L -1183 -238 L -1183 -224 L -1197 -224 L -1197 -238 L -1183 -238 L -1183 -252 L -1169 -252 L -1169 -238 L -1155 -238 L -1155 -252 L -1169 -252 L -1169 -266 L -1155 -266 L -1155 -280 L -1169 -280 L -1169 -294 L -1183 -294 L -1183 -280 L -1197 -280 L -1197 -294 L -1183 -294 L -1183 -308 L -1169 -308 L -1169 -294 L -1155 -294 L -1155 -308 L -1141 -308 L -1141 -294 L -1155 -294 L -1155 -280 L -1141 -280 L -1141 -266 L -1127 -266 L -1127 -280 L -1141 -280 L -1141 -294 L -1127 -294 L -1127 -308 L -1113 -308 L -1113 -294 L -1099 -294 L -1099 -308 L -1113 -308 L -1113 -322 L -1099 -322 L -1099 -336 L -1113 -336 L -1113 -350 L -1127 -350 L -1127 -336 L -1141 -336 L -1141 -350 L -1127 -350 L -1127 -364 L -1113 -364 L -1113 -350 L -1099 -350 L -1099 -364 L -1085 -364 L -1085 -350 L -1099 -350 L -1099 -336 L -1085 -336 L -1085 -322 L -1071 -322 L -1071 -336 L -1057 -336 L -1057 -322 L -1071 -322 L -1071 -308 L -1085 -308 L -1085 -322 L -1099 -322 L -1099 -308 L -1085 -308 L -1085 -294 L -1099 -294 L -1099 -280 L -1085 -280 L -1085 -266 L -1071 -266 L -1071 -280 L -1085 -280 L -1085 -294 L -1071 -294 L -1071 -308 L -1057 -308 L -1057 -294 L -1043 -294 L -1043 -308 L -1029 -308 L -1029 -294 L -1043 -294 L -1043 -280 L -1029 -280 L -1029 -266 L -1015 -266 L -1015 -280 L -1029 -280 L -1029 -294 L -1015 -294 L -1015 -308 L -1001 -308 L -1001 -294 L -987 -294 L -987 -308 L -1001 -308 L -1001 -322 L -987 -322 L -987 -336 L -1001 -336 L -1001 -350 L -1015 -350 L -1015 -336 L -1029 -336 L -1029 -350 L -1015 -350 L -1015 -364 L -1001 -364 L -1001 -350 L -987 -350 L -987 -364 L -973 -364 L -973 -350 L -987 -350 L -987 -336 L -973 -336 L -973 -322 L -959 -322 L -959 -336 L -945 -336 L -945 -322 L -959 -322 L -959 -308 L -973 -308 L -973 -322 L -987 -322 L -987 -308 L -973 -308 L -973 -294 L -987 -294 L -987 -280 L -973 -280 L -973 -266 L -959 -266 L -959 -280 L -945 -280 L -945 -266 L -959 -266 L -959 -252 L -973 -252 L -973 -266 L -987 -266 L -987 -252 L -1001 -252 L -1001 -266 L -987 -266 L -987 -280 L -1001 -280 L -1001 -294 L -1015 -294 L -1015 -280 L -1001 -280 L -1001 -266 L -1015 -266 L -1015 -252 L -1029 -252 L -1029 -266 L -1043 -266 L -1043 -252 L -1029 -252 L -1029 -238 L -1043 -238 L -1043 -224 L -1029 -224 L -1029 -210 L -1015 -210 L -1015 -224 L -1029 -224 L -1029 -238 L -1015 -238 L -1015 -252 L -1001 -252 L -1001 -238 L -987 -238 L -987 -252 L -973 -252 L -973 -238 L -987 -238 L -987 -224 L -973 -224 L -973 -210 L -959 -210 L -959 -224 L -945 -224 L -945 -210 L -959 -210 L -959 -196 L -973 -196 L -973 -210 L -987 -210 L -987 -196 L -973 -196 L -973 -182 L -987 -182 L -987 -168 L -973 -168 L -973 -154 L -959 -154 L -959 -168 L -973 -168 L -973 -182 L -959 -182 L -959 -196 L -945 -196 L -945 -182 L -931 -182 L -931 -196 L -917 -196 L -917 -182 L -931 -182 L -931 -168 L -917 -168 L -917 -154 L -903 -154 L -903 -168 L -917 -168 L -917 -182 L -903 -182 L -903 -196 L -889 -196 L -889 -182 L -875 -182 L -875 -196 L -889 -196 L -889 -210 L -875 -210 L -875 -224 L -889 -224 L -889 -238 L -903 -238 L -903 -224 L -889 -224 L -889 -210 L -903 -210 L -903 -196 L -917 -196 L -917 -210 L -931 -210 L -931 -196 L -945 -196 L -945 -210 L -931 -210 L -931 -224 L -945 -224 L -945 -238 L -959 -238 L -959 -224 L -973 -224 L -973 -238 L -959 -238 L -959 -252 L -945 -252 L -945 -238 L -931 -238 L -931 -252 L -945 -252 L -945 -266 L -931 -266 L -931 -280 L -945 -280 L -945 -294 L -959 -294 L -959 -280 L -973 -280 L -973 -294 L -959 -294 L -959 -308 L -945 -308 L -945 -294 L -931 -294 L -931 -308 L -917 -308 L -917 -294 L -931 -294 L -931 -280 L -917 -280 L -917 -266 L -903 -266 L -903 -280 L -917 -280 L -917 -294 L -903 -294 L -903 -308 L -889 -308 L -889 -294 L -875 -294 L -875 -308 L -889 -308 L -889 -322 L -875 -322 L -875 -336 L -889 -336 L -889 -350 L -903 -350 L -903 -336 L -917 -336 L -917 -350 L -903 -350 L -903 -364 L -889 -364 L -889 -350 L -875 -350 L -875 -364 L -861 -364 L -861 -350 L -875 -350 L -875 -336 L -861 -336 L -861 -322 L -847 -322 L -847 -336 L -833 -336 L -833 -322 L -847 -322 L -847 -308 L -861 -308 L -861 -322 L -875 -322 L -875 -308 L -861 -308 L -861 -294 L -875 -294 L -875 -280 L -861 -280 L -861 -266 L -847 -266 L -847 -280 L -861 -280 L -861 -294 L -847 -294 L -847 -308 L -833 -308 L -833 -294 L -819 -294 L -819 -308 L -805 -308 L -805 -294 L -819 -294 L -819 -280 L -805 -280 L -805 -266 L -791 -266 L -791 -280 L -805 -280 L -805 -294 L -791 -294 L -791 -308 L -777 -308 L -777 -294 L -763 -294 L -763 -308 L -777 -308 L -777 -322 L -763 -322 L -763 -336 L -777 -336 L -777 -350 L -791 -350 L -791 -336 L -777 -336 L -777 -322 L -791 -322 L -791 -308 L -805 -308 L -805 -322 L -819 -322 L -819 -308 L -833 -308 L -833 -322 L -819 -322 L -819 -336 L -833 -336 L -833 -350 L -847 -350 L -847 -336 L -861 -336 L -861 -350 L -847 -350 L -847 -364 L -833 -364 L -833 -350 L -819 -350 L -819 -364 L -833 -364 L -833 -378 L -819 -378 L -819 -392 L -833 -392 L -833 -406 L -847 -406 L -847 -392 L -861 -392 L -861 -406 L -847 -406 L -847 -420 L -833 -420 L -833 -406 L -819 -406 L -819 -420 L -805 -420 L -805 -406 L -819 -406 L -819 -392 L -805 -392 L -805 -378 L -791 -378 L -791 -392 L -805 -392 L -805 -406 L -791 -406 L -791 -420 L -777 -420 L -777 -406 L -763 -406 L -763 -420 L -777 -420 L -777 -434 L -763 -434 L -763 -448 L -777 -448 L -777 -462 L -791 -462 L -791 -448 L -777 -448 L -777 -434 L -791 -434 L -791 -420 L -805 -420 L -805 -434 L -819 -434 L -819 -420 L -833 -420 L -833 -434 L -819 -434 L -819 -448 L -833 -448 L -833 -462 L -847 -462 L -847 -448 L -861 -448 L -861 -462 L -847 -462 L -847 -476 L -833 -476 L -833 -462 L -819 -462 L -819 -476 L -833 -476 L -833 -490 L -819 -490 L -819 -504 L -833 -504 L -833 -518 L -847 -518 L -847 -504 L -833 -504 L -833 -490 L -847 -490 L -847 -476 L -861 -476 L -861 -490 L -875 -490 L -875 -476 L -889 -476 L -889 -490 L -875 -490 L -875 -504 L -889 -504 L -889 -518 L -903 -518 L -903 -504 L -889 -504 L -889 -490 L -903 -490 L -903 -476 L -917 -476 L -917 -490 L -931 -490 L -931 -476 L -917 -476 L -917 -462 L -931 -462 L -931 -448 L -917 -448 L -917 -434 L -903 -434 L -903 -448 L -889 -448 L -889 -434 L -903 -434 L -903 -420 L -917 -420 L -917 -434 L -931 -434 L -931 -420 L -945 -420 L -945 -434 L -931 -434 L -931 -448 L -945 -448 L -945 -462 L -959 -462 L -959 -448 L -973 -448 L -973 -462 L -959 -462 L -959 -476 L -945 -476 L -945 -462 L -931 -462 L -931 -476 L -945 -476 L -945 -490 L -931 -490 L -931 -504 L -945 -504 L -945 -518 L -959 -518 L -959 -504 L -973 -504 L -973 -518 L -959 -518 L -959 -532 L -945 -532 L -945 -518 L -931 -518 L -931 -532 L -917 -532 L -917 -518 L -931 -518 L -931 -504 L -917 -504 L -917 -490 L -903 -490 L -903 -504 L -917 -504 L -917 -518 L -903 -518 L -903 -532 L -889 -532 L -889 -518 L -875 -518 L -875 -532 L -889 -532 L -889 -546 L -875 -546 L -875 -560 L -889 -560 L -889 -574 L -903 -574 L -903 -560 L -917 -560 L -917 -574 L -903 -574 L -903 -588 L -889 -588 L -889 -574 L -875 -574 L -875 -588 L -861 -588 L -861 -574 L -875 -574 L -875 -560 L -861 -560 L -861 -546 L -847 -546 L -847 -560 L -833 -560 L -833 -546 L -847 -546 L -847 -532 L -861 -532 L -861 -546 L -875 -546 L -875 -532 L -861 -532 L -861 -518 L -875 -518 L -875 -504 L -861 -504 L -861 -490 L -847 -490 L -847 -504 L -861 -504 L -861 -518 L -847 -518 L -847 -532 L -833 -532 L -833 -518 L -819 -518 L -819 -532 L -805 -532 L -805 -518 L -819 -518 L -819 -504 L -805 -504 L -805 -490 L -791 -490 L -791 -504 L -805 -504 L -805 -518 L -791 -518 L -791 -532 L -777 -532 L -777 -518 L -763 -518 L -763 -532 L -777 -532 L -777 -546 L -763 -546 L -763 -560 L -777 -560 L -777 -574 L -791 -574 L -791 -560 L -805 -560 L -805 -574 L -791 -574 L -791 -588 L -777 -588 L -777 -574 L -763 -574 L -763 -588 L -749 -588 L -749 -574 L -763 -574 L -763 -560 L -749 -560 L -749 -546 L -735 -546 L -735 -560 L -721 -560 L -721 -546 L -735 -546 L -735 -532 L -749 -532 L -749 -546 L -763 -546 L -763 -532 L -749 -532 L -749 -518 L -763 -518 L -763 -504 L -749 -504 L -749 -490 L -735 -490 L -735 -504 L -721 -504 L -721 -490 L -735 -490 L -735 -476 L -749 -476 L -749 -490 L -763 -490 L -763 -476 L -777 -476 L -777 -490 L -763 -490 L -763 -504 L -777 -504 L -777 -518 L -791 -518 L -791 -504 L -777 -504 L -777 -490 L -791 -490 L -791 -476 L -805 -476 L -805 -490 L -819 -490 L -819 -476 L -805 -476 L -805 -462 L -819 -462 L -819 -448 L -805 -448 L -805 -434 L -791 -434 L -791 -448 L -805 -448 L -805 -462 L -791 -462 L -791 -476 L -777 -476 L -777 -462 L -763 -462 L -763 -476 L -749 -476 L -749 -462 L -763 -462 L -763 -448 L -749 -448 L -749 -434 L -735 -434 L -735 -448 L -721 -448 L -721 -434 L -735 -434 L -735 -420 L -749 -420 L -749 -434 L -763 -434 L -763 -420 L -749 -420 L -749 -406 L -763 -406 L -763 -392 L -749 -392 L -749 -378 L -735 -378 L -735 -392 L -749 -392 L -749 -406 L -735 -406 L -735 -420 L -721 -420 L -721 -406 L -707 -406 L -707 -420 L -693 -420 L -693 -406 L -707 -406 L -707 -392 L -693 -392 L -693 -378 L -679 -378 L -679 -392 L -693 -392 L -693 -406 L -679 -406 L -679 -420 L -665 -420 L -665 -406 L -651 -406 L -651 -420 L -665 -420 L -665 -434 L -651 -434 L -651 -448 L -665 -448 L -665 -462 L -679 -462 L -679 -448 L -693 -448 L -693 -462 L -679 -462 L -679 -476 L -665 -476 L -665 -462 L -651 -462 L -651 -476 L -637 -476 L -637 -462 L -651 -462 L -651 -448 L -637 -448 L -637 -434 L -623 -434 L -623 -448 L -609 -448 L -609 -434 L -623 -434 L -623 -420 L -637 -420 L -637 -434 L -651 -434 L -651 -420 L -637 -420 L -637 -406 L -651 -406 L -651 -392 L -637 -392 L -637 -378 L -623 -378 L -623 -392 L -609 -392 L -609 -378 L -623 -378 L -623 -364 L -637 -364 L -637 -378 L -651 -378 L -651 -364 L -665 -364 L -665 -378 L -651 -378 L -651 -392 L -665 -392 L -665 -406 L -679 -406 L -679 -392 L -665 -392 L -665 -378 L -679 -378 L -679 -364 L -693 -364 L -693 -378 L -707 -378 L -707 -364 L -693 -364 L -693 -350 L -707 -350 L -707 -336 L -693 -336 L -693 -322 L -679 -322 L -679 -336 L -665 -336 L -665 -322 L -679 -322 L -679 -308 L -693 -308 L -693 -322 L -707 -322 L -707 -308 L -721 -308 L -721 -322 L -707 -322 L -707 -336 L -721 -336 L -721 -350 L -735 -350 L -735 -336 L -749 -336 L -749 -350 L -735 -350 L -735 -364 L -721 -364 L -721 -350 L -707 -350 L -707 -364 L -721 -364 L -721 -378 L -707 -378 L -707 -392 L -721 -392 L -721 -406 L -735 -406 L -735 -392 L -721 -392 L -721 -378 L -735 -378 L -735 -364 L -749 -364 L -749 -378 L -763 -378 L -763 -364 L -777 -364 L -777 -378 L -763 -378 L -763 -392 L -777 -392 L -777 -406 L -791 -406 L -791 -392 L -777 -392 L -777 -378 L -791 -378 L -791 -364 L -805 -364 L -805 -378 L -819 -378 L -819 -364 L -805 -364 L -805 -350 L -819 -350 L -819 -336 L -805 -336 L -805 -322 L -791 -322 L -791 -336 L -805 -336 L -805 -350 L -791 -350 L -791 -364 L -777 -364 L -777 -350 L -763 -350 L -763 -364 L -749 -364 L -749 -350 L -763 -350 L -763 -336 L -749 -336 L -749 -322 L -735 -322 L -735 -336 L -721 -336 L -721 -322 L -735 -322 L -735 -308 L -749 -308 L -749 -322 L -763 -322 L -763 -308 L -749 -308 L -749 -294 L -763 -294 L -763 -280 L -749 -280 L -749 -266 L -735 -266 L -735 -280 L -721 -280 L -721 -266 L -735 -266 L -735 -252 L -749 -252 L -749 -266 L -763 -266 L -763 -252 L -777 -252 L -777 -266 L -763 -266 L -763 -280 L -777 -280 L -777 -294 L -791 -294 L -791 -280 L -777 -280 L -777 -266 L -791 -266 L -791 -252 L -805 -252 L -805 -266 L -819 -266 L -819 -252 L -805 -252 L -805 -238 L -819 -238 L -819 -224 L -805 -224 L -805 -210 L -791 -210 L -791 -224 L -805 -224 L -805 -238 L -791 -238 L -791 -252 L -777 -252 L -777 -238 L -763 -238 L -763 -252 L -749 -252 L -749 -238 L -763 -238 L -763 -224 L -749 -224 L -749 -210 L -735 -210 L -735 -224 L -721 -224 L -721 -210 L -735 -210 L -735 -196 L -749 -196 L -749 -210 L -763 -210 L -763 -196 L -749 -196 L -749 -182 L -763 -182 L -763 -168 L -749 -168 L -749 -154 L -735 -154 L -735 -168 L -749 -168 L -749 -182 L -735 -182 L -735 -196 L -721 -196 L -721 -182 L -707 -182 L -707 -196 L -693 -196 L -693 -182 L -707 -182 L -707 -168 L -693 -168 L -693 -154 L -679 -154 L -679 -168 L -693 -168 L -693 -182 L -679 -182 L -679 -196 L -665 -196 L -665 -182 L -651 -182 L -651 -196 L -665 -196 L -665 -210 L -651 -210 L -651 -224 L -665 -224 L -665 -238 L -679 -238 L -679 -224 L -665 -224 L -665 -210 L -679 -210 L -679 -196 L -693 -196 L -693 -210 L -707 -210 L -707 -196 L -721 -196 L -721 -210 L -707 -210 L -707 -224 L -721 -224 L -721 -238 L -735 -238 L -735 -224 L -749 -224 L -749 -238 L -735 -238 L -735 -252 L -721 -252 L -721 -238 L -707 -238 L -707 -252 L -721 -252 L -721 -266 L -707 -266 L -707 -280 L -721 -280 L -721 -294 L -735 -294 L -735 -280 L -749 -280 L -749 -294 L -735 -294 L -735 -308 L -721 -308 L -721 -294 L -707 -294 L -707 -308 L -693 -308 L -693 -294 L -707 -294 L -707 -280 L -693 -280 L -693 -266 L -679 -266 L -679 -280 L -693 -280 L -693 -294 L -679 -294 L -679 -308 L -665 -308 L -665 -294 L -651 -294 L -651 -308 L -665 -308 L -665 -322 L -651 -322 L -651 -336 L -665 -336 L -665 -350 L -679 -350 L -679 -336 L -693 -336 L -693 -350 L -679 -350 L -679 -364 L -665 -364 L -665 -350 L -651 -350 L -651 -364 L -637 -364 L -637 -350 L -651 -350 L -651 -336 L -637 -336 L -637 -322 L -623 -322 L -623 -336 L -609 -336 L -609 -322 L -623 -322 L -623 -308 L -637 -308 L -637 -322 L -651 -322 L -651 -308 L -637 -308 L -637 -294 L -651 -294 L -651 -280 L -637 -280 L -637 -266 L -623 -266 L -623 -280 L -637 -280 L -637 -294 L -623 -294 L -623 -308 L -609 -308 L -609 -294 L -595 -294 L -595 -308 L -581 -308 L -581 -294 L -595 -294 L -595 -280 L -581 -280 L -581 -266 L -567 -266 L -567 -280 L -581 -280 L -581 -294 L -567 -294 L -567 -308 L -553 -308 L -553 -294 L -539 -294 L -539 -308 L -553 -308 L -553 -322 L -539 -322 L -539 -336 L -553 -336 L -553 -350 L -567 -350 L -567 -336 L -581 -336 L -581 -350 L -567 -350 L -567 -364 L -553 -364 L -553 -350 L -539 -350 L -539 -364 L -525 -364 L -525 -350 L -539 -350 L -539 -336 L -525 -336 L -525 -322 L -511 -322 L -511 -336 L -497 -336 L -497 -322 L -511 -322 L -511 -308 L -525 -308 L -525 -322 L -539 -322 L -539 -308 L -525 -308 L -525 -294 L -539 -294 L -539 -280 L -525 -280 L -525 -266 L -511 -266 L -511 -280 L -497 -280 L -497 -266 L -511 -266 L -511 -252 L -525 -252 L -525 -266 L -539 -266 L -539 -252 L -553 -252 L -553 -266 L -539 -266 L -539 -280 L -553 -280 L -553 -294 L -567 -294 L -567 -280 L -553 -280 L -553 -266 L -567 -266 L -567 -252 L -581 -252 L -581 -266 L -595 -266 L -595 -252 L -581 -252 L -581 -238 L -595 -238 L -595 -224 L -581 -224 L -581 -210 L -567 -210 L -567 -224 L -581 -224 L -581 -238 L -567 -238 L -567 -252 L -553 -252 L -553 -238 L -539 -238 L -539 -252 L -525 -252 L -525 -238 L -539 -238 L -539 -224 L -525 -224 L -525 -210 L -511 -210 L -511 -224 L -497 -224 L -497 -210 L -511 -210 L -511 -196 L -525 -196 L -525 -210 L -539 -210 L -539 -196 L -525 -196 L -525 -182 L -539 -182 L -539 -168 L -525 -168 L -525 -154 L -511 -154 L -511 -168 L -525 -168 L -525 -182 L -511 -182 L -511 -196 L -497 -196 L -497 -182 L -483 -182 L -483 -196 L -469 -196 L -469 -182 L -483 -182 L -483 -168 L -469 -168 L -469 -154 L -455 -154 L -455 -168 L -469 -168 L -469 -182 L -455 -182 L -455 -196 L -441 -196 L -441 -182 L -427 -182 L -427 -196 L -441 -196 L -441 -210 L -427 -210 L -427 -224 L -441 -224 L -441 -238 L -455 -238 L -455 -224 L -441 -224 L -441 -210 L -455 -210 L -455 -196 L -469 -196 L -469 -210 L -483 -210 L -483 -196 L -497 -196 L -497 -210 L -483 -210 L -483 -224 L -497 -224 L -497 -238 L -511 -238 L -511 -224 L -525 -224 L -525 -238 L -511 -238 L -511 -252 L -497 -252 L -497 -238 L -483 -238 L -483 -252 L -497 -252 L -497 -266 L -483 -266 L -483 -280 L -497 -280 L -497 -294 L -511 -294 L -511 -280 L -525 -280 L -525 -294 L -511 -294 L -511 -308 L -497 -308 L -497 -294 L -483 -294 L -483 -308 L -469 -308 L -469 -294 L -483 -294 L -483 -280 L -469 -280 L -469 -266 L -455 -266 L -455 -280 L -469 -280 L -469 -294 L -455 -294 L -455 -308 L -441 -308 L -441 -294 L -427 -294 L -427 -308 L -441 -308 L -441 -322 L -427 -322 L -427 -336 L -441 -336 L -441 -350 L -455 -350 L -455 -336 L -469 -336 L -469 -350 L -455 -350 L -455 -364 L -441 -364 L -441 -350 L -427 -350 L -427 -364 L -413 -364 L -413 -350 L -427 -350 L -427 -336 L -413 -336 L -413 -322 L -399 -322 L -399 -336 L -385 -336 L -385 -322 L -399 -322 L -399 -308 L -413 -308 L -413 -322 L -427 -322 L -427 -308 L -413 -308 L -413 -294 L -427 -294 L -427 -280 L -413 -280 L -413 -266 L -399 -266 L -399 -280 L -413 -280 L -413 -294 L -399 -294 L -399 -308 L -385 -308 L -385 -294 L -371 -294 L -371 -308 L -357 -308 L -357 -294 L -371 -294 L -371 -280 L -357 -280 L -357 -266 L -343 -266 L -343 -280 L -357 -280 L -357 -294 L -343 -294 L -343 -308 L -329 -308 L -329 -294 L -315 -294 L -315 -308 L -329 -308 L -329 -322 L -315 -322 L -315 -336 L -329 -336 L -329 -350 L -343 -350 L -343 -336 L -329 -336 L -329 -322 L -343 -322 L -343 -308 L -357 -308 L -357 -322 L -371 -322 L -371 -308 L -385 -308 L -385 -322 L -371 -322 L -371 -336 L -385 -336 L -385 -350 L -399 -350 L -399 -336 L -413 -336 L -413 -350 L -399 -350 L -399 -364 L -385 -364 L -385 -350 L -371 -350 L -371 -364 L -385 -364 L -385 -378 L -371 -378 L -371 -392 L -385 -392 L -385 -406 L -399 -406 L -399 -392 L -413 -392 L -413 -406 L -399 -406 L -399 -420 L -385 -420 L -385 -406 L -371 -406 L -371 -420 L -357 -420 L -357 -406 L -371 -406 L -371 -392 L -357 -392 L -357 -378 L -343 -378 L -343 -392 L -357 -392 L -357 -406 L -343 -406 L -343 -420 L -329 -420 L -329 -406 L -315 -406 L -315 -420 L -329 -420 L -329 -434 L -315 -434 L -315 -448 L -329 -448 L -329 -462 L -343 -462 L -343 -448 L -329 -448 L -329 -434 L -343 -434 L -343 -420 L -357 -420 L -357 -434 L -371 -434 L -371 -420 L -385 -420 L -385 -434 L -371 -434 L -371 -448 L -385 -448 L -385 -462 L -399 -462 L -399 -448 L -413 -448 L -413 -462 L -399 -462 L -399 -476 L -385 -476 L -385 -462 L -371 -462 L -371 -476 L -385 -476 L -385 -490 L -371 -490 L -371 -504 L -385 -504 L -385 -518 L -399 -518 L -399 -504 L -385 -504 L -385 -490 L -399 -490 L -399 -476 L -413 -476 L -413 -490 L -427 -490 L -427 -476 L -441 -476 L -441 -490 L -427 -490 L -427 -504 L -441 -504 L -441 -518 L -455 -518 L -455 -504 L -441 -504 L -441 -490 L -455 -490 L -455 -476 L -469 -476 L -469 -490 L -483 -490 L -483 -476 L -469 -476 L -469 -462 L -483 -462 L -483 -448 L -469 -448 L -469 -434 L -455 -434 L -455 -448 L -469 -448 L -469 -462 L -455 -462 L -455 -476 L -441 -476 L -441 -462 L -427 -462 L -427 -476 L -413 -476 L -413 -462 L -427 -462 L -427 -448 L -413 -448 L -413 -434 L -399 -434 L -399 -448 L -385 -448 L -385 -434 L -399 -434 L -399 -420 L -413 -420 L -413 -434 L -427 -434 L -427 -420 L -413 -420 L -413 -406 L -427 -406 L -427 -392 L -413 -392 L -413 -378 L -399 -378 L -399 -392 L -385 -392 L -385 -378 L -399 -378 L -399 -364 L -413 -364 L -413 -378 L -427 -378 L -427 -364 L -441 -364 L -441 -378 L -427 -378 L -427 -392 L -441 -392 L -441 -406 L -455 -406 L -455 -392 L -441 -392 L -441 -378 L -455 -378 L -455 -364 L -469 -364 L -469 -378 L -483 -378 L -483 -364 L -469 -364 L -469 -350 L -483 -350 L -483 -336 L -469 -336 L -469 -322 L -455 -322 L -455 -336 L -441 -336 L -441 -322 L -455 -322 L -455 -308 L -469 -308 L -469 -322 L -483 -322 L -483 -308 L -497 -308 L -497 -322 L -483 -322 L -483 -336 L -497 -336 L -497 -350 L -511 -350 L -511 -336 L -525 -336 L -525 -350 L -511 -350 L -511 -364 L -497 -364 L -497 -350 L -483 -350 L -483 -364 L -497 -364 L -497 -378 L -483 -378 L -483 -392 L -497 -392 L -497 -406 L -511 -406 L -511 -392 L -497 -392 L -497 -378 L -511 -378 L -511 -364 L -525 -364 L -525 -378 L -539 -378 L -539 -364 L -553 -364 L -553 -378 L -539 -378 L -539 -392 L -553 -392 L -553 -406 L -567 -406 L -567 -392 L -553 -392 L -553 -378 L -567 -378 L -567 -364 L -581 -364 L -581 -378 L -595 -378 L -595 -364 L -581 -364 L -581 -350 L -595 -350 L -595 -336 L -581 -336 L -581 -322 L -567 -322 L -567 -336 L -553 -336 L -553 -322 L -567 -322 L -567 -308 L -581 -308 L -581 -322 L -595 -322 L -595 -308 L -609 -308 L -609 -322 L -595 -322 L -595 -336 L -609 -336 L -609 -350 L -623 -350 L -623 -336 L -637 -336 L -637 -350 L -623 -350 L -623 -364 L -609 -364 L -609 -350 L -595 -350 L -595 -364 L -609 -364 L -609 -378 L -595 -378 L -595 -392 L -609 -392 L -609 -406 L -623 -406 L -623 -392 L -637 -392 L -637 -406 L -623 -406 L -623 -420 L -609 -420 L -609 -406 L -595 -406 L -595 -420 L -581 -420 L -581 -406 L -595 -406 L -595 -392 L -581 -392 L -581 -378 L -567 -378 L -567 -392 L -581 -392 L -581 -406 L -567 -406 L -567 -420 L -553 -420 L -553 -406 L -539 -406 L -539 -420 L -553 -420 L -553 -434 L -539 -434 L -539 -448 L -553 -448 L -553 -462 L -567 -462 L -567 -448 L -553 -448 L -553 -434 L -567 -434 L -567 -420 L -581 -420 L -581 -434 L -595 -434 L -595 -420 L -609 -420 L -609 -434 L -595 -434 L -595 -448 L -609 -448 L -609 -462 L -623 -462 L -623 -448 L -637 -448 L -637 -462 L -623 -462 L -623 -476 L -609 -476 L -609 -462 L -595 -462 L -595 -476 L -609 -476 L -609 -490 L -595 -490 L -595 -504 L -609 -504 L -609 -518 L -623 -518 L -623 -504 L -609 -504 L -609 -490 L -623 -490 L -623 -476 L -637 -476 L -637 -490 L -651 -490 L -651 -476 L -665 -476 L -665 -490 L -651 -490 L -651 -504 L -665 -504 L -665 -518 L -679 -518 L -679 -504 L -665 -504 L -665 -490 L -679 -490 L -679 -476 L -693 -476 L -693 -490 L -707 -490 L -707 -476 L -693 -476 L -693 -462 L -707 -462 L -707 -448 L -693 -448 L -693 -434 L -679 -434 L -679 -448 L -665 -448 L -665 -434 L -679 -434 L -679 -420 L -693 -420 L -693 -434 L -707 -434 L -707 -420 L -721 -420 L -721 -434 L -707 -434 L -707 -448 L -721 -448 L -721 -462 L -735 -462 L -735 -448 L -749 -448 L -749 -462 L -735 -462 L -735 -476 L -721 -476 L -721 -462 L -707 -462 L -707 -476 L -721 -476 L -721 -490 L -707 -490 L -707 -504 L -721 -504 L -721 -518 L -735 -518 L -735 -504 L -749 -504 L -749 -518 L -735 -518 L -735 -532 L -721 -532 L -721 -518 L -707 -518 L -707 -532 L -693 -532 L -693 -518 L -707 -518 L -707 -504 L -693 -504 L -693 -490 L -679 -490 L -679 -504 L -693 -504 L -693 -518 L -679 -518 L -679 -532 L -665 -532 L -665 -518 L -651 -518 L -651 -532 L -665 -532 L -665 -546 L -651 -546 L -651 -560 L -665 -560 L -665 -574 L -679 -574 L -679 -560 L -693 -560 L -693 -574 L -679 -574 L -679 -588 L -665 -588 L -665 -574 L -651 -574 L -651 -588 L -637 -588 L -637 -574 L -651 -574 L -651 -560 L -637 -560 L -637 -546 L -623 -546 L -623 -560 L -609 -560 L -609 -546 L -623 -546 L -623 -532 L -637 -532 L -637 -546 L -651 -546 L -651 -532 L -637 -532 L -637 -518 L -651 -518 L -651 -504 L -637 -504 L -637 -490 L -623 -490 L -623 -504 L -637 -504 L -637 -518 L -623 -518 L -623 -532 L -609 -532 L -609 -518 L -595 -518 L -595 -532 L -581 -532 L -581 -518 L -595 -518 L -595 -504 L -581 -504 L -581 -490 L -567 -490 L -567 -504 L -581 -504 L -581 -518 L -567 -518 L -567 -532 L -553 -532 L -553 -518 L -539 -518 L -539 -532 L -553 -532 L -553 -546 L -539 -546 L -539 -560 L -553 -560 L -553 -574 L -567 -574 L -567 -560 L -553 -560 L -553 -546 L -567 -546 L -567 -532 L -581 -532 L -581 -546 L -595 -546 L -595 -532 L -609 -532 L -609 -546 L -595 -546 L -595 -560 L -609 -560 L -609 -574 L -623 -574 L -623 -560 L -637 -560 L -637 -574 L -623 -574 L -623 -588 L -609 -588 L -609 -574 L -595 -574 L -595 -588 L -609 -588 L -609 -602 L -595 -602 L -595 -616 L -609 -616 L -609 -630 L -623 -630 L -623 -616 L -637 -616 L -637 -630 L -623 -630 L -623 -644 L -609 -644 L -609 -630 L -595 -630 L -595 -644 L -581 -644 L -581 -630 L -595 -630 L -595 -616 L -581 -616 L -581 -602 L -567 -602 L -567 -616 L -581 -616 L -581 -630 L -567 -630 L -567 -644 L -553 -644 L -553 -630 L -539 -630 L -539 -644 L -553 -644 L -553 -658 L -539 -658 L -539 -672 L -553 -672 L -553 -686 L -567 -686 L -567 -672 L -553 -672 L -553 -658 L -567 -658 L -567 -644 L -581 -644 L -581 -658 L -595 -658 L -595 -644 L -609 -644 L -609 -658 L -595 -658 L -595 -672 L -609 -672 L -609 -686 L -623 -686 L -623 -672 L -637 -672 L -637 -686 L -623 -686 L -623 -700 L -609 -700 L -609 -686 L -595 -686 L -595 -700 L -609 -700 L -609 -714 L -595 -714 L -595 -728 L -609 -728 L -609 -742 L -623 -742 L -623 -728 L -609 -728 L -609 -714 L -623 -714 L -623 -700 L -637 -700 L -637 -714 L -651 -714 L -651 -700 L -665 -700 L -665 -714 L -651 -714 L -651 -728 L -665 -728 L -665 -742 L -679 -742 L -679 -728 L -665 -728 L -665 -714 L -679 -714 L -679 -700 L -693 -700 L -693 -714 L -707 -714 L -707 -700 L -693 -700 L -693 -686 L -707 -686 L -707 -672 L -693 -672 L -693 -658 L -679 -658 L -679 -672 L -665 -672 L -665 -658 L -679 -658 L -679 -644 L -693 -644 L -693 -658 L -707 -658 L -707 -644 L -721 -644 L -721 -658 L -707 -658 L -707 -672 L -721 -672 L -721 -686 L -735 -686 L -735 -672 L -749 -672 L -749 -686 L -735 -686 L -735 -700 L -721 -700 L -721 -686 L -707 -686 L -707 -700 L -721 -700 L -721 -714 L -707 -714 L -707 -728 L -721 -728 L -721 -742 L -735 -742 L -735 -728 L -749 -728 L -749 -742 L -735 -742 L -735 -756 L -721 -756 L -721 -742 L -707 -742 L -707 -756 L -693 -756 L -693 -742 L -707 -742 L -707 -728 L -693 -728 L -693 -714 L -679 -714 L -679 -728 L -693 -728 L -693 -742 L -679 -742 L -679 -756 L -665 -756 L -665 -742 L -651 -742 L -651 -756 L -665 -756 L -665 -770 L -651 -770 L -651 -784 L -665 -784 L -665 -798 L -679 -798 L -679 -784 L -693 -784 L -693 -798 L -679 -798 L -679 -812 L -665 -812 L -665 -798 L -651 -798 L -651 -812 L -637 -812 L -637 -798 L -651 -798 L -651 -784 L -637 -784 L -637 -770 L -623 -770 L -623 -784 L -609 -784 L -609 -770 L -623 -770 L -623 -756 L -637 -756 L -637 -770 L -651 -770 L -651 -756 L -637 -756 L -637 -742 L -651 -742 L -651 -728 L -637 -728 L -637 -714 L -623 -714 L -623 -728 L -637 -728 L -637 -742 L -623 -742 L -623 -756 L -609 -756 L -609 -742 L -595 -742 L -595 -756 L -581 -756 L -581 -742 L -595 -742 L -595 -728 L -581 -728 L -581 -714 L -567 -714 L -567 -728 L -581 -728 L -581 -742 L -567 -742 L -567 -756 L -553 -756 L -553 -742 L -539 -742 L -539 -756 L -553 -756 L -553 -770 L -539 -770 L -539 -784 L -553 -784 L -553 -798 L -567 -798 L -567 -784 L -581 -784 L -581 -798 L -567 -798 L -567 -812 L -553 -812 L -553 -798 L -539 -798 L -539 -812 L -525 -812 L -525 -798 L -539 -798 L -539 -784 L -525 -784 L -525 -770 L -511 -770 L -511 -784 L -497 -784 L -497 -770 L -511 -770 L -511 -756 L -525 -756 L -525 -770 L -539 -770 L -539 -756 L -525 -756 L -525 -742 L -539 -742 L -539 -728 L -525 -728 L -525 -714 L -511 -714 L -511 -728 L -497 -728 L -497 -714 L -511 -714 L -511 -700 L -525 -700 L -525 -714 L -539 -714 L -539 -700 L -553 -700 L -553 -714 L -539 -714 L -539 -728 L -553 -728 L -553 -742 L -567 -742 L -567 -728 L -553 -728 L -553 -714 L -567 -714 L -567 -700 L -581 -700 L -581 -714 L -595 -714 L -595 -700 L -581 -700 L -581 -686 L -595 -686 L -595 -672 L -581 -672 L -581 -658 L -567 -658 L -567 -672 L -581 -672 L -581 -686 L -567 -686 L -567 -700 L -553 -700 L -553 -686 L -539 -686 L -539 -700 L -525 -700 L -525 -686 L -539 -686 L -539 -672 L -525 -672 L -525 -658 L -511 -658 L -511 -672 L -497 -672 L -497 -658 L -511 -658 L -511 -644 L -525 -644 L -525 -658 L -539 -658 L -539 -644 L -525 -644 L -525 -630 L -539 -630 L -539 -616 L -525 -616 L -525 -602 L -511 -602 L -511 -616 L -525 -616 L -525 -630 L -511 -630 L -511 -644 L -497 -644 L -497 -630 L -483 -630 L -483 -644 L -469 -644 L -469 -630 L -483 -630 L -483 -616 L -469 -616 L -469 -602 L -455 -602 L -455 -616 L -469 -616 L -469 -630 L -455 -630 L -455 -644 L -441 -644 L -441 -630 L -427 -630 L -427 -644 L -441 -644 L -441 -658 L -427 -658 L -427 -672 L -441 -672 L -441 -686 L -455 -686 L -455 -672 L -441 -672 L -441 -658 L -455 -658 L -455 -644 L -469 -644 L -469 -658 L -483 -658 L -483 -644 L -497 -644 L -497 -658 L -483 -658 L -483 -672 L -497 -672 L -497 -686 L -511 -686 L -511 -672 L -525 -672 L -525 -686 L -511 -686 L -511 -700 L -497 -700 L -497 -686 L -483 -686 L -483 -700 L -497 -700 L -497 -714 L -483 -714 L -483 -728 L -497 -728 L -497 -742 L -511 -742 L -511 -728 L -525 -728 L -525 -742 L -511 -742 L -511 -756 L -497 -756 L -497 -742 L -483 -742 L -483 -756 L -469 -756 L -469 -742 L -483 -742 L -483 -728 L -469 -728 L -469 -714 L -455 -714 L -455 -728 L -469 -728 L -469 -742 L -455 -742 L -455 -756 L -441 -756 L -441 -742 L -427 -742 L -427 -756 L -441 -756 L -441 -770 L -427 -770 L -427 -784 L -441 -784 L -441 -798 L -455 -798 L -455 -784 L -469 -784 L -469 -798 L -455 -798 L -455 -812 L -441 -812 L -441 -798 L -427 -798 L -427 -812 L -413 -812 L -413 -798 L -427 -798 L -427 -784 L -413 -784 L -413 -770 L -399 -770 L -399 -784 L -385 -784 L -385 -770 L -399 -770 L -399 -756 L -413 -756 L -413 -770 L -427 -770 L -427 -756 L -413 -756 L -413 -742 L -427 -742 L -427 -728 L -413 -728 L -413 -714 L -399 -714 L -399 -728 L -413 -728 L -413 -742 L -399 -742 L -399 -756 L -385 -756 L -385 -742 L -371 -742 L -371 -756 L -357 -756 L -357 -742 L -371 -742 L -371 -728 L -357 -728 L -357 -714 L -343 -714 L -343 -728 L -357 -728 L -357 -742 L -343 -742 L -343 -756 L -329 -756 L -329 -742 L -315 -742 L -315 -756 L -329 -756 L -329 -770 L -315 -770 L -315 -784 L -329 -784 L -329 -798 L -343 -798 L -343 -784 L -329 -784 L -329 -770 L -343 -770 L -343 -756 L -357 -756 L -357 -770 L -371 -770 L -371 -756 L -385 -756 L -385 -770 L -371 -770 L -371 -784 L -385 -784 L -385 -798 L -399 -798 L -399 -784 L -413 -784 L -413 -798 L -399 -798 L -399 -812 L -385 -812 L -385 -798 L -371 -798 L -371 -812 L -385 -812 L -385 -826 L -371 -826 L -371 -840 L -385 -840 L -385 -854 L -399 -854 L -399 -840 L -413 -840 L -413 -854 L -399 -854 L -399 -868 L -385 -868 L -385 -854 L -371 -854 L -371 -868 L -357 -868 L -357 -854 L -371 -854 L -371 -840 L -357 -840 L -357 -826 L -343 -826 L -343 -840 L -357 -840 L -357 -854 L -343 -854 L -343 -868 L -329 -868 L -329 -854 L -315 -854 L -315 -868 L -329 -868 L -329 -882 L -315 -882 L -315 -896 L -329 -896 L -329 -910 L -343 -910 L -343 -896 L -329 -896 L -329 -882 L -343 -882 L -343 -868 L -357 -868 L -357 -882 L -371 -882 L -371 -868 L -385 -868 L -385 -882 L -371 -882 L -371 -896 L -385 -896 L -385 -910 L -399 -910 L -399 -896 L -413 -896 L -413 -910 L -399 -910 L -399 -924 L -385 -924 L -385 -910 L -371 -910 L -371 -924 L -385 -924 L -385 -938 L -371 -938 L -371 -952 L -385 -952 L -385 -966 L -399 -966 L -399 -952 L -385 -952 L -385 -938 L -399 -938 L -399 -924 L -413 -924 L -413 -938 L -427 -938 L -427 -924 L -441 -924 L -441 -938 L -427 -938 L -427 -952 L -441 -952 L -441 -966 L -455 -966 L -455 -952 L -441 -952 L -441 -938 L -455 -938 L -455 -924 L -469 -924 L -469 -938 L -483 -938 L -483 -924 L -469 -924 L -469 -910 L -483 -910 L -483 -896 L -469 -896 L -469 -882 L -455 -882 L -455 -896 L -469 -896 L -469 -910 L -455 -910 L -455 -924 L -441 -924 L -441 -910 L -427 -910 L -427 -924 L -413 -924 L -413 -910 L -427 -910 L -427 -896 L -413 -896 L -413 -882 L -399 -882 L -399 -896 L -385 -896 L -385 -882 L -399 -882 L -399 -868 L -413 -868 L -413 -882 L -427 -882 L -427 -868 L -413 -868 L -413 -854 L -427 -854 L -427 -840 L -413 -840 L -413 -826 L -399 -826 L -399 -840 L -385 -840 L -385 -826 L -399 -826 L -399 -812 L -413 -812 L -413 -826 L -427 -826 L -427 -812 L -441 -812 L -441 -826 L -427 -826 L -427 -840 L -441 -840 L -441 -854 L -455 -854 L -455 -840 L -441 -840 L -441 -826 L -455 -826 L -455 -812 L -469 -812 L -469 -826 L -483 -826 L -483 -812 L -469 -812 L -469 -798 L -483 -798 L -483 -784 L -469 -784 L -469 -770 L -455 -770 L -455 -784 L -441 -784 L -441 -770 L -455 -770 L -455 -756 L -469 -756 L -469 -770 L -483 -770 L -483 -756 L -497 -756 L -497 -770 L -483 -770 L -483 -784 L -497 -784 L -497 -798 L -511 -798 L -511 -784 L -525 -784 L -525 -798 L -511 -798 L -511 -812 L -497 -812 L -497 -798 L -483 -798 L -483 -812 L -497 -812 L -497 -826 L -483 -826 L -483 -840 L -497 -840 L -497 -854 L -511 -854 L -511 -840 L -497 -840 L -497 -826 L -511 -826 L -511 -812 L -525 -812 L -525 -826 L -539 -826 L -539 -812 L -553 -812 L -553 -826 L -539 -826 L -539 -840 L -553 -840 L -553 -854 L -567 -854 L -567 -840 L -553 -840 L -553 -826 L -567 -826 L -567 -812 L -581 -812 L -581 -826 L -595 -826 L -595 -812 L -581 -812 L -581 -798 L -595 -798 L -595 -784 L -581 -784 L -581 -770 L -567 -770 L -567 -784 L -553 -784 L -553 -770 L -567 -770 L -567 -756 L -581 -756 L -581 -770 L -595 -770 L -595 -756 L -609 -756 L -609 -770 L -595 -770 L -595 -784 L -609 -784 L -609 -798 L -623 -798 L -623 -784 L -637 -784 L -637 -798 L -623 -798 L -623 -812 L -609 -812 L -609 -798 L -595 -798 L -595 -812 L -609 -812 L -609 -826 L -595 -826 L -595 -840 L -609 -840 L -609 -854 L -623 -854 L -623 -840 L -637 -840 L -637 -854 L -623 -854 L -623 -868 L -609 -868 L -609 -854 L -595 -854 L -595 -868 L -581 -868 L -581 -854 L -595 -854 L -595 -840 L -581 -840 L -581 -826 L -567 -826 L -567 -840 L -581 -840 L -581 -854 L -567 -854 L -567 -868 L -553 -868 L -553 -854 L -539 -854 L -539 -868 L -553 -868 L -553 -882 L -539 -882 L -539 -896 L -553 -896 L -553 -910 L -567 -910 L -567 -896 L -553 -896 L -553 -882 L -567 -882 L -567 -868 L -581 -868 L -581 -882 L -595 -882 L -595 -868 L -609 -868 L -609 -882 L -595 -882 L -595 -896 L -609 -896 L -609 -910 L -623 -910 L -623 -896 L -637 -896 L -637 -910 L -623 -910 L -623 -924 L -609 -924 L -609 -910 L -595 -910 L -595 -924 L -609 -924 L -609 -938 L -595 -938 L -595 -952 L -609 -952 L -609 -966 L -623 -966 L -623 -952 L -609 -952 L -609 -938 L -623 -938 L -623 -924 L -637 -924 L -637 -938 L -651 -938 L -651 -924 L -665 -924 L -665 -938 L -651 -938 L -651 -952 L -665 -952 L -665 -966 L -679 -966 L -679 -952 L -665 -952 L -665 -938 L -679 -938 L -679 -924 L -693 -924 L -693 -938 L -707 -938 L -707 -924 L -693 -924 L -693 -910 L -707 -910 L -707 -896 L -693 -896 L -693 -882 L -679 -882 L -679 -896 L -665 -896 L -665 -882 L -679 -882 L -679 -868 L -693 -868 L -693 -882 L -707 -882 L -707 -868 L -721 -868 L -721 -882 L -707 -882 L -707 -896 L -721 -896 L -721 -910 L -735 -910 L -735 -896 L -749 -896 L -749 -910 L -735 -910 L -735 -924 L -721 -924 L -721 -910 L -707 -910 L -707 -924 L -721 -924 L -721 -938 L -707 -938 L -707 -952 L -721 -952 L -721 -966 L -735 -966 L -735 -952 L -749 -952 L -749 -966 L -735 -966 L -735 -980 L -721 -980 L -721 -966 L -707 -966 L -707 -980 L -693 -980 L -693 -966 L -707 -966 L -707 -952 L -693 -952 L -693 -938 L -679 -938 L -679 -952 L -693 -952 L -693 -966 L -679 -966 L -679 -980 L -665 -980 L -665 -966 L -651 -966 L -651 -980 L -665 -980 L -665 -994 L -651 -994 L -651 -1008 L -665 -1008 L -665 -1022 L -679 -1022 L -679 -1008 L -693 -1008 L -693 -1022 L -679 -1022 L -679 -1036 L -665 -1036 L -665 -1022 L -651 -1022 L -651 -1036 L -637 -1036 L -637 -1022 L -651 -1022 L -651 -1008 L -637 -1008 L -637 -994 L -623 -994 L -623 -1008 L -609 -1008 L -609 -994 L -623 -994 L -623 -980 L -637 -980 L -637 -994 L -651 -994 L -651 -980 L -637 -980 L -637 -966 L -651 -966 L -651 -952 L -637 -952 L -637 -938 L -623 -938 L -623 -952 L -637 -952 L -637 -966 L -623 -966 L -623 -980 L -609 -980 L -609 -966 L -595 -966 L -595 -980 L -581 -980 L -581 -966 L -595 -966 L -595 -952 L -581 -952 L -581 -938 L -567 -938 L -567 -952 L -581 -952 L -581 -966 L -567 -966 L -567 -980 L -553 -980 L -553 -966 L -539 -966 L -539 -980 L -553 -980 L -553 -994 L -539 -994 L -539 -1008 L -553 -1008 L -553 -1022 L -567 -1022 L -567 -1008 L -553 -1008 L -553 -994 L -567 -994 L -567 -980 L -581 -980 L -581 -994 L -595 -994 L -595 -980 L -609 -980 L -609 -994 L -595 -994 L -595 -1008 L -609 -1008 L -609 -1022 L -623 -1022 L -623 -1008 L -637 -1008 L -637 -1022 L -623 -1022 L -623 -1036 L -609 -1036 L -609 -1022 L -595 -1022 L -595 -1036 L -609 -1036 L -609 -1050 L -595 -1050 L -595 -1064 L -609 -1064 L -609 -1078 L -623 -1078 L -623 -1064 L -637 -1064 L -637 -1078 L -623 -1078 L -623 -1092 L -609 -1092 L -609 -1078 L -595 -1078 L -595 -1092 L -581 -1092 L -581 -1078 L -595 -1078 L -595 -1064 L -581 -1064 L -581 -1050 L -567 -1050 L -567 -1064 L -581 -1064 L -581 -1078 L -567 -1078 L -567 -1092 L -553 -1092 L -553 -1078 L -539 -1078 L -539 -1092 L -553 -1092 L -553 -1106 L -539 -1106 L -539 -1120 L -553 -1120 L -553 -1134 L -567 -1134 L -567 -1120 L -553 -1120 L -553 -1106 L -567 -1106 L -567 -1092 L -581 -1092 L -581 -1106 L -595 -1106 L -595 -1092 L -609 -1092 L -609 -1106 L -595 -1106 L -595 -1120 L -609 -1120 L -609 -1134 L -623 -1134 L -623 -1120 L -637 -1120 L -637 -1134 L -623 -1134 L -623 -1148 L -609 -1148 L -609 -1134 L -595 -1134 L -595 -1148 L -609 -1148 L -609 -1162 L -595 -1162 L -595 -1176 L -609 -1176 L -609 -1190 L -623 -1190 L -623 -1176 L -609 -1176 L -609 -1162 L -623 -1162 L -623 -1148 L -637 -1148 L -637 -1162 L -651 -1162 L -651 -1148 L -665 -1148 L -665 -1162 L -651 -1162 L -651 -1176 L -665 -1176 L -665 -1190 L -679 -1190 L -679 -1176 L -665 -1176 L -665 -1162 L -679 -1162 L -679 -1148 L -693 -1148 L -693 -1162 L -707 -1162 L -707 -1148 L -693 -1148 L -693 -1134 L -707 -1134 L -707 -1120 L -693 -1120 L -693 -1106 L -679 -1106 L -679 -1120 L -693 -1120 L -693 -1134 L -679 -1134 L -679 -1148 L -665 -1148 L -665 -1134 L -651 -1134 L -651 -1148 L -637 -1148 L -637 -1134 L -651 -1134 L -651 -1120 L -637 -1120 L -637 -1106 L -623 -1106 L -623 -1120 L -609 -1120 L -609 -1106 L -623 -1106 L -623 -1092 L -637 -1092 L -637 -1106 L -651 -1106 L -651 -1092 L -637 -1092 L -637 -1078 L -651 -1078 L -651 -1064 L -637 -1064 L -637 -1050 L -623 -1050 L -623 -1064 L -609 -1064 L -609 -1050 L -623 -1050 L -623 -1036 L -637 -1036 L -637 -1050 L -651 -1050 L -651 -1036 L -665 -1036 L -665 -1050 L -651 -1050 L -651 -1064 L -665 -1064 L -665 -1078 L -679 -1078 L -679 -1064 L -665 -1064 L -665 -1050 L -679 -1050 L -679 -1036 L -693 -1036 L -693 -1050 L -707 -1050 L -707 -1036 L -693 -1036 L -693 -1022 L -707 -1022 L -707 -1008 L -693 -1008 L -693 -994 L -679 -994 L -679 -1008 L -665 -1008 L -665 -994 L -679 -994 L -679 -980 L -693 -980 L -693 -994 L -707 -994 L -707 -980 L -721 -980 L -721 -994 L -707 -994 L -707 -1008 L -721 -1008 L -721 -1022 L -735 -1022 L -735 -1008 L -749 -1008 L -749 -1022 L -735 -1022 L -735 -1036 L -721 -1036 L -721 -1022 L -707 -1022 L -707 -1036 L -721 -1036 L -721 -1050 L -707 -1050 L -707 -1064 L -721 -1064 L -721 -1078 L -735 -1078 L -735 -1064 L -721 -1064 L -721 -1050 L -735 -1050 L -735 -1036 L -749 -1036 L -749 -1050 L -763 -1050 L -763 -1036 L -777 -1036 L -777 -1050 L -763 -1050 L -763 -1064 L -777 -1064 L -777 -1078 L -791 -1078 L -791 -1064 L -777 -1064 L -777 -1050 L -791 -1050 L -791 -1036 L -805 -1036 L -805 -1050 L -819 -1050 L -819 -1036 L -805 -1036 L -805 -1022 L -819 -1022 L -819 -1008 L -805 -1008 L -805 -994 L -791 -994 L -791 -1008 L -777 -1008 L -777 -994 L -791 -994 L -791 -980 L -805 -980 L -805 -994 L -819 -994 L -819 -980 L -833 -980 L -833 -994 L -819 -994 L -819 -1008 L -833 -1008 L -833 -1022 L -847 -1022 L -847 -1008 L -861 -1008 L -861 -1022 L -847 -1022 L -847 -1036 L -833 -1036 L -833 -1022 L -819 -1022 L -819 -1036 L -833 -1036 L -833 -1050 L -819 -1050 L -819 -1064 L -833 -1064 L -833 -1078 L -847 -1078 L -847 -1064 L -861 -1064 L -861 -1078 L -847 -1078 L -847 -1092 L -833 -1092 L -833 -1078 L -819 -1078 L -819 -1092 L -805 -1092 L -805 -1078 L -819 -1078 L -819 -1064 L -805 -1064 L -805 -1050 L -791 -1050 L -791 -1064 L -805 -1064 L -805 -1078 L -791 -1078 L -791 -1092 L -777 -1092 L -777 -1078 L -763 -1078 L -763 -1092 L -777 -1092 L -777 -1106 L -763 -1106 L -763 -1120 L -777 -1120 L -777 -1134 L -791 -1134 L -791 -1120 L -777 -1120 L -777 -1106 L -791 -1106 L -791 -1092 L -805 -1092 L -805 -1106 L -819 -1106 L -819 -1092 L -833 -1092 L -833 -1106 L -819 -1106 L -819 -1120 L -833 -1120 L -833 -1134 L -847 -1134 L -847 -1120 L -861 -1120 L -861 -1134 L -847 -1134 L -847 -1148 L -833 -1148 L -833 -1134 L -819 -1134 L -819 -1148 L -833 -1148 L -833 -1162 L -819 -1162 L -819 -1176 L -833 -1176 L -833 -1190 L -847 -1190 L -847 -1176 L -833 -1176 L -833 -1162 L -847 -1162 L -847 -1148 L -861 -1148 L -861 -1162 L -875 -1162 L -875 -1148 L -889 -1148 L -889 -1162 L -875 -1162 L -875 -1176 L -889 -1176 L -889 -1190 L -903 -1190 L -903 -1176 L -889 -1176 L -889 -1162 L -903 -1162 L -903 -1148 L -917 -1148 L -917 -1162 L -931 -1162 L -931 -1148 L -917 -1148 L -917 -1134 L -931 -1134 L -931 -1120 L -917 -1120 L -917 -1106 L -903 -1106 L -903 -1120 L -917 -1120 L -917 -1134 L -903 -1134 L -903 -1148 L -889 -1148 L -889 -1134 L -875 -1134 L -875 -1148 L -861 -1148 L -861 -1134 L -875 -1134 L -875 -1120 L -861 -1120 L -861 -1106 L -847 -1106 L -847 -1120 L -833 -1120 L -833 -1106 L -847 -1106 L -847 -1092 L -861 -1092 L -861 -1106 L -875 -1106 L -875 -1092 L -861 -1092 L -861 -1078 L -875 -1078 L -875 -1064 L -861 -1064 L -861 -1050 L -847 -1050 L -847 -1064 L -833 -1064 L -833 -1050 L -847 -1050 L -847 -1036 L -861 -1036 L -861 -1050 L -875 -1050 L -875 -1036 L -889 -1036 L -889 -1050 L -875 -1050 L -875 -1064 L -889 -1064 L -889 -1078 L -903 -1078 L -903 -1064 L -889 -1064 L -889 -1050 L -903 -1050 L -903 -1036 L -917 -1036 L -917 -1050 L -931 -1050 L -931 -1036 L -917 -1036 L -917 -1022 L -931 -1022 L -931 -1008 L -917 -1008 L -917 -994 L -903 -994 L -903 -1008 L -889 -1008 L -889 -994 L -903 -994 L -903 -980 L -917 -980 L -917 -994 L -931 -994 L -931 -980 L -945 -980 L -945 -994 L -931 -994 L -931 -1008 L -945 -1008 L -945 -1022 L -959 -1022 L -959 -1008 L -973 -1008 L -973 -1022 L -959 -1022 L -959 -1036 L -945 -1036 L -945 -1022 L -931 -1022 L -931 -1036 L -945 -1036 L -945 -1050 L -931 -1050 L -931 -1064 L -945 -1064 L -945 -1078 L -959 -1078 L -959 -1064 L -945 -1064 L -945 -1050 L -959 -1050 L -959 -1036 L -973 -1036 L -973 -1050 L -987 -1050 L -987 -1036 L -1001 -1036 L -1001 -1050 L -987 -1050 L -987 -1064 L -1001 -1064 L -1001 -1078 L -1015 -1078 L -1015 -1064 L -1001 -1064 L -1001 -1050 L -1015 -1050 L -1015 -1036 L -1029 -1036 L -1029 -1050 L -1043 -1050 L -1043 -1036 L -1029 -1036 L -1029 -1022 L -1043 -1022 L -1043 -1008 L -1029 -1008 L -1029 -994 L -1015 -994 L -1015 -1008 L -1029 -1008 L -1029 -1022 L -1015 -1022 L -1015 -1036 L -1001 -1036 L -1001 -1022 L -987 -1022 L -987 -1036 L -973 -1036 L -973 -1022 L -987 -1022 L -987 -1008 L -973 -1008 L -973 -994 L -959 -994 L -959 -1008 L -945 -1008 L -945 -994 L -959 -994 L -959 -980 L -973 -980 L -973 -994 L -987 -994 L -987 -980 L -973 -980 L -973 -966 L -987 -966 L -987 -952 L -973 -952 L -973 -938 L -959 -938 L -959 -952 L -945 -952 L -945 -938 L -959 -938 L -959 -924 L -973 -924 L -973 -938 L -987 -938 L -987 -924 L -1001 -924 L -1001 -938 L -987 -938 L -987 -952 L -1001 -952 L -1001 -966 L -1015 -966 L -1015 -952 L -1001 -952 L -1001 -938 L -1015 -938 L -1015 -924 L -1029 -924 L -1029 -938 L -1043 -938 L -1043 -924 L -1029 -924 L -1029 -910 L -1043 -910 L -1043 -896 L -1029 -896 L -1029 -882 L -1015 -882 L -1015 -896 L -1029 -896 L -1029 -910 L -1015 -910 L -1015 -924 L -1001 -924 L -1001 -910 L -987 -910 L -987 -924 L -973 -924 L -973 -910 L -987 -910 L -987 -896 L -973 -896 L -973 -882 L -959 -882 L -959 -896 L -945 -896 L -945 -882 L -959 -882 L -959 -868 L -973 -868 L -973 -882 L -987 -882 L -987 -868 L -973 -868 L -973 -854 L -987 -854 L -987 -840 L -973 -840 L -973 -826 L -959 -826 L -959 -840 L -973 -840 L -973 -854 L -959 -854 L -959 -868 L -945 -868 L -945 -854 L -931 -854 L -931 -868 L -917 -868 L -917 -854 L -931 -854 L -931 -840 L -917 -840 L -917 -826 L -903 -826 L -903 -840 L -917 -840 L -917 -854 L -903 -854 L -903 -868 L -889 -868 L -889 -854 L -875 -854 L -875 -868 L -889 -868 L -889 -882 L -875 -882 L -875 -896 L -889 -896 L -889 -910 L -903 -910 L -903 -896 "/>
</g>
</defs>
<g id="surface2090">
<use xlink:href="#surface2093" transform="matrix(1,0,0,1,1198,1191)"/>
</g>
</svg>
