<?xml version="1.0" encoding="UTF-8"?>
<svg xmlns="http://www.w3.org/2000/svg" xmlns:xlink="http://www.w3.org/1999/xlink" width="686.890625pt" height="645.824219pt" viewBox="0 0 686.890625 645.824219" version="1.1">
<defs>
<g id="surface3406" clip-path="url(#clip1)">
<rect x="0" y="0" width="16777215" height="16777215" style="fill:rgb(100%,100%,100%);fill-opacity:1;stroke:none;"/>
<path style="fill:none;stroke-width:2;stroke-linecap:butt;stroke-linejoin:miter;stroke:rgb(0%,0%,0%);stroke-opacity:1;stroke-miterlimit:10;" d="M 6 0 L 12 10.390625 L 0 10.390625 L -3 15.589844 L -6 20.785156 L 18 20.785156 L 21 15.589844 L 24 10.390625 L 36 10.390625 L 39 15.589844 L 48 31.175781 L 36 31.175781 L 30 20.785156 L 24 31.175781 L 27 36.375 L 30 41.570312 L 24 51.960938 L 0 51.960938 L 6 41.570312 L 18 41.570312 L 15 36.375 L 12 31.175781 L 0 31.175781 L -3 36.375 L -6 41.570312 L -18 41.570312 L -15 36.375 L -12 31.175781 L -18 20.785156 L -24 31.175781 L -27 36.375 L -30 41.570312 L -24 51.960938 L -12 51.960938 L -9 57.15625 L -6 62.355469 L -18 62.355469 L -24 72.746094 L 0 72.746094 L 6 62.355469 L 18 62.355469 L 24 72.746094 L 12 72.746094 L 6 83.136719 L 30 83.136719 L 36 72.746094 L 30 62.355469 L 33 57.15625 L 42 41.570312 L 48 51.960938 L 45 57.15625 L 42 62.355469 L 54 62.355469 L 57 57.15625 L 60 51.960938 L 72 51.960938 L 75 57.15625 L 78 62.355469 L 66 62.355469 L 60 72.746094 L 84 72.746094 L 90 62.355469 L 102 62.355469 L 114 83.136719 L 102 83.136719 L 96 72.746094 L 90 83.136719 L 93 88.335938 L 96 93.53125 L 108 93.53125 L 114 103.921875 L 117 109.121094 L 120 114.316406 L 108 114.316406 L 105 109.121094 L 102 103.921875 L 99 109.121094 L 96 114.316406 L 102 124.707031 L 99 129.902344 L 96 135.101562 L 72 135.101562 L 75 129.902344 L 78 124.707031 L 90 124.707031 L 84 114.316406 L 72 114.316406 L 69 109.121094 L 66 103.921875 L 72 93.53125 L 78 103.921875 L 90 103.921875 L 81 88.335938 L 78 83.136719 L 66 83.136719 L 63 88.335938 L 60 93.53125 L 48 93.53125 L 51 88.335938 L 54 83.136719 L 48 72.746094 L 42 83.136719 L 39 88.335938 L 36 93.53125 L 42 103.921875 L 54 103.921875 L 57 109.121094 L 66 124.707031 L 54 124.707031 L 48 114.316406 L 42 124.707031 L 45 129.902344 L 48 135.101562 L 42 145.492188 L 30 145.492188 L 36 135.101562 L 33 129.902344 L 30 124.707031 L 27 129.902344 L 24 135.101562 L 18 145.492188 L 24 155.882812 L 21 161.082031 L 18 166.277344 L -6 166.277344 L -3 161.082031 L 0 155.882812 L 12 155.882812 L 6 145.492188 L -6 145.492188 L -12 155.882812 L -36 155.882812 L -30 145.492188 L -18 145.492188 L -24 135.101562 L -36 135.101562 L -39 129.902344 L -42 124.707031 L -33 109.121094 L -30 103.921875 L -27 109.121094 L -24 114.316406 L -30 124.707031 L -18 124.707031 L -12 114.316406 L 0 114.316406 L 6 124.707031 L -6 124.707031 L -9 129.902344 L -12 135.101562 L 12 135.101562 L 15 129.902344 L 18 124.707031 L 12 114.316406 L 15 109.121094 L 18 103.921875 L 21 109.121094 L 24 114.316406 L 36 114.316406 L 33 109.121094 L 30 103.921875 L 24 93.53125 L 12 93.53125 L 6 103.921875 L -18 103.921875 L -12 93.53125 L 0 93.53125 L -3 88.335938 L -6 83.136719 L -18 83.136719 L -21 88.335938 L -24 93.53125 L -36 93.53125 L -33 88.335938 L -30 83.136719 L -36 72.746094 L -42 83.136719 L -45 88.335938 L -48 93.53125 L -42 103.921875 L -45 109.121094 L -48 114.316406 L -72 114.316406 L -69 109.121094 L -66 103.921875 L -54 103.921875 L -60 93.53125 L -72 93.53125 L -75 88.335938 L -78 83.136719 L -66 62.355469 L -60 72.746094 L -66 83.136719 L -54 83.136719 L -48 72.746094 L -54 62.355469 L -51 57.15625 L -48 51.960938 L -45 57.15625 L -42 62.355469 L -30 62.355469 L -33 57.15625 L -42 41.570312 L -54 41.570312 L -60 51.960938 L -72 51.960938 L -66 41.570312 L -69 36.375 L -72 31.175781 L -75 36.375 L -84 51.960938 L -81 57.15625 L -78 62.355469 L -84 72.746094 L -96 72.746094 L -90 62.355469 L -93 57.15625 L -96 51.960938 L -99 57.15625 L -102 62.355469 L -108 72.746094 L -102 83.136719 L -90 83.136719 L -87 88.335938 L -78 103.921875 L -90 103.921875 L -96 93.53125 L -102 103.921875 L -99 109.121094 L -96 114.316406 L -84 114.316406 L -78 124.707031 L -90 124.707031 L -93 129.902344 L -96 135.101562 L -72 135.101562 L -69 129.902344 L -66 124.707031 L -54 124.707031 L -51 129.902344 L -48 135.101562 L -42 145.492188 L -54 145.492188 L -60 135.101562 L -66 145.492188 L -60 155.882812 L -63 161.082031 L -66 166.277344 L -90 166.277344 L -87 161.082031 L -84 155.882812 L -72 155.882812 L -78 145.492188 L -90 145.492188 L -96 155.882812 L -108 155.882812 L -102 145.492188 L -108 135.101562 L -120 155.882812 L -117 161.082031 L -114 166.277344 L -102 166.277344 L -96 176.667969 L -108 176.667969 L -111 181.867188 L -114 187.0625 L -90 187.0625 L -87 181.867188 L -84 176.667969 L -72 176.667969 L -69 181.867188 L -66 187.0625 L -78 187.0625 L -84 197.453125 L -60 197.453125 L -54 187.0625 L -57 181.867188 L -60 176.667969 L -51 161.082031 L -48 155.882812 L -45 161.082031 L -42 166.277344 L -48 176.667969 L -36 176.667969 L -30 166.277344 L -18 166.277344 L -12 176.667969 L -24 176.667969 L -27 181.867188 L -30 187.0625 L -6 187.0625 L -3 181.867188 L 0 176.667969 L 12 176.667969 L 15 181.867188 L 24 197.453125 L 12 197.453125 L 6 187.0625 L 0 197.453125 L 3 202.648438 L 6 207.847656 L 0 218.238281 L -24 218.238281 L -18 207.847656 L -6 207.847656 L -9 202.648438 L -12 197.453125 L -24 197.453125 L -27 202.648438 L -30 207.847656 L -42 207.847656 L -39 202.648438 L -36 197.453125 L -42 187.0625 L -51 202.648438 L -54 207.847656 L -48 218.238281 L -36 218.238281 L -30 228.628906 L -42 228.628906 L -45 233.828125 L -48 239.023438 L -24 239.023438 L -21 233.828125 L -18 228.628906 L -6 228.628906 L -3 233.828125 L 0 239.023438 L -12 239.023438 L -18 249.414062 L 6 249.414062 L 12 239.023438 L 9 233.828125 L 6 228.628906 L 18 207.847656 L 24 218.238281 L 18 228.628906 L 30 228.628906 L 36 218.238281 L 30 207.847656 L 33 202.648438 L 36 197.453125 L 39 202.648438 L 42 207.847656 L 54 207.847656 L 51 202.648438 L 42 187.0625 L 30 187.0625 L 27 181.867188 L 24 176.667969 L 33 161.082031 L 36 155.882812 L 39 161.082031 L 42 166.277344 L 36 176.667969 L 48 176.667969 L 54 166.277344 L 51 161.082031 L 48 155.882812 L 60 135.101562 L 66 145.492188 L 60 155.882812 L 72 155.882812 L 78 145.492188 L 90 145.492188 L 96 155.882812 L 99 161.082031 L 102 166.277344 L 90 166.277344 L 87 161.082031 L 84 155.882812 L 81 161.082031 L 78 166.277344 L 84 176.667969 L 81 181.867188 L 78 187.0625 L 66 187.0625 L 69 181.867188 L 72 176.667969 L 66 166.277344 L 60 176.667969 L 57 181.867188 L 54 187.0625 L 60 197.453125 L 72 197.453125 L 75 202.648438 L 78 207.847656 L 66 207.847656 L 60 218.238281 L 84 218.238281 L 90 207.847656 L 87 202.648438 L 84 197.453125 L 93 181.867188 L 96 176.667969 L 99 181.867188 L 102 187.0625 L 96 197.453125 L 108 197.453125 L 114 187.0625 L 126 187.0625 L 132 197.453125 L 120 197.453125 L 117 202.648438 L 114 207.847656 L 138 207.847656 L 141 202.648438 L 144 197.453125 L 156 197.453125 L 159 202.648438 L 162 207.847656 L 168 218.238281 L 156 218.238281 L 150 207.847656 L 144 218.238281 L 150 228.628906 L 147 233.828125 L 144 239.023438 L 120 239.023438 L 123 233.828125 L 126 228.628906 L 138 228.628906 L 132 218.238281 L 120 218.238281 L 114 228.628906 L 102 228.628906 L 108 218.238281 L 102 207.847656 L 90 228.628906 L 93 233.828125 L 96 239.023438 L 108 239.023438 L 114 249.414062 L 102 249.414062 L 99 254.613281 L 96 259.808594 L 120 259.808594 L 123 254.613281 L 126 249.414062 L 138 249.414062 L 141 254.613281 L 144 259.808594 L 132 259.808594 L 126 270.199219 L 150 270.199219 L 156 259.808594 L 153 254.613281 L 150 249.414062 L 159 233.828125 L 162 228.628906 L 165 233.828125 L 168 239.023438 L 162 249.414062 L 174 249.414062 L 180 239.023438 L 192 239.023438 L 198 249.414062 L 186 249.414062 L 183 254.613281 L 180 259.808594 L 204 259.808594 L 207 254.613281 L 210 249.414062 L 222 249.414062 L 225 254.613281 L 234 270.199219 L 222 270.199219 L 216 259.808594 L 210 270.199219 L 213 275.394531 L 216 280.59375 L 228 280.59375 L 240 301.375 L 228 301.375 L 222 290.984375 L 216 301.375 L 219 306.574219 L 222 311.769531 L 216 322.160156 L 192 322.160156 L 198 311.769531 L 210 311.769531 L 207 306.574219 L 204 301.375 L 192 301.375 L 186 290.984375 L 192 280.59375 L 198 290.984375 L 210 290.984375 L 204 280.59375 L 201 275.394531 L 198 270.199219 L 186 270.199219 L 183 275.394531 L 180 280.59375 L 168 280.59375 L 171 275.394531 L 174 270.199219 L 168 259.808594 L 159 275.394531 L 156 280.59375 L 162 290.984375 L 174 290.984375 L 180 301.375 L 183 306.574219 L 186 311.769531 L 174 311.769531 L 171 306.574219 L 168 301.375 L 165 306.574219 L 162 311.769531 L 168 322.160156 L 180 322.160156 L 183 327.359375 L 186 332.554688 L 174 332.554688 L 168 342.945312 L 192 342.945312 L 198 332.554688 L 210 332.554688 L 219 348.140625 L 222 353.339844 L 210 353.339844 L 207 348.140625 L 204 342.945312 L 201 348.140625 L 198 353.339844 L 204 363.730469 L 216 363.730469 L 222 374.121094 L 225 379.320312 L 228 384.515625 L 216 384.515625 L 213 379.320312 L 210 374.121094 L 207 379.320312 L 204 384.515625 L 210 394.90625 L 207 400.105469 L 204 405.300781 L 180 405.300781 L 183 400.105469 L 186 394.90625 L 198 394.90625 L 192 384.515625 L 180 384.515625 L 177 379.320312 L 174 374.121094 L 180 363.730469 L 186 374.121094 L 198 374.121094 L 186 353.339844 L 174 353.339844 L 168 363.730469 L 156 363.730469 L 162 353.339844 L 159 348.140625 L 156 342.945312 L 153 348.140625 L 150 353.339844 L 144 363.730469 L 150 374.121094 L 162 374.121094 L 165 379.320312 L 174 394.90625 L 162 394.90625 L 156 384.515625 L 150 394.90625 L 153 400.105469 L 156 405.300781 L 150 415.691406 L 138 415.691406 L 144 405.300781 L 141 400.105469 L 138 394.90625 L 135 400.105469 L 126 415.691406 L 129 420.886719 L 132 426.085938 L 126 436.476562 L 102 436.476562 L 108 426.085938 L 120 426.085938 L 117 420.886719 L 114 415.691406 L 102 415.691406 L 99 420.886719 L 96 426.085938 L 72 426.085938 L 75 420.886719 L 78 415.691406 L 90 415.691406 L 84 405.300781 L 72 405.300781 L 69 400.105469 L 66 394.90625 L 75 379.320312 L 78 374.121094 L 81 379.320312 L 84 384.515625 L 78 394.90625 L 90 394.90625 L 96 384.515625 L 108 384.515625 L 114 394.90625 L 102 394.90625 L 99 400.105469 L 96 405.300781 L 120 405.300781 L 123 400.105469 L 126 394.90625 L 120 384.515625 L 123 379.320312 L 126 374.121094 L 129 379.320312 L 132 384.515625 L 144 384.515625 L 141 379.320312 L 138 374.121094 L 132 363.730469 L 120 363.730469 L 114 374.121094 L 90 374.121094 L 96 363.730469 L 108 363.730469 L 102 353.339844 L 90 353.339844 L 87 348.140625 L 84 342.945312 L 90 332.554688 L 96 342.945312 L 108 342.945312 L 99 327.359375 L 96 322.160156 L 84 322.160156 L 78 311.769531 L 81 306.574219 L 84 301.375 L 90 290.984375 L 96 301.375 L 93 306.574219 L 90 311.769531 L 102 311.769531 L 105 306.574219 L 108 301.375 L 120 301.375 L 123 306.574219 L 132 322.160156 L 120 322.160156 L 114 311.769531 L 108 322.160156 L 111 327.359375 L 114 332.554688 L 126 332.554688 L 132 342.945312 L 120 342.945312 L 117 348.140625 L 114 353.339844 L 138 353.339844 L 141 348.140625 L 144 342.945312 L 138 332.554688 L 141 327.359375 L 144 322.160156 L 147 327.359375 L 150 332.554688 L 162 332.554688 L 159 327.359375 L 156 322.160156 L 150 311.769531 L 138 311.769531 L 135 306.574219 L 132 301.375 L 138 290.984375 L 144 301.375 L 156 301.375 L 144 280.59375 L 132 280.59375 L 126 290.984375 L 102 290.984375 L 108 280.59375 L 120 280.59375 L 117 275.394531 L 114 270.199219 L 102 270.199219 L 99 275.394531 L 96 280.59375 L 84 280.59375 L 87 275.394531 L 90 270.199219 L 84 259.808594 L 75 275.394531 L 72 280.59375 L 78 290.984375 L 72 301.375 L 48 301.375 L 54 290.984375 L 66 290.984375 L 60 280.59375 L 48 280.59375 L 45 275.394531 L 42 270.199219 L 51 254.613281 L 54 249.414062 L 57 254.613281 L 60 259.808594 L 54 270.199219 L 66 270.199219 L 72 259.808594 L 69 254.613281 L 66 249.414062 L 72 239.023438 L 78 249.414062 L 90 249.414062 L 81 233.828125 L 78 228.628906 L 66 228.628906 L 63 233.828125 L 60 239.023438 L 48 239.023438 L 51 233.828125 L 54 228.628906 L 48 218.238281 L 42 228.628906 L 39 233.828125 L 36 239.023438 L 42 249.414062 L 39 254.613281 L 36 259.808594 L 24 259.808594 L 27 254.613281 L 30 249.414062 L 24 239.023438 L 18 249.414062 L 15 254.613281 L 12 259.808594 L 18 270.199219 L 30 270.199219 L 33 275.394531 L 36 280.59375 L 42 290.984375 L 30 290.984375 L 24 280.59375 L 18 290.984375 L 24 301.375 L 36 301.375 L 39 306.574219 L 42 311.769531 L 30 311.769531 L 24 322.160156 L 48 322.160156 L 54 311.769531 L 66 311.769531 L 72 322.160156 L 75 327.359375 L 78 332.554688 L 66 332.554688 L 63 327.359375 L 60 322.160156 L 57 327.359375 L 54 332.554688 L 60 342.945312 L 72 342.945312 L 75 348.140625 L 78 353.339844 L 84 363.730469 L 72 363.730469 L 66 353.339844 L 60 363.730469 L 66 374.121094 L 63 379.320312 L 60 384.515625 L 36 384.515625 L 39 379.320312 L 42 374.121094 L 54 374.121094 L 48 363.730469 L 36 363.730469 L 30 353.339844 L 33 348.140625 L 36 342.945312 L 39 348.140625 L 42 353.339844 L 54 353.339844 L 51 348.140625 L 42 332.554688 L 30 332.554688 L 24 342.945312 L 12 342.945312 L 18 332.554688 L 15 327.359375 L 12 322.160156 L 9 327.359375 L 0 342.945312 L 3 348.140625 L 6 353.339844 L 18 353.339844 L 30 374.121094 L 18 374.121094 L 12 363.730469 L 6 374.121094 L 9 379.320312 L 12 384.515625 L 6 394.90625 L -6 394.90625 L 0 384.515625 L -3 379.320312 L -6 374.121094 L -9 379.320312 L -18 394.90625 L -15 400.105469 L -12 405.300781 L -18 415.691406 L -42 415.691406 L -36 405.300781 L -24 405.300781 L -27 400.105469 L -30 394.90625 L -42 394.90625 L -48 384.515625 L -45 379.320312 L -42 374.121094 L -36 363.730469 L -30 374.121094 L -33 379.320312 L -36 384.515625 L -24 384.515625 L -21 379.320312 L -18 374.121094 L -24 363.730469 L -18 353.339844 L -12 363.730469 L 0 363.730469 L -6 353.339844 L -9 348.140625 L -12 342.945312 L -24 342.945312 L -27 348.140625 L -30 353.339844 L -42 353.339844 L -39 348.140625 L -36 342.945312 L -42 332.554688 L -51 348.140625 L -54 353.339844 L -48 363.730469 L -54 374.121094 L -66 374.121094 L -60 363.730469 L -66 353.339844 L -78 374.121094 L -75 379.320312 L -72 384.515625 L -60 384.515625 L -54 394.90625 L -51 400.105469 L -48 405.300781 L -60 405.300781 L -63 400.105469 L -66 394.90625 L -69 400.105469 L -72 405.300781 L -66 415.691406 L -69 420.886719 L -72 426.085938 L -84 426.085938 L -81 420.886719 L -78 415.691406 L -84 405.300781 L -93 420.886719 L -96 426.085938 L -90 436.476562 L -96 446.867188 L -120 446.867188 L -114 436.476562 L -102 436.476562 L -108 426.085938 L -120 426.085938 L -126 436.476562 L -150 436.476562 L -144 426.085938 L -132 426.085938 L -135 420.886719 L -138 415.691406 L -150 415.691406 L -156 405.300781 L -153 400.105469 L -150 394.90625 L -144 384.515625 L -138 394.90625 L -141 400.105469 L -144 405.300781 L -132 405.300781 L -129 400.105469 L -126 394.90625 L -114 394.90625 L -111 400.105469 L -108 405.300781 L -120 405.300781 L -126 415.691406 L -102 415.691406 L -96 405.300781 L -99 400.105469 L -102 394.90625 L -96 384.515625 L -90 394.90625 L -78 394.90625 L -87 379.320312 L -90 374.121094 L -102 374.121094 L -105 379.320312 L -108 384.515625 L -132 384.515625 L -129 379.320312 L -126 374.121094 L -114 374.121094 L -120 363.730469 L -132 363.730469 L -138 374.121094 L -150 374.121094 L -144 363.730469 L -150 353.339844 L -162 374.121094 L -159 379.320312 L -156 384.515625 L -162 394.90625 L -186 394.90625 L -180 384.515625 L -168 384.515625 L -171 379.320312 L -174 374.121094 L -186 374.121094 L -189 379.320312 L -192 384.515625 L -216 384.515625 L -213 379.320312 L -210 374.121094 L -198 374.121094 L -204 363.730469 L -216 363.730469 L -222 353.339844 L -219 348.140625 L -210 332.554688 L -204 342.945312 L -207 348.140625 L -210 353.339844 L -198 353.339844 L -195 348.140625 L -192 342.945312 L -180 342.945312 L -177 348.140625 L -174 353.339844 L -186 353.339844 L -192 363.730469 L -168 363.730469 L -162 353.339844 L -165 348.140625 L -168 342.945312 L -162 332.554688 L -156 342.945312 L -144 342.945312 L -153 327.359375 L -156 322.160156 L -168 322.160156 L -171 327.359375 L -174 332.554688 L -198 332.554688 L -195 327.359375 L -192 322.160156 L -180 322.160156 L -186 311.769531 L -198 311.769531 L -201 306.574219 L -204 301.375 L -198 290.984375 L -192 301.375 L -180 301.375 L -192 280.59375 L -204 280.59375 L -207 275.394531 L -210 270.199219 L -201 254.613281 L -198 249.414062 L -195 254.613281 L -192 259.808594 L -198 270.199219 L -186 270.199219 L -180 259.808594 L -183 254.613281 L -186 249.414062 L -177 233.828125 L -174 228.628906 L -171 233.828125 L -168 239.023438 L -174 249.414062 L -162 249.414062 L -156 239.023438 L -144 239.023438 L -138 249.414062 L -135 254.613281 L -132 259.808594 L -144 259.808594 L -147 254.613281 L -150 249.414062 L -153 254.613281 L -156 259.808594 L -150 270.199219 L -153 275.394531 L -156 280.59375 L -168 280.59375 L -165 275.394531 L -162 270.199219 L -168 259.808594 L -177 275.394531 L -180 280.59375 L -174 290.984375 L -162 290.984375 L -156 301.375 L -168 301.375 L -171 306.574219 L -174 311.769531 L -150 311.769531 L -147 306.574219 L -144 301.375 L -150 290.984375 L -144 280.59375 L -141 275.394531 L -138 270.199219 L -135 275.394531 L -132 280.59375 L -138 290.984375 L -126 290.984375 L -120 280.59375 L -108 280.59375 L -102 290.984375 L -114 290.984375 L -120 301.375 L -96 301.375 L -90 290.984375 L -78 290.984375 L -72 301.375 L -69 306.574219 L -66 311.769531 L -78 311.769531 L -81 306.574219 L -84 301.375 L -87 306.574219 L -90 311.769531 L -84 322.160156 L -87 327.359375 L -90 332.554688 L -114 332.554688 L -111 327.359375 L -108 322.160156 L -96 322.160156 L -102 311.769531 L -114 311.769531 L -120 322.160156 L -132 322.160156 L -126 311.769531 L -129 306.574219 L -132 301.375 L -135 306.574219 L -144 322.160156 L -141 327.359375 L -138 332.554688 L -126 332.554688 L -120 342.945312 L -132 342.945312 L -135 348.140625 L -138 353.339844 L -114 353.339844 L -111 348.140625 L -108 342.945312 L -96 342.945312 L -93 348.140625 L -90 353.339844 L -102 353.339844 L -108 363.730469 L -84 363.730469 L -78 353.339844 L -81 348.140625 L -84 342.945312 L -75 327.359375 L -72 322.160156 L -69 327.359375 L -66 332.554688 L -72 342.945312 L -60 342.945312 L -54 332.554688 L -57 327.359375 L -60 322.160156 L -54 311.769531 L -48 322.160156 L -36 322.160156 L -45 306.574219 L -48 301.375 L -60 301.375 L -66 290.984375 L -60 280.59375 L -57 275.394531 L -54 270.199219 L -51 275.394531 L -48 280.59375 L -54 290.984375 L -42 290.984375 L -36 280.59375 L -24 280.59375 L -12 301.375 L -24 301.375 L -30 290.984375 L -36 301.375 L -33 306.574219 L -30 311.769531 L -18 311.769531 L -12 322.160156 L -24 322.160156 L -27 327.359375 L -30 332.554688 L -6 332.554688 L -3 327.359375 L 0 322.160156 L -6 311.769531 L -3 306.574219 L 0 301.375 L 3 306.574219 L 6 311.769531 L 18 311.769531 L 15 306.574219 L 12 301.375 L 6 290.984375 L -6 290.984375 L -12 280.59375 L -9 275.394531 L -6 270.199219 L -3 275.394531 L 0 280.59375 L 12 280.59375 L 9 275.394531 L 0 259.808594 L -12 259.808594 L -18 270.199219 L -42 270.199219 L -36 259.808594 L -24 259.808594 L -27 254.613281 L -30 249.414062 L -42 249.414062 L -45 254.613281 L -48 259.808594 L -60 259.808594 L -57 254.613281 L -54 249.414062 L -60 239.023438 L -66 249.414062 L -69 254.613281 L -72 259.808594 L -66 270.199219 L -69 275.394531 L -72 280.59375 L -96 280.59375 L -93 275.394531 L -90 270.199219 L -78 270.199219 L -84 259.808594 L -96 259.808594 L -102 270.199219 L -126 270.199219 L -120 259.808594 L -108 259.808594 L -111 254.613281 L -114 249.414062 L -126 249.414062 L -132 239.023438 L -129 233.828125 L -126 228.628906 L -120 218.238281 L -114 228.628906 L -117 233.828125 L -120 239.023438 L -108 239.023438 L -105 233.828125 L -102 228.628906 L -90 228.628906 L -87 233.828125 L -84 239.023438 L -96 239.023438 L -102 249.414062 L -78 249.414062 L -72 239.023438 L -75 233.828125 L -78 228.628906 L -72 218.238281 L -66 228.628906 L -54 228.628906 L -66 207.847656 L -78 207.847656 L -84 218.238281 L -108 218.238281 L -102 207.847656 L -90 207.847656 L -93 202.648438 L -96 197.453125 L -108 197.453125 L -111 202.648438 L -114 207.847656 L -126 207.847656 L -123 202.648438 L -120 197.453125 L -126 187.0625 L -135 202.648438 L -138 207.847656 L -132 218.238281 L -138 228.628906 L -162 228.628906 L -156 218.238281 L -144 218.238281 L -150 207.847656 L -162 207.847656 L -165 202.648438 L -168 197.453125 L -159 181.867188 L -156 176.667969 L -153 181.867188 L -150 187.0625 L -156 197.453125 L -144 197.453125 L -138 187.0625 L -141 181.867188 L -144 176.667969 L -138 166.277344 L -132 176.667969 L -120 176.667969 L -129 161.082031 L -132 155.882812 L -144 155.882812 L -147 161.082031 L -150 166.277344 L -162 166.277344 L -159 161.082031 L -156 155.882812 L -162 145.492188 L -168 155.882812 L -171 161.082031 L -174 166.277344 L -168 176.667969 L -171 181.867188 L -174 187.0625 L -186 187.0625 L -183 181.867188 L -180 176.667969 L -186 166.277344 L -192 176.667969 L -195 181.867188 L -198 187.0625 L -192 197.453125 L -180 197.453125 L -177 202.648438 L -174 207.847656 L -168 218.238281 L -180 218.238281 L -186 207.847656 L -192 218.238281 L -186 228.628906 L -189 233.828125 L -192 239.023438 L -204 239.023438 L -201 233.828125 L -198 228.628906 L -204 218.238281 L -210 228.628906 L -213 233.828125 L -216 239.023438 L -210 249.414062 L -213 254.613281 L -216 259.808594 L -240 259.808594 L -237 254.613281 L -234 249.414062 L -222 249.414062 L -228 239.023438 L -240 239.023438 L -246 249.414062 L -270 249.414062 L -264 239.023438 L -252 239.023438 L -255 233.828125 L -258 228.628906 L -270 228.628906 L -276 218.238281 L -270 207.847656 L -267 202.648438 L -264 197.453125 L -261 202.648438 L -258 207.847656 L -264 218.238281 L -252 218.238281 L -246 207.847656 L -234 207.847656 L -228 218.238281 L -240 218.238281 L -246 228.628906 L -222 228.628906 L -216 218.238281 L -222 207.847656 L -219 202.648438 L -216 197.453125 L -213 202.648438 L -210 207.847656 L -198 207.847656 L -201 202.648438 L -210 187.0625 L -222 187.0625 L -228 197.453125 L -252 197.453125 L -246 187.0625 L -234 187.0625 L -237 181.867188 L -240 176.667969 L -252 176.667969 L -258 166.277344 L -255 161.082031 L -252 155.882812 L -249 161.082031 L -246 166.277344 L -234 166.277344 L -237 161.082031 L -240 155.882812 L -246 145.492188 L -258 145.492188 L -264 135.101562 L -261 129.902344 L -252 114.316406 L -246 124.707031 L -249 129.902344 L -252 135.101562 L -240 135.101562 L -237 129.902344 L -234 124.707031 L -240 114.316406 L -237 109.121094 L -234 103.921875 L -228 93.53125 L -222 103.921875 L -225 109.121094 L -228 114.316406 L -216 114.316406 L -213 109.121094 L -210 103.921875 L -198 103.921875 L -195 109.121094 L -186 124.707031 L -198 124.707031 L -204 114.316406 L -210 124.707031 L -207 129.902344 L -204 135.101562 L -210 145.492188 L -222 145.492188 L -216 135.101562 L -219 129.902344 L -222 124.707031 L -225 129.902344 L -228 135.101562 L -234 145.492188 L -228 155.882812 L -216 155.882812 L -213 161.082031 L -210 166.277344 L -222 166.277344 L -228 176.667969 L -204 176.667969 L -198 166.277344 L -201 161.082031 L -204 155.882812 L -192 135.101562 L -186 145.492188 L -192 155.882812 L -180 155.882812 L -174 145.492188 L -180 135.101562 L -177 129.902344 L -174 124.707031 L -171 129.902344 L -168 135.101562 L -156 135.101562 L -159 129.902344 L -168 114.316406 L -180 114.316406 L -183 109.121094 L -186 103.921875 L -177 88.335938 L -174 83.136719 L -171 88.335938 L -168 93.53125 L -174 103.921875 L -162 103.921875 L -156 93.53125 L -144 93.53125 L -138 103.921875 L -135 109.121094 L -132 114.316406 L -144 114.316406 L -147 109.121094 L -150 103.921875 L -153 109.121094 L -156 114.316406 L -150 124.707031 L -138 124.707031 L -135 129.902344 L -132 135.101562 L -144 135.101562 L -150 145.492188 L -126 145.492188 L -120 135.101562 L -123 129.902344 L -126 124.707031 L -120 114.316406 L -114 124.707031 L -102 124.707031 L -111 109.121094 L -114 103.921875 L -126 103.921875 L -132 93.53125 L -129 88.335938 L -126 83.136719 L -123 88.335938 L -120 93.53125 L -108 93.53125 L -111 88.335938 L -114 83.136719 L -120 72.746094 L -132 72.746094 L -138 83.136719 L -162 83.136719 L -156 72.746094 L -144 72.746094 L -150 62.355469 L -162 62.355469 L -168 72.746094 L -180 72.746094 L -174 62.355469 L -177 57.15625 L -180 51.960938 L -183 57.15625 L -186 62.355469 L -192 72.746094 L -186 83.136719 L -189 88.335938 L -192 93.53125 L -216 93.53125 L -213 88.335938 L -210 83.136719 L -198 83.136719 L -204 72.746094 L -216 72.746094 L -222 62.355469 L -219 57.15625 L -210 41.570312 L -204 51.960938 L -207 57.15625 L -210 62.355469 L -198 62.355469 L -195 57.15625 L -192 51.960938 L -198 41.570312 L -195 36.375 L -192 31.175781 L -189 36.375 L -186 41.570312 L -174 41.570312 L -177 36.375 L -180 31.175781 L -186 20.785156 L -198 20.785156 L -204 31.175781 L -216 31.175781 L -210 20.785156 L -213 15.589844 L -216 10.390625 L -219 15.589844 L -228 31.175781 L -225 36.375 L -222 41.570312 L -228 51.960938 L -240 51.960938 L -234 41.570312 L -237 36.375 L -240 31.175781 L -243 36.375 L -252 51.960938 L -249 57.15625 L -246 62.355469 L -234 62.355469 L -222 83.136719 L -234 83.136719 L -240 72.746094 L -246 83.136719 L -243 88.335938 L -240 93.53125 L -246 103.921875 L -258 103.921875 L -252 93.53125 L -255 88.335938 L -258 83.136719 L -261 88.335938 L -270 103.921875 L -267 109.121094 L -264 114.316406 L -270 124.707031 L -294 124.707031 L -288 114.316406 L -276 114.316406 L -279 109.121094 L -282 103.921875 L -294 103.921875 L -300 93.53125 L -297 88.335938 L -294 83.136719 L -288 72.746094 L -282 83.136719 L -285 88.335938 L -288 93.53125 L -276 93.53125 L -273 88.335938 L -270 83.136719 L -276 72.746094 L -270 62.355469 L -264 72.746094 L -252 72.746094 L -258 62.355469 L -261 57.15625 L -264 51.960938 L -276 51.960938 L -279 57.15625 L -282 62.355469 L -294 62.355469 L -291 57.15625 L -288 51.960938 L -294 41.570312 L -303 57.15625 L -306 62.355469 L -300 72.746094 L -306 83.136719 L -318 83.136719 L -312 72.746094 L -318 62.355469 L -330 83.136719 L -327 88.335938 L -324 93.53125 L -312 93.53125 L -306 103.921875 L -303 109.121094 L -300 114.316406 L -312 114.316406 L -315 109.121094 L -318 103.921875 L -321 109.121094 L -324 114.316406 L -318 124.707031 L -306 124.707031 L -303 129.902344 L -300 135.101562 L -312 135.101562 L -318 145.492188 L -294 145.492188 L -288 135.101562 L -276 135.101562 L -264 155.882812 L -276 155.882812 L -282 145.492188 L -288 155.882812 L -285 161.082031 L -282 166.277344 L -270 166.277344 L -264 176.667969 L -261 181.867188 L -258 187.0625 L -270 187.0625 L -273 181.867188 L -276 176.667969 L -279 181.867188 L -282 187.0625 L -276 197.453125 L -279 202.648438 L -282 207.847656 L -306 207.847656 L -303 202.648438 L -300 197.453125 L -288 197.453125 L -294 187.0625 L -306 187.0625 L -309 181.867188 L -312 176.667969 L -306 166.277344 L -300 176.667969 L -288 176.667969 L -297 161.082031 L -300 155.882812 L -312 155.882812 L -315 161.082031 L -318 166.277344 L -330 166.277344 L -327 161.082031 L -324 155.882812 L -330 145.492188 L -336 155.882812 L -339 161.082031 L -342 166.277344 L -336 176.667969 L -324 176.667969 L -321 181.867188 L -312 197.453125 L -324 197.453125 L -330 187.0625 L -336 197.453125 L -333 202.648438 L -330 207.847656 L -318 207.847656 L -312 218.238281 L -324 218.238281 L -330 228.628906 L -306 228.628906 L -300 218.238281 L -288 218.238281 L -282 228.628906 L -279 233.828125 L -276 239.023438 L -288 239.023438 L -291 233.828125 L -294 228.628906 L -297 233.828125 L -300 239.023438 L -294 249.414062 L -297 254.613281 L -300 259.808594 L -324 259.808594 L -321 254.613281 L -318 249.414062 L -306 249.414062 L -312 239.023438 L -324 239.023438 L -330 249.414062 L -342 249.414062 L -336 239.023438 L -339 233.828125 L -342 228.628906 L -345 233.828125 L -354 249.414062 L -351 254.613281 L -348 259.808594 L -336 259.808594 L -330 270.199219 L -342 270.199219 L -345 275.394531 L -348 280.59375 L -324 280.59375 L -321 275.394531 L -318 270.199219 L -306 270.199219 L -303 275.394531 L -300 280.59375 L -312 280.59375 L -318 290.984375 L -294 290.984375 L -288 280.59375 L -291 275.394531 L -294 270.199219 L -285 254.613281 L -282 249.414062 L -279 254.613281 L -276 259.808594 L -282 270.199219 L -270 270.199219 L -264 259.808594 L -252 259.808594 L -246 270.199219 L -258 270.199219 L -261 275.394531 L -264 280.59375 L -240 280.59375 L -237 275.394531 L -234 270.199219 L -222 270.199219 L -219 275.394531 L -216 280.59375 L -210 290.984375 L -222 290.984375 L -228 280.59375 L -234 290.984375 L -228 301.375 L -216 301.375 L -213 306.574219 L -204 322.160156 L -216 322.160156 L -222 311.769531 L -228 322.160156 L -225 327.359375 L -222 332.554688 L -228 342.945312 L -252 342.945312 L -246 332.554688 L -234 332.554688 L -237 327.359375 L -240 322.160156 L -252 322.160156 L -258 311.769531 L -255 306.574219 L -252 301.375 L -249 306.574219 L -246 311.769531 L -234 311.769531 L -237 306.574219 L -240 301.375 L -246 290.984375 L -258 290.984375 L -264 301.375 L -276 301.375 L -270 290.984375 L -276 280.59375 L -288 301.375 L -285 306.574219 L -282 311.769531 L -270 311.769531 L -264 322.160156 L -261 327.359375 L -258 332.554688 L -270 332.554688 L -273 327.359375 L -276 322.160156 L -279 327.359375 L -282 332.554688 L -276 342.945312 L -279 348.140625 L -282 353.339844 L -294 353.339844 L -291 348.140625 L -288 342.945312 L -294 332.554688 L -303 348.140625 L -306 353.339844 L -300 363.730469 L -306 374.121094 L -330 374.121094 L -324 363.730469 L -312 363.730469 L -318 353.339844 L -330 353.339844 L -336 363.730469 L -360 363.730469 L -354 353.339844 L -342 353.339844 L -345 348.140625 L -348 342.945312 L -360 342.945312 L -366 332.554688 L -363 327.359375 L -360 322.160156 L -354 311.769531 L -348 322.160156 L -351 327.359375 L -354 332.554688 L -342 332.554688 L -339 327.359375 L -336 322.160156 L -324 322.160156 L -321 327.359375 L -318 332.554688 L -330 332.554688 L -336 342.945312 L -312 342.945312 L -306 332.554688 L -309 327.359375 L -312 322.160156 L -306 311.769531 L -300 322.160156 L -288 322.160156 L -297 306.574219 L -300 301.375 L -312 301.375 L -315 306.574219 L -318 311.769531 L -342 311.769531 L -339 306.574219 L -336 301.375 L -324 301.375 L -330 290.984375 L -342 290.984375 L -348 301.375 L -360 301.375 L -354 290.984375 L -360 280.59375 L -372 301.375 L -369 306.574219 L -366 311.769531 L -372 322.160156 L -396 322.160156 L -390 311.769531 L -378 311.769531 L -381 306.574219 L -384 301.375 L -396 301.375 L -402 290.984375 L -396 280.59375 L -393 275.394531 L -390 270.199219 L -387 275.394531 L -384 280.59375 L -390 290.984375 L -378 290.984375 L -372 280.59375 L -375 275.394531 L -378 270.199219 L -372 259.808594 L -366 270.199219 L -354 270.199219 L -363 254.613281 L -366 249.414062 L -378 249.414062 L -381 254.613281 L -384 259.808594 L -396 259.808594 L -393 254.613281 L -390 249.414062 L -396 239.023438 L -402 249.414062 L -405 254.613281 L -408 259.808594 L -402 270.199219 L -405 275.394531 L -408 280.59375 L -420 280.59375 L -417 275.394531 L -414 270.199219 L -420 259.808594 L -429 275.394531 L -432 280.59375 L -426 290.984375 L -414 290.984375 L -408 301.375 L -405 306.574219 L -402 311.769531 L -414 311.769531 L -417 306.574219 L -420 301.375 L -423 306.574219 L -426 311.769531 L -420 322.160156 L -408 322.160156 L -405 327.359375 L -402 332.554688 L -414 332.554688 L -420 342.945312 L -396 342.945312 L -390 332.554688 L -378 332.554688 L -369 348.140625 L -366 353.339844 L -378 353.339844 L -381 348.140625 L -384 342.945312 L -387 348.140625 L -390 353.339844 L -384 363.730469 L -390 374.121094 L -414 374.121094 L -408 363.730469 L -396 363.730469 L -402 353.339844 L -414 353.339844 L -420 363.730469 L -432 363.730469 L -426 353.339844 L -429 348.140625 L -432 342.945312 L -435 348.140625 L -438 353.339844 L -444 363.730469 L -438 374.121094 L -426 374.121094 L -423 379.320312 L -420 384.515625 L -432 384.515625 L -438 394.90625 L -414 394.90625 L -408 384.515625 L -396 384.515625 L -390 394.90625 L -402 394.90625 L -405 400.105469 L -408 405.300781 L -384 405.300781 L -381 400.105469 L -378 394.90625 L -384 384.515625 L -381 379.320312 L -378 374.121094 L -372 363.730469 L -366 374.121094 L -369 379.320312 L -372 384.515625 L -360 384.515625 L -357 379.320312 L -354 374.121094 L -342 374.121094 L -339 379.320312 L -336 384.515625 L -348 384.515625 L -354 394.90625 L -330 394.90625 L -324 384.515625 L -312 384.515625 L -306 394.90625 L -303 400.105469 L -300 405.300781 L -312 405.300781 L -315 400.105469 L -318 394.90625 L -321 400.105469 L -324 405.300781 L -318 415.691406 L -321 420.886719 L -324 426.085938 L -348 426.085938 L -345 420.886719 L -342 415.691406 L -330 415.691406 L -336 405.300781 L -348 405.300781 L -354 415.691406 L -366 415.691406 L -360 405.300781 L -363 400.105469 L -366 394.90625 L -369 400.105469 L -378 415.691406 L -375 420.886719 L -372 426.085938 L -360 426.085938 L -354 436.476562 L -366 436.476562 L -372 446.867188 L -348 446.867188 L -342 436.476562 L -330 436.476562 L -324 446.867188 L -336 446.867188 L -339 452.066406 L -342 457.261719 L -318 457.261719 L -315 452.066406 L -312 446.867188 L -318 436.476562 L -312 426.085938 L -309 420.886719 L -306 415.691406 L -303 420.886719 L -300 426.085938 L -306 436.476562 L -294 436.476562 L -288 426.085938 L -291 420.886719 L -294 415.691406 L -288 405.300781 L -282 415.691406 L -270 415.691406 L -279 400.105469 L -282 394.90625 L -294 394.90625 L -300 384.515625 L -297 379.320312 L -294 374.121094 L -288 363.730469 L -282 374.121094 L -285 379.320312 L -288 384.515625 L -276 384.515625 L -273 379.320312 L -270 374.121094 L -276 363.730469 L -270 353.339844 L -267 348.140625 L -264 342.945312 L -261 348.140625 L -258 353.339844 L -264 363.730469 L -252 363.730469 L -246 353.339844 L -234 353.339844 L -222 374.121094 L -234 374.121094 L -240 363.730469 L -246 374.121094 L -243 379.320312 L -240 384.515625 L -246 394.90625 L -258 394.90625 L -252 384.515625 L -255 379.320312 L -258 374.121094 L -261 379.320312 L -270 394.90625 L -267 400.105469 L -264 405.300781 L -252 405.300781 L -246 415.691406 L -258 415.691406 L -261 420.886719 L -264 426.085938 L -240 426.085938 L -237 420.886719 L -234 415.691406 L -240 405.300781 L -237 400.105469 L -234 394.90625 L -228 384.515625 L -222 394.90625 L -225 400.105469 L -228 405.300781 L -216 405.300781 L -213 400.105469 L -210 394.90625 L -198 394.90625 L -195 400.105469 L -192 405.300781 L -204 405.300781 L -210 415.691406 L -186 415.691406 L -180 405.300781 L -168 405.300781 L -159 420.886719 L -156 426.085938 L -168 426.085938 L -171 420.886719 L -174 415.691406 L -177 420.886719 L -180 426.085938 L -174 436.476562 L -180 446.867188 L -204 446.867188 L -198 436.476562 L -186 436.476562 L -192 426.085938 L -204 426.085938 L -210 436.476562 L -222 436.476562 L -216 426.085938 L -219 420.886719 L -222 415.691406 L -225 420.886719 L -228 426.085938 L -234 436.476562 L -228 446.867188 L -216 446.867188 L -213 452.066406 L -210 457.261719 L -222 457.261719 L -228 467.652344 L -204 467.652344 L -198 457.261719 L -186 457.261719 L -180 467.652344 L -192 467.652344 L -195 472.851562 L -198 478.046875 L -174 478.046875 L -171 472.851562 L -168 467.652344 L -174 457.261719 L -171 452.066406 L -168 446.867188 L -162 436.476562 L -156 446.867188 L -159 452.066406 L -162 457.261719 L -150 457.261719 L -147 452.066406 L -144 446.867188 L -132 446.867188 L -129 452.066406 L -126 457.261719 L -138 457.261719 L -144 467.652344 L -120 467.652344 L -114 457.261719 L -102 457.261719 L -96 467.652344 L -93 472.851562 L -90 478.046875 L -102 478.046875 L -105 472.851562 L -108 467.652344 L -111 472.851562 L -114 478.046875 L -108 488.4375 L -96 488.4375 L -93 493.632812 L -90 498.832031 L -84 509.222656 L -96 509.222656 L -102 498.832031 L -108 509.222656 L -105 514.417969 L -102 519.617188 L -108 530.007812 L -132 530.007812 L -126 519.617188 L -114 519.617188 L -117 514.417969 L -120 509.222656 L -132 509.222656 L -138 498.832031 L -135 493.632812 L -132 488.4375 L -129 493.632812 L -126 498.832031 L -114 498.832031 L -117 493.632812 L -126 478.046875 L -138 478.046875 L -144 488.4375 L -156 488.4375 L -150 478.046875 L -153 472.851562 L -156 467.652344 L -159 472.851562 L -168 488.4375 L -165 493.632812 L -162 498.832031 L -150 498.832031 L -141 514.417969 L -138 519.617188 L -150 519.617188 L -153 514.417969 L -156 509.222656 L -159 514.417969 L -162 519.617188 L -156 530.007812 L -162 540.398438 L -174 540.398438 L -168 530.007812 L -174 519.617188 L -186 540.398438 L -183 545.597656 L -180 550.792969 L -186 561.183594 L -210 561.183594 L -204 550.792969 L -192 550.792969 L -195 545.597656 L -198 540.398438 L -210 540.398438 L -213 545.597656 L -216 550.792969 L -240 550.792969 L -237 545.597656 L -234 540.398438 L -222 540.398438 L -228 530.007812 L -240 530.007812 L -246 519.617188 L -243 514.417969 L -234 498.832031 L -228 509.222656 L -231 514.417969 L -234 519.617188 L -222 519.617188 L -219 514.417969 L -216 509.222656 L -204 509.222656 L -201 514.417969 L -198 519.617188 L -210 519.617188 L -216 530.007812 L -192 530.007812 L -186 519.617188 L -189 514.417969 L -192 509.222656 L -186 498.832031 L -180 509.222656 L -168 509.222656 L -174 498.832031 L -177 493.632812 L -180 488.4375 L -192 488.4375 L -195 493.632812 L -198 498.832031 L -222 498.832031 L -219 493.632812 L -216 488.4375 L -204 488.4375 L -210 478.046875 L -222 478.046875 L -228 488.4375 L -240 488.4375 L -234 478.046875 L -237 472.851562 L -240 467.652344 L -243 472.851562 L -252 488.4375 L -249 493.632812 L -246 498.832031 L -252 509.222656 L -276 509.222656 L -270 498.832031 L -258 498.832031 L -261 493.632812 L -264 488.4375 L -276 488.4375 L -282 478.046875 L -279 472.851562 L -276 467.652344 L -270 457.261719 L -264 467.652344 L -267 472.851562 L -270 478.046875 L -258 478.046875 L -255 472.851562 L -252 467.652344 L -258 457.261719 L -255 452.066406 L -252 446.867188 L -249 452.066406 L -246 457.261719 L -234 457.261719 L -237 452.066406 L -240 446.867188 L -246 436.476562 L -258 436.476562 L -264 446.867188 L -276 446.867188 L -270 436.476562 L -276 426.085938 L -288 446.867188 L -285 452.066406 L -282 457.261719 L -288 467.652344 L -300 467.652344 L -294 457.261719 L -297 452.066406 L -300 446.867188 L -303 452.066406 L -312 467.652344 L -309 472.851562 L -306 478.046875 L -294 478.046875 L -285 493.632812 L -282 498.832031 L -294 498.832031 L -297 493.632812 L -300 488.4375 L -303 493.632812 L -306 498.832031 L -300 509.222656 L -288 509.222656 L -285 514.417969 L -282 519.617188 L -294 519.617188 L -300 530.007812 L -276 530.007812 L -270 519.617188 L -258 519.617188 L -246 540.398438 L -258 540.398438 L -264 530.007812 L -270 540.398438 L -267 545.597656 L -264 550.792969 L -270 561.183594 L -294 561.183594 L -288 550.792969 L -276 550.792969 L -279 545.597656 L -282 540.398438 L -294 540.398438 L -297 545.597656 L -300 550.792969 L -312 550.792969 L -309 545.597656 L -306 540.398438 L -312 530.007812 L -318 540.398438 L -321 545.597656 L -324 550.792969 L -318 561.183594 L -306 561.183594 L -303 566.378906 L -300 571.578125 L -312 571.578125 L -318 581.96875 L -294 581.96875 L -288 571.578125 L -276 571.578125 L -270 581.96875 L -282 581.96875 L -285 587.164062 L -288 592.363281 L -264 592.363281 L -261 587.164062 L -258 581.96875 L -264 571.578125 L -261 566.378906 L -252 550.792969 L -246 561.183594 L -249 566.378906 L -252 571.578125 L -240 571.578125 L -237 566.378906 L -234 561.183594 L -222 561.183594 L -219 566.378906 L -216 571.578125 L -228 571.578125 L -234 581.96875 L -210 581.96875 L -204 571.578125 L -192 571.578125 L -183 587.164062 L -180 592.363281 L -192 592.363281 L -195 587.164062 L -198 581.96875 L -201 587.164062 L -204 592.363281 L -198 602.753906 L -204 613.144531 L -228 613.144531 L -222 602.753906 L -210 602.753906 L -216 592.363281 L -228 592.363281 L -234 602.753906 L -246 602.753906 L -240 592.363281 L -243 587.164062 L -246 581.96875 L -249 587.164062 L -252 592.363281 L -258 602.753906 L -252 613.144531 L -240 613.144531 L -237 618.34375 L -234 623.539062 L -246 623.539062 L -252 633.929688 L -228 633.929688 L -222 623.539062 L -210 623.539062 L -204 633.929688 L -216 633.929688 L -219 639.125 L -222 644.324219 L -198 644.324219 L -195 639.125 L -192 633.929688 L -198 623.539062 L -195 618.34375 L -192 613.144531 L -186 602.753906 L -180 613.144531 L -183 618.34375 L -186 623.539062 L -174 623.539062 L -171 618.34375 L -168 613.144531 L -174 602.753906 L -168 592.363281 L -162 602.753906 L -150 602.753906 L -156 592.363281 L -159 587.164062 L -162 581.96875 L -174 581.96875 L -180 571.578125 L -177 566.378906 L -168 550.792969 L -162 561.183594 L -165 566.378906 L -168 571.578125 L -156 571.578125 L -153 566.378906 L -150 561.183594 L -156 550.792969 L -153 545.597656 L -150 540.398438 L -144 530.007812 L -138 540.398438 L -141 545.597656 L -144 550.792969 L -132 550.792969 L -129 545.597656 L -126 540.398438 L -114 540.398438 L -111 545.597656 L -102 561.183594 L -114 561.183594 L -120 550.792969 L -126 561.183594 L -123 566.378906 L -120 571.578125 L -126 581.96875 L -138 581.96875 L -132 571.578125 L -135 566.378906 L -138 561.183594 L -141 566.378906 L -144 571.578125 L -150 581.96875 L -147 587.164062 L -144 592.363281 L -132 592.363281 L -126 602.753906 L -138 602.753906 L -144 613.144531 L -120 613.144531 L -114 602.753906 L -120 592.363281 L -117 587.164062 L -108 571.578125 L -102 581.96875 L -105 587.164062 L -108 592.363281 L -96 592.363281 L -93 587.164062 L -90 581.96875 L -96 571.578125 L -93 566.378906 L -90 561.183594 L -87 566.378906 L -84 571.578125 L -72 571.578125 L -75 566.378906 L -84 550.792969 L -96 550.792969 L -99 545.597656 L -102 540.398438 L -90 519.617188 L -84 530.007812 L -90 540.398438 L -78 540.398438 L -72 530.007812 L -60 530.007812 L -54 540.398438 L -51 545.597656 L -48 550.792969 L -60 550.792969 L -63 545.597656 L -66 540.398438 L -69 545.597656 L -72 550.792969 L -66 561.183594 L -54 561.183594 L -51 566.378906 L -48 571.578125 L -60 571.578125 L -66 581.96875 L -42 581.96875 L -36 571.578125 L -39 566.378906 L -42 561.183594 L -36 550.792969 L -30 561.183594 L -18 561.183594 L -27 545.597656 L -30 540.398438 L -42 540.398438 L -48 530.007812 L -42 519.617188 L -36 530.007812 L -24 530.007812 L -30 519.617188 L -33 514.417969 L -36 509.222656 L -48 509.222656 L -51 514.417969 L -54 519.617188 L -78 519.617188 L -75 514.417969 L -72 509.222656 L -60 509.222656 L -66 498.832031 L -78 498.832031 L -81 493.632812 L -84 488.4375 L -78 478.046875 L -72 488.4375 L -60 488.4375 L -69 472.851562 L -72 467.652344 L -84 467.652344 L -90 457.261719 L -87 452.066406 L -84 446.867188 L -78 436.476562 L -72 446.867188 L -75 452.066406 L -78 457.261719 L -66 457.261719 L -63 452.066406 L -60 446.867188 L -66 436.476562 L -60 426.085938 L -57 420.886719 L -54 415.691406 L -51 420.886719 L -48 426.085938 L -54 436.476562 L -42 436.476562 L -36 426.085938 L -24 426.085938 L -12 446.867188 L -24 446.867188 L -30 436.476562 L -36 446.867188 L -33 452.066406 L -30 457.261719 L -36 467.652344 L -48 467.652344 L -42 457.261719 L -45 452.066406 L -48 446.867188 L -51 452.066406 L -60 467.652344 L -57 472.851562 L -54 478.046875 L -42 478.046875 L -36 488.4375 L -48 488.4375 L -51 493.632812 L -54 498.832031 L -30 498.832031 L -27 493.632812 L -24 488.4375 L -30 478.046875 L -27 472.851562 L -24 467.652344 L -18 457.261719 L -12 467.652344 L -15 472.851562 L -18 478.046875 L -6 478.046875 L -3 472.851562 L 0 467.652344 L -6 457.261719 L -3 452.066406 L 0 446.867188 L 3 452.066406 L 6 457.261719 L 18 457.261719 L 15 452.066406 L 12 446.867188 L 6 436.476562 L -6 436.476562 L -12 426.085938 L -9 420.886719 L 0 405.300781 L 6 415.691406 L 3 420.886719 L 0 426.085938 L 12 426.085938 L 15 420.886719 L 18 415.691406 L 12 405.300781 L 15 400.105469 L 18 394.90625 L 24 384.515625 L 30 394.90625 L 27 400.105469 L 24 405.300781 L 36 405.300781 L 39 400.105469 L 42 394.90625 L 54 394.90625 L 57 400.105469 L 66 415.691406 L 54 415.691406 L 48 405.300781 L 42 415.691406 L 45 420.886719 L 48 426.085938 L 42 436.476562 L 30 436.476562 L 36 426.085938 L 33 420.886719 L 30 415.691406 L 27 420.886719 L 24 426.085938 L 18 436.476562 L 24 446.867188 L 36 446.867188 L 39 452.066406 L 42 457.261719 L 30 457.261719 L 24 467.652344 L 48 467.652344 L 54 457.261719 L 51 452.066406 L 48 446.867188 L 60 426.085938 L 66 436.476562 L 60 446.867188 L 72 446.867188 L 78 436.476562 L 90 436.476562 L 96 446.867188 L 84 446.867188 L 81 452.066406 L 78 457.261719 L 102 457.261719 L 105 452.066406 L 108 446.867188 L 120 446.867188 L 123 452.066406 L 132 467.652344 L 120 467.652344 L 114 457.261719 L 108 467.652344 L 111 472.851562 L 114 478.046875 L 126 478.046875 L 135 493.632812 L 138 498.832031 L 126 498.832031 L 123 493.632812 L 120 488.4375 L 117 493.632812 L 114 498.832031 L 120 509.222656 L 117 514.417969 L 114 519.617188 L 90 519.617188 L 93 514.417969 L 96 509.222656 L 108 509.222656 L 102 498.832031 L 90 498.832031 L 87 493.632812 L 84 488.4375 L 90 478.046875 L 96 488.4375 L 108 488.4375 L 99 472.851562 L 96 467.652344 L 84 467.652344 L 81 472.851562 L 78 478.046875 L 66 478.046875 L 69 472.851562 L 72 467.652344 L 66 457.261719 L 60 467.652344 L 57 472.851562 L 54 478.046875 L 60 488.4375 L 72 488.4375 L 75 493.632812 L 78 498.832031 L 84 509.222656 L 72 509.222656 L 66 498.832031 L 60 509.222656 L 63 514.417969 L 66 519.617188 L 60 530.007812 L 48 530.007812 L 54 519.617188 L 51 514.417969 L 48 509.222656 L 45 514.417969 L 42 519.617188 L 36 530.007812 L 42 540.398438 L 39 545.597656 L 36 550.792969 L 12 550.792969 L 15 545.597656 L 18 540.398438 L 30 540.398438 L 24 530.007812 L 12 530.007812 L 6 519.617188 L 9 514.417969 L 18 498.832031 L 24 509.222656 L 21 514.417969 L 18 519.617188 L 30 519.617188 L 33 514.417969 L 36 509.222656 L 30 498.832031 L 33 493.632812 L 36 488.4375 L 39 493.632812 L 42 498.832031 L 54 498.832031 L 51 493.632812 L 42 478.046875 L 30 478.046875 L 24 488.4375 L 12 488.4375 L 18 478.046875 L 15 472.851562 L 12 467.652344 L 9 472.851562 L 0 488.4375 L 3 493.632812 L 6 498.832031 L 0 509.222656 L -12 509.222656 L -6 498.832031 L -9 493.632812 L -12 488.4375 L -15 493.632812 L -18 498.832031 L -24 509.222656 L -21 514.417969 L -18 519.617188 L -6 519.617188 L 6 540.398438 L -6 540.398438 L -12 530.007812 L -18 540.398438 L -15 545.597656 L -12 550.792969 L 0 550.792969 L 6 561.183594 L -6 561.183594 L -9 566.378906 L -12 571.578125 L 12 571.578125 L 15 566.378906 L 18 561.183594 L 30 561.183594 L 33 566.378906 L 36 571.578125 L 42 581.96875 L 30 581.96875 L 24 571.578125 L 18 581.96875 L 21 587.164062 L 24 592.363281 L 18 602.753906 L -6 602.753906 L 0 592.363281 L 12 592.363281 L 9 587.164062 L 6 581.96875 L -6 581.96875 L -9 587.164062 L -12 592.363281 L -24 592.363281 L -21 587.164062 L -18 581.96875 L -24 571.578125 L -33 587.164062 L -36 592.363281 L -30 602.753906 L -18 602.753906 L -12 613.144531 L -24 613.144531 L -27 618.34375 L -30 623.539062 L -6 623.539062 L -3 618.34375 L 0 613.144531 L 12 613.144531 L 15 618.34375 L 18 623.539062 L 6 623.539062 L 0 633.929688 L 24 633.929688 L 30 623.539062 L 27 618.34375 L 24 613.144531 L 36 592.363281 L 42 602.753906 L 36 613.144531 L 48 613.144531 L 54 602.753906 L 48 592.363281 L 51 587.164062 L 54 581.96875 L 57 587.164062 L 60 592.363281 L 72 592.363281 L 69 587.164062 L 60 571.578125 L 48 571.578125 L 45 566.378906 L 42 561.183594 L 51 545.597656 L 54 540.398438 L 57 545.597656 L 60 550.792969 L 54 561.183594 L 66 561.183594 L 72 550.792969 L 69 545.597656 L 66 540.398438 L 78 519.617188 L 84 530.007812 L 78 540.398438 L 90 540.398438 L 96 530.007812 L 108 530.007812 L 114 540.398438 L 117 545.597656 L 120 550.792969 L 108 550.792969 L 105 545.597656 L 102 540.398438 L 99 545.597656 L 96 550.792969 L 102 561.183594 L 99 566.378906 L 96 571.578125 L 84 571.578125 L 87 566.378906 L 90 561.183594 L 84 550.792969 L 75 566.378906 L 72 571.578125 L 78 581.96875 L 90 581.96875 L 93 587.164062 L 96 592.363281 L 84 592.363281 L 78 602.753906 L 102 602.753906 L 108 592.363281 L 105 587.164062 L 102 581.96875 L 108 571.578125 L 111 566.378906 L 114 561.183594 L 117 566.378906 L 120 571.578125 L 114 581.96875 L 126 581.96875 L 132 571.578125 L 138 571.578125 "/>
</g>
</defs>
<g id="surface3403">
<use xlink:href="#surface3406" transform="matrix(1,0,0,1,445.15625,0.5)"/>
</g>
</svg>
