<?xml version="1.0" encoding="UTF-8"?>
<svg xmlns="http://www.w3.org/2000/svg" xmlns:xlink="http://www.w3.org/1999/xlink" width="1272pt" height="1262pt" viewBox="0 0 1272 1262" version="1.1">
<defs>
<g id="surface9802" clip-path="url(#clip1)">
<rect x="0" y="0" width="16777215" height="16777215" style="fill:rgb(100%,100%,100%);fill-opacity:1;stroke:none;"/>
<path style="fill:none;stroke-width:2;stroke-linecap:butt;stroke-linejoin:miter;stroke:rgb(0%,0%,0%);stroke-opacity:1;stroke-miterlimit:10;" d="M 10 0 L 20 0 L 20 30 L 0 30 L 0 60 L 30 60 L 30 40 L 40 40 L 40 60 L 70 60 L 70 30 L 50 30 L 50 0 L 80 0 L 80 20 L 110 20 L 110 0 L 140 0 L 140 30 L 120 30 L 120 40 L 140 40 L 140 70 L 110 70 L 110 50 L 80 50 L 80 100 L 110 100 L 110 80 L 140 80 L 140 110 L 120 110 L 120 120 L 140 120 L 140 150 L 110 150 L 110 130 L 80 130 L 80 150 L 50 150 L 50 120 L 70 120 L 70 90 L 40 90 L 40 110 L 30 110 L 30 90 L 0 90 L 0 120 L 20 120 L 20 150 L 0 150 L 0 180 L 30 180 L 30 160 L 60 160 L 60 190 L 40 190 L 40 200 L 60 200 L 60 230 L 30 230 L 30 210 L 0 210 L 0 240 L 20 240 L 20 270 L 0 270 L 0 300 L 30 300 L 30 280 L 40 280 L 40 300 L 70 300 L 70 270 L 50 270 L 50 240 L 100 240 L 100 270 L 80 270 L 80 300 L 110 300 L 110 280 L 120 280 L 120 300 L 150 300 L 150 270 L 130 270 L 130 240 L 150 240 L 150 210 L 120 210 L 120 230 L 90 230 L 90 200 L 110 200 L 110 190 L 90 190 L 90 160 L 120 160 L 120 180 L 150 180 L 150 160 L 160 160 L 160 180 L 190 180 L 190 160 L 220 160 L 220 190 L 200 190 L 200 200 L 220 200 L 220 230 L 190 230 L 190 210 L 160 210 L 160 240 L 180 240 L 180 270 L 160 270 L 160 300 L 190 300 L 190 280 L 200 280 L 200 300 L 230 300 L 230 270 L 210 270 L 210 240 L 260 240 L 260 270 L 240 270 L 240 300 L 270 300 L 270 280 L 280 280 L 280 300 L 310 300 L 310 270 L 290 270 L 290 240 L 310 240 L 310 210 L 280 210 L 280 230 L 250 230 L 250 200 L 270 200 L 270 190 L 250 190 L 250 160 L 280 160 L 280 180 L 310 180 L 310 150 L 290 150 L 290 120 L 310 120 L 310 90 L 280 90 L 280 110 L 270 110 L 270 90 L 240 90 L 240 120 L 260 120 L 260 150 L 230 150 L 230 130 L 200 130 L 200 150 L 170 150 L 170 120 L 190 120 L 190 110 L 170 110 L 170 80 L 200 80 L 200 100 L 230 100 L 230 50 L 200 50 L 200 70 L 170 70 L 170 40 L 190 40 L 190 30 L 170 30 L 170 0 L 200 0 L 200 20 L 230 20 L 230 0 L 260 0 L 260 30 L 240 30 L 240 60 L 270 60 L 270 40 L 280 40 L 280 60 L 310 60 L 310 30 L 290 30 L 290 0 L 320 0 L 320 20 L 350 20 L 350 0 L 380 0 L 380 30 L 360 30 L 360 40 L 380 40 L 380 70 L 350 70 L 350 50 L 320 50 L 320 80 L 340 80 L 340 110 L 320 110 L 320 140 L 350 140 L 350 120 L 360 120 L 360 140 L 390 140 L 390 110 L 370 110 L 370 80 L 420 80 L 420 110 L 400 110 L 400 140 L 430 140 L 430 120 L 440 120 L 440 140 L 470 140 L 470 110 L 450 110 L 450 80 L 470 80 L 470 50 L 440 50 L 440 70 L 410 70 L 410 40 L 430 40 L 430 30 L 410 30 L 410 0 L 440 0 L 440 20 L 470 20 L 470 0 L 500 0 L 500 30 L 480 30 L 480 60 L 510 60 L 510 40 L 520 40 L 520 60 L 550 60 L 550 30 L 530 30 L 530 0 L 560 0 L 560 20 L 590 20 L 590 0 L 620 0 L 620 30 L 600 30 L 600 40 L 620 40 L 620 70 L 590 70 L 590 50 L 560 50 L 560 100 L 590 100 L 590 80 L 620 80 L 620 110 L 600 110 L 600 120 L 620 120 L 620 150 L 590 150 L 590 130 L 560 130 L 560 150 L 530 150 L 530 120 L 550 120 L 550 90 L 520 90 L 520 110 L 510 110 L 510 90 L 480 90 L 480 120 L 500 120 L 500 150 L 480 150 L 480 160 L 500 160 L 500 190 L 480 190 L 480 220 L 510 220 L 510 200 L 520 200 L 520 220 L 550 220 L 550 190 L 530 190 L 530 160 L 560 160 L 560 180 L 590 180 L 590 160 L 620 160 L 620 190 L 600 190 L 600 200 L 620 200 L 620 230 L 590 230 L 590 210 L 560 210 L 560 260 L 590 260 L 590 240 L 620 240 L 620 270 L 600 270 L 600 280 L 620 280 L 620 310 L 590 310 L 590 290 L 560 290 L 560 310 L 530 310 L 530 280 L 550 280 L 550 250 L 520 250 L 520 270 L 510 270 L 510 250 L 480 250 L 480 280 L 500 280 L 500 310 L 470 310 L 470 290 L 440 290 L 440 310 L 410 310 L 410 280 L 430 280 L 430 270 L 410 270 L 410 240 L 440 240 L 440 260 L 470 260 L 470 230 L 450 230 L 450 200 L 470 200 L 470 170 L 440 170 L 440 190 L 430 190 L 430 170 L 400 170 L 400 200 L 420 200 L 420 230 L 370 230 L 370 200 L 390 200 L 390 170 L 360 170 L 360 190 L 350 190 L 350 170 L 320 170 L 320 200 L 340 200 L 340 230 L 320 230 L 320 260 L 350 260 L 350 240 L 380 240 L 380 270 L 360 270 L 360 280 L 380 280 L 380 310 L 350 310 L 350 290 L 320 290 L 320 340 L 350 340 L 350 320 L 380 320 L 380 350 L 360 350 L 360 360 L 380 360 L 380 390 L 350 390 L 350 370 L 320 370 L 320 400 L 340 400 L 340 430 L 320 430 L 320 460 L 350 460 L 350 440 L 360 440 L 360 460 L 390 460 L 390 430 L 370 430 L 370 400 L 420 400 L 420 430 L 400 430 L 400 460 L 430 460 L 430 440 L 440 440 L 440 460 L 470 460 L 470 430 L 450 430 L 450 400 L 470 400 L 470 370 L 440 370 L 440 390 L 410 390 L 410 360 L 430 360 L 430 350 L 410 350 L 410 320 L 440 320 L 440 340 L 470 340 L 470 320 L 500 320 L 500 350 L 480 350 L 480 380 L 510 380 L 510 360 L 520 360 L 520 380 L 550 380 L 550 350 L 530 350 L 530 320 L 560 320 L 560 340 L 590 340 L 590 320 L 620 320 L 620 350 L 600 350 L 600 360 L 620 360 L 620 390 L 590 390 L 590 370 L 560 370 L 560 420 L 590 420 L 590 400 L 620 400 L 620 430 L 600 430 L 600 440 L 620 440 L 620 470 L 590 470 L 590 450 L 560 450 L 560 470 L 530 470 L 530 440 L 550 440 L 550 410 L 520 410 L 520 430 L 510 430 L 510 410 L 480 410 L 480 440 L 500 440 L 500 470 L 480 470 L 480 480 L 500 480 L 500 510 L 480 510 L 480 540 L 510 540 L 510 520 L 520 520 L 520 540 L 550 540 L 550 510 L 530 510 L 530 480 L 560 480 L 560 500 L 590 500 L 590 480 L 620 480 L 620 510 L 600 510 L 600 520 L 620 520 L 620 550 L 590 550 L 590 530 L 560 530 L 560 580 L 590 580 L 590 560 L 620 560 L 620 590 L 600 590 L 600 600 L 620 600 L 620 630 L 590 630 L 590 610 L 560 610 L 560 630 L 530 630 L 530 600 L 550 600 L 550 570 L 520 570 L 520 590 L 510 590 L 510 570 L 480 570 L 480 600 L 500 600 L 500 630 L 470 630 L 470 610 L 440 610 L 440 630 L 410 630 L 410 600 L 430 600 L 430 590 L 410 590 L 410 560 L 440 560 L 440 580 L 470 580 L 470 550 L 450 550 L 450 520 L 470 520 L 470 490 L 440 490 L 440 510 L 430 510 L 430 490 L 400 490 L 400 520 L 420 520 L 420 550 L 370 550 L 370 520 L 390 520 L 390 490 L 360 490 L 360 510 L 350 510 L 350 490 L 320 490 L 320 520 L 340 520 L 340 550 L 320 550 L 320 580 L 350 580 L 350 560 L 380 560 L 380 590 L 360 590 L 360 600 L 380 600 L 380 630 L 350 630 L 350 610 L 320 610 L 320 630 L 290 630 L 290 600 L 310 600 L 310 570 L 280 570 L 280 590 L 270 590 L 270 570 L 240 570 L 240 600 L 260 600 L 260 630 L 230 630 L 230 610 L 200 610 L 200 630 L 170 630 L 170 600 L 190 600 L 190 590 L 170 590 L 170 560 L 200 560 L 200 580 L 230 580 L 230 530 L 200 530 L 200 550 L 170 550 L 170 520 L 190 520 L 190 510 L 170 510 L 170 480 L 200 480 L 200 500 L 230 500 L 230 480 L 260 480 L 260 510 L 240 510 L 240 540 L 270 540 L 270 520 L 280 520 L 280 540 L 310 540 L 310 510 L 290 510 L 290 480 L 310 480 L 310 450 L 280 450 L 280 470 L 250 470 L 250 440 L 270 440 L 270 430 L 250 430 L 250 400 L 280 400 L 280 420 L 310 420 L 310 390 L 290 390 L 290 360 L 310 360 L 310 330 L 280 330 L 280 350 L 270 350 L 270 330 L 240 330 L 240 360 L 260 360 L 260 390 L 210 390 L 210 360 L 230 360 L 230 330 L 200 330 L 200 350 L 190 350 L 190 330 L 160 330 L 160 360 L 180 360 L 180 390 L 160 390 L 160 420 L 190 420 L 190 400 L 220 400 L 220 430 L 200 430 L 200 440 L 220 440 L 220 470 L 190 470 L 190 450 L 160 450 L 160 470 L 150 470 L 150 450 L 120 450 L 120 470 L 90 470 L 90 440 L 110 440 L 110 430 L 90 430 L 90 400 L 120 400 L 120 420 L 150 420 L 150 390 L 130 390 L 130 360 L 150 360 L 150 330 L 120 330 L 120 350 L 110 350 L 110 330 L 80 330 L 80 360 L 100 360 L 100 390 L 50 390 L 50 360 L 70 360 L 70 330 L 40 330 L 40 350 L 30 350 L 30 330 L 0 330 L 0 360 L 20 360 L 20 390 L 0 390 L 0 420 L 30 420 L 30 400 L 60 400 L 60 430 L 40 430 L 40 440 L 60 440 L 60 470 L 30 470 L 30 450 L 0 450 L 0 480 L 20 480 L 20 510 L 0 510 L 0 540 L 30 540 L 30 520 L 40 520 L 40 540 L 70 540 L 70 510 L 50 510 L 50 480 L 80 480 L 80 500 L 110 500 L 110 480 L 140 480 L 140 510 L 120 510 L 120 520 L 140 520 L 140 550 L 110 550 L 110 530 L 80 530 L 80 580 L 110 580 L 110 560 L 140 560 L 140 590 L 120 590 L 120 600 L 140 600 L 140 630 L 110 630 L 110 610 L 80 610 L 80 630 L 50 630 L 50 600 L 70 600 L 70 570 L 40 570 L 40 590 L 30 590 L 30 570 L 0 570 L 0 600 L 20 600 L 20 630 L 0 630 L 0 660 L 30 660 L 30 640 L 60 640 L 60 670 L 40 670 L 40 680 L 60 680 L 60 710 L 30 710 L 30 690 L 0 690 L 0 720 L 20 720 L 20 750 L 0 750 L 0 780 L 30 780 L 30 760 L 40 760 L 40 780 L 70 780 L 70 750 L 50 750 L 50 720 L 100 720 L 100 750 L 80 750 L 80 780 L 110 780 L 110 760 L 120 760 L 120 780 L 150 780 L 150 750 L 130 750 L 130 720 L 150 720 L 150 690 L 120 690 L 120 710 L 90 710 L 90 680 L 110 680 L 110 670 L 90 670 L 90 640 L 120 640 L 120 660 L 150 660 L 150 640 L 180 640 L 180 670 L 160 670 L 160 700 L 190 700 L 190 680 L 200 680 L 200 700 L 230 700 L 230 670 L 210 670 L 210 640 L 240 640 L 240 660 L 270 660 L 270 640 L 300 640 L 300 670 L 280 670 L 280 680 L 300 680 L 300 710 L 270 710 L 270 690 L 240 690 L 240 740 L 270 740 L 270 720 L 300 720 L 300 750 L 280 750 L 280 760 L 300 760 L 300 790 L 270 790 L 270 770 L 240 770 L 240 790 L 210 790 L 210 760 L 230 760 L 230 730 L 200 730 L 200 750 L 190 750 L 190 730 L 160 730 L 160 760 L 180 760 L 180 790 L 160 790 L 160 800 L 180 800 L 180 830 L 160 830 L 160 860 L 190 860 L 190 840 L 200 840 L 200 860 L 230 860 L 230 830 L 210 830 L 210 800 L 240 800 L 240 820 L 270 820 L 270 800 L 300 800 L 300 830 L 280 830 L 280 840 L 300 840 L 300 870 L 270 870 L 270 850 L 240 850 L 240 900 L 270 900 L 270 880 L 300 880 L 300 910 L 280 910 L 280 920 L 300 920 L 300 950 L 270 950 L 270 930 L 240 930 L 240 950 L 210 950 L 210 920 L 230 920 L 230 890 L 200 890 L 200 910 L 190 910 L 190 890 L 160 890 L 160 920 L 180 920 L 180 950 L 150 950 L 150 930 L 120 930 L 120 950 L 90 950 L 90 920 L 110 920 L 110 910 L 90 910 L 90 880 L 120 880 L 120 900 L 150 900 L 150 870 L 130 870 L 130 840 L 150 840 L 150 810 L 120 810 L 120 830 L 110 830 L 110 810 L 80 810 L 80 840 L 100 840 L 100 870 L 50 870 L 50 840 L 70 840 L 70 810 L 40 810 L 40 830 L 30 830 L 30 810 L 0 810 L 0 840 L 20 840 L 20 870 L 0 870 L 0 900 L 30 900 L 30 880 L 60 880 L 60 910 L 40 910 L 40 920 L 60 920 L 60 950 L 30 950 L 30 930 L 0 930 L 0 960 L 20 960 L 20 990 L 0 990 L 0 1020 L 30 1020 L 30 1000 L 40 1000 L 40 1020 L 70 1020 L 70 990 L 50 990 L 50 960 L 80 960 L 80 980 L 110 980 L 110 960 L 140 960 L 140 990 L 120 990 L 120 1000 L 140 1000 L 140 1030 L 110 1030 L 110 1010 L 80 1010 L 80 1060 L 110 1060 L 110 1040 L 140 1040 L 140 1070 L 120 1070 L 120 1080 L 140 1080 L 140 1110 L 110 1110 L 110 1090 L 80 1090 L 80 1110 L 50 1110 L 50 1080 L 70 1080 L 70 1050 L 40 1050 L 40 1070 L 30 1070 L 30 1050 L 0 1050 L 0 1080 L 20 1080 L 20 1110 L 0 1110 L 0 1140 L 30 1140 L 30 1120 L 60 1120 L 60 1150 L 40 1150 L 40 1160 L 60 1160 L 60 1190 L 30 1190 L 30 1170 L 0 1170 L 0 1200 L 20 1200 L 20 1230 L 0 1230 L 0 1260 L 30 1260 L 30 1240 L 40 1240 L 40 1260 L 70 1260 L 70 1230 L 50 1230 L 50 1200 L 100 1200 L 100 1230 L 80 1230 L 80 1260 L 110 1260 L 110 1240 L 120 1240 L 120 1260 L 150 1260 L 150 1230 L 130 1230 L 130 1200 L 150 1200 L 150 1170 L 120 1170 L 120 1190 L 90 1190 L 90 1160 L 110 1160 L 110 1150 L 90 1150 L 90 1120 L 120 1120 L 120 1140 L 150 1140 L 150 1120 L 160 1120 L 160 1140 L 190 1140 L 190 1120 L 220 1120 L 220 1150 L 200 1150 L 200 1160 L 220 1160 L 220 1190 L 190 1190 L 190 1170 L 160 1170 L 160 1200 L 180 1200 L 180 1230 L 160 1230 L 160 1260 L 190 1260 L 190 1240 L 200 1240 L 200 1260 L 230 1260 L 230 1230 L 210 1230 L 210 1200 L 260 1200 L 260 1230 L 240 1230 L 240 1260 L 270 1260 L 270 1240 L 280 1240 L 280 1260 L 310 1260 L 310 1230 L 290 1230 L 290 1200 L 310 1200 L 310 1170 L 280 1170 L 280 1190 L 250 1190 L 250 1160 L 270 1160 L 270 1150 L 250 1150 L 250 1120 L 280 1120 L 280 1140 L 310 1140 L 310 1110 L 290 1110 L 290 1080 L 310 1080 L 310 1050 L 280 1050 L 280 1070 L 270 1070 L 270 1050 L 240 1050 L 240 1080 L 260 1080 L 260 1110 L 230 1110 L 230 1090 L 200 1090 L 200 1110 L 170 1110 L 170 1080 L 190 1080 L 190 1070 L 170 1070 L 170 1040 L 200 1040 L 200 1060 L 230 1060 L 230 1010 L 200 1010 L 200 1030 L 170 1030 L 170 1000 L 190 1000 L 190 990 L 170 990 L 170 960 L 200 960 L 200 980 L 230 980 L 230 960 L 260 960 L 260 990 L 240 990 L 240 1020 L 270 1020 L 270 1000 L 280 1000 L 280 1020 L 310 1020 L 310 990 L 290 990 L 290 960 L 340 960 L 340 990 L 320 990 L 320 1020 L 350 1020 L 350 1000 L 360 1000 L 360 1020 L 390 1020 L 390 990 L 370 990 L 370 960 L 400 960 L 400 980 L 430 980 L 430 960 L 460 960 L 460 990 L 440 990 L 440 1000 L 460 1000 L 460 1030 L 430 1030 L 430 1010 L 400 1010 L 400 1060 L 430 1060 L 430 1040 L 460 1040 L 460 1070 L 440 1070 L 440 1080 L 460 1080 L 460 1110 L 430 1110 L 430 1090 L 400 1090 L 400 1110 L 370 1110 L 370 1080 L 390 1080 L 390 1050 L 360 1050 L 360 1070 L 350 1070 L 350 1050 L 320 1050 L 320 1080 L 340 1080 L 340 1110 L 320 1110 L 320 1140 L 350 1140 L 350 1120 L 380 1120 L 380 1150 L 360 1150 L 360 1160 L 380 1160 L 380 1190 L 350 1190 L 350 1170 L 320 1170 L 320 1200 L 340 1200 L 340 1230 L 320 1230 L 320 1260 L 350 1260 L 350 1240 L 360 1240 L 360 1260 L 390 1260 L 390 1230 L 370 1230 L 370 1200 L 420 1200 L 420 1230 L 400 1230 L 400 1260 L 430 1260 L 430 1240 L 440 1240 L 440 1260 L 470 1260 L 470 1230 L 450 1230 L 450 1200 L 470 1200 L 470 1170 L 440 1170 L 440 1190 L 410 1190 L 410 1160 L 430 1160 L 430 1150 L 410 1150 L 410 1120 L 440 1120 L 440 1140 L 470 1140 L 470 1120 L 480 1120 L 480 1140 L 510 1140 L 510 1120 L 540 1120 L 540 1150 L 520 1150 L 520 1160 L 540 1160 L 540 1190 L 510 1190 L 510 1170 L 480 1170 L 480 1200 L 500 1200 L 500 1230 L 480 1230 L 480 1260 L 510 1260 L 510 1240 L 520 1240 L 520 1260 L 550 1260 L 550 1230 L 530 1230 L 530 1200 L 580 1200 L 580 1230 L 560 1230 L 560 1260 L 590 1260 L 590 1240 L 600 1240 L 600 1260 L 630 1260 L 630 1230 L 610 1230 L 610 1200 L 630 1200 L 630 1170 L 600 1170 L 600 1190 L 570 1190 L 570 1160 L 590 1160 L 590 1150 L 570 1150 L 570 1120 L 600 1120 L 600 1140 L 630 1140 L 630 1110 L 610 1110 L 610 1080 L 630 1080 L 630 1050 L 600 1050 L 600 1070 L 590 1070 L 590 1050 L 560 1050 L 560 1080 L 580 1080 L 580 1110 L 550 1110 L 550 1090 L 520 1090 L 520 1110 L 490 1110 L 490 1080 L 510 1080 L 510 1070 L 490 1070 L 490 1040 L 520 1040 L 520 1060 L 550 1060 L 550 1010 L 520 1010 L 520 1030 L 490 1030 L 490 1000 L 510 1000 L 510 990 L 490 990 L 490 960 L 520 960 L 520 980 L 550 980 L 550 960 L 580 960 L 580 990 L 560 990 L 560 1020 L 590 1020 L 590 1000 L 600 1000 L 600 1020 L 630 1020 L 630 990 L 610 990 L 610 960 L 630 960 L 630 930 L 600 930 L 600 950 L 570 950 L 570 920 L 590 920 L 590 910 L 570 910 L 570 880 L 600 880 L 600 900 L 630 900 L 630 870 L 610 870 L 610 840 L 630 840 L 630 810 L 600 810 L 600 830 L 590 830 L 590 810 L 560 810 L 560 840 L 580 840 L 580 870 L 530 870 L 530 840 L 550 840 L 550 810 L 520 810 L 520 830 L 510 830 L 510 810 L 480 810 L 480 840 L 500 840 L 500 870 L 480 870 L 480 900 L 510 900 L 510 880 L 540 880 L 540 910 L 520 910 L 520 920 L 540 920 L 540 950 L 510 950 L 510 930 L 480 930 L 480 950 L 450 950 L 450 920 L 470 920 L 470 890 L 440 890 L 440 910 L 430 910 L 430 890 L 400 890 L 400 920 L 420 920 L 420 950 L 390 950 L 390 930 L 360 930 L 360 950 L 330 950 L 330 920 L 350 920 L 350 910 L 330 910 L 330 880 L 360 880 L 360 900 L 390 900 L 390 850 L 360 850 L 360 870 L 330 870 L 330 840 L 350 840 L 350 830 L 330 830 L 330 800 L 360 800 L 360 820 L 390 820 L 390 800 L 420 800 L 420 830 L 400 830 L 400 860 L 430 860 L 430 840 L 440 840 L 440 860 L 470 860 L 470 830 L 450 830 L 450 800 L 470 800 L 470 790 L 450 790 L 450 760 L 470 760 L 470 730 L 440 730 L 440 750 L 430 750 L 430 730 L 400 730 L 400 760 L 420 760 L 420 790 L 390 790 L 390 770 L 360 770 L 360 790 L 330 790 L 330 760 L 350 760 L 350 750 L 330 750 L 330 720 L 360 720 L 360 740 L 390 740 L 390 690 L 360 690 L 360 710 L 330 710 L 330 680 L 350 680 L 350 670 L 330 670 L 330 640 L 360 640 L 360 660 L 390 660 L 390 640 L 420 640 L 420 670 L 400 670 L 400 700 L 430 700 L 430 680 L 440 680 L 440 700 L 470 700 L 470 670 L 450 670 L 450 640 L 480 640 L 480 660 L 510 660 L 510 640 L 540 640 L 540 670 L 520 670 L 520 680 L 540 680 L 540 710 L 510 710 L 510 690 L 480 690 L 480 720 L 500 720 L 500 750 L 480 750 L 480 780 L 510 780 L 510 760 L 520 760 L 520 780 L 550 780 L 550 750 L 530 750 L 530 720 L 580 720 L 580 750 L 560 750 L 560 780 L 590 780 L 590 760 L 600 760 L 600 780 L 630 780 L 630 750 L 610 750 L 610 720 L 630 720 L 630 690 L 600 690 L 600 710 L 570 710 L 570 680 L 590 680 L 590 670 L 570 670 L 570 640 L 600 640 L 600 660 L 630 660 L 630 640 L 640 640 L 640 660 L 670 660 L 670 640 L 700 640 L 700 670 L 680 670 L 680 680 L 700 680 L 700 710 L 670 710 L 670 690 L 640 690 L 640 720 L 660 720 L 660 750 L 640 750 L 640 780 L 670 780 L 670 760 L 680 760 L 680 780 L 710 780 L 710 750 L 690 750 L 690 720 L 740 720 L 740 750 L 720 750 L 720 780 L 750 780 L 750 760 L 760 760 L 760 780 L 790 780 L 790 750 L 770 750 L 770 720 L 790 720 L 790 690 L 760 690 L 760 710 L 730 710 L 730 680 L 750 680 L 750 670 L 730 670 L 730 640 L 760 640 L 760 660 L 790 660 L 790 640 L 820 640 L 820 670 L 800 670 L 800 700 L 830 700 L 830 680 L 840 680 L 840 700 L 870 700 L 870 670 L 850 670 L 850 640 L 880 640 L 880 660 L 910 660 L 910 640 L 940 640 L 940 670 L 920 670 L 920 680 L 940 680 L 940 710 L 910 710 L 910 690 L 880 690 L 880 740 L 910 740 L 910 720 L 940 720 L 940 750 L 920 750 L 920 760 L 940 760 L 940 790 L 910 790 L 910 770 L 880 770 L 880 790 L 850 790 L 850 760 L 870 760 L 870 730 L 840 730 L 840 750 L 830 750 L 830 730 L 800 730 L 800 760 L 820 760 L 820 790 L 800 790 L 800 800 L 820 800 L 820 830 L 800 830 L 800 860 L 830 860 L 830 840 L 840 840 L 840 860 L 870 860 L 870 830 L 850 830 L 850 800 L 880 800 L 880 820 L 910 820 L 910 800 L 940 800 L 940 830 L 920 830 L 920 840 L 940 840 L 940 870 L 910 870 L 910 850 L 880 850 L 880 900 L 910 900 L 910 880 L 940 880 L 940 910 L 920 910 L 920 920 L 940 920 L 940 950 L 910 950 L 910 930 L 880 930 L 880 950 L 850 950 L 850 920 L 870 920 L 870 890 L 840 890 L 840 910 L 830 910 L 830 890 L 800 890 L 800 920 L 820 920 L 820 950 L 790 950 L 790 930 L 760 930 L 760 950 L 730 950 L 730 920 L 750 920 L 750 910 L 730 910 L 730 880 L 760 880 L 760 900 L 790 900 L 790 870 L 770 870 L 770 840 L 790 840 L 790 810 L 760 810 L 760 830 L 750 830 L 750 810 L 720 810 L 720 840 L 740 840 L 740 870 L 690 870 L 690 840 L 710 840 L 710 810 L 680 810 L 680 830 L 670 830 L 670 810 L 640 810 L 640 840 L 660 840 L 660 870 L 640 870 L 640 900 L 670 900 L 670 880 L 700 880 L 700 910 L 680 910 L 680 920 L 700 920 L 700 950 L 670 950 L 670 930 L 640 930 L 640 960 L 660 960 L 660 990 L 640 990 L 640 1020 L 670 1020 L 670 1000 L 680 1000 L 680 1020 L 710 1020 L 710 990 L 690 990 L 690 960 L 720 960 L 720 980 L 750 980 L 750 960 L 780 960 L 780 990 L 760 990 L 760 1000 L 780 1000 L 780 1030 L 750 1030 L 750 1010 L 720 1010 L 720 1060 L 750 1060 L 750 1040 L 780 1040 L 780 1070 L 760 1070 L 760 1080 L 780 1080 L 780 1110 L 750 1110 L 750 1090 L 720 1090 L 720 1110 L 690 1110 L 690 1080 L 710 1080 L 710 1050 L 680 1050 L 680 1070 L 670 1070 L 670 1050 L 640 1050 L 640 1080 L 660 1080 L 660 1110 L 640 1110 L 640 1140 L 670 1140 L 670 1120 L 700 1120 L 700 1150 L 680 1150 L 680 1160 L 700 1160 L 700 1190 L 670 1190 L 670 1170 L 640 1170 L 640 1200 L 660 1200 L 660 1230 L 640 1230 L 640 1260 L 670 1260 L 670 1240 L 680 1240 L 680 1260 L 710 1260 L 710 1230 L 690 1230 L 690 1200 L 740 1200 L 740 1230 L 720 1230 L 720 1260 L 750 1260 L 750 1240 L 760 1240 L 760 1260 L 790 1260 L 790 1230 L 770 1230 L 770 1200 L 790 1200 L 790 1170 L 760 1170 L 760 1190 L 730 1190 L 730 1160 L 750 1160 L 750 1150 L 730 1150 L 730 1120 L 760 1120 L 760 1140 L 790 1140 L 790 1120 L 800 1120 L 800 1140 L 830 1140 L 830 1120 L 860 1120 L 860 1150 L 840 1150 L 840 1160 L 860 1160 L 860 1190 L 830 1190 L 830 1170 L 800 1170 L 800 1200 L 820 1200 L 820 1230 L 800 1230 L 800 1260 L 830 1260 L 830 1240 L 840 1240 L 840 1260 L 870 1260 L 870 1230 L 850 1230 L 850 1200 L 900 1200 L 900 1230 L 880 1230 L 880 1260 L 910 1260 L 910 1240 L 920 1240 L 920 1260 L 950 1260 L 950 1230 L 930 1230 L 930 1200 L 950 1200 L 950 1170 L 920 1170 L 920 1190 L 890 1190 L 890 1160 L 910 1160 L 910 1150 L 890 1150 L 890 1120 L 920 1120 L 920 1140 L 950 1140 L 950 1110 L 930 1110 L 930 1080 L 950 1080 L 950 1050 L 920 1050 L 920 1070 L 910 1070 L 910 1050 L 880 1050 L 880 1080 L 900 1080 L 900 1110 L 870 1110 L 870 1090 L 840 1090 L 840 1110 L 810 1110 L 810 1080 L 830 1080 L 830 1070 L 810 1070 L 810 1040 L 840 1040 L 840 1060 L 870 1060 L 870 1010 L 840 1010 L 840 1030 L 810 1030 L 810 1000 L 830 1000 L 830 990 L 810 990 L 810 960 L 840 960 L 840 980 L 870 980 L 870 960 L 900 960 L 900 990 L 880 990 L 880 1020 L 910 1020 L 910 1000 L 920 1000 L 920 1020 L 950 1020 L 950 990 L 930 990 L 930 960 L 980 960 L 980 990 L 960 990 L 960 1020 L 990 1020 L 990 1000 L 1000 1000 L 1000 1020 L 1030 1020 L 1030 990 L 1010 990 L 1010 960 L 1040 960 L 1040 980 L 1070 980 L 1070 960 L 1100 960 L 1100 990 L 1080 990 L 1080 1000 L 1100 1000 L 1100 1030 L 1070 1030 L 1070 1010 L 1040 1010 L 1040 1060 L 1070 1060 L 1070 1040 L 1100 1040 L 1100 1070 L 1080 1070 L 1080 1080 L 1100 1080 L 1100 1110 L 1070 1110 L 1070 1090 L 1040 1090 L 1040 1110 L 1010 1110 L 1010 1080 L 1030 1080 L 1030 1050 L 1000 1050 L 1000 1070 L 990 1070 L 990 1050 L 960 1050 L 960 1080 L 980 1080 L 980 1110 L 960 1110 L 960 1140 L 990 1140 L 990 1120 L 1020 1120 L 1020 1150 L 1000 1150 L 1000 1160 L 1020 1160 L 1020 1190 L 990 1190 L 990 1170 L 960 1170 L 960 1200 L 980 1200 L 980 1230 L 960 1230 L 960 1260 L 990 1260 L 990 1240 L 1000 1240 L 1000 1260 L 1030 1260 L 1030 1230 L 1010 1230 L 1010 1200 L 1060 1200 L 1060 1230 L 1040 1230 L 1040 1260 L 1070 1260 L 1070 1240 L 1080 1240 L 1080 1260 L 1110 1260 L 1110 1230 L 1090 1230 L 1090 1200 L 1110 1200 L 1110 1170 L 1080 1170 L 1080 1190 L 1050 1190 L 1050 1160 L 1070 1160 L 1070 1150 L 1050 1150 L 1050 1120 L 1080 1120 L 1080 1140 L 1110 1140 L 1110 1120 L 1120 1120 L 1120 1140 L 1150 1140 L 1150 1120 L 1180 1120 L 1180 1150 L 1160 1150 L 1160 1160 L 1180 1160 L 1180 1190 L 1150 1190 L 1150 1170 L 1120 1170 L 1120 1200 L 1140 1200 L 1140 1230 L 1120 1230 L 1120 1260 L 1150 1260 L 1150 1240 L 1160 1240 L 1160 1260 L 1190 1260 L 1190 1230 L 1170 1230 L 1170 1200 L 1220 1200 L 1220 1230 L 1200 1230 L 1200 1260 L 1230 1260 L 1230 1240 L 1240 1240 L 1240 1260 L 1270 1260 L 1270 1230 L 1250 1230 L 1250 1200 L 1270 1200 L 1270 1170 L 1240 1170 L 1240 1190 L 1210 1190 L 1210 1160 L 1230 1160 L 1230 1150 L 1210 1150 L 1210 1120 L 1240 1120 L 1240 1140 L 1270 1140 L 1270 1110 L 1250 1110 L 1250 1080 L 1270 1080 L 1270 1050 L 1240 1050 L 1240 1070 L 1230 1070 L 1230 1050 L 1200 1050 L 1200 1080 L 1220 1080 L 1220 1110 L 1190 1110 L 1190 1090 L 1160 1090 L 1160 1110 L 1130 1110 L 1130 1080 L 1150 1080 L 1150 1070 L 1130 1070 L 1130 1040 L 1160 1040 L 1160 1060 L 1190 1060 L 1190 1010 L 1160 1010 L 1160 1030 L 1130 1030 L 1130 1000 L 1150 1000 L 1150 990 L 1130 990 L 1130 960 L 1160 960 L 1160 980 L 1190 980 L 1190 960 L 1220 960 L 1220 990 L 1200 990 L 1200 1020 L 1230 1020 L 1230 1000 L 1240 1000 L 1240 1020 L 1270 1020 L 1270 990 L 1250 990 L 1250 960 L 1270 960 L 1270 930 L 1240 930 L 1240 950 L 1210 950 L 1210 920 L 1230 920 L 1230 910 L 1210 910 L 1210 880 L 1240 880 L 1240 900 L 1270 900 L 1270 870 L 1250 870 L 1250 840 L 1270 840 L 1270 810 L 1240 810 L 1240 830 L 1230 830 L 1230 810 L 1200 810 L 1200 840 L 1220 840 L 1220 870 L 1170 870 L 1170 840 L 1190 840 L 1190 810 L 1160 810 L 1160 830 L 1150 830 L 1150 810 L 1120 810 L 1120 840 L 1140 840 L 1140 870 L 1120 870 L 1120 900 L 1150 900 L 1150 880 L 1180 880 L 1180 910 L 1160 910 L 1160 920 L 1180 920 L 1180 950 L 1150 950 L 1150 930 L 1120 930 L 1120 950 L 1090 950 L 1090 920 L 1110 920 L 1110 890 L 1080 890 L 1080 910 L 1070 910 L 1070 890 L 1040 890 L 1040 920 L 1060 920 L 1060 950 L 1030 950 L 1030 930 L 1000 930 L 1000 950 L 970 950 L 970 920 L 990 920 L 990 910 L 970 910 L 970 880 L 1000 880 L 1000 900 L 1030 900 L 1030 850 L 1000 850 L 1000 870 L 970 870 L 970 840 L 990 840 L 990 830 L 970 830 L 970 800 L 1000 800 L 1000 820 L 1030 820 L 1030 800 L 1060 800 L 1060 830 L 1040 830 L 1040 860 L 1070 860 L 1070 840 L 1080 840 L 1080 860 L 1110 860 L 1110 830 L 1090 830 L 1090 800 L 1110 800 L 1110 790 L 1090 790 L 1090 760 L 1110 760 L 1110 730 L 1080 730 L 1080 750 L 1070 750 L 1070 730 L 1040 730 L 1040 760 L 1060 760 L 1060 790 L 1030 790 L 1030 770 L 1000 770 L 1000 790 L 970 790 L 970 760 L 990 760 L 990 750 L 970 750 L 970 720 L 1000 720 L 1000 740 L 1030 740 L 1030 690 L 1000 690 L 1000 710 L 970 710 L 970 680 L 990 680 L 990 670 L 970 670 L 970 640 L 1000 640 L 1000 660 L 1030 660 L 1030 640 L 1060 640 L 1060 670 L 1040 670 L 1040 700 L 1070 700 L 1070 680 L 1080 680 L 1080 700 L 1110 700 L 1110 670 L 1090 670 L 1090 640 L 1120 640 L 1120 660 L 1150 660 L 1150 640 L 1180 640 L 1180 670 L 1160 670 L 1160 680 L 1180 680 L 1180 710 L 1150 710 L 1150 690 L 1120 690 L 1120 720 L 1140 720 L 1140 750 L 1120 750 L 1120 780 L 1150 780 L 1150 760 L 1160 760 L 1160 780 L 1190 780 L 1190 750 L 1170 750 L 1170 720 L 1220 720 L 1220 750 L 1200 750 L 1200 780 L 1230 780 L 1230 760 L 1240 760 L 1240 780 L 1270 780 L 1270 750 L 1250 750 L 1250 720 L 1270 720 L 1270 690 L 1240 690 L 1240 710 L 1210 710 L 1210 680 L 1230 680 L 1230 670 L 1210 670 L 1210 640 L 1240 640 L 1240 660 L 1270 660 L 1270 630 L 1250 630 L 1250 600 L 1270 600 L 1270 570 L 1240 570 L 1240 590 L 1230 590 L 1230 570 L 1200 570 L 1200 600 L 1220 600 L 1220 630 L 1190 630 L 1190 610 L 1160 610 L 1160 630 L 1130 630 L 1130 600 L 1150 600 L 1150 590 L 1130 590 L 1130 560 L 1160 560 L 1160 580 L 1190 580 L 1190 530 L 1160 530 L 1160 550 L 1130 550 L 1130 520 L 1150 520 L 1150 510 L 1130 510 L 1130 480 L 1160 480 L 1160 500 L 1190 500 L 1190 480 L 1220 480 L 1220 510 L 1200 510 L 1200 540 L 1230 540 L 1230 520 L 1240 520 L 1240 540 L 1270 540 L 1270 510 L 1250 510 L 1250 480 L 1270 480 L 1270 450 L 1240 450 L 1240 470 L 1210 470 L 1210 440 L 1230 440 L 1230 430 L 1210 430 L 1210 400 L 1240 400 L 1240 420 L 1270 420 L 1270 390 L 1250 390 L 1250 360 L 1270 360 L 1270 330 L 1240 330 L 1240 350 L 1230 350 L 1230 330 L 1200 330 L 1200 360 L 1220 360 L 1220 390 L 1170 390 L 1170 360 L 1190 360 L 1190 330 L 1160 330 L 1160 350 L 1150 350 L 1150 330 L 1120 330 L 1120 360 L 1140 360 L 1140 390 L 1120 390 L 1120 420 L 1150 420 L 1150 400 L 1180 400 L 1180 430 L 1160 430 L 1160 440 L 1180 440 L 1180 470 L 1150 470 L 1150 450 L 1120 450 L 1120 470 L 1110 470 L 1110 450 L 1080 450 L 1080 470 L 1050 470 L 1050 440 L 1070 440 L 1070 430 L 1050 430 L 1050 400 L 1080 400 L 1080 420 L 1110 420 L 1110 390 L 1090 390 L 1090 360 L 1110 360 L 1110 330 L 1080 330 L 1080 350 L 1070 350 L 1070 330 L 1040 330 L 1040 360 L 1060 360 L 1060 390 L 1010 390 L 1010 360 L 1030 360 L 1030 330 L 1000 330 L 1000 350 L 990 350 L 990 330 L 960 330 L 960 360 L 980 360 L 980 390 L 960 390 L 960 420 L 990 420 L 990 400 L 1020 400 L 1020 430 L 1000 430 L 1000 440 L 1020 440 L 1020 470 L 990 470 L 990 450 L 960 450 L 960 480 L 980 480 L 980 510 L 960 510 L 960 540 L 990 540 L 990 520 L 1000 520 L 1000 540 L 1030 540 L 1030 510 L 1010 510 L 1010 480 L 1040 480 L 1040 500 L 1070 500 L 1070 480 L 1100 480 L 1100 510 L 1080 510 L 1080 520 L 1100 520 L 1100 550 L 1070 550 L 1070 530 L 1040 530 L 1040 580 L 1070 580 L 1070 560 L 1100 560 L 1100 590 L 1080 590 L 1080 600 L 1100 600 L 1100 630 L 1070 630 L 1070 610 L 1040 610 L 1040 630 L 1010 630 L 1010 600 L 1030 600 L 1030 570 L 1000 570 L 1000 590 L 990 590 L 990 570 L 960 570 L 960 600 L 980 600 L 980 630 L 950 630 L 950 610 L 920 610 L 920 630 L 890 630 L 890 600 L 910 600 L 910 590 L 890 590 L 890 560 L 920 560 L 920 580 L 950 580 L 950 550 L 930 550 L 930 520 L 950 520 L 950 490 L 920 490 L 920 510 L 910 510 L 910 490 L 880 490 L 880 520 L 900 520 L 900 550 L 850 550 L 850 520 L 870 520 L 870 490 L 840 490 L 840 510 L 830 510 L 830 490 L 800 490 L 800 520 L 820 520 L 820 550 L 800 550 L 800 580 L 830 580 L 830 560 L 860 560 L 860 590 L 840 590 L 840 600 L 860 600 L 860 630 L 830 630 L 830 610 L 800 610 L 800 630 L 770 630 L 770 600 L 790 600 L 790 570 L 760 570 L 760 590 L 750 590 L 750 570 L 720 570 L 720 600 L 740 600 L 740 630 L 710 630 L 710 610 L 680 610 L 680 630 L 650 630 L 650 600 L 670 600 L 670 590 L 650 590 L 650 560 L 680 560 L 680 580 L 710 580 L 710 530 L 680 530 L 680 550 L 650 550 L 650 520 L 670 520 L 670 510 L 650 510 L 650 480 L 680 480 L 680 500 L 710 500 L 710 480 L 740 480 L 740 510 L 720 510 L 720 540 L 750 540 L 750 520 L 760 520 L 760 540 L 790 540 L 790 510 L 770 510 L 770 480 L 790 480 L 790 470 L 770 470 L 770 440 L 790 440 L 790 410 L 760 410 L 760 430 L 750 430 L 750 410 L 720 410 L 720 440 L 740 440 L 740 470 L 710 470 L 710 450 L 680 450 L 680 470 L 650 470 L 650 440 L 670 440 L 670 430 L 650 430 L 650 400 L 680 400 L 680 420 L 710 420 L 710 370 L 680 370 L 680 390 L 650 390 L 650 360 L 670 360 L 670 350 L 650 350 L 650 320 L 680 320 L 680 340 L 710 340 L 710 320 L 740 320 L 740 350 L 720 350 L 720 380 L 750 380 L 750 360 L 760 360 L 760 380 L 790 380 L 790 350 L 770 350 L 770 320 L 800 320 L 800 340 L 830 340 L 830 320 L 860 320 L 860 350 L 840 350 L 840 360 L 860 360 L 860 390 L 830 390 L 830 370 L 800 370 L 800 400 L 820 400 L 820 430 L 800 430 L 800 460 L 830 460 L 830 440 L 840 440 L 840 460 L 870 460 L 870 430 L 850 430 L 850 400 L 900 400 L 900 430 L 880 430 L 880 460 L 910 460 L 910 440 L 920 440 L 920 460 L 950 460 L 950 430 L 930 430 L 930 400 L 950 400 L 950 370 L 920 370 L 920 390 L 890 390 L 890 360 L 910 360 L 910 350 L 890 350 L 890 320 L 920 320 L 920 340 L 950 340 L 950 290 L 920 290 L 920 310 L 890 310 L 890 280 L 910 280 L 910 270 L 890 270 L 890 240 L 920 240 L 920 260 L 950 260 L 950 230 L 930 230 L 930 200 L 950 200 L 950 170 L 920 170 L 920 190 L 910 190 L 910 170 L 880 170 L 880 200 L 900 200 L 900 230 L 850 230 L 850 200 L 870 200 L 870 170 L 840 170 L 840 190 L 830 190 L 830 170 L 800 170 L 800 200 L 820 200 L 820 230 L 800 230 L 800 260 L 830 260 L 830 240 L 860 240 L 860 270 L 840 270 L 840 280 L 860 280 L 860 310 L 830 310 L 830 290 L 800 290 L 800 310 L 770 310 L 770 280 L 790 280 L 790 250 L 760 250 L 760 270 L 750 270 L 750 250 L 720 250 L 720 280 L 740 280 L 740 310 L 710 310 L 710 290 L 680 290 L 680 310 L 650 310 L 650 280 L 670 280 L 670 270 L 650 270 L 650 240 L 680 240 L 680 260 L 710 260 L 710 210 L 680 210 L 680 230 L 650 230 L 650 200 L 670 200 L 670 190 L 650 190 L 650 160 L 680 160 L 680 180 L 710 180 L 710 160 L 740 160 L 740 190 L 720 190 L 720 220 L 750 220 L 750 200 L 760 200 L 760 220 L 790 220 L 790 190 L 770 190 L 770 160 L 790 160 L 790 150 L 770 150 L 770 120 L 790 120 L 790 90 L 760 90 L 760 110 L 750 110 L 750 90 L 720 90 L 720 120 L 740 120 L 740 150 L 710 150 L 710 130 L 680 130 L 680 150 L 650 150 L 650 120 L 670 120 L 670 110 L 650 110 L 650 80 L 680 80 L 680 100 L 710 100 L 710 50 L 680 50 L 680 70 L 650 70 L 650 40 L 670 40 L 670 30 L 650 30 L 650 0 L 680 0 L 680 20 L 710 20 L 710 0 L 740 0 L 740 30 L 720 30 L 720 60 L 750 60 L 750 40 L 760 40 L 760 60 L 790 60 L 790 30 L 770 30 L 770 0 L 800 0 L 800 20 L 830 20 L 830 0 L 860 0 L 860 30 L 840 30 L 840 40 L 860 40 L 860 70 L 830 70 L 830 50 L 800 50 L 800 80 L 820 80 L 820 110 L 800 110 L 800 140 L 830 140 L 830 120 L 840 120 L 840 140 L 870 140 L 870 110 L 850 110 L 850 80 L 900 80 L 900 110 L 880 110 L 880 140 L 910 140 L 910 120 L 920 120 L 920 140 L 950 140 L 950 110 L 930 110 L 930 80 L 950 80 L 950 50 L 920 50 L 920 70 L 890 70 L 890 40 L 910 40 L 910 30 L 890 30 L 890 0 L 920 0 L 920 20 L 950 20 L 950 0 L 980 0 L 980 30 L 960 30 L 960 60 L 990 60 L 990 40 L 1000 40 L 1000 60 L 1030 60 L 1030 30 L 1010 30 L 1010 0 L 1040 0 L 1040 20 L 1070 20 L 1070 0 L 1100 0 L 1100 30 L 1080 30 L 1080 40 L 1100 40 L 1100 70 L 1070 70 L 1070 50 L 1040 50 L 1040 100 L 1070 100 L 1070 80 L 1100 80 L 1100 110 L 1080 110 L 1080 120 L 1100 120 L 1100 150 L 1070 150 L 1070 130 L 1040 130 L 1040 150 L 1010 150 L 1010 120 L 1030 120 L 1030 90 L 1000 90 L 1000 110 L 990 110 L 990 90 L 960 90 L 960 120 L 980 120 L 980 150 L 960 150 L 960 180 L 990 180 L 990 160 L 1020 160 L 1020 190 L 1000 190 L 1000 200 L 1020 200 L 1020 230 L 990 230 L 990 210 L 960 210 L 960 240 L 980 240 L 980 270 L 960 270 L 960 300 L 990 300 L 990 280 L 1000 280 L 1000 300 L 1030 300 L 1030 270 L 1010 270 L 1010 240 L 1060 240 L 1060 270 L 1040 270 L 1040 300 L 1070 300 L 1070 280 L 1080 280 L 1080 300 L 1110 300 L 1110 270 L 1090 270 L 1090 240 L 1110 240 L 1110 210 L 1080 210 L 1080 230 L 1050 230 L 1050 200 L 1070 200 L 1070 190 L 1050 190 L 1050 160 L 1080 160 L 1080 180 L 1110 180 L 1110 160 L 1120 160 L 1120 180 L 1150 180 L 1150 160 L 1180 160 L 1180 190 L 1160 190 L 1160 200 L 1180 200 L 1180 230 L 1150 230 L 1150 210 L 1120 210 L 1120 240 L 1140 240 L 1140 270 L 1120 270 L 1120 300 L 1150 300 L 1150 280 L 1160 280 L 1160 300 L 1190 300 L 1190 270 L 1170 270 L 1170 240 L 1220 240 L 1220 270 L 1200 270 L 1200 300 L 1230 300 L 1230 280 L 1240 280 L 1240 300 L 1270 300 L 1270 270 L 1250 270 L 1250 240 L 1270 240 L 1270 210 L 1240 210 L 1240 230 L 1210 230 L 1210 200 L 1230 200 L 1230 190 L 1210 190 L 1210 160 L 1240 160 L 1240 180 L 1270 180 L 1270 150 L 1250 150 L 1250 120 L 1270 120 L 1270 90 L 1240 90 L 1240 110 L 1230 110 L 1230 90 L 1200 90 L 1200 120 L 1220 120 L 1220 150 L 1190 150 L 1190 130 L 1160 130 L 1160 150 L 1130 150 L 1130 120 L 1150 120 L 1150 110 L 1130 110 L 1130 80 L 1160 80 L 1160 100 L 1190 100 L 1190 50 L 1160 50 L 1160 70 L 1130 70 L 1130 40 L 1150 40 L 1150 30 L 1130 30 L 1130 0 L 1160 0 L 1160 20 L 1190 20 L 1190 0 L 1220 0 L 1220 30 L 1200 30 L 1200 60 L 1230 60 L 1230 40 L 1240 40 L 1240 60 L 1270 60 L 1270 30 L 1250 30 L 1250 0 L 1270 0 "/>
</g>
</defs>
<g id="surface9799">
<use xlink:href="#surface9802" transform="matrix(1,0,0,1,1,1)"/>
</g>
</svg>
