<?xml version="1.0" encoding="UTF-8"?>
<svg xmlns="http://www.w3.org/2000/svg" xmlns:xlink="http://www.w3.org/1999/xlink" width="2122pt" height="2122pt" viewBox="0 0 2122 2122" version="1.1">
<defs>
<g id="surface4135" clip-path="url(#clip1)">
<rect x="0" y="0" width="16777215" height="16777215" style="fill:rgb(100%,100%,100%);fill-opacity:1;stroke:none;"/>
<path style="fill:none;stroke-width:2;stroke-linecap:butt;stroke-linejoin:miter;stroke:rgb(0%,0%,0%);stroke-opacity:1;stroke-miterlimit:10;" d="M 20 0 L 20 -20 L 40 -20 L 40 20 L 60 20 L 60 0 L 80 0 L 80 -20 L 60 -20 L 60 -40 L 100 -40 L 100 -60 L 80 -60 L 80 -80 L 100 -80 L 100 -100 L 120 -100 L 120 -60 L 140 -60 L 140 -80 L 160 -80 L 160 -60 L 180 -60 L 180 -40 L 140 -40 L 140 -20 L 160 -20 L 160 20 L 180 20 L 180 40 L 140 40 L 140 60 L 160 60 L 160 80 L 180 80 L 180 60 L 200 60 L 200 100 L 220 100 L 220 80 L 240 80 L 240 60 L 220 60 L 220 40 L 260 40 L 260 20 L 240 20 L 240 0 L 260 0 L 260 -20 L 280 -20 L 280 20 L 300 20 L 300 0 L 320 0 L 320 -20 L 300 -20 L 300 -40 L 340 -40 L 340 -60 L 320 -60 L 320 -80 L 300 -80 L 300 -60 L 280 -60 L 280 -100 L 260 -100 L 260 -80 L 240 -80 L 240 -100 L 220 -100 L 220 -120 L 260 -120 L 260 -140 L 240 -140 L 240 -160 L 260 -160 L 260 -180 L 280 -180 L 280 -140 L 300 -140 L 300 -160 L 340 -160 L 340 -180 L 360 -180 L 360 -140 L 380 -140 L 380 -160 L 400 -160 L 400 -180 L 380 -180 L 380 -200 L 420 -200 L 420 -220 L 400 -220 L 400 -240 L 380 -240 L 380 -220 L 360 -220 L 360 -260 L 340 -260 L 340 -240 L 320 -240 L 320 -260 L 300 -260 L 300 -280 L 340 -280 L 340 -300 L 320 -300 L 320 -320 L 340 -320 L 340 -340 L 360 -340 L 360 -300 L 380 -300 L 380 -320 L 400 -320 L 400 -340 L 380 -340 L 380 -360 L 420 -360 L 420 -380 L 400 -380 L 400 -400 L 420 -400 L 420 -420 L 440 -420 L 440 -380 L 460 -380 L 460 -400 L 480 -400 L 480 -380 L 500 -380 L 500 -360 L 460 -360 L 460 -340 L 480 -340 L 480 -300 L 500 -300 L 500 -280 L 460 -280 L 460 -260 L 480 -260 L 480 -240 L 500 -240 L 500 -260 L 520 -260 L 520 -220 L 540 -220 L 540 -240 L 560 -240 L 560 -260 L 540 -260 L 540 -280 L 580 -280 L 580 -300 L 560 -300 L 560 -320 L 580 -320 L 580 -340 L 600 -340 L 600 -300 L 620 -300 L 620 -320 L 640 -320 L 640 -300 L 660 -300 L 660 -280 L 620 -280 L 620 -260 L 640 -260 L 640 -240 L 660 -240 L 660 -260 L 680 -260 L 680 -220 L 700 -220 L 700 -240 L 720 -240 L 720 -220 L 740 -220 L 740 -200 L 700 -200 L 700 -180 L 720 -180 L 720 -160 L 700 -160 L 700 -140 L 680 -140 L 680 -180 L 660 -180 L 660 -160 L 620 -160 L 620 -140 L 600 -140 L 600 -180 L 580 -180 L 580 -160 L 560 -160 L 560 -140 L 580 -140 L 580 -120 L 540 -120 L 540 -100 L 560 -100 L 560 -80 L 580 -80 L 580 -100 L 600 -100 L 600 -60 L 620 -60 L 620 -80 L 640 -80 L 640 -60 L 660 -60 L 660 -40 L 620 -40 L 620 -20 L 640 -20 L 640 20 L 660 20 L 660 40 L 620 40 L 620 60 L 640 60 L 640 80 L 660 80 L 660 60 L 680 60 L 680 100 L 700 100 L 700 80 L 720 80 L 720 100 L 740 100 L 740 120 L 700 120 L 700 140 L 720 140 L 720 160 L 700 160 L 700 180 L 680 180 L 680 140 L 660 140 L 660 160 L 620 160 L 620 180 L 600 180 L 600 140 L 580 140 L 580 160 L 560 160 L 560 180 L 580 180 L 580 200 L 540 200 L 540 220 L 560 220 L 560 240 L 580 240 L 580 220 L 600 220 L 600 260 L 620 260 L 620 240 L 640 240 L 640 260 L 660 260 L 660 280 L 620 280 L 620 300 L 640 300 L 640 320 L 660 320 L 660 300 L 680 300 L 680 340 L 700 340 L 700 320 L 720 320 L 720 300 L 700 300 L 700 280 L 740 280 L 740 260 L 720 260 L 720 240 L 740 240 L 740 220 L 760 220 L 760 260 L 780 260 L 780 240 L 800 240 L 800 260 L 820 260 L 820 280 L 780 280 L 780 300 L 800 300 L 800 340 L 820 340 L 820 360 L 780 360 L 780 380 L 800 380 L 800 400 L 820 400 L 820 380 L 840 380 L 840 420 L 860 420 L 860 400 L 880 400 L 880 380 L 860 380 L 860 360 L 900 360 L 900 340 L 880 340 L 880 320 L 900 320 L 900 300 L 920 300 L 920 340 L 940 340 L 940 320 L 960 320 L 960 300 L 940 300 L 940 280 L 980 280 L 980 260 L 960 260 L 960 240 L 940 240 L 940 260 L 920 260 L 920 220 L 900 220 L 900 240 L 880 240 L 880 220 L 860 220 L 860 200 L 900 200 L 900 180 L 880 180 L 880 160 L 900 160 L 900 140 L 920 140 L 920 180 L 940 180 L 940 160 L 980 160 L 980 140 L 1000 140 L 1000 180 L 1020 180 L 1020 160 L 1040 160 L 1040 140 L 1020 140 L 1020 120 L 1060 120 L 1060 100 L 1040 100 L 1040 80 L 1020 80 L 1020 100 L 1000 100 L 1000 60 L 980 60 L 980 80 L 960 80 L 960 60 L 940 60 L 940 40 L 980 40 L 980 20 L 960 20 L 960 0 L 980 0 L 980 -20 L 1000 -20 L 1000 20 L 1020 20 L 1020 0 L 1040 0 L 1040 -20 L 1020 -20 L 1020 -40 L 1060 -40 L 1060 -60 L 1040 -60 L 1040 -80 L 1060 -80 L 1060 -100 L 1080 -100 L 1080 -60 L 1100 -60 L 1100 -80 L 1120 -80 L 1120 -60 L 1140 -60 L 1140 -40 L 1100 -40 L 1100 -20 L 1120 -20 L 1120 20 L 1140 20 L 1140 40 L 1100 40 L 1100 60 L 1120 60 L 1120 80 L 1140 80 L 1140 60 L 1160 60 L 1160 100 L 1180 100 L 1180 80 L 1200 80 L 1200 60 L 1180 60 L 1180 40 L 1220 40 L 1220 20 L 1200 20 L 1200 0 L 1220 0 L 1220 -20 L 1240 -20 L 1240 20 L 1260 20 L 1260 0 L 1280 0 L 1280 -20 L 1260 -20 L 1260 -40 L 1300 -40 L 1300 -60 L 1280 -60 L 1280 -80 L 1260 -80 L 1260 -60 L 1240 -60 L 1240 -100 L 1220 -100 L 1220 -80 L 1200 -80 L 1200 -100 L 1180 -100 L 1180 -120 L 1220 -120 L 1220 -140 L 1200 -140 L 1200 -160 L 1220 -160 L 1220 -180 L 1240 -180 L 1240 -140 L 1260 -140 L 1260 -160 L 1300 -160 L 1300 -180 L 1320 -180 L 1320 -140 L 1340 -140 L 1340 -160 L 1360 -160 L 1360 -180 L 1340 -180 L 1340 -200 L 1380 -200 L 1380 -220 L 1360 -220 L 1360 -240 L 1340 -240 L 1340 -220 L 1320 -220 L 1320 -260 L 1300 -260 L 1300 -240 L 1280 -240 L 1280 -260 L 1260 -260 L 1260 -280 L 1300 -280 L 1300 -300 L 1280 -300 L 1280 -320 L 1260 -320 L 1260 -300 L 1240 -300 L 1240 -340 L 1220 -340 L 1220 -320 L 1200 -320 L 1200 -300 L 1220 -300 L 1220 -280 L 1180 -280 L 1180 -260 L 1200 -260 L 1200 -240 L 1180 -240 L 1180 -220 L 1160 -220 L 1160 -260 L 1140 -260 L 1140 -240 L 1120 -240 L 1120 -260 L 1100 -260 L 1100 -280 L 1140 -280 L 1140 -300 L 1120 -300 L 1120 -340 L 1100 -340 L 1100 -360 L 1140 -360 L 1140 -380 L 1120 -380 L 1120 -400 L 1100 -400 L 1100 -380 L 1080 -380 L 1080 -420 L 1060 -420 L 1060 -400 L 1040 -400 L 1040 -380 L 1060 -380 L 1060 -360 L 1020 -360 L 1020 -340 L 1040 -340 L 1040 -320 L 1020 -320 L 1020 -300 L 1000 -300 L 1000 -340 L 980 -340 L 980 -320 L 960 -320 L 960 -340 L 940 -340 L 940 -360 L 980 -360 L 980 -380 L 960 -380 L 960 -400 L 940 -400 L 940 -380 L 920 -380 L 920 -420 L 900 -420 L 900 -400 L 880 -400 L 880 -420 L 860 -420 L 860 -440 L 900 -440 L 900 -460 L 880 -460 L 880 -480 L 900 -480 L 900 -500 L 920 -500 L 920 -460 L 940 -460 L 940 -480 L 980 -480 L 980 -500 L 1000 -500 L 1000 -460 L 1020 -460 L 1020 -480 L 1040 -480 L 1040 -500 L 1020 -500 L 1020 -520 L 1060 -520 L 1060 -540 L 1040 -540 L 1040 -560 L 1020 -560 L 1020 -540 L 1000 -540 L 1000 -580 L 980 -580 L 980 -560 L 960 -560 L 960 -580 L 940 -580 L 940 -600 L 980 -600 L 980 -620 L 960 -620 L 960 -640 L 980 -640 L 980 -660 L 1000 -660 L 1000 -620 L 1020 -620 L 1020 -640 L 1040 -640 L 1040 -660 L 1020 -660 L 1020 -680 L 1060 -680 L 1060 -700 L 1040 -700 L 1040 -720 L 1060 -720 L 1060 -740 L 1080 -740 L 1080 -700 L 1100 -700 L 1100 -720 L 1120 -720 L 1120 -700 L 1140 -700 L 1140 -680 L 1100 -680 L 1100 -660 L 1120 -660 L 1120 -620 L 1140 -620 L 1140 -600 L 1100 -600 L 1100 -580 L 1120 -580 L 1120 -560 L 1140 -560 L 1140 -580 L 1160 -580 L 1160 -540 L 1180 -540 L 1180 -560 L 1200 -560 L 1200 -580 L 1180 -580 L 1180 -600 L 1220 -600 L 1220 -620 L 1200 -620 L 1200 -640 L 1220 -640 L 1220 -660 L 1240 -660 L 1240 -620 L 1260 -620 L 1260 -640 L 1300 -640 L 1300 -660 L 1320 -660 L 1320 -620 L 1340 -620 L 1340 -640 L 1360 -640 L 1360 -660 L 1340 -660 L 1340 -680 L 1380 -680 L 1380 -700 L 1360 -700 L 1360 -720 L 1380 -720 L 1380 -740 L 1400 -740 L 1400 -700 L 1420 -700 L 1420 -720 L 1440 -720 L 1440 -700 L 1460 -700 L 1460 -680 L 1420 -680 L 1420 -660 L 1440 -660 L 1440 -620 L 1460 -620 L 1460 -600 L 1420 -600 L 1420 -580 L 1440 -580 L 1440 -560 L 1460 -560 L 1460 -580 L 1480 -580 L 1480 -540 L 1500 -540 L 1500 -560 L 1520 -560 L 1520 -580 L 1500 -580 L 1500 -600 L 1540 -600 L 1540 -620 L 1520 -620 L 1520 -640 L 1540 -640 L 1540 -660 L 1560 -660 L 1560 -620 L 1580 -620 L 1580 -640 L 1600 -640 L 1600 -660 L 1580 -660 L 1580 -680 L 1620 -680 L 1620 -700 L 1600 -700 L 1600 -720 L 1580 -720 L 1580 -700 L 1560 -700 L 1560 -740 L 1540 -740 L 1540 -720 L 1520 -720 L 1520 -740 L 1500 -740 L 1500 -760 L 1540 -760 L 1540 -780 L 1520 -780 L 1520 -800 L 1540 -800 L 1540 -820 L 1560 -820 L 1560 -780 L 1580 -780 L 1580 -800 L 1620 -800 L 1620 -820 L 1640 -820 L 1640 -780 L 1660 -780 L 1660 -800 L 1680 -800 L 1680 -820 L 1660 -820 L 1660 -840 L 1700 -840 L 1700 -860 L 1680 -860 L 1680 -880 L 1660 -880 L 1660 -860 L 1640 -860 L 1640 -900 L 1620 -900 L 1620 -880 L 1600 -880 L 1600 -900 L 1580 -900 L 1580 -920 L 1620 -920 L 1620 -940 L 1600 -940 L 1600 -960 L 1580 -960 L 1580 -940 L 1560 -940 L 1560 -980 L 1540 -980 L 1540 -960 L 1520 -960 L 1520 -940 L 1540 -940 L 1540 -920 L 1500 -920 L 1500 -900 L 1520 -900 L 1520 -880 L 1500 -880 L 1500 -860 L 1480 -860 L 1480 -900 L 1460 -900 L 1460 -880 L 1440 -880 L 1440 -900 L 1420 -900 L 1420 -920 L 1460 -920 L 1460 -940 L 1440 -940 L 1440 -980 L 1420 -980 L 1420 -1000 L 1460 -1000 L 1460 -1020 L 1440 -1020 L 1440 -1040 L 1420 -1040 L 1420 -1020 L 1400 -1020 L 1400 -1060 L 1380 -1060 L 1380 -1040 L 1360 -1040 L 1360 -1020 L 1380 -1020 L 1380 -1000 L 1340 -1000 L 1340 -980 L 1360 -980 L 1360 -960 L 1340 -960 L 1340 -940 L 1320 -940 L 1320 -980 L 1300 -980 L 1300 -960 L 1280 -960 L 1280 -980 L 1260 -980 L 1260 -1000 L 1300 -1000 L 1300 -1020 L 1280 -1020 L 1280 -1040 L 1260 -1040 L 1260 -1020 L 1240 -1020 L 1240 -1060 L 1220 -1060 L 1220 -1040 L 1200 -1040 L 1200 -1060 L 1180 -1060 L 1180 -1080 L 1220 -1080 L 1220 -1100 L 1200 -1100 L 1200 -1120 L 1220 -1120 L 1220 -1140 L 1240 -1140 L 1240 -1100 L 1260 -1100 L 1260 -1120 L 1300 -1120 L 1300 -1140 L 1320 -1140 L 1320 -1100 L 1340 -1100 L 1340 -1120 L 1360 -1120 L 1360 -1140 L 1340 -1140 L 1340 -1160 L 1380 -1160 L 1380 -1180 L 1360 -1180 L 1360 -1200 L 1340 -1200 L 1340 -1180 L 1320 -1180 L 1320 -1220 L 1300 -1220 L 1300 -1200 L 1280 -1200 L 1280 -1220 L 1260 -1220 L 1260 -1240 L 1300 -1240 L 1300 -1260 L 1280 -1260 L 1280 -1280 L 1260 -1280 L 1260 -1260 L 1240 -1260 L 1240 -1300 L 1220 -1300 L 1220 -1280 L 1200 -1280 L 1200 -1260 L 1220 -1260 L 1220 -1240 L 1180 -1240 L 1180 -1220 L 1200 -1220 L 1200 -1200 L 1180 -1200 L 1180 -1180 L 1160 -1180 L 1160 -1220 L 1140 -1220 L 1140 -1200 L 1120 -1200 L 1120 -1220 L 1100 -1220 L 1100 -1240 L 1140 -1240 L 1140 -1260 L 1120 -1260 L 1120 -1300 L 1100 -1300 L 1100 -1320 L 1140 -1320 L 1140 -1340 L 1120 -1340 L 1120 -1360 L 1100 -1360 L 1100 -1340 L 1080 -1340 L 1080 -1380 L 1060 -1380 L 1060 -1360 L 1040 -1360 L 1040 -1340 L 1060 -1340 L 1060 -1320 L 1020 -1320 L 1020 -1300 L 1040 -1300 L 1040 -1280 L 1020 -1280 L 1020 -1260 L 1000 -1260 L 1000 -1300 L 980 -1300 L 980 -1280 L 960 -1280 L 960 -1260 L 980 -1260 L 980 -1240 L 940 -1240 L 940 -1220 L 960 -1220 L 960 -1200 L 980 -1200 L 980 -1220 L 1000 -1220 L 1000 -1180 L 1020 -1180 L 1020 -1200 L 1040 -1200 L 1040 -1180 L 1060 -1180 L 1060 -1160 L 1020 -1160 L 1020 -1140 L 1040 -1140 L 1040 -1120 L 1020 -1120 L 1020 -1100 L 1000 -1100 L 1000 -1140 L 980 -1140 L 980 -1120 L 940 -1120 L 940 -1100 L 920 -1100 L 920 -1140 L 900 -1140 L 900 -1120 L 880 -1120 L 880 -1100 L 900 -1100 L 900 -1080 L 860 -1080 L 860 -1060 L 880 -1060 L 880 -1040 L 900 -1040 L 900 -1060 L 920 -1060 L 920 -1020 L 940 -1020 L 940 -1040 L 960 -1040 L 960 -1020 L 980 -1020 L 980 -1000 L 940 -1000 L 940 -980 L 960 -980 L 960 -960 L 940 -960 L 940 -940 L 920 -940 L 920 -980 L 900 -980 L 900 -960 L 880 -960 L 880 -940 L 900 -940 L 900 -920 L 860 -920 L 860 -900 L 880 -900 L 880 -880 L 860 -880 L 860 -860 L 840 -860 L 840 -900 L 820 -900 L 820 -880 L 800 -880 L 800 -900 L 780 -900 L 780 -920 L 820 -920 L 820 -940 L 800 -940 L 800 -980 L 780 -980 L 780 -1000 L 820 -1000 L 820 -1020 L 800 -1020 L 800 -1040 L 780 -1040 L 780 -1020 L 760 -1020 L 760 -1060 L 740 -1060 L 740 -1040 L 720 -1040 L 720 -1020 L 740 -1020 L 740 -1000 L 700 -1000 L 700 -980 L 720 -980 L 720 -960 L 700 -960 L 700 -940 L 680 -940 L 680 -980 L 660 -980 L 660 -960 L 640 -960 L 640 -980 L 620 -980 L 620 -1000 L 660 -1000 L 660 -1020 L 640 -1020 L 640 -1040 L 620 -1040 L 620 -1020 L 600 -1020 L 600 -1060 L 580 -1060 L 580 -1040 L 560 -1040 L 560 -1060 L 540 -1060 L 540 -1080 L 580 -1080 L 580 -1100 L 560 -1100 L 560 -1120 L 580 -1120 L 580 -1140 L 600 -1140 L 600 -1100 L 620 -1100 L 620 -1120 L 660 -1120 L 660 -1140 L 680 -1140 L 680 -1100 L 700 -1100 L 700 -1120 L 720 -1120 L 720 -1140 L 700 -1140 L 700 -1160 L 740 -1160 L 740 -1180 L 720 -1180 L 720 -1200 L 700 -1200 L 700 -1180 L 680 -1180 L 680 -1220 L 660 -1220 L 660 -1200 L 640 -1200 L 640 -1220 L 620 -1220 L 620 -1240 L 660 -1240 L 660 -1260 L 640 -1260 L 640 -1300 L 620 -1300 L 620 -1320 L 660 -1320 L 660 -1340 L 640 -1340 L 640 -1360 L 620 -1360 L 620 -1340 L 600 -1340 L 600 -1380 L 580 -1380 L 580 -1360 L 560 -1360 L 560 -1380 L 540 -1380 L 540 -1400 L 580 -1400 L 580 -1420 L 560 -1420 L 560 -1440 L 580 -1440 L 580 -1460 L 600 -1460 L 600 -1420 L 620 -1420 L 620 -1440 L 660 -1440 L 660 -1460 L 680 -1460 L 680 -1420 L 700 -1420 L 700 -1440 L 720 -1440 L 720 -1460 L 700 -1460 L 700 -1480 L 740 -1480 L 740 -1500 L 720 -1500 L 720 -1520 L 700 -1520 L 700 -1500 L 680 -1500 L 680 -1540 L 660 -1540 L 660 -1520 L 640 -1520 L 640 -1540 L 620 -1540 L 620 -1560 L 660 -1560 L 660 -1580 L 640 -1580 L 640 -1600 L 620 -1600 L 620 -1580 L 600 -1580 L 600 -1620 L 580 -1620 L 580 -1600 L 560 -1600 L 560 -1580 L 580 -1580 L 580 -1560 L 540 -1560 L 540 -1540 L 560 -1540 L 560 -1520 L 540 -1520 L 540 -1500 L 520 -1500 L 520 -1540 L 500 -1540 L 500 -1520 L 480 -1520 L 480 -1540 L 460 -1540 L 460 -1560 L 500 -1560 L 500 -1580 L 480 -1580 L 480 -1620 L 460 -1620 L 460 -1640 L 500 -1640 L 500 -1660 L 480 -1660 L 480 -1680 L 460 -1680 L 460 -1660 L 440 -1660 L 440 -1700 L 420 -1700 L 420 -1680 L 400 -1680 L 400 -1660 L 420 -1660 L 420 -1640 L 380 -1640 L 380 -1620 L 400 -1620 L 400 -1600 L 380 -1600 L 380 -1580 L 360 -1580 L 360 -1620 L 340 -1620 L 340 -1600 L 320 -1600 L 320 -1580 L 340 -1580 L 340 -1560 L 300 -1560 L 300 -1540 L 320 -1540 L 320 -1520 L 340 -1520 L 340 -1540 L 360 -1540 L 360 -1500 L 380 -1500 L 380 -1520 L 400 -1520 L 400 -1500 L 420 -1500 L 420 -1480 L 380 -1480 L 380 -1460 L 400 -1460 L 400 -1440 L 380 -1440 L 380 -1420 L 360 -1420 L 360 -1460 L 340 -1460 L 340 -1440 L 300 -1440 L 300 -1420 L 280 -1420 L 280 -1460 L 260 -1460 L 260 -1440 L 240 -1440 L 240 -1420 L 260 -1420 L 260 -1400 L 220 -1400 L 220 -1380 L 240 -1380 L 240 -1360 L 260 -1360 L 260 -1380 L 280 -1380 L 280 -1340 L 300 -1340 L 300 -1360 L 320 -1360 L 320 -1340 L 340 -1340 L 340 -1320 L 300 -1320 L 300 -1300 L 320 -1300 L 320 -1280 L 300 -1280 L 300 -1260 L 280 -1260 L 280 -1300 L 260 -1300 L 260 -1280 L 240 -1280 L 240 -1260 L 260 -1260 L 260 -1240 L 220 -1240 L 220 -1220 L 240 -1220 L 240 -1200 L 220 -1200 L 220 -1180 L 200 -1180 L 200 -1220 L 180 -1220 L 180 -1200 L 160 -1200 L 160 -1220 L 140 -1220 L 140 -1240 L 180 -1240 L 180 -1260 L 160 -1260 L 160 -1300 L 140 -1300 L 140 -1320 L 180 -1320 L 180 -1340 L 160 -1340 L 160 -1360 L 140 -1360 L 140 -1340 L 120 -1340 L 120 -1380 L 100 -1380 L 100 -1360 L 80 -1360 L 80 -1340 L 100 -1340 L 100 -1320 L 60 -1320 L 60 -1300 L 80 -1300 L 80 -1280 L 60 -1280 L 60 -1260 L 40 -1260 L 40 -1300 L 20 -1300 L 20 -1280 L 0 -1280 L 0 -1260 L 20 -1260 L 20 -1240 L -20 -1240 L -20 -1220 L 0 -1220 L 0 -1200 L 20 -1200 L 20 -1220 L 40 -1220 L 40 -1180 L 60 -1180 L 60 -1200 L 80 -1200 L 80 -1180 L 100 -1180 L 100 -1160 L 60 -1160 L 60 -1140 L 80 -1140 L 80 -1120 L 60 -1120 L 60 -1100 L 40 -1100 L 40 -1140 L 20 -1140 L 20 -1120 L -20 -1120 L -20 -1100 L -40 -1100 L -40 -1140 L -60 -1140 L -60 -1120 L -80 -1120 L -80 -1100 L -60 -1100 L -60 -1080 L -100 -1080 L -100 -1060 L -80 -1060 L -80 -1040 L -60 -1040 L -60 -1060 L -40 -1060 L -40 -1020 L -20 -1020 L -20 -1040 L 0 -1040 L 0 -1020 L 20 -1020 L 20 -1000 L -20 -1000 L -20 -980 L 0 -980 L 0 -960 L 20 -960 L 20 -980 L 40 -980 L 40 -940 L 60 -940 L 60 -960 L 80 -960 L 80 -980 L 60 -980 L 60 -1000 L 100 -1000 L 100 -1020 L 80 -1020 L 80 -1040 L 100 -1040 L 100 -1060 L 120 -1060 L 120 -1020 L 140 -1020 L 140 -1040 L 160 -1040 L 160 -1020 L 180 -1020 L 180 -1000 L 140 -1000 L 140 -980 L 160 -980 L 160 -940 L 180 -940 L 180 -920 L 140 -920 L 140 -900 L 160 -900 L 160 -880 L 180 -880 L 180 -900 L 200 -900 L 200 -860 L 220 -860 L 220 -880 L 240 -880 L 240 -900 L 220 -900 L 220 -920 L 260 -920 L 260 -940 L 240 -940 L 240 -960 L 260 -960 L 260 -980 L 280 -980 L 280 -940 L 300 -940 L 300 -960 L 320 -960 L 320 -940 L 340 -940 L 340 -920 L 300 -920 L 300 -900 L 320 -900 L 320 -880 L 340 -880 L 340 -900 L 360 -900 L 360 -860 L 380 -860 L 380 -880 L 400 -880 L 400 -860 L 420 -860 L 420 -840 L 380 -840 L 380 -820 L 400 -820 L 400 -800 L 380 -800 L 380 -780 L 360 -780 L 360 -820 L 340 -820 L 340 -800 L 300 -800 L 300 -780 L 280 -780 L 280 -820 L 260 -820 L 260 -800 L 240 -800 L 240 -780 L 260 -780 L 260 -760 L 220 -760 L 220 -740 L 240 -740 L 240 -720 L 260 -720 L 260 -740 L 280 -740 L 280 -700 L 300 -700 L 300 -720 L 320 -720 L 320 -700 L 340 -700 L 340 -680 L 300 -680 L 300 -660 L 320 -660 L 320 -640 L 300 -640 L 300 -620 L 280 -620 L 280 -660 L 260 -660 L 260 -640 L 240 -640 L 240 -620 L 260 -620 L 260 -600 L 220 -600 L 220 -580 L 240 -580 L 240 -560 L 220 -560 L 220 -540 L 200 -540 L 200 -580 L 180 -580 L 180 -560 L 160 -560 L 160 -580 L 140 -580 L 140 -600 L 180 -600 L 180 -620 L 160 -620 L 160 -660 L 140 -660 L 140 -680 L 180 -680 L 180 -700 L 160 -700 L 160 -720 L 140 -720 L 140 -700 L 120 -700 L 120 -740 L 100 -740 L 100 -720 L 80 -720 L 80 -700 L 100 -700 L 100 -680 L 60 -680 L 60 -660 L 80 -660 L 80 -640 L 60 -640 L 60 -620 L 40 -620 L 40 -660 L 20 -660 L 20 -640 L -20 -640 L -20 -620 L -40 -620 L -40 -660 L -60 -660 L -60 -640 L -80 -640 L -80 -620 L -60 -620 L -60 -600 L -100 -600 L -100 -580 L -80 -580 L -80 -560 L -100 -560 L -100 -540 L -120 -540 L -120 -580 L -140 -580 L -140 -560 L -160 -560 L -160 -580 L -180 -580 L -180 -600 L -140 -600 L -140 -620 L -160 -620 L -160 -660 L -180 -660 L -180 -680 L -140 -680 L -140 -700 L -160 -700 L -160 -720 L -180 -720 L -180 -700 L -200 -700 L -200 -740 L -220 -740 L -220 -720 L -240 -720 L -240 -700 L -220 -700 L -220 -680 L -260 -680 L -260 -660 L -240 -660 L -240 -640 L -260 -640 L -260 -620 L -280 -620 L -280 -660 L -300 -660 L -300 -640 L -320 -640 L -320 -620 L -300 -620 L -300 -600 L -340 -600 L -340 -580 L -320 -580 L -320 -560 L -300 -560 L -300 -580 L -280 -580 L -280 -540 L -260 -540 L -260 -560 L -240 -560 L -240 -540 L -220 -540 L -220 -520 L -260 -520 L -260 -500 L -240 -500 L -240 -480 L -260 -480 L -260 -460 L -280 -460 L -280 -500 L -300 -500 L -300 -480 L -340 -480 L -340 -460 L -360 -460 L -360 -500 L -380 -500 L -380 -480 L -400 -480 L -400 -460 L -380 -460 L -380 -440 L -420 -440 L -420 -420 L -400 -420 L -400 -400 L -380 -400 L -380 -420 L -360 -420 L -360 -380 L -340 -380 L -340 -400 L -320 -400 L -320 -380 L -300 -380 L -300 -360 L -340 -360 L -340 -340 L -320 -340 L -320 -320 L -300 -320 L -300 -340 L -280 -340 L -280 -300 L -260 -300 L -260 -320 L -240 -320 L -240 -340 L -260 -340 L -260 -360 L -220 -360 L -220 -380 L -240 -380 L -240 -400 L -220 -400 L -220 -420 L -200 -420 L -200 -380 L -180 -380 L -180 -400 L -160 -400 L -160 -380 L -140 -380 L -140 -360 L -180 -360 L -180 -340 L -160 -340 L -160 -300 L -140 -300 L -140 -280 L -180 -280 L -180 -260 L -160 -260 L -160 -240 L -140 -240 L -140 -260 L -120 -260 L -120 -220 L -100 -220 L -100 -240 L -80 -240 L -80 -260 L -100 -260 L -100 -280 L -60 -280 L -60 -300 L -80 -300 L -80 -320 L -60 -320 L -60 -340 L -40 -340 L -40 -300 L -20 -300 L -20 -320 L 0 -320 L 0 -300 L 20 -300 L 20 -280 L -20 -280 L -20 -260 L 0 -260 L 0 -240 L 20 -240 L 20 -260 L 40 -260 L 40 -220 L 60 -220 L 60 -240 L 80 -240 L 80 -220 L 100 -220 L 100 -200 L 60 -200 L 60 -180 L 80 -180 L 80 -160 L 60 -160 L 60 -140 L 40 -140 L 40 -180 L 20 -180 L 20 -160 L -20 -160 L -20 -140 L -40 -140 L -40 -180 L -60 -180 L -60 -160 L -80 -160 L -80 -140 L -60 -140 L -60 -120 L -100 -120 L -100 -100 L -80 -100 L -80 -80 L -60 -80 L -60 -100 L -40 -100 L -40 -60 L -20 -60 L -20 -80 L 0 -80 L 0 -60 L 20 -60 L 20 -40 L -20 -40 L -20 -20 L 0 -20 L 0 0 Z M 20 0 "/>
</g>
</defs>
<g id="surface4132">
<use xlink:href="#surface4135" transform="matrix(1,0,0,1,421,1701)"/>
</g>
</svg>
