<?xml version="1.0" encoding="UTF-8"?>
<svg xmlns="http://www.w3.org/2000/svg" xmlns:xlink="http://www.w3.org/1999/xlink" width="408.46875pt" height="471.664062pt" viewBox="0 0 408.46875 471.664062" version="1.1">
<defs>
<g id="surface2718" clip-path="url(#clip1)">
<rect x="0" y="0" width="16777215" height="16777215" style="fill:rgb(100%,100%,100%);fill-opacity:1;stroke:none;"/>
<path style="fill:none;stroke-width:2;stroke-linecap:butt;stroke-linejoin:miter;stroke:rgb(0%,0%,0%);stroke-opacity:1;stroke-miterlimit:10;" d="M 5 0 L 7.5 4.332031 L 10 0 L 15 0 L 17.5 4.332031 L 15 8.660156 L 20 8.660156 L 22.5 12.992188 L 25 8.660156 L 30 8.660156 L 27.5 4.332031 L 30 0 L 35 0 L 37.5 4.332031 L 40 0 L 45 0 L 47.5 4.332031 L 45 8.660156 L 50 8.660156 L 52.5 12.992188 L 50 17.320312 L 45 17.320312 L 47.5 21.652344 L 45 25.980469 L 50 25.980469 L 52.5 30.3125 L 55 25.980469 L 60 25.980469 L 62.5 30.3125 L 60 34.640625 L 65 34.640625 L 67.5 38.972656 L 70 34.640625 L 75 34.640625 L 72.5 30.3125 L 75 25.980469 L 80 25.980469 L 82.5 30.3125 L 85 25.980469 L 90 25.980469 L 87.5 21.652344 L 90 17.320312 L 85 17.320312 L 82.5 12.992188 L 85 8.660156 L 90 8.660156 L 87.5 4.332031 L 90 0 L 95 0 L 97.5 4.332031 L 100 0 L 105 0 L 107.5 4.332031 L 105 8.660156 L 110 8.660156 L 112.5 12.992188 L 115 8.660156 L 120 8.660156 L 117.5 4.332031 L 120 0 L 125 0 L 127.5 4.332031 L 130 0 L 135 0 L 137.5 4.332031 L 135 8.660156 L 140 8.660156 L 142.5 12.992188 L 140 17.320312 L 135 17.320312 L 137.5 21.652344 L 135 25.980469 L 140 25.980469 L 142.5 30.3125 L 145 25.980469 L 150 25.980469 L 152.5 30.3125 L 150 34.640625 L 155 34.640625 L 157.5 38.972656 L 155 43.300781 L 150 43.300781 L 152.5 47.632812 L 150 51.960938 L 145 51.960938 L 142.5 47.632812 L 140 51.960938 L 135 51.960938 L 137.5 56.292969 L 135 60.621094 L 140 60.621094 L 142.5 64.953125 L 140 69.28125 L 135 69.28125 L 137.5 73.613281 L 135 77.941406 L 140 77.941406 L 142.5 82.273438 L 145 77.941406 L 150 77.941406 L 152.5 82.273438 L 150 86.601562 L 155 86.601562 L 157.5 90.933594 L 160 86.601562 L 165 86.601562 L 162.5 82.273438 L 165 77.941406 L 170 77.941406 L 172.5 82.273438 L 175 77.941406 L 180 77.941406 L 182.5 82.273438 L 180 86.601562 L 185 86.601562 L 187.5 90.933594 L 185 95.261719 L 180 95.261719 L 182.5 99.59375 L 180 103.921875 L 185 103.921875 L 187.5 108.253906 L 190 103.921875 L 195 103.921875 L 197.5 108.253906 L 195 112.582031 L 200 112.582031 L 202.5 116.914062 L 205 112.582031 L 210 112.582031 L 207.5 108.253906 L 210 103.921875 L 215 103.921875 L 217.5 108.253906 L 220 103.921875 L 225 103.921875 L 222.5 99.59375 L 225 95.261719 L 220 95.261719 L 217.5 90.933594 L 220 86.601562 L 225 86.601562 L 222.5 82.273438 L 225 77.941406 L 230 77.941406 L 232.5 82.273438 L 235 77.941406 L 240 77.941406 L 242.5 82.273438 L 240 86.601562 L 245 86.601562 L 247.5 90.933594 L 250 86.601562 L 255 86.601562 L 252.5 82.273438 L 255 77.941406 L 260 77.941406 L 262.5 82.273438 L 265 77.941406 L 270 77.941406 L 267.5 73.613281 L 270 69.28125 L 265 69.28125 L 262.5 64.953125 L 265 60.621094 L 270 60.621094 L 267.5 56.292969 L 270 51.960938 L 265 51.960938 L 262.5 47.632812 L 260 51.960938 L 255 51.960938 L 252.5 47.632812 L 255 43.300781 L 250 43.300781 L 247.5 38.972656 L 250 34.640625 L 255 34.640625 L 252.5 30.3125 L 255 25.980469 L 260 25.980469 L 262.5 30.3125 L 265 25.980469 L 270 25.980469 L 267.5 21.652344 L 270 17.320312 L 265 17.320312 L 262.5 12.992188 L 265 8.660156 L 270 8.660156 L 267.5 4.332031 L 270 0 L 275 0 L 277.5 4.332031 L 280 0 L 285 0 L 287.5 4.332031 L 285 8.660156 L 290 8.660156 L 292.5 12.992188 L 295 8.660156 L 300 8.660156 L 297.5 4.332031 L 300 0 L 305 0 L 307.5 4.332031 L 310 0 L 315 0 L 317.5 4.332031 L 315 8.660156 L 320 8.660156 L 322.5 12.992188 L 320 17.320312 L 315 17.320312 L 317.5 21.652344 L 315 25.980469 L 320 25.980469 L 322.5 30.3125 L 325 25.980469 L 330 25.980469 L 332.5 30.3125 L 330 34.640625 L 335 34.640625 L 337.5 38.972656 L 340 34.640625 L 345 34.640625 L 342.5 30.3125 L 345 25.980469 L 350 25.980469 L 352.5 30.3125 L 355 25.980469 L 360 25.980469 L 357.5 21.652344 L 360 17.320312 L 355 17.320312 L 352.5 12.992188 L 355 8.660156 L 360 8.660156 L 357.5 4.332031 L 360 0 L 365 0 L 367.5 4.332031 L 370 0 L 375 0 L 377.5 4.332031 L 375 8.660156 L 380 8.660156 L 382.5 12.992188 L 385 8.660156 L 390 8.660156 L 387.5 4.332031 L 390 0 L 395 0 L 397.5 4.332031 L 400 0 L 405 0 L 402.5 -4.332031 L 405 -8.660156 L 400 -8.660156 L 397.5 -12.992188 L 400 -17.320312 L 405 -17.320312 L 402.5 -21.652344 L 405 -25.980469 L 400 -25.980469 L 397.5 -30.3125 L 395 -25.980469 L 390 -25.980469 L 387.5 -30.3125 L 390 -34.640625 L 385 -34.640625 L 382.5 -38.972656 L 385 -43.300781 L 390 -43.300781 L 387.5 -47.632812 L 390 -51.960938 L 395 -51.960938 L 397.5 -47.632812 L 400 -51.960938 L 405 -51.960938 L 402.5 -56.292969 L 405 -60.621094 L 400 -60.621094 L 397.5 -64.953125 L 400 -69.28125 L 405 -69.28125 L 402.5 -73.613281 L 405 -77.941406 L 400 -77.941406 L 397.5 -82.273438 L 395 -77.941406 L 390 -77.941406 L 387.5 -82.273438 L 390 -86.601562 L 385 -86.601562 L 382.5 -90.933594 L 380 -86.601562 L 375 -86.601562 L 377.5 -82.273438 L 375 -77.941406 L 370 -77.941406 L 367.5 -82.273438 L 365 -77.941406 L 360 -77.941406 L 357.5 -82.273438 L 360 -86.601562 L 355 -86.601562 L 352.5 -90.933594 L 355 -95.261719 L 360 -95.261719 L 357.5 -99.59375 L 360 -103.921875 L 355 -103.921875 L 352.5 -108.253906 L 350 -103.921875 L 345 -103.921875 L 342.5 -108.253906 L 345 -112.582031 L 340 -112.582031 L 337.5 -116.914062 L 340 -121.242188 L 345 -121.242188 L 342.5 -125.574219 L 345 -129.902344 L 350 -129.902344 L 352.5 -125.574219 L 355 -129.902344 L 360 -129.902344 L 357.5 -134.234375 L 360 -138.5625 L 355 -138.5625 L 352.5 -142.894531 L 355 -147.222656 L 360 -147.222656 L 357.5 -151.554688 L 360 -155.882812 L 365 -155.882812 L 367.5 -151.554688 L 370 -155.882812 L 375 -155.882812 L 377.5 -151.554688 L 375 -147.222656 L 380 -147.222656 L 382.5 -142.894531 L 385 -147.222656 L 390 -147.222656 L 387.5 -151.554688 L 390 -155.882812 L 395 -155.882812 L 397.5 -151.554688 L 400 -155.882812 L 405 -155.882812 L 402.5 -160.214844 L 405 -164.542969 L 400 -164.542969 L 397.5 -168.875 L 400 -173.207031 L 405 -173.207031 L 402.5 -177.535156 L 405 -181.867188 L 400 -181.867188 L 397.5 -186.195312 L 395 -181.867188 L 390 -181.867188 L 387.5 -186.195312 L 390 -190.527344 L 385 -190.527344 L 382.5 -194.855469 L 385 -199.1875 L 390 -199.1875 L 387.5 -203.515625 L 390 -207.847656 L 395 -207.847656 L 397.5 -203.515625 L 400 -207.847656 L 405 -207.847656 L 402.5 -212.175781 L 405 -216.507812 L 400 -216.507812 L 397.5 -220.835938 L 400 -225.167969 L 405 -225.167969 L 402.5 -229.496094 L 405 -233.828125 L 400 -233.828125 L 397.5 -238.15625 L 395 -233.828125 L 390 -233.828125 L 387.5 -238.15625 L 390 -242.488281 L 385 -242.488281 L 382.5 -246.816406 L 380 -242.488281 L 375 -242.488281 L 377.5 -238.15625 L 375 -233.828125 L 370 -233.828125 L 367.5 -238.15625 L 365 -233.828125 L 360 -233.828125 L 357.5 -238.15625 L 360 -242.488281 L 355 -242.488281 L 352.5 -246.816406 L 355 -251.148438 L 360 -251.148438 L 357.5 -255.476562 L 360 -259.808594 L 355 -259.808594 L 352.5 -264.136719 L 350 -259.808594 L 345 -259.808594 L 342.5 -264.136719 L 345 -268.46875 L 340 -268.46875 L 337.5 -272.796875 L 335 -268.46875 L 330 -268.46875 L 332.5 -264.136719 L 330 -259.808594 L 325 -259.808594 L 322.5 -264.136719 L 320 -259.808594 L 315 -259.808594 L 317.5 -255.476562 L 315 -251.148438 L 320 -251.148438 L 322.5 -246.816406 L 320 -242.488281 L 315 -242.488281 L 317.5 -238.15625 L 315 -233.828125 L 310 -233.828125 L 307.5 -238.15625 L 305 -233.828125 L 300 -233.828125 L 297.5 -238.15625 L 300 -242.488281 L 295 -242.488281 L 292.5 -246.816406 L 290 -242.488281 L 285 -242.488281 L 287.5 -238.15625 L 285 -233.828125 L 280 -233.828125 L 277.5 -238.15625 L 275 -233.828125 L 270 -233.828125 L 267.5 -238.15625 L 270 -242.488281 L 265 -242.488281 L 262.5 -246.816406 L 265 -251.148438 L 270 -251.148438 L 267.5 -255.476562 L 270 -259.808594 L 265 -259.808594 L 262.5 -264.136719 L 260 -259.808594 L 255 -259.808594 L 252.5 -264.136719 L 255 -268.46875 L 250 -268.46875 L 247.5 -272.796875 L 250 -277.128906 L 255 -277.128906 L 252.5 -281.457031 L 255 -285.789062 L 260 -285.789062 L 262.5 -281.457031 L 265 -285.789062 L 270 -285.789062 L 267.5 -290.117188 L 270 -294.449219 L 265 -294.449219 L 262.5 -298.777344 L 265 -303.109375 L 270 -303.109375 L 267.5 -307.4375 L 270 -311.769531 L 265 -311.769531 L 262.5 -316.097656 L 260 -311.769531 L 255 -311.769531 L 252.5 -316.097656 L 255 -320.429688 L 250 -320.429688 L 247.5 -324.757812 L 245 -320.429688 L 240 -320.429688 L 242.5 -316.097656 L 240 -311.769531 L 235 -311.769531 L 232.5 -316.097656 L 230 -311.769531 L 225 -311.769531 L 222.5 -316.097656 L 225 -320.429688 L 220 -320.429688 L 217.5 -324.757812 L 220 -329.089844 L 225 -329.089844 L 222.5 -333.417969 L 225 -337.75 L 220 -337.75 L 217.5 -342.078125 L 215 -337.75 L 210 -337.75 L 207.5 -342.078125 L 210 -346.410156 L 205 -346.410156 L 202.5 -350.742188 L 200 -346.410156 L 195 -346.410156 L 197.5 -342.078125 L 195 -337.75 L 190 -337.75 L 187.5 -342.078125 L 185 -337.75 L 180 -337.75 L 182.5 -333.417969 L 180 -329.089844 L 185 -329.089844 L 187.5 -324.757812 L 185 -320.429688 L 180 -320.429688 L 182.5 -316.097656 L 180 -311.769531 L 175 -311.769531 L 172.5 -316.097656 L 170 -311.769531 L 165 -311.769531 L 162.5 -316.097656 L 165 -320.429688 L 160 -320.429688 L 157.5 -324.757812 L 155 -320.429688 L 150 -320.429688 L 152.5 -316.097656 L 150 -311.769531 L 145 -311.769531 L 142.5 -316.097656 L 140 -311.769531 L 135 -311.769531 L 137.5 -307.4375 L 135 -303.109375 L 140 -303.109375 L 142.5 -298.777344 L 140 -294.449219 L 135 -294.449219 L 137.5 -290.117188 L 135 -285.789062 L 140 -285.789062 L 142.5 -281.457031 L 145 -285.789062 L 150 -285.789062 L 152.5 -281.457031 L 150 -277.128906 L 155 -277.128906 L 157.5 -272.796875 L 155 -268.46875 L 150 -268.46875 L 152.5 -264.136719 L 150 -259.808594 L 145 -259.808594 L 142.5 -264.136719 L 140 -259.808594 L 135 -259.808594 L 137.5 -255.476562 L 135 -251.148438 L 140 -251.148438 L 142.5 -246.816406 L 140 -242.488281 L 135 -242.488281 L 137.5 -238.15625 L 135 -233.828125 L 130 -233.828125 L 127.5 -238.15625 L 125 -233.828125 L 120 -233.828125 L 117.5 -238.15625 L 120 -242.488281 L 115 -242.488281 L 112.5 -246.816406 L 110 -242.488281 L 105 -242.488281 L 107.5 -238.15625 L 105 -233.828125 L 100 -233.828125 L 97.5 -238.15625 L 95 -233.828125 L 90 -233.828125 L 87.5 -238.15625 L 90 -242.488281 L 85 -242.488281 L 82.5 -246.816406 L 85 -251.148438 L 90 -251.148438 L 87.5 -255.476562 L 90 -259.808594 L 85 -259.808594 L 82.5 -264.136719 L 80 -259.808594 L 75 -259.808594 L 72.5 -264.136719 L 75 -268.46875 L 70 -268.46875 L 67.5 -272.796875 L 65 -268.46875 L 60 -268.46875 L 62.5 -264.136719 L 60 -259.808594 L 55 -259.808594 L 52.5 -264.136719 L 50 -259.808594 L 45 -259.808594 L 47.5 -255.476562 L 45 -251.148438 L 50 -251.148438 L 52.5 -246.816406 L 50 -242.488281 L 45 -242.488281 L 47.5 -238.15625 L 45 -233.828125 L 40 -233.828125 L 37.5 -238.15625 L 35 -233.828125 L 30 -233.828125 L 27.5 -238.15625 L 30 -242.488281 L 25 -242.488281 L 22.5 -246.816406 L 20 -242.488281 L 15 -242.488281 L 17.5 -238.15625 L 15 -233.828125 L 10 -233.828125 L 7.5 -238.15625 L 5 -233.828125 L 0 -233.828125 L 2.5 -229.496094 L 0 -225.167969 L 5 -225.167969 L 7.5 -220.835938 L 5 -216.507812 L 0 -216.507812 L 2.5 -212.175781 L 0 -207.847656 L 5 -207.847656 L 7.5 -203.515625 L 10 -207.847656 L 15 -207.847656 L 17.5 -203.515625 L 15 -199.1875 L 20 -199.1875 L 22.5 -194.855469 L 20 -190.527344 L 15 -190.527344 L 17.5 -186.195312 L 15 -181.867188 L 10 -181.867188 L 7.5 -186.195312 L 5 -181.867188 L 0 -181.867188 L 2.5 -177.535156 L 0 -173.207031 L 5 -173.207031 L 7.5 -168.875 L 5 -164.542969 L 0 -164.542969 L 2.5 -160.214844 L 0 -155.882812 L 5 -155.882812 L 7.5 -151.554688 L 10 -155.882812 L 15 -155.882812 L 17.5 -151.554688 L 15 -147.222656 L 20 -147.222656 L 22.5 -142.894531 L 25 -147.222656 L 30 -147.222656 L 27.5 -151.554688 L 30 -155.882812 L 35 -155.882812 L 37.5 -151.554688 L 40 -155.882812 L 45 -155.882812 L 47.5 -151.554688 L 45 -147.222656 L 50 -147.222656 L 52.5 -142.894531 L 50 -138.5625 L 45 -138.5625 L 47.5 -134.234375 L 45 -129.902344 L 50 -129.902344 L 52.5 -125.574219 L 55 -129.902344 L 60 -129.902344 L 62.5 -125.574219 L 60 -121.242188 L 65 -121.242188 L 67.5 -116.914062 L 65 -112.582031 L 60 -112.582031 L 62.5 -108.253906 L 60 -103.921875 L 55 -103.921875 L 52.5 -108.253906 L 50 -103.921875 L 45 -103.921875 L 47.5 -99.59375 L 45 -95.261719 L 50 -95.261719 L 52.5 -90.933594 L 50 -86.601562 L 45 -86.601562 L 47.5 -82.273438 L 45 -77.941406 L 40 -77.941406 L 37.5 -82.273438 L 35 -77.941406 L 30 -77.941406 L 27.5 -82.273438 L 30 -86.601562 L 25 -86.601562 L 22.5 -90.933594 L 20 -86.601562 L 15 -86.601562 L 17.5 -82.273438 L 15 -77.941406 L 10 -77.941406 L 7.5 -82.273438 L 5 -77.941406 L 0 -77.941406 L 2.5 -73.613281 L 0 -69.28125 L 5 -69.28125 L 7.5 -64.953125 L 5 -60.621094 L 0 -60.621094 L 2.5 -56.292969 L 0 -51.960938 L 5 -51.960938 L 7.5 -47.632812 L 10 -51.960938 L 15 -51.960938 L 17.5 -47.632812 L 15 -43.300781 L 20 -43.300781 L 22.5 -38.972656 L 20 -34.640625 L 15 -34.640625 L 17.5 -30.3125 L 15 -25.980469 L 10 -25.980469 L 7.5 -30.3125 L 5 -25.980469 L 0 -25.980469 L 2.5 -21.652344 L 0 -17.320312 L 5 -17.320312 L 7.5 -12.992188 L 5 -8.660156 L 0 -8.660156 L 2.5 -4.332031 L 0 0 Z M 5 0 "/>
</g>
</defs>
<g id="surface2715">
<use xlink:href="#surface2718" transform="matrix(1,0,0,1,1.734375,352.746094)"/>
</g>
</svg>
