<?xml version="1.0" encoding="UTF-8"?>
<svg xmlns="http://www.w3.org/2000/svg" xmlns:xlink="http://www.w3.org/1999/xlink" width="404.367188pt" height="389.179688pt" viewBox="0 0 404.367188 389.179688" version="1.1">
<defs>
<g id="surface2451" clip-path="url(#clip1)">
<rect x="0" y="0" width="16777215" height="16777215" style="fill:rgb(100%,100%,100%);fill-opacity:1;stroke:none;"/>
<path style="fill:none;stroke-width:2;stroke-linecap:butt;stroke-linejoin:miter;stroke:rgb(0%,0%,0%);stroke-opacity:1;stroke-miterlimit:10;" d="M 0 0 L 32 0 L 36.945312 15.21875 L 41.886719 30.433594 L 46.832031 15.21875 L 51.777344 0 Z M 0 0 "/>
<path style="fill:none;stroke-width:2;stroke-linecap:butt;stroke-linejoin:miter;stroke:rgb(0%,0%,0%);stroke-opacity:1;stroke-miterlimit:10;" d="M 51.777344 0 L 46.832031 -15.21875 L 41.886719 -30.433594 L 36.945312 -15.21875 L 32 0 M 32 0 Z M 32 0 "/>
<path style="fill:none;stroke-width:2;stroke-linecap:butt;stroke-linejoin:miter;stroke:rgb(0%,0%,0%);stroke-opacity:1;stroke-miterlimit:10;" d="M 67.777344 0 L 62.832031 15.21875 L 57.886719 30.433594 L 70.832031 39.839844 L 83.777344 49.242188 Z M 67.777344 0 "/>
<path style="fill:none;stroke-width:2;stroke-linecap:butt;stroke-linejoin:miter;stroke:rgb(0%,0%,0%);stroke-opacity:1;stroke-miterlimit:10;" d="M 83.777344 49.242188 L 88.722656 34.027344 L 93.664062 18.808594 L 80.722656 9.40625 L 67.777344 0 M 67.777344 0 Z M 67.777344 0 "/>
<path style="fill:none;stroke-width:2;stroke-linecap:butt;stroke-linejoin:miter;stroke:rgb(0%,0%,0%);stroke-opacity:1;stroke-miterlimit:10;" d="M 88.722656 64.460938 Z M 88.722656 64.460938 "/>
<path style="fill:none;stroke-width:2;stroke-linecap:butt;stroke-linejoin:miter;stroke:rgb(0%,0%,0%);stroke-opacity:1;stroke-miterlimit:10;" d="M 88.722656 64.460938 L 75.777344 73.863281 L 62.832031 83.269531 L 49.886719 73.863281 L 36.945312 64.460938 Z M 88.722656 64.460938 "/>
<path style="fill:none;stroke-width:2;stroke-linecap:butt;stroke-linejoin:miter;stroke:rgb(0%,0%,0%);stroke-opacity:1;stroke-miterlimit:10;" d="M 36.945312 64.460938 L 49.886719 55.054688 L 62.832031 45.652344 L 75.777344 55.054688 L 88.722656 64.460938 M 88.722656 64.460938 Z M 88.722656 64.460938 "/>
<path style="fill:none;stroke-width:2;stroke-linecap:butt;stroke-linejoin:miter;stroke:rgb(0%,0%,0%);stroke-opacity:1;stroke-miterlimit:10;" d="M 20.945312 64.460938 L -11.054688 64.460938 L 1.886719 55.054688 L 14.832031 45.652344 Z M 20.945312 64.460938 "/>
<path style="fill:none;stroke-width:2;stroke-linecap:butt;stroke-linejoin:miter;stroke:rgb(0%,0%,0%);stroke-opacity:1;stroke-miterlimit:10;" d="M 14.832031 45.652344 L 46.832031 45.652344 L 33.886719 55.054688 L 20.945312 64.460938 M 20.945312 64.460938 Z M 20.945312 64.460938 "/>
<path style="fill:none;stroke-width:2;stroke-linecap:butt;stroke-linejoin:miter;stroke:rgb(0%,0%,0%);stroke-opacity:1;stroke-miterlimit:10;" d="M 9.886719 30.433594 L 4.945312 15.21875 L 0 0 M 0 0 Z M 0 0 "/>
<path style="fill:none;stroke-width:2;stroke-linecap:butt;stroke-linejoin:miter;stroke:rgb(0%,0%,0%);stroke-opacity:1;stroke-miterlimit:10;" d="M 101.664062 73.863281 L 88.722656 64.460938 L 75.777344 55.054688 L 80.722656 39.839844 L 85.664062 24.621094 Z M 101.664062 73.863281 "/>
<path style="fill:none;stroke-width:2;stroke-linecap:butt;stroke-linejoin:miter;stroke:rgb(0%,0%,0%);stroke-opacity:1;stroke-miterlimit:10;" d="M 85.664062 24.621094 L 98.609375 34.027344 L 111.554688 43.429688 L 106.609375 58.648438 L 101.664062 73.863281 M 101.664062 73.863281 Z M 101.664062 73.863281 "/>
<path style="fill:none;stroke-width:2;stroke-linecap:butt;stroke-linejoin:miter;stroke:rgb(0%,0%,0%);stroke-opacity:1;stroke-miterlimit:10;" d="M 80.722656 9.40625 L 93.664062 18.808594 L 106.609375 28.214844 L 101.664062 43.429688 L 96.722656 58.648438 L 109.664062 49.242188 L 122.609375 39.839844 Z M 80.722656 9.40625 "/>
<path style="fill:none;stroke-width:2;stroke-linecap:butt;stroke-linejoin:miter;stroke:rgb(0%,0%,0%);stroke-opacity:1;stroke-miterlimit:10;" d="M 122.609375 39.839844 L 127.554688 24.621094 L 132.5 9.40625 L 119.554688 18.808594 L 106.609375 28.214844 M 106.609375 28.214844 Z M 106.609375 28.214844 "/>
<path style="fill:none;stroke-width:2;stroke-linecap:butt;stroke-linejoin:miter;stroke:rgb(0%,0%,0%);stroke-opacity:1;stroke-miterlimit:10;" d="M 135.554688 49.242188 Z M 135.554688 49.242188 "/>
<path style="fill:none;stroke-width:2;stroke-linecap:butt;stroke-linejoin:miter;stroke:rgb(0%,0%,0%);stroke-opacity:1;stroke-miterlimit:10;" d="M 135.554688 49.242188 L 167.554688 49.242188 L 154.609375 58.648438 L 141.664062 68.050781 Z M 135.554688 49.242188 "/>
<path style="fill:none;stroke-width:2;stroke-linecap:butt;stroke-linejoin:miter;stroke:rgb(0%,0%,0%);stroke-opacity:1;stroke-miterlimit:10;" d="M 141.664062 68.050781 L 109.664062 68.050781 L 122.609375 58.648438 L 135.554688 49.242188 M 135.554688 49.242188 Z M 135.554688 49.242188 "/>
<path style="fill:none;stroke-width:2;stroke-linecap:butt;stroke-linejoin:miter;stroke:rgb(0%,0%,0%);stroke-opacity:1;stroke-miterlimit:10;" d="M 146.609375 83.269531 L 151.554688 98.484375 L 156.5 113.703125 L 151.554688 98.484375 L 146.609375 83.269531 L 114.609375 83.269531 Z M 146.609375 83.269531 "/>
<path style="fill:none;stroke-width:2;stroke-linecap:butt;stroke-linejoin:miter;stroke:rgb(0%,0%,0%);stroke-opacity:1;stroke-miterlimit:10;" d="M 114.609375 83.269531 L 119.554688 98.484375 L 124.5 113.703125 L 156.5 113.703125 M 156.5 113.703125 Z M 156.5 113.703125 "/>
<path style="fill:none;stroke-width:2;stroke-linecap:butt;stroke-linejoin:miter;stroke:rgb(0%,0%,0%);stroke-opacity:1;stroke-miterlimit:10;" d="M 101.664062 73.863281 Z M 101.664062 73.863281 "/>
<path style="fill:none;stroke-width:2;stroke-linecap:butt;stroke-linejoin:miter;stroke:rgb(0%,0%,0%);stroke-opacity:1;stroke-miterlimit:10;" d="M 151.554688 49.242188 L 167.554688 49.242188 L 172.5 34.027344 L 177.441406 18.808594 Z M 151.554688 49.242188 "/>
<path style="fill:none;stroke-width:2;stroke-linecap:butt;stroke-linejoin:miter;stroke:rgb(0%,0%,0%);stroke-opacity:1;stroke-miterlimit:10;" d="M 177.441406 18.808594 L 145.441406 18.808594 L 140.5 34.027344 L 135.554688 49.242188 M 135.554688 49.242188 Z M 135.554688 49.242188 "/>
<path style="fill:none;stroke-width:2;stroke-linecap:butt;stroke-linejoin:miter;stroke:rgb(0%,0%,0%);stroke-opacity:1;stroke-miterlimit:10;" d="M 190.386719 9.40625 L 203.332031 0 Z M 190.386719 9.40625 "/>
<path style="fill:none;stroke-width:2;stroke-linecap:butt;stroke-linejoin:miter;stroke:rgb(0%,0%,0%);stroke-opacity:1;stroke-miterlimit:10;" d="M 203.332031 0 L 171.332031 0 L 166.386719 -15.21875 L 161.441406 -30.433594 Z M 203.332031 0 "/>
<path style="fill:none;stroke-width:2;stroke-linecap:butt;stroke-linejoin:miter;stroke:rgb(0%,0%,0%);stroke-opacity:1;stroke-miterlimit:10;" d="M 161.441406 -30.433594 L 193.441406 -30.433594 L 198.386719 -15.21875 L 203.332031 0 M 203.332031 0 Z M 203.332031 0 "/>
<path style="fill:none;stroke-width:2;stroke-linecap:butt;stroke-linejoin:miter;stroke:rgb(0%,0%,0%);stroke-opacity:1;stroke-miterlimit:10;" d="M 148.5 -39.839844 L 135.554688 -49.242188 L 122.609375 -58.648438 L 154.609375 -58.648438 Z M 148.5 -39.839844 "/>
<path style="fill:none;stroke-width:2;stroke-linecap:butt;stroke-linejoin:miter;stroke:rgb(0%,0%,0%);stroke-opacity:1;stroke-miterlimit:10;" d="M 154.609375 -58.648438 L 167.554688 -49.242188 L 180.5 -39.839844 L 148.5 -39.839844 M 148.5 -39.839844 Z M 148.5 -39.839844 "/>
<path style="fill:none;stroke-width:2;stroke-linecap:butt;stroke-linejoin:miter;stroke:rgb(0%,0%,0%);stroke-opacity:1;stroke-miterlimit:10;" d="M 159.554688 -73.863281 L 164.5 -89.082031 L 169.441406 -104.296875 L 137.441406 -104.296875 L 132.5 -89.082031 L 127.554688 -73.863281 Z M 159.554688 -73.863281 "/>
<path style="fill:none;stroke-width:2;stroke-linecap:butt;stroke-linejoin:miter;stroke:rgb(0%,0%,0%);stroke-opacity:1;stroke-miterlimit:10;" d="M 127.554688 -73.863281 L 159.554688 -73.863281 L 164.5 -89.082031 L 169.441406 -104.296875 M 169.441406 -104.296875 Z M 169.441406 -104.296875 "/>
<path style="fill:none;stroke-width:2;stroke-linecap:butt;stroke-linejoin:miter;stroke:rgb(0%,0%,0%);stroke-opacity:1;stroke-miterlimit:10;" d="M 114.609375 -64.460938 Z M 114.609375 -64.460938 "/>
<path style="fill:none;stroke-width:2;stroke-linecap:butt;stroke-linejoin:miter;stroke:rgb(0%,0%,0%);stroke-opacity:1;stroke-miterlimit:10;" d="M 114.609375 -64.460938 L 119.554688 -49.242188 L 124.5 -34.027344 L 111.554688 -24.621094 L 98.609375 -15.21875 Z M 114.609375 -64.460938 "/>
<path style="fill:none;stroke-width:2;stroke-linecap:butt;stroke-linejoin:miter;stroke:rgb(0%,0%,0%);stroke-opacity:1;stroke-miterlimit:10;" d="M 98.609375 -15.21875 L 93.664062 -30.433594 L 88.722656 -45.652344 L 101.664062 -55.054688 L 114.609375 -64.460938 M 114.609375 -64.460938 Z M 114.609375 -64.460938 "/>
<path style="fill:none;stroke-width:2;stroke-linecap:butt;stroke-linejoin:miter;stroke:rgb(0%,0%,0%);stroke-opacity:1;stroke-miterlimit:10;" d="M 93.664062 0 L 106.609375 -9.40625 L 119.554688 -18.808594 L 132.5 -9.40625 L 145.441406 0 L 140.5 -15.21875 L 135.554688 -30.433594 Z M 93.664062 0 "/>
<path style="fill:none;stroke-width:2;stroke-linecap:butt;stroke-linejoin:miter;stroke:rgb(0%,0%,0%);stroke-opacity:1;stroke-miterlimit:10;" d="M 135.554688 -30.433594 L 122.609375 -39.839844 L 109.664062 -49.242188 L 114.609375 -34.027344 L 119.554688 -18.808594 M 119.554688 -18.808594 Z M 119.554688 -18.808594 "/>
<path style="fill:none;stroke-width:2;stroke-linecap:butt;stroke-linejoin:miter;stroke:rgb(0%,0%,0%);stroke-opacity:1;stroke-miterlimit:10;" d="M 148.5 -39.839844 Z M 148.5 -39.839844 "/>
<path style="fill:none;stroke-width:2;stroke-linecap:butt;stroke-linejoin:miter;stroke:rgb(0%,0%,0%);stroke-opacity:1;stroke-miterlimit:10;" d="M 101.664062 -73.863281 L 88.722656 -64.460938 L 75.777344 -55.054688 L 62.832031 -64.460938 L 49.886719 -73.863281 Z M 101.664062 -73.863281 "/>
<path style="fill:none;stroke-width:2;stroke-linecap:butt;stroke-linejoin:miter;stroke:rgb(0%,0%,0%);stroke-opacity:1;stroke-miterlimit:10;" d="M 49.886719 -73.863281 L 62.832031 -83.269531 L 75.777344 -92.671875 L 88.722656 -83.269531 L 101.664062 -73.863281 M 101.664062 -73.863281 Z M 101.664062 -73.863281 "/>
<path style="fill:none;stroke-width:2;stroke-linecap:butt;stroke-linejoin:miter;stroke:rgb(0%,0%,0%);stroke-opacity:1;stroke-miterlimit:10;" d="M 33.886719 -73.863281 L 46.832031 -64.460938 L 59.777344 -55.054688 L 27.777344 -55.054688 Z M 33.886719 -73.863281 "/>
<path style="fill:none;stroke-width:2;stroke-linecap:butt;stroke-linejoin:miter;stroke:rgb(0%,0%,0%);stroke-opacity:1;stroke-miterlimit:10;" d="M 27.777344 -55.054688 L 14.832031 -64.460938 L 1.886719 -73.863281 L 33.886719 -73.863281 M 33.886719 -73.863281 Z M 33.886719 -73.863281 "/>
<path style="fill:none;stroke-width:2;stroke-linecap:butt;stroke-linejoin:miter;stroke:rgb(0%,0%,0%);stroke-opacity:1;stroke-miterlimit:10;" d="M 22.832031 -39.839844 L 17.886719 -24.621094 L 12.945312 -9.40625 Z M 22.832031 -39.839844 "/>
<path style="fill:none;stroke-width:2;stroke-linecap:butt;stroke-linejoin:miter;stroke:rgb(0%,0%,0%);stroke-opacity:1;stroke-miterlimit:10;" d="M 12.945312 -9.40625 L 44.945312 -9.40625 L 49.886719 5.8125 L 54.832031 21.027344 L 59.777344 5.8125 L 64.722656 -9.40625 Z M 12.945312 -9.40625 "/>
<path style="fill:none;stroke-width:2;stroke-linecap:butt;stroke-linejoin:miter;stroke:rgb(0%,0%,0%);stroke-opacity:1;stroke-miterlimit:10;" d="M 64.722656 -9.40625 L 59.777344 -24.621094 L 54.832031 -39.839844 L 49.886719 -24.621094 L 44.945312 -9.40625 M 44.945312 -9.40625 Z M 44.945312 -9.40625 "/>
<path style="fill:none;stroke-width:2;stroke-linecap:butt;stroke-linejoin:miter;stroke:rgb(0%,0%,0%);stroke-opacity:1;stroke-miterlimit:10;" d="M 80.722656 -9.40625 L 93.664062 -18.808594 L 106.609375 -28.214844 L 101.664062 -43.429688 L 96.722656 -58.648438 Z M 80.722656 -9.40625 "/>
<path style="fill:none;stroke-width:2;stroke-linecap:butt;stroke-linejoin:miter;stroke:rgb(0%,0%,0%);stroke-opacity:1;stroke-miterlimit:10;" d="M 96.722656 -58.648438 L 83.777344 -49.242188 L 70.832031 -39.839844 L 75.777344 -24.621094 L 80.722656 -9.40625 M 80.722656 -9.40625 Z M 80.722656 -9.40625 "/>
<path style="fill:none;stroke-width:2;stroke-linecap:butt;stroke-linejoin:miter;stroke:rgb(0%,0%,0%);stroke-opacity:1;stroke-miterlimit:10;" d="M 101.664062 -73.863281 Z M 101.664062 -73.863281 "/>
<path style="fill:none;stroke-width:2;stroke-linecap:butt;stroke-linejoin:miter;stroke:rgb(0%,0%,0%);stroke-opacity:1;stroke-miterlimit:10;" d="M 0 0 Z M 0 0 "/>
<path style="fill:none;stroke-width:2;stroke-linecap:butt;stroke-linejoin:miter;stroke:rgb(0%,0%,0%);stroke-opacity:1;stroke-miterlimit:10;" d="M 203.332031 0 Z M 203.332031 0 "/>
<path style="fill:none;stroke-width:2;stroke-linecap:butt;stroke-linejoin:miter;stroke:rgb(0%,0%,0%);stroke-opacity:1;stroke-miterlimit:10;" d="M 0 0 L 4.945312 15.21875 L 9.886719 30.433594 L -3.054688 39.839844 L -16 49.242188 L 16 49.242188 Z M 0 0 "/>
<path style="fill:none;stroke-width:2;stroke-linecap:butt;stroke-linejoin:miter;stroke:rgb(0%,0%,0%);stroke-opacity:1;stroke-miterlimit:10;" d="M 16 49.242188 L 28.945312 39.839844 L 41.886719 30.433594 L 9.886719 30.433594 M 9.886719 30.433594 Z M 9.886719 30.433594 "/>
<path style="fill:none;stroke-width:2;stroke-linecap:butt;stroke-linejoin:miter;stroke:rgb(0%,0%,0%);stroke-opacity:1;stroke-miterlimit:10;" d="M 20.945312 64.460938 L -11.054688 64.460938 L -16 79.675781 L -20.945312 94.894531 Z M 20.945312 64.460938 "/>
<path style="fill:none;stroke-width:2;stroke-linecap:butt;stroke-linejoin:miter;stroke:rgb(0%,0%,0%);stroke-opacity:1;stroke-miterlimit:10;" d="M -20.945312 94.894531 L 11.054688 94.894531 L 16 79.675781 L 20.945312 64.460938 M 20.945312 64.460938 Z M 20.945312 64.460938 "/>
<path style="fill:none;stroke-width:2;stroke-linecap:butt;stroke-linejoin:miter;stroke:rgb(0%,0%,0%);stroke-opacity:1;stroke-miterlimit:10;" d="M -33.886719 104.296875 Z M -33.886719 104.296875 "/>
<path style="fill:none;stroke-width:2;stroke-linecap:butt;stroke-linejoin:miter;stroke:rgb(0%,0%,0%);stroke-opacity:1;stroke-miterlimit:10;" d="M -33.886719 104.296875 L -46.832031 94.894531 L -59.777344 85.488281 L -54.832031 70.273438 L -49.886719 55.054688 Z M -33.886719 104.296875 "/>
<path style="fill:none;stroke-width:2;stroke-linecap:butt;stroke-linejoin:miter;stroke:rgb(0%,0%,0%);stroke-opacity:1;stroke-miterlimit:10;" d="M -49.886719 55.054688 L -36.945312 64.460938 L -24 73.863281 L -28.945312 89.082031 L -33.886719 104.296875 M -33.886719 104.296875 Z M -33.886719 104.296875 "/>
<path style="fill:none;stroke-width:2;stroke-linecap:butt;stroke-linejoin:miter;stroke:rgb(0%,0%,0%);stroke-opacity:1;stroke-miterlimit:10;" d="M -54.832031 39.839844 L -59.777344 24.621094 L -64.722656 9.40625 L -51.777344 18.808594 L -38.832031 28.214844 Z M -54.832031 39.839844 "/>
<path style="fill:none;stroke-width:2;stroke-linecap:butt;stroke-linejoin:miter;stroke:rgb(0%,0%,0%);stroke-opacity:1;stroke-miterlimit:10;" d="M -38.832031 28.214844 L -33.886719 43.429688 L -28.945312 58.648438 L -41.886719 49.242188 L -54.832031 39.839844 M -54.832031 39.839844 Z M -54.832031 39.839844 "/>
<path style="fill:none;stroke-width:2;stroke-linecap:butt;stroke-linejoin:miter;stroke:rgb(0%,0%,0%);stroke-opacity:1;stroke-miterlimit:10;" d="M -25.886719 18.808594 L -12.945312 9.40625 L 0 0 M 0 0 Z M 0 0 "/>
<path style="fill:none;stroke-width:2;stroke-linecap:butt;stroke-linejoin:miter;stroke:rgb(0%,0%,0%);stroke-opacity:1;stroke-miterlimit:10;" d="M -38.832031 119.515625 L -33.886719 104.296875 L -28.945312 89.082031 L 3.054688 89.082031 Z M -38.832031 119.515625 "/>
<path style="fill:none;stroke-width:2;stroke-linecap:butt;stroke-linejoin:miter;stroke:rgb(0%,0%,0%);stroke-opacity:1;stroke-miterlimit:10;" d="M 3.054688 89.082031 L -1.886719 104.296875 L -6.832031 119.515625 L -38.832031 119.515625 M -38.832031 119.515625 Z M -38.832031 119.515625 "/>
<path style="fill:none;stroke-width:2;stroke-linecap:butt;stroke-linejoin:miter;stroke:rgb(0%,0%,0%);stroke-opacity:1;stroke-miterlimit:10;" d="M 16 79.675781 L 11.054688 94.894531 L 6.113281 110.109375 L -25.886719 110.109375 L -12.945312 119.515625 L 0 128.917969 Z M 16 79.675781 "/>
<path style="fill:none;stroke-width:2;stroke-linecap:butt;stroke-linejoin:miter;stroke:rgb(0%,0%,0%);stroke-opacity:1;stroke-miterlimit:10;" d="M 0 128.917969 L 32 128.917969 L 19.054688 119.515625 L 6.113281 110.109375 M 6.113281 110.109375 Z M 6.113281 110.109375 "/>
<path style="fill:none;stroke-width:2;stroke-linecap:butt;stroke-linejoin:miter;stroke:rgb(0%,0%,0%);stroke-opacity:1;stroke-miterlimit:10;" d="M -4.945312 144.136719 Z M -4.945312 144.136719 "/>
<path style="fill:none;stroke-width:2;stroke-linecap:butt;stroke-linejoin:miter;stroke:rgb(0%,0%,0%);stroke-opacity:1;stroke-miterlimit:10;" d="M -4.945312 144.136719 L 0 159.351562 L 4.945312 174.570312 L -8 165.164062 L -20.945312 155.761719 Z M -4.945312 144.136719 "/>
<path style="fill:none;stroke-width:2;stroke-linecap:butt;stroke-linejoin:miter;stroke:rgb(0%,0%,0%);stroke-opacity:1;stroke-miterlimit:10;" d="M -20.945312 155.761719 L -25.886719 140.542969 L -30.832031 125.328125 L -17.886719 134.730469 L -4.945312 144.136719 M -4.945312 144.136719 Z M -4.945312 144.136719 "/>
<path style="fill:none;stroke-width:2;stroke-linecap:butt;stroke-linejoin:miter;stroke:rgb(0%,0%,0%);stroke-opacity:1;stroke-miterlimit:10;" d="M -33.886719 165.164062 L -59.777344 183.976562 L -33.886719 165.164062 L -38.832031 149.949219 L -43.777344 134.730469 Z M -33.886719 165.164062 "/>
<path style="fill:none;stroke-width:2;stroke-linecap:butt;stroke-linejoin:miter;stroke:rgb(0%,0%,0%);stroke-opacity:1;stroke-miterlimit:10;" d="M -43.777344 134.730469 L -56.722656 144.136719 L -69.664062 153.542969 L -64.722656 168.757812 L -59.777344 183.976562 M -59.777344 183.976562 Z M -59.777344 183.976562 "/>
<path style="fill:none;stroke-width:2;stroke-linecap:butt;stroke-linejoin:miter;stroke:rgb(0%,0%,0%);stroke-opacity:1;stroke-miterlimit:10;" d="M -38.832031 119.515625 Z M -38.832031 119.515625 "/>
<path style="fill:none;stroke-width:2;stroke-linecap:butt;stroke-linejoin:miter;stroke:rgb(0%,0%,0%);stroke-opacity:1;stroke-miterlimit:10;" d="M 0 159.351562 L 4.945312 174.570312 L 36.945312 174.570312 Z M 0 159.351562 "/>
<path style="fill:none;stroke-width:2;stroke-linecap:butt;stroke-linejoin:miter;stroke:rgb(0%,0%,0%);stroke-opacity:1;stroke-miterlimit:10;" d="M 36.945312 174.570312 L 32 159.351562 L 27.054688 144.136719 L -4.945312 144.136719 M -4.945312 144.136719 Z M -4.945312 144.136719 "/>
<path style="fill:none;stroke-width:2;stroke-linecap:butt;stroke-linejoin:miter;stroke:rgb(0%,0%,0%);stroke-opacity:1;stroke-miterlimit:10;" d="M 49.886719 183.976562 L 62.832031 193.378906 Z M 49.886719 183.976562 "/>
<path style="fill:none;stroke-width:2;stroke-linecap:butt;stroke-linejoin:miter;stroke:rgb(0%,0%,0%);stroke-opacity:1;stroke-miterlimit:10;" d="M 62.832031 193.378906 L 57.886719 178.164062 L 52.945312 162.945312 L 65.886719 153.542969 L 78.832031 144.136719 Z M 62.832031 193.378906 "/>
<path style="fill:none;stroke-width:2;stroke-linecap:butt;stroke-linejoin:miter;stroke:rgb(0%,0%,0%);stroke-opacity:1;stroke-miterlimit:10;" d="M 78.832031 144.136719 L 83.777344 159.351562 L 88.722656 174.570312 L 75.777344 183.976562 L 62.832031 193.378906 M 62.832031 193.378906 Z M 62.832031 193.378906 "/>
<path style="fill:none;stroke-width:2;stroke-linecap:butt;stroke-linejoin:miter;stroke:rgb(0%,0%,0%);stroke-opacity:1;stroke-miterlimit:10;" d="M 83.777344 128.917969 L 88.722656 113.703125 L 93.664062 98.484375 L 98.609375 113.703125 L 103.554688 128.917969 Z M 83.777344 128.917969 "/>
<path style="fill:none;stroke-width:2;stroke-linecap:butt;stroke-linejoin:miter;stroke:rgb(0%,0%,0%);stroke-opacity:1;stroke-miterlimit:10;" d="M 103.554688 128.917969 L 98.609375 144.136719 L 93.664062 159.351562 L 88.722656 144.136719 L 83.777344 128.917969 M 83.777344 128.917969 Z M 83.777344 128.917969 "/>
<path style="fill:none;stroke-width:2;stroke-linecap:butt;stroke-linejoin:miter;stroke:rgb(0%,0%,0%);stroke-opacity:1;stroke-miterlimit:10;" d="M 119.554688 128.917969 L 151.554688 128.917969 L 146.609375 113.703125 L 141.664062 98.484375 L 109.664062 98.484375 Z M 119.554688 128.917969 "/>
<path style="fill:none;stroke-width:2;stroke-linecap:butt;stroke-linejoin:miter;stroke:rgb(0%,0%,0%);stroke-opacity:1;stroke-miterlimit:10;" d="M 109.664062 98.484375 L 114.609375 113.703125 L 119.554688 128.917969 L 151.554688 128.917969 M 151.554688 128.917969 Z M 151.554688 128.917969 "/>
<path style="fill:none;stroke-width:2;stroke-linecap:butt;stroke-linejoin:miter;stroke:rgb(0%,0%,0%);stroke-opacity:1;stroke-miterlimit:10;" d="M 96.722656 89.082031 Z M 96.722656 89.082031 "/>
<path style="fill:none;stroke-width:2;stroke-linecap:butt;stroke-linejoin:miter;stroke:rgb(0%,0%,0%);stroke-opacity:1;stroke-miterlimit:10;" d="M 96.722656 89.082031 L 83.777344 98.484375 L 70.832031 107.890625 L 57.886719 98.484375 L 44.945312 89.082031 Z M 96.722656 89.082031 "/>
<path style="fill:none;stroke-width:2;stroke-linecap:butt;stroke-linejoin:miter;stroke:rgb(0%,0%,0%);stroke-opacity:1;stroke-miterlimit:10;" d="M 44.945312 89.082031 L 57.886719 79.675781 L 70.832031 70.273438 L 83.777344 79.675781 L 96.722656 89.082031 M 96.722656 89.082031 Z M 96.722656 89.082031 "/>
<path style="fill:none;stroke-width:2;stroke-linecap:butt;stroke-linejoin:miter;stroke:rgb(0%,0%,0%);stroke-opacity:1;stroke-miterlimit:10;" d="M 28.945312 89.082031 L 41.886719 98.484375 L 54.832031 107.890625 L 49.886719 123.105469 L 44.945312 138.324219 L 57.886719 128.917969 L 70.832031 119.515625 Z M 28.945312 89.082031 "/>
<path style="fill:none;stroke-width:2;stroke-linecap:butt;stroke-linejoin:miter;stroke:rgb(0%,0%,0%);stroke-opacity:1;stroke-miterlimit:10;" d="M 70.832031 119.515625 L 75.777344 104.296875 L 80.722656 89.082031 L 67.777344 98.484375 L 54.832031 107.890625 M 54.832031 107.890625 Z M 54.832031 107.890625 "/>
<path style="fill:none;stroke-width:2;stroke-linecap:butt;stroke-linejoin:miter;stroke:rgb(0%,0%,0%);stroke-opacity:1;stroke-miterlimit:10;" d="M 83.777344 128.917969 Z M 83.777344 128.917969 "/>
<path style="fill:none;stroke-width:2;stroke-linecap:butt;stroke-linejoin:miter;stroke:rgb(0%,0%,0%);stroke-opacity:1;stroke-miterlimit:10;" d="M 101.664062 73.863281 L 88.722656 64.460938 L 75.777344 55.054688 L 80.722656 39.839844 L 85.664062 24.621094 Z M 101.664062 73.863281 "/>
<path style="fill:none;stroke-width:2;stroke-linecap:butt;stroke-linejoin:miter;stroke:rgb(0%,0%,0%);stroke-opacity:1;stroke-miterlimit:10;" d="M 85.664062 24.621094 L 98.609375 34.027344 L 111.554688 43.429688 L 106.609375 58.648438 L 101.664062 73.863281 M 101.664062 73.863281 Z M 101.664062 73.863281 "/>
<path style="fill:none;stroke-width:2;stroke-linecap:butt;stroke-linejoin:miter;stroke:rgb(0%,0%,0%);stroke-opacity:1;stroke-miterlimit:10;" d="M 80.722656 9.40625 L 75.777344 24.621094 L 70.832031 39.839844 L 65.886719 24.621094 L 60.945312 9.40625 Z M 80.722656 9.40625 "/>
<path style="fill:none;stroke-width:2;stroke-linecap:butt;stroke-linejoin:miter;stroke:rgb(0%,0%,0%);stroke-opacity:1;stroke-miterlimit:10;" d="M 60.945312 9.40625 L 65.886719 -5.8125 L 70.832031 -21.027344 L 75.777344 -5.8125 L 80.722656 9.40625 M 80.722656 9.40625 Z M 80.722656 9.40625 "/>
<path style="fill:none;stroke-width:2;stroke-linecap:butt;stroke-linejoin:miter;stroke:rgb(0%,0%,0%);stroke-opacity:1;stroke-miterlimit:10;" d="M 44.945312 9.40625 L 12.945312 9.40625 Z M 44.945312 9.40625 "/>
<path style="fill:none;stroke-width:2;stroke-linecap:butt;stroke-linejoin:miter;stroke:rgb(0%,0%,0%);stroke-opacity:1;stroke-miterlimit:10;" d="M 12.945312 9.40625 L 17.886719 24.621094 L 22.832031 39.839844 L 9.886719 49.242188 L -3.054688 58.648438 L 28.945312 58.648438 Z M 12.945312 9.40625 "/>
<path style="fill:none;stroke-width:2;stroke-linecap:butt;stroke-linejoin:miter;stroke:rgb(0%,0%,0%);stroke-opacity:1;stroke-miterlimit:10;" d="M 28.945312 58.648438 L 41.886719 49.242188 L 54.832031 39.839844 L 22.832031 39.839844 M 22.832031 39.839844 Z M 22.832031 39.839844 "/>
<path style="fill:none;stroke-width:2;stroke-linecap:butt;stroke-linejoin:miter;stroke:rgb(0%,0%,0%);stroke-opacity:1;stroke-miterlimit:10;" d="M 33.886719 73.863281 L 46.832031 83.269531 L 59.777344 92.671875 L 72.722656 83.269531 L 85.664062 73.863281 Z M 33.886719 73.863281 "/>
<path style="fill:none;stroke-width:2;stroke-linecap:butt;stroke-linejoin:miter;stroke:rgb(0%,0%,0%);stroke-opacity:1;stroke-miterlimit:10;" d="M 85.664062 73.863281 L 72.722656 64.460938 L 59.777344 55.054688 L 46.832031 64.460938 L 33.886719 73.863281 M 33.886719 73.863281 Z M 33.886719 73.863281 "/>
<path style="fill:none;stroke-width:2;stroke-linecap:butt;stroke-linejoin:miter;stroke:rgb(0%,0%,0%);stroke-opacity:1;stroke-miterlimit:10;" d="M 101.664062 73.863281 Z M 101.664062 73.863281 "/>
<path style="fill:none;stroke-width:2;stroke-linecap:butt;stroke-linejoin:miter;stroke:rgb(0%,0%,0%);stroke-opacity:1;stroke-miterlimit:10;" d="M 0 0 Z M 0 0 "/>
<path style="fill:none;stroke-width:2;stroke-linecap:butt;stroke-linejoin:miter;stroke:rgb(0%,0%,0%);stroke-opacity:1;stroke-miterlimit:10;" d="M 62.832031 193.378906 Z M 62.832031 193.378906 "/>
<path style="fill:none;stroke-width:2;stroke-linecap:butt;stroke-linejoin:miter;stroke:rgb(0%,0%,0%);stroke-opacity:1;stroke-miterlimit:10;" d="M 0 0 L -12.945312 9.40625 L -25.886719 18.808594 L -38.832031 9.40625 L -51.777344 0 L -46.832031 15.21875 L -41.886719 30.433594 Z M 0 0 "/>
<path style="fill:none;stroke-width:2;stroke-linecap:butt;stroke-linejoin:miter;stroke:rgb(0%,0%,0%);stroke-opacity:1;stroke-miterlimit:10;" d="M -41.886719 30.433594 L -28.945312 39.839844 L -16 49.242188 L -20.945312 34.027344 L -25.886719 18.808594 M -25.886719 18.808594 Z M -25.886719 18.808594 "/>
<path style="fill:none;stroke-width:2;stroke-linecap:butt;stroke-linejoin:miter;stroke:rgb(0%,0%,0%);stroke-opacity:1;stroke-miterlimit:10;" d="M -54.832031 39.839844 L -59.777344 24.621094 L -64.722656 9.40625 L -96.722656 9.40625 Z M -54.832031 39.839844 "/>
<path style="fill:none;stroke-width:2;stroke-linecap:butt;stroke-linejoin:miter;stroke:rgb(0%,0%,0%);stroke-opacity:1;stroke-miterlimit:10;" d="M -96.722656 9.40625 L -91.777344 24.621094 L -86.832031 39.839844 L -54.832031 39.839844 M -54.832031 39.839844 Z M -54.832031 39.839844 "/>
<path style="fill:none;stroke-width:2;stroke-linecap:butt;stroke-linejoin:miter;stroke:rgb(0%,0%,0%);stroke-opacity:1;stroke-miterlimit:10;" d="M -109.664062 0 Z M -109.664062 0 "/>
<path style="fill:none;stroke-width:2;stroke-linecap:butt;stroke-linejoin:miter;stroke:rgb(0%,0%,0%);stroke-opacity:1;stroke-miterlimit:10;" d="M -109.664062 0 L -104.722656 -15.21875 L -99.777344 -30.433594 L -67.777344 -30.433594 Z M -109.664062 0 "/>
<path style="fill:none;stroke-width:2;stroke-linecap:butt;stroke-linejoin:miter;stroke:rgb(0%,0%,0%);stroke-opacity:1;stroke-miterlimit:10;" d="M -67.777344 -30.433594 L -72.722656 -15.21875 L -77.664062 0 L -109.664062 0 M -109.664062 0 Z M -109.664062 0 "/>
<path style="fill:none;stroke-width:2;stroke-linecap:butt;stroke-linejoin:miter;stroke:rgb(0%,0%,0%);stroke-opacity:1;stroke-miterlimit:10;" d="M -54.832031 -39.839844 L -41.886719 -49.242188 L -28.945312 -58.648438 L -33.886719 -43.429688 L -38.832031 -28.214844 Z M -54.832031 -39.839844 "/>
<path style="fill:none;stroke-width:2;stroke-linecap:butt;stroke-linejoin:miter;stroke:rgb(0%,0%,0%);stroke-opacity:1;stroke-miterlimit:10;" d="M -38.832031 -28.214844 L -51.777344 -18.808594 L -64.722656 -9.40625 L -59.777344 -24.621094 L -54.832031 -39.839844 M -54.832031 -39.839844 Z M -54.832031 -39.839844 "/>
<path style="fill:none;stroke-width:2;stroke-linecap:butt;stroke-linejoin:miter;stroke:rgb(0%,0%,0%);stroke-opacity:1;stroke-miterlimit:10;" d="M -25.886719 -18.808594 L -12.945312 -9.40625 L 0 0 M 0 0 Z M 0 0 "/>
<path style="fill:none;stroke-width:2;stroke-linecap:butt;stroke-linejoin:miter;stroke:rgb(0%,0%,0%);stroke-opacity:1;stroke-miterlimit:10;" d="M -125.664062 0 L -93.664062 0 L -88.722656 15.21875 L -83.777344 30.433594 Z M -125.664062 0 "/>
<path style="fill:none;stroke-width:2;stroke-linecap:butt;stroke-linejoin:miter;stroke:rgb(0%,0%,0%);stroke-opacity:1;stroke-miterlimit:10;" d="M -83.777344 30.433594 L -115.777344 30.433594 L -120.722656 15.21875 L -125.664062 0 M -125.664062 0 Z M -125.664062 0 "/>
<path style="fill:none;stroke-width:2;stroke-linecap:butt;stroke-linejoin:miter;stroke:rgb(0%,0%,0%);stroke-opacity:1;stroke-miterlimit:10;" d="M -70.832031 39.839844 L -102.832031 39.839844 L -107.777344 24.621094 L -112.722656 9.40625 L -117.664062 24.621094 L -122.609375 39.839844 Z M -70.832031 39.839844 "/>
<path style="fill:none;stroke-width:2;stroke-linecap:butt;stroke-linejoin:miter;stroke:rgb(0%,0%,0%);stroke-opacity:1;stroke-miterlimit:10;" d="M -122.609375 39.839844 L -117.664062 55.054688 L -112.722656 70.273438 L -107.777344 55.054688 L -102.832031 39.839844 M -102.832031 39.839844 Z M -102.832031 39.839844 "/>
<path style="fill:none;stroke-width:2;stroke-linecap:butt;stroke-linejoin:miter;stroke:rgb(0%,0%,0%);stroke-opacity:1;stroke-miterlimit:10;" d="M -138.609375 39.839844 Z M -138.609375 39.839844 "/>
<path style="fill:none;stroke-width:2;stroke-linecap:butt;stroke-linejoin:miter;stroke:rgb(0%,0%,0%);stroke-opacity:1;stroke-miterlimit:10;" d="M -138.609375 39.839844 L -151.554688 49.242188 L -164.5 58.648438 L -159.554688 43.429688 L -154.609375 28.214844 Z M -138.609375 39.839844 "/>
<path style="fill:none;stroke-width:2;stroke-linecap:butt;stroke-linejoin:miter;stroke:rgb(0%,0%,0%);stroke-opacity:1;stroke-miterlimit:10;" d="M -154.609375 28.214844 L -141.664062 18.808594 L -128.722656 9.40625 L -133.664062 24.621094 L -138.609375 39.839844 M -138.609375 39.839844 Z M -138.609375 39.839844 "/>
<path style="fill:none;stroke-width:2;stroke-linecap:butt;stroke-linejoin:miter;stroke:rgb(0%,0%,0%);stroke-opacity:1;stroke-miterlimit:10;" d="M -167.554688 18.808594 L -180.5 9.40625 L -193.441406 0 L -180.5 9.40625 L -167.554688 18.808594 L -154.609375 9.40625 L -141.664062 0 Z M -167.554688 18.808594 "/>
<path style="fill:none;stroke-width:2;stroke-linecap:butt;stroke-linejoin:miter;stroke:rgb(0%,0%,0%);stroke-opacity:1;stroke-miterlimit:10;" d="M -141.664062 0 L -154.609375 -9.40625 L -167.554688 -18.808594 L -180.5 -9.40625 L -193.441406 0 M -193.441406 0 Z M -193.441406 0 "/>
<path style="fill:none;stroke-width:2;stroke-linecap:butt;stroke-linejoin:miter;stroke:rgb(0%,0%,0%);stroke-opacity:1;stroke-miterlimit:10;" d="M -125.664062 0 Z M -125.664062 0 "/>
<path style="fill:none;stroke-width:2;stroke-linecap:butt;stroke-linejoin:miter;stroke:rgb(0%,0%,0%);stroke-opacity:1;stroke-miterlimit:10;" d="M -151.554688 49.242188 L -164.5 58.648438 L -159.554688 73.863281 L -154.609375 89.082031 Z M -151.554688 49.242188 "/>
<path style="fill:none;stroke-width:2;stroke-linecap:butt;stroke-linejoin:miter;stroke:rgb(0%,0%,0%);stroke-opacity:1;stroke-miterlimit:10;" d="M -154.609375 89.082031 L -141.664062 79.675781 L -128.722656 70.273438 L -133.664062 55.054688 L -138.609375 39.839844 M -138.609375 39.839844 Z M -138.609375 39.839844 "/>
<path style="fill:none;stroke-width:2;stroke-linecap:butt;stroke-linejoin:miter;stroke:rgb(0%,0%,0%);stroke-opacity:1;stroke-miterlimit:10;" d="M -159.554688 104.296875 L -164.5 119.515625 Z M -159.554688 104.296875 "/>
<path style="fill:none;stroke-width:2;stroke-linecap:butt;stroke-linejoin:miter;stroke:rgb(0%,0%,0%);stroke-opacity:1;stroke-miterlimit:10;" d="M -164.5 119.515625 L -151.554688 110.109375 L -138.609375 100.707031 L -125.664062 110.109375 L -112.722656 119.515625 Z M -164.5 119.515625 "/>
<path style="fill:none;stroke-width:2;stroke-linecap:butt;stroke-linejoin:miter;stroke:rgb(0%,0%,0%);stroke-opacity:1;stroke-miterlimit:10;" d="M -112.722656 119.515625 L -125.664062 128.917969 L -138.609375 138.324219 L -151.554688 128.917969 L -164.5 119.515625 M -164.5 119.515625 Z M -164.5 119.515625 "/>
<path style="fill:none;stroke-width:2;stroke-linecap:butt;stroke-linejoin:miter;stroke:rgb(0%,0%,0%);stroke-opacity:1;stroke-miterlimit:10;" d="M -96.722656 119.515625 L -64.722656 119.515625 L -77.664062 128.917969 L -90.609375 138.324219 Z M -96.722656 119.515625 "/>
<path style="fill:none;stroke-width:2;stroke-linecap:butt;stroke-linejoin:miter;stroke:rgb(0%,0%,0%);stroke-opacity:1;stroke-miterlimit:10;" d="M -90.609375 138.324219 L -122.609375 138.324219 L -109.664062 128.917969 L -96.722656 119.515625 M -96.722656 119.515625 Z M -96.722656 119.515625 "/>
<path style="fill:none;stroke-width:2;stroke-linecap:butt;stroke-linejoin:miter;stroke:rgb(0%,0%,0%);stroke-opacity:1;stroke-miterlimit:10;" d="M -85.664062 153.542969 L -80.722656 168.757812 L -75.777344 183.976562 L -49.886719 165.164062 L -54.832031 149.949219 L -59.777344 134.730469 Z M -85.664062 153.542969 "/>
<path style="fill:none;stroke-width:2;stroke-linecap:butt;stroke-linejoin:miter;stroke:rgb(0%,0%,0%);stroke-opacity:1;stroke-miterlimit:10;" d="M -59.777344 134.730469 L -72.722656 144.136719 L -85.664062 153.542969 L -80.722656 168.757812 L -75.777344 183.976562 M -75.777344 183.976562 Z M -75.777344 183.976562 "/>
<path style="fill:none;stroke-width:2;stroke-linecap:butt;stroke-linejoin:miter;stroke:rgb(0%,0%,0%);stroke-opacity:1;stroke-miterlimit:10;" d="M -54.832031 119.515625 Z M -54.832031 119.515625 "/>
<path style="fill:none;stroke-width:2;stroke-linecap:butt;stroke-linejoin:miter;stroke:rgb(0%,0%,0%);stroke-opacity:1;stroke-miterlimit:10;" d="M -54.832031 119.515625 L -67.777344 110.109375 L -80.722656 100.707031 L -75.777344 85.488281 L -70.832031 70.273438 Z M -54.832031 119.515625 "/>
<path style="fill:none;stroke-width:2;stroke-linecap:butt;stroke-linejoin:miter;stroke:rgb(0%,0%,0%);stroke-opacity:1;stroke-miterlimit:10;" d="M -70.832031 70.273438 L -57.886719 79.675781 L -44.945312 89.082031 L -49.886719 104.296875 L -54.832031 119.515625 M -54.832031 119.515625 Z M -54.832031 119.515625 "/>
<path style="fill:none;stroke-width:2;stroke-linecap:butt;stroke-linejoin:miter;stroke:rgb(0%,0%,0%);stroke-opacity:1;stroke-miterlimit:10;" d="M -75.777344 55.054688 L -80.722656 70.273438 L -85.664062 85.488281 L -117.664062 85.488281 L -104.722656 94.894531 L -91.777344 104.296875 Z M -75.777344 55.054688 "/>
<path style="fill:none;stroke-width:2;stroke-linecap:butt;stroke-linejoin:miter;stroke:rgb(0%,0%,0%);stroke-opacity:1;stroke-miterlimit:10;" d="M -91.777344 104.296875 L -59.777344 104.296875 L -72.722656 94.894531 L -85.664062 85.488281 M -85.664062 85.488281 Z M -85.664062 85.488281 "/>
<path style="fill:none;stroke-width:2;stroke-linecap:butt;stroke-linejoin:miter;stroke:rgb(0%,0%,0%);stroke-opacity:1;stroke-miterlimit:10;" d="M -96.722656 119.515625 Z M -96.722656 119.515625 "/>
<path style="fill:none;stroke-width:2;stroke-linecap:butt;stroke-linejoin:miter;stroke:rgb(0%,0%,0%);stroke-opacity:1;stroke-miterlimit:10;" d="M -38.832031 119.515625 L -33.886719 104.296875 L -28.945312 89.082031 L 3.054688 89.082031 Z M -38.832031 119.515625 "/>
<path style="fill:none;stroke-width:2;stroke-linecap:butt;stroke-linejoin:miter;stroke:rgb(0%,0%,0%);stroke-opacity:1;stroke-miterlimit:10;" d="M 3.054688 89.082031 L -1.886719 104.296875 L -6.832031 119.515625 L -38.832031 119.515625 M -38.832031 119.515625 Z M -38.832031 119.515625 "/>
<path style="fill:none;stroke-width:2;stroke-linecap:butt;stroke-linejoin:miter;stroke:rgb(0%,0%,0%);stroke-opacity:1;stroke-miterlimit:10;" d="M 16 79.675781 L -16 79.675781 L -3.054688 70.273438 L 9.886719 60.867188 Z M 16 79.675781 "/>
<path style="fill:none;stroke-width:2;stroke-linecap:butt;stroke-linejoin:miter;stroke:rgb(0%,0%,0%);stroke-opacity:1;stroke-miterlimit:10;" d="M 9.886719 60.867188 L 41.886719 60.867188 L 28.945312 70.273438 L 16 79.675781 M 16 79.675781 Z M 16 79.675781 "/>
<path style="fill:none;stroke-width:2;stroke-linecap:butt;stroke-linejoin:miter;stroke:rgb(0%,0%,0%);stroke-opacity:1;stroke-miterlimit:10;" d="M 4.945312 45.652344 L 0 30.433594 L -4.945312 15.21875 Z M 4.945312 45.652344 "/>
<path style="fill:none;stroke-width:2;stroke-linecap:butt;stroke-linejoin:miter;stroke:rgb(0%,0%,0%);stroke-opacity:1;stroke-miterlimit:10;" d="M -4.945312 15.21875 L -17.886719 24.621094 L -30.832031 34.027344 L -43.777344 24.621094 L -56.722656 15.21875 L -51.777344 30.433594 L -46.832031 45.652344 Z M -4.945312 15.21875 "/>
<path style="fill:none;stroke-width:2;stroke-linecap:butt;stroke-linejoin:miter;stroke:rgb(0%,0%,0%);stroke-opacity:1;stroke-miterlimit:10;" d="M -46.832031 45.652344 L -33.886719 55.054688 L -20.945312 64.460938 L -25.886719 49.242188 L -30.832031 34.027344 M -30.832031 34.027344 Z M -30.832031 34.027344 "/>
<path style="fill:none;stroke-width:2;stroke-linecap:butt;stroke-linejoin:miter;stroke:rgb(0%,0%,0%);stroke-opacity:1;stroke-miterlimit:10;" d="M -59.777344 55.054688 L -64.722656 70.273438 L -69.664062 85.488281 L -56.722656 94.894531 L -43.777344 104.296875 Z M -59.777344 55.054688 "/>
<path style="fill:none;stroke-width:2;stroke-linecap:butt;stroke-linejoin:miter;stroke:rgb(0%,0%,0%);stroke-opacity:1;stroke-miterlimit:10;" d="M -43.777344 104.296875 L -38.832031 89.082031 L -33.886719 73.863281 L -46.832031 64.460938 L -59.777344 55.054688 M -59.777344 55.054688 Z M -59.777344 55.054688 "/>
<path style="fill:none;stroke-width:2;stroke-linecap:butt;stroke-linejoin:miter;stroke:rgb(0%,0%,0%);stroke-opacity:1;stroke-miterlimit:10;" d="M -38.832031 119.515625 Z M -38.832031 119.515625 "/>
<path style="fill:none;stroke-width:2;stroke-linecap:butt;stroke-linejoin:miter;stroke:rgb(0%,0%,0%);stroke-opacity:1;stroke-miterlimit:10;" d="M 0 0 Z M 0 0 "/>
<path style="fill:none;stroke-width:2;stroke-linecap:butt;stroke-linejoin:miter;stroke:rgb(0%,0%,0%);stroke-opacity:1;stroke-miterlimit:10;" d="M -164.5 119.515625 Z M -164.5 119.515625 "/>
<path style="fill:none;stroke-width:2;stroke-linecap:butt;stroke-linejoin:miter;stroke:rgb(0%,0%,0%);stroke-opacity:1;stroke-miterlimit:10;" d="M 0 0 L -12.945312 -9.40625 L -25.886719 -18.808594 L -20.945312 -34.027344 L -16 -49.242188 L -28.945312 -39.839844 L -41.886719 -30.433594 Z M 0 0 "/>
<path style="fill:none;stroke-width:2;stroke-linecap:butt;stroke-linejoin:miter;stroke:rgb(0%,0%,0%);stroke-opacity:1;stroke-miterlimit:10;" d="M -41.886719 -30.433594 L -46.832031 -15.21875 L -51.777344 0 L -38.832031 -9.40625 L -25.886719 -18.808594 M -25.886719 -18.808594 Z M -25.886719 -18.808594 "/>
<path style="fill:none;stroke-width:2;stroke-linecap:butt;stroke-linejoin:miter;stroke:rgb(0%,0%,0%);stroke-opacity:1;stroke-miterlimit:10;" d="M -54.832031 -39.839844 L -41.886719 -49.242188 L -28.945312 -58.648438 L -33.886719 -73.863281 L -38.832031 -89.082031 Z M -54.832031 -39.839844 "/>
<path style="fill:none;stroke-width:2;stroke-linecap:butt;stroke-linejoin:miter;stroke:rgb(0%,0%,0%);stroke-opacity:1;stroke-miterlimit:10;" d="M -38.832031 -89.082031 L -51.777344 -79.675781 L -64.722656 -70.273438 L -59.777344 -55.054688 L -54.832031 -39.839844 M -54.832031 -39.839844 Z M -54.832031 -39.839844 "/>
<path style="fill:none;stroke-width:2;stroke-linecap:butt;stroke-linejoin:miter;stroke:rgb(0%,0%,0%);stroke-opacity:1;stroke-miterlimit:10;" d="M -33.886719 -104.296875 Z M -33.886719 -104.296875 "/>
<path style="fill:none;stroke-width:2;stroke-linecap:butt;stroke-linejoin:miter;stroke:rgb(0%,0%,0%);stroke-opacity:1;stroke-miterlimit:10;" d="M -33.886719 -104.296875 L -1.886719 -104.296875 L 3.054688 -89.082031 L 8 -73.863281 Z M -33.886719 -104.296875 "/>
<path style="fill:none;stroke-width:2;stroke-linecap:butt;stroke-linejoin:miter;stroke:rgb(0%,0%,0%);stroke-opacity:1;stroke-miterlimit:10;" d="M 8 -73.863281 L -24 -73.863281 L -28.945312 -89.082031 L -33.886719 -104.296875 M -33.886719 -104.296875 Z M -33.886719 -104.296875 "/>
<path style="fill:none;stroke-width:2;stroke-linecap:butt;stroke-linejoin:miter;stroke:rgb(0%,0%,0%);stroke-opacity:1;stroke-miterlimit:10;" d="M 20.945312 -64.460938 L 33.886719 -55.054688 L 46.832031 -45.652344 L 14.832031 -45.652344 Z M 20.945312 -64.460938 "/>
<path style="fill:none;stroke-width:2;stroke-linecap:butt;stroke-linejoin:miter;stroke:rgb(0%,0%,0%);stroke-opacity:1;stroke-miterlimit:10;" d="M 14.832031 -45.652344 L 1.886719 -55.054688 L -11.054688 -64.460938 L 20.945312 -64.460938 M 20.945312 -64.460938 Z M 20.945312 -64.460938 "/>
<path style="fill:none;stroke-width:2;stroke-linecap:butt;stroke-linejoin:miter;stroke:rgb(0%,0%,0%);stroke-opacity:1;stroke-miterlimit:10;" d="M 9.886719 -30.433594 L 4.945312 -15.21875 L 0 0 M 0 0 Z M 0 0 "/>
<path style="fill:none;stroke-width:2;stroke-linecap:butt;stroke-linejoin:miter;stroke:rgb(0%,0%,0%);stroke-opacity:1;stroke-miterlimit:10;" d="M -38.832031 -119.515625 L -33.886719 -104.296875 L -28.945312 -89.082031 L -41.886719 -79.675781 L -54.832031 -70.273438 Z M -38.832031 -119.515625 "/>
<path style="fill:none;stroke-width:2;stroke-linecap:butt;stroke-linejoin:miter;stroke:rgb(0%,0%,0%);stroke-opacity:1;stroke-miterlimit:10;" d="M -54.832031 -70.273438 L -59.777344 -85.488281 L -64.722656 -100.707031 L -51.777344 -110.109375 L -38.832031 -119.515625 M -38.832031 -119.515625 Z M -38.832031 -119.515625 "/>
<path style="fill:none;stroke-width:2;stroke-linecap:butt;stroke-linejoin:miter;stroke:rgb(0%,0%,0%);stroke-opacity:1;stroke-miterlimit:10;" d="M -59.777344 -55.054688 L -64.722656 -70.273438 L -69.664062 -85.488281 L -56.722656 -94.894531 L -43.777344 -104.296875 L -75.777344 -104.296875 Z M -59.777344 -55.054688 "/>
<path style="fill:none;stroke-width:2;stroke-linecap:butt;stroke-linejoin:miter;stroke:rgb(0%,0%,0%);stroke-opacity:1;stroke-miterlimit:10;" d="M -75.777344 -104.296875 L -88.722656 -94.894531 L -101.664062 -85.488281 L -69.664062 -85.488281 M -69.664062 -85.488281 Z M -69.664062 -85.488281 "/>
<path style="fill:none;stroke-width:2;stroke-linecap:butt;stroke-linejoin:miter;stroke:rgb(0%,0%,0%);stroke-opacity:1;stroke-miterlimit:10;" d="M -80.722656 -119.515625 Z M -80.722656 -119.515625 "/>
<path style="fill:none;stroke-width:2;stroke-linecap:butt;stroke-linejoin:miter;stroke:rgb(0%,0%,0%);stroke-opacity:1;stroke-miterlimit:10;" d="M -80.722656 -119.515625 L -93.664062 -128.917969 L -106.609375 -138.324219 L -74.609375 -138.324219 Z M -80.722656 -119.515625 "/>
<path style="fill:none;stroke-width:2;stroke-linecap:butt;stroke-linejoin:miter;stroke:rgb(0%,0%,0%);stroke-opacity:1;stroke-miterlimit:10;" d="M -74.609375 -138.324219 L -61.664062 -128.917969 L -48.722656 -119.515625 L -80.722656 -119.515625 M -80.722656 -119.515625 Z M -80.722656 -119.515625 "/>
<path style="fill:none;stroke-width:2;stroke-linecap:butt;stroke-linejoin:miter;stroke:rgb(0%,0%,0%);stroke-opacity:1;stroke-miterlimit:10;" d="M -69.664062 -153.542969 L -64.722656 -168.757812 L -59.777344 -183.976562 L -64.722656 -168.757812 L -69.664062 -153.542969 L -56.722656 -144.136719 L -43.777344 -134.730469 Z M -69.664062 -153.542969 "/>
<path style="fill:none;stroke-width:2;stroke-linecap:butt;stroke-linejoin:miter;stroke:rgb(0%,0%,0%);stroke-opacity:1;stroke-miterlimit:10;" d="M -43.777344 -134.730469 L -38.832031 -149.949219 L -33.886719 -165.164062 L -59.777344 -183.976562 M -59.777344 -183.976562 Z M -59.777344 -183.976562 "/>
<path style="fill:none;stroke-width:2;stroke-linecap:butt;stroke-linejoin:miter;stroke:rgb(0%,0%,0%);stroke-opacity:1;stroke-miterlimit:10;" d="M -38.832031 -119.515625 Z M -38.832031 -119.515625 "/>
<path style="fill:none;stroke-width:2;stroke-linecap:butt;stroke-linejoin:miter;stroke:rgb(0%,0%,0%);stroke-opacity:1;stroke-miterlimit:10;" d="M -93.664062 -128.917969 L -106.609375 -138.324219 L -119.554688 -128.917969 L -132.5 -119.515625 Z M -93.664062 -128.917969 "/>
<path style="fill:none;stroke-width:2;stroke-linecap:butt;stroke-linejoin:miter;stroke:rgb(0%,0%,0%);stroke-opacity:1;stroke-miterlimit:10;" d="M -132.5 -119.515625 L -119.554688 -110.109375 L -106.609375 -100.707031 L -93.664062 -110.109375 L -80.722656 -119.515625 M -80.722656 -119.515625 Z M -80.722656 -119.515625 "/>
<path style="fill:none;stroke-width:2;stroke-linecap:butt;stroke-linejoin:miter;stroke:rgb(0%,0%,0%);stroke-opacity:1;stroke-miterlimit:10;" d="M -148.5 -119.515625 L -164.5 -119.515625 Z M -148.5 -119.515625 "/>
<path style="fill:none;stroke-width:2;stroke-linecap:butt;stroke-linejoin:miter;stroke:rgb(0%,0%,0%);stroke-opacity:1;stroke-miterlimit:10;" d="M -164.5 -119.515625 L -151.554688 -110.109375 L -138.609375 -100.707031 L -143.554688 -85.488281 L -148.5 -70.273438 Z M -164.5 -119.515625 "/>
<path style="fill:none;stroke-width:2;stroke-linecap:butt;stroke-linejoin:miter;stroke:rgb(0%,0%,0%);stroke-opacity:1;stroke-miterlimit:10;" d="M -148.5 -70.273438 L -161.441406 -79.675781 L -174.386719 -89.082031 L -169.441406 -104.296875 L -164.5 -119.515625 M -164.5 -119.515625 Z M -164.5 -119.515625 "/>
<path style="fill:none;stroke-width:2;stroke-linecap:butt;stroke-linejoin:miter;stroke:rgb(0%,0%,0%);stroke-opacity:1;stroke-miterlimit:10;" d="M -143.554688 -55.054688 L -138.609375 -39.839844 L -133.664062 -24.621094 L -146.609375 -34.027344 L -159.554688 -43.429688 Z M -143.554688 -55.054688 "/>
<path style="fill:none;stroke-width:2;stroke-linecap:butt;stroke-linejoin:miter;stroke:rgb(0%,0%,0%);stroke-opacity:1;stroke-miterlimit:10;" d="M -159.554688 -43.429688 L -164.5 -58.648438 L -169.441406 -73.863281 L -156.5 -64.460938 L -143.554688 -55.054688 M -143.554688 -55.054688 Z M -143.554688 -55.054688 "/>
<path style="fill:none;stroke-width:2;stroke-linecap:butt;stroke-linejoin:miter;stroke:rgb(0%,0%,0%);stroke-opacity:1;stroke-miterlimit:10;" d="M -172.5 -34.027344 L -185.441406 -24.621094 L -198.386719 -15.21875 L -185.441406 -5.8125 L -172.5 3.59375 L -146.609375 -15.21875 Z M -172.5 -34.027344 "/>
<path style="fill:none;stroke-width:2;stroke-linecap:butt;stroke-linejoin:miter;stroke:rgb(0%,0%,0%);stroke-opacity:1;stroke-miterlimit:10;" d="M -146.609375 -15.21875 L -159.554688 -24.621094 L -172.5 -34.027344 L -185.441406 -24.621094 L -198.386719 -15.21875 M -198.386719 -15.21875 Z M -198.386719 -15.21875 "/>
<path style="fill:none;stroke-width:2;stroke-linecap:butt;stroke-linejoin:miter;stroke:rgb(0%,0%,0%);stroke-opacity:1;stroke-miterlimit:10;" d="M -130.609375 -15.21875 Z M -130.609375 -15.21875 "/>
<path style="fill:none;stroke-width:2;stroke-linecap:butt;stroke-linejoin:miter;stroke:rgb(0%,0%,0%);stroke-opacity:1;stroke-miterlimit:10;" d="M -130.609375 -15.21875 L -125.664062 -30.433594 L -120.722656 -45.652344 L -88.722656 -45.652344 Z M -130.609375 -15.21875 "/>
<path style="fill:none;stroke-width:2;stroke-linecap:butt;stroke-linejoin:miter;stroke:rgb(0%,0%,0%);stroke-opacity:1;stroke-miterlimit:10;" d="M -88.722656 -45.652344 L -93.664062 -30.433594 L -98.609375 -15.21875 L -130.609375 -15.21875 M -130.609375 -15.21875 Z M -130.609375 -15.21875 "/>
<path style="fill:none;stroke-width:2;stroke-linecap:butt;stroke-linejoin:miter;stroke:rgb(0%,0%,0%);stroke-opacity:1;stroke-miterlimit:10;" d="M -75.777344 -55.054688 L -107.777344 -55.054688 L -112.722656 -70.273438 L -117.664062 -85.488281 L -122.609375 -70.273438 L -127.554688 -55.054688 Z M -75.777344 -55.054688 "/>
<path style="fill:none;stroke-width:2;stroke-linecap:butt;stroke-linejoin:miter;stroke:rgb(0%,0%,0%);stroke-opacity:1;stroke-miterlimit:10;" d="M -127.554688 -55.054688 L -122.609375 -39.839844 L -117.664062 -24.621094 L -112.722656 -39.839844 L -107.777344 -55.054688 M -107.777344 -55.054688 Z M -107.777344 -55.054688 "/>
<path style="fill:none;stroke-width:2;stroke-linecap:butt;stroke-linejoin:miter;stroke:rgb(0%,0%,0%);stroke-opacity:1;stroke-miterlimit:10;" d="M -143.554688 -55.054688 Z M -143.554688 -55.054688 "/>
<path style="fill:none;stroke-width:2;stroke-linecap:butt;stroke-linejoin:miter;stroke:rgb(0%,0%,0%);stroke-opacity:1;stroke-miterlimit:10;" d="M -125.664062 0 L -93.664062 0 L -88.722656 15.21875 L -83.777344 30.433594 Z M -125.664062 0 "/>
<path style="fill:none;stroke-width:2;stroke-linecap:butt;stroke-linejoin:miter;stroke:rgb(0%,0%,0%);stroke-opacity:1;stroke-miterlimit:10;" d="M -83.777344 30.433594 L -115.777344 30.433594 L -120.722656 15.21875 L -125.664062 0 M -125.664062 0 Z M -125.664062 0 "/>
<path style="fill:none;stroke-width:2;stroke-linecap:butt;stroke-linejoin:miter;stroke:rgb(0%,0%,0%);stroke-opacity:1;stroke-miterlimit:10;" d="M -70.832031 39.839844 L -75.777344 24.621094 L -80.722656 9.40625 L -67.777344 18.808594 L -54.832031 28.214844 Z M -70.832031 39.839844 "/>
<path style="fill:none;stroke-width:2;stroke-linecap:butt;stroke-linejoin:miter;stroke:rgb(0%,0%,0%);stroke-opacity:1;stroke-miterlimit:10;" d="M -54.832031 28.214844 L -49.886719 43.429688 L -44.945312 58.648438 L -57.886719 49.242188 L -70.832031 39.839844 M -70.832031 39.839844 Z M -70.832031 39.839844 "/>
<path style="fill:none;stroke-width:2;stroke-linecap:butt;stroke-linejoin:miter;stroke:rgb(0%,0%,0%);stroke-opacity:1;stroke-miterlimit:10;" d="M -41.886719 18.808594 L -28.945312 9.40625 L -16 0 Z M -41.886719 18.808594 "/>
<path style="fill:none;stroke-width:2;stroke-linecap:butt;stroke-linejoin:miter;stroke:rgb(0%,0%,0%);stroke-opacity:1;stroke-miterlimit:10;" d="M -16 0 L -28.945312 -9.40625 L -41.886719 -18.808594 L -36.945312 -34.027344 L -32 -49.242188 L -44.945312 -39.839844 L -57.886719 -30.433594 Z M -16 0 "/>
<path style="fill:none;stroke-width:2;stroke-linecap:butt;stroke-linejoin:miter;stroke:rgb(0%,0%,0%);stroke-opacity:1;stroke-miterlimit:10;" d="M -57.886719 -30.433594 L -62.832031 -15.21875 L -67.777344 0 L -54.832031 -9.40625 L -41.886719 -18.808594 M -41.886719 -18.808594 Z M -41.886719 -18.808594 "/>
<path style="fill:none;stroke-width:2;stroke-linecap:butt;stroke-linejoin:miter;stroke:rgb(0%,0%,0%);stroke-opacity:1;stroke-miterlimit:10;" d="M -70.832031 -39.839844 L -102.832031 -39.839844 L -107.777344 -24.621094 L -112.722656 -9.40625 Z M -70.832031 -39.839844 "/>
<path style="fill:none;stroke-width:2;stroke-linecap:butt;stroke-linejoin:miter;stroke:rgb(0%,0%,0%);stroke-opacity:1;stroke-miterlimit:10;" d="M -112.722656 -9.40625 L -80.722656 -9.40625 L -75.777344 -24.621094 L -70.832031 -39.839844 M -70.832031 -39.839844 Z M -70.832031 -39.839844 "/>
<path style="fill:none;stroke-width:2;stroke-linecap:butt;stroke-linejoin:miter;stroke:rgb(0%,0%,0%);stroke-opacity:1;stroke-miterlimit:10;" d="M -125.664062 0 Z M -125.664062 0 "/>
<path style="fill:none;stroke-width:2;stroke-linecap:butt;stroke-linejoin:miter;stroke:rgb(0%,0%,0%);stroke-opacity:1;stroke-miterlimit:10;" d="M 0 0 Z M 0 0 "/>
<path style="fill:none;stroke-width:2;stroke-linecap:butt;stroke-linejoin:miter;stroke:rgb(0%,0%,0%);stroke-opacity:1;stroke-miterlimit:10;" d="M -164.5 -119.515625 Z M -164.5 -119.515625 "/>
<path style="fill:none;stroke-width:2;stroke-linecap:butt;stroke-linejoin:miter;stroke:rgb(0%,0%,0%);stroke-opacity:1;stroke-miterlimit:10;" d="M 0 0 L 4.945312 -15.21875 L 9.886719 -30.433594 L 41.886719 -30.433594 L 28.945312 -39.839844 L 16 -49.242188 Z M 0 0 "/>
<path style="fill:none;stroke-width:2;stroke-linecap:butt;stroke-linejoin:miter;stroke:rgb(0%,0%,0%);stroke-opacity:1;stroke-miterlimit:10;" d="M 16 -49.242188 L -16 -49.242188 L -3.054688 -39.839844 L 9.886719 -30.433594 M 9.886719 -30.433594 Z M 9.886719 -30.433594 "/>
<path style="fill:none;stroke-width:2;stroke-linecap:butt;stroke-linejoin:miter;stroke:rgb(0%,0%,0%);stroke-opacity:1;stroke-miterlimit:10;" d="M 20.945312 -64.460938 L 33.886719 -55.054688 L 46.832031 -45.652344 L 59.777344 -55.054688 L 72.722656 -64.460938 Z M 20.945312 -64.460938 "/>
<path style="fill:none;stroke-width:2;stroke-linecap:butt;stroke-linejoin:miter;stroke:rgb(0%,0%,0%);stroke-opacity:1;stroke-miterlimit:10;" d="M 72.722656 -64.460938 L 59.777344 -73.863281 L 46.832031 -83.269531 L 33.886719 -73.863281 L 20.945312 -64.460938 M 20.945312 -64.460938 Z M 20.945312 -64.460938 "/>
<path style="fill:none;stroke-width:2;stroke-linecap:butt;stroke-linejoin:miter;stroke:rgb(0%,0%,0%);stroke-opacity:1;stroke-miterlimit:10;" d="M 88.722656 -64.460938 Z M 88.722656 -64.460938 "/>
<path style="fill:none;stroke-width:2;stroke-linecap:butt;stroke-linejoin:miter;stroke:rgb(0%,0%,0%);stroke-opacity:1;stroke-miterlimit:10;" d="M 88.722656 -64.460938 L 93.664062 -49.242188 L 98.609375 -34.027344 L 85.664062 -24.621094 L 72.722656 -15.21875 Z M 88.722656 -64.460938 "/>
<path style="fill:none;stroke-width:2;stroke-linecap:butt;stroke-linejoin:miter;stroke:rgb(0%,0%,0%);stroke-opacity:1;stroke-miterlimit:10;" d="M 72.722656 -15.21875 L 67.777344 -30.433594 L 62.832031 -45.652344 L 75.777344 -55.054688 L 88.722656 -64.460938 M 88.722656 -64.460938 Z M 88.722656 -64.460938 "/>
<path style="fill:none;stroke-width:2;stroke-linecap:butt;stroke-linejoin:miter;stroke:rgb(0%,0%,0%);stroke-opacity:1;stroke-miterlimit:10;" d="M 67.777344 0 L 62.832031 15.21875 L 57.886719 30.433594 L 52.945312 15.21875 L 48 0 Z M 67.777344 0 "/>
<path style="fill:none;stroke-width:2;stroke-linecap:butt;stroke-linejoin:miter;stroke:rgb(0%,0%,0%);stroke-opacity:1;stroke-miterlimit:10;" d="M 48 0 L 52.945312 -15.21875 L 57.886719 -30.433594 L 62.832031 -15.21875 L 67.777344 0 M 67.777344 0 Z M 67.777344 0 "/>
<path style="fill:none;stroke-width:2;stroke-linecap:butt;stroke-linejoin:miter;stroke:rgb(0%,0%,0%);stroke-opacity:1;stroke-miterlimit:10;" d="M 32 0 L 0 0 M 0 0 Z M 0 0 "/>
<path style="fill:none;stroke-width:2;stroke-linecap:butt;stroke-linejoin:miter;stroke:rgb(0%,0%,0%);stroke-opacity:1;stroke-miterlimit:10;" d="M 101.664062 -73.863281 L 88.722656 -64.460938 L 75.777344 -55.054688 L 62.832031 -64.460938 L 49.886719 -73.863281 Z M 101.664062 -73.863281 "/>
<path style="fill:none;stroke-width:2;stroke-linecap:butt;stroke-linejoin:miter;stroke:rgb(0%,0%,0%);stroke-opacity:1;stroke-miterlimit:10;" d="M 49.886719 -73.863281 L 62.832031 -83.269531 L 75.777344 -92.671875 L 88.722656 -83.269531 L 101.664062 -73.863281 M 101.664062 -73.863281 Z M 101.664062 -73.863281 "/>
<path style="fill:none;stroke-width:2;stroke-linecap:butt;stroke-linejoin:miter;stroke:rgb(0%,0%,0%);stroke-opacity:1;stroke-miterlimit:10;" d="M 33.886719 -73.863281 L 46.832031 -83.269531 L 59.777344 -92.671875 L 72.722656 -83.269531 L 85.664062 -73.863281 L 80.722656 -89.082031 L 75.777344 -104.296875 Z M 33.886719 -73.863281 "/>
<path style="fill:none;stroke-width:2;stroke-linecap:butt;stroke-linejoin:miter;stroke:rgb(0%,0%,0%);stroke-opacity:1;stroke-miterlimit:10;" d="M 75.777344 -104.296875 L 62.832031 -113.703125 L 49.886719 -123.105469 L 54.832031 -107.890625 L 59.777344 -92.671875 M 59.777344 -92.671875 Z M 59.777344 -92.671875 "/>
<path style="fill:none;stroke-width:2;stroke-linecap:butt;stroke-linejoin:miter;stroke:rgb(0%,0%,0%);stroke-opacity:1;stroke-miterlimit:10;" d="M 88.722656 -113.703125 Z M 88.722656 -113.703125 "/>
<path style="fill:none;stroke-width:2;stroke-linecap:butt;stroke-linejoin:miter;stroke:rgb(0%,0%,0%);stroke-opacity:1;stroke-miterlimit:10;" d="M 88.722656 -113.703125 L 93.664062 -128.917969 L 98.609375 -144.136719 L 103.554688 -128.917969 L 108.5 -113.703125 Z M 88.722656 -113.703125 "/>
<path style="fill:none;stroke-width:2;stroke-linecap:butt;stroke-linejoin:miter;stroke:rgb(0%,0%,0%);stroke-opacity:1;stroke-miterlimit:10;" d="M 108.5 -113.703125 L 103.554688 -98.484375 L 98.609375 -83.269531 L 93.664062 -98.484375 L 88.722656 -113.703125 M 88.722656 -113.703125 Z M 88.722656 -113.703125 "/>
<path style="fill:none;stroke-width:2;stroke-linecap:butt;stroke-linejoin:miter;stroke:rgb(0%,0%,0%);stroke-opacity:1;stroke-miterlimit:10;" d="M 124.5 -113.703125 L 156.5 -113.703125 L 124.5 -113.703125 L 119.554688 -98.484375 L 114.609375 -83.269531 Z M 124.5 -113.703125 "/>
<path style="fill:none;stroke-width:2;stroke-linecap:butt;stroke-linejoin:miter;stroke:rgb(0%,0%,0%);stroke-opacity:1;stroke-miterlimit:10;" d="M 114.609375 -83.269531 L 146.609375 -83.269531 L 151.554688 -98.484375 L 156.5 -113.703125 M 156.5 -113.703125 Z M 156.5 -113.703125 "/>
<path style="fill:none;stroke-width:2;stroke-linecap:butt;stroke-linejoin:miter;stroke:rgb(0%,0%,0%);stroke-opacity:1;stroke-miterlimit:10;" d="M 101.664062 -73.863281 Z M 101.664062 -73.863281 "/>
<path style="fill:none;stroke-width:2;stroke-linecap:butt;stroke-linejoin:miter;stroke:rgb(0%,0%,0%);stroke-opacity:1;stroke-miterlimit:10;" d="M 93.664062 -128.917969 L 98.609375 -144.136719 L 85.664062 -153.542969 L 72.722656 -162.945312 Z M 93.664062 -128.917969 "/>
<path style="fill:none;stroke-width:2;stroke-linecap:butt;stroke-linejoin:miter;stroke:rgb(0%,0%,0%);stroke-opacity:1;stroke-miterlimit:10;" d="M 72.722656 -162.945312 L 67.777344 -147.730469 L 62.832031 -132.511719 L 75.777344 -123.105469 L 88.722656 -113.703125 M 88.722656 -113.703125 Z M 88.722656 -113.703125 "/>
<path style="fill:none;stroke-width:2;stroke-linecap:butt;stroke-linejoin:miter;stroke:rgb(0%,0%,0%);stroke-opacity:1;stroke-miterlimit:10;" d="M 67.777344 -178.164062 L 62.832031 -193.378906 Z M 67.777344 -178.164062 "/>
<path style="fill:none;stroke-width:2;stroke-linecap:butt;stroke-linejoin:miter;stroke:rgb(0%,0%,0%);stroke-opacity:1;stroke-miterlimit:10;" d="M 62.832031 -193.378906 L 57.886719 -178.164062 L 52.945312 -162.945312 L 20.945312 -162.945312 Z M 62.832031 -193.378906 "/>
<path style="fill:none;stroke-width:2;stroke-linecap:butt;stroke-linejoin:miter;stroke:rgb(0%,0%,0%);stroke-opacity:1;stroke-miterlimit:10;" d="M 20.945312 -162.945312 L 25.886719 -178.164062 L 30.832031 -193.378906 L 62.832031 -193.378906 M 62.832031 -193.378906 Z M 62.832031 -193.378906 "/>
<path style="fill:none;stroke-width:2;stroke-linecap:butt;stroke-linejoin:miter;stroke:rgb(0%,0%,0%);stroke-opacity:1;stroke-miterlimit:10;" d="M 8 -153.542969 L -4.945312 -144.136719 L -17.886719 -134.730469 L -12.945312 -149.949219 L -8 -165.164062 Z M 8 -153.542969 "/>
<path style="fill:none;stroke-width:2;stroke-linecap:butt;stroke-linejoin:miter;stroke:rgb(0%,0%,0%);stroke-opacity:1;stroke-miterlimit:10;" d="M -8 -165.164062 L 4.945312 -174.570312 L 17.886719 -183.976562 L 12.945312 -168.757812 L 8 -153.542969 M 8 -153.542969 Z M 8 -153.542969 "/>
<path style="fill:none;stroke-width:2;stroke-linecap:butt;stroke-linejoin:miter;stroke:rgb(0%,0%,0%);stroke-opacity:1;stroke-miterlimit:10;" d="M -20.945312 -174.570312 L -33.886719 -183.976562 L -46.832031 -193.378906 L -51.777344 -178.164062 L -56.722656 -162.945312 L -43.777344 -153.542969 L -30.832031 -144.136719 Z M -20.945312 -174.570312 "/>
<path style="fill:none;stroke-width:2;stroke-linecap:butt;stroke-linejoin:miter;stroke:rgb(0%,0%,0%);stroke-opacity:1;stroke-miterlimit:10;" d="M -30.832031 -144.136719 L -25.886719 -159.351562 L -20.945312 -174.570312 L -33.886719 -183.976562 L -46.832031 -193.378906 M -46.832031 -193.378906 Z M -46.832031 -193.378906 "/>
<path style="fill:none;stroke-width:2;stroke-linecap:butt;stroke-linejoin:miter;stroke:rgb(0%,0%,0%);stroke-opacity:1;stroke-miterlimit:10;" d="M -25.886719 -128.917969 Z M -25.886719 -128.917969 "/>
<path style="fill:none;stroke-width:2;stroke-linecap:butt;stroke-linejoin:miter;stroke:rgb(0%,0%,0%);stroke-opacity:1;stroke-miterlimit:10;" d="M -25.886719 -128.917969 L 6.113281 -128.917969 L 11.054688 -113.703125 L 16 -98.484375 Z M -25.886719 -128.917969 "/>
<path style="fill:none;stroke-width:2;stroke-linecap:butt;stroke-linejoin:miter;stroke:rgb(0%,0%,0%);stroke-opacity:1;stroke-miterlimit:10;" d="M 16 -98.484375 L -16 -98.484375 L -20.945312 -113.703125 L -25.886719 -128.917969 M -25.886719 -128.917969 Z M -25.886719 -128.917969 "/>
<path style="fill:none;stroke-width:2;stroke-linecap:butt;stroke-linejoin:miter;stroke:rgb(0%,0%,0%);stroke-opacity:1;stroke-miterlimit:10;" d="M 28.945312 -89.082031 L 24 -104.296875 L 19.054688 -119.515625 L 32 -128.917969 L 44.945312 -138.324219 L 12.945312 -138.324219 Z M 28.945312 -89.082031 "/>
<path style="fill:none;stroke-width:2;stroke-linecap:butt;stroke-linejoin:miter;stroke:rgb(0%,0%,0%);stroke-opacity:1;stroke-miterlimit:10;" d="M 12.945312 -138.324219 L 0 -128.917969 L -12.945312 -119.515625 L 19.054688 -119.515625 M 19.054688 -119.515625 Z M 19.054688 -119.515625 "/>
<path style="fill:none;stroke-width:2;stroke-linecap:butt;stroke-linejoin:miter;stroke:rgb(0%,0%,0%);stroke-opacity:1;stroke-miterlimit:10;" d="M 8 -153.542969 Z M 8 -153.542969 "/>
<path style="fill:none;stroke-width:2;stroke-linecap:butt;stroke-linejoin:miter;stroke:rgb(0%,0%,0%);stroke-opacity:1;stroke-miterlimit:10;" d="M -38.832031 -119.515625 L -33.886719 -104.296875 L -28.945312 -89.082031 L -41.886719 -79.675781 L -54.832031 -70.273438 Z M -38.832031 -119.515625 "/>
<path style="fill:none;stroke-width:2;stroke-linecap:butt;stroke-linejoin:miter;stroke:rgb(0%,0%,0%);stroke-opacity:1;stroke-miterlimit:10;" d="M -54.832031 -70.273438 L -59.777344 -85.488281 L -64.722656 -100.707031 L -51.777344 -110.109375 L -38.832031 -119.515625 M -38.832031 -119.515625 Z M -38.832031 -119.515625 "/>
<path style="fill:none;stroke-width:2;stroke-linecap:butt;stroke-linejoin:miter;stroke:rgb(0%,0%,0%);stroke-opacity:1;stroke-miterlimit:10;" d="M -59.777344 -55.054688 L -46.832031 -64.460938 L -33.886719 -73.863281 L -38.832031 -58.648438 L -43.777344 -43.429688 Z M -59.777344 -55.054688 "/>
<path style="fill:none;stroke-width:2;stroke-linecap:butt;stroke-linejoin:miter;stroke:rgb(0%,0%,0%);stroke-opacity:1;stroke-miterlimit:10;" d="M -43.777344 -43.429688 L -56.722656 -34.027344 L -69.664062 -24.621094 L -64.722656 -39.839844 L -59.777344 -55.054688 M -59.777344 -55.054688 Z M -59.777344 -55.054688 "/>
<path style="fill:none;stroke-width:2;stroke-linecap:butt;stroke-linejoin:miter;stroke:rgb(0%,0%,0%);stroke-opacity:1;stroke-miterlimit:10;" d="M -30.832031 -34.027344 L -17.886719 -24.621094 L -4.945312 -15.21875 Z M -30.832031 -34.027344 "/>
<path style="fill:none;stroke-width:2;stroke-linecap:butt;stroke-linejoin:miter;stroke:rgb(0%,0%,0%);stroke-opacity:1;stroke-miterlimit:10;" d="M -4.945312 -15.21875 L 0 -30.433594 L 4.945312 -45.652344 L 36.945312 -45.652344 L 24 -55.054688 L 11.054688 -64.460938 Z M -4.945312 -15.21875 "/>
<path style="fill:none;stroke-width:2;stroke-linecap:butt;stroke-linejoin:miter;stroke:rgb(0%,0%,0%);stroke-opacity:1;stroke-miterlimit:10;" d="M 11.054688 -64.460938 L -20.945312 -64.460938 L -8 -55.054688 L 4.945312 -45.652344 M 4.945312 -45.652344 Z M 4.945312 -45.652344 "/>
<path style="fill:none;stroke-width:2;stroke-linecap:butt;stroke-linejoin:miter;stroke:rgb(0%,0%,0%);stroke-opacity:1;stroke-miterlimit:10;" d="M 16 -79.675781 L 11.054688 -94.894531 L 6.113281 -110.109375 L -25.886719 -110.109375 Z M 16 -79.675781 "/>
<path style="fill:none;stroke-width:2;stroke-linecap:butt;stroke-linejoin:miter;stroke:rgb(0%,0%,0%);stroke-opacity:1;stroke-miterlimit:10;" d="M -25.886719 -110.109375 L -20.945312 -94.894531 L -16 -79.675781 L 16 -79.675781 M 16 -79.675781 Z M 16 -79.675781 "/>
<path style="fill:none;stroke-width:2;stroke-linecap:butt;stroke-linejoin:miter;stroke:rgb(0%,0%,0%);stroke-opacity:1;stroke-miterlimit:10;" d="M -38.832031 -119.515625 Z M -38.832031 -119.515625 "/>
<path style="fill:none;stroke-width:2;stroke-linecap:butt;stroke-linejoin:miter;stroke:rgb(0%,0%,0%);stroke-opacity:1;stroke-miterlimit:10;" d="M 0 0 Z M 0 0 "/>
<path style="fill:none;stroke-width:2;stroke-linecap:butt;stroke-linejoin:miter;stroke:rgb(0%,0%,0%);stroke-opacity:1;stroke-miterlimit:10;" d="M 62.832031 -193.378906 Z M 62.832031 -193.378906 "/>
</g>
</defs>
<g id="surface2448">
<use xlink:href="#surface2451" transform="matrix(1,0,0,1,200.085938,194.992188)"/>
</g>
</svg>
