<?xml version="1.0" encoding="UTF-8"?>
<svg xmlns="http://www.w3.org/2000/svg" xmlns:xlink="http://www.w3.org/1999/xlink" width="1922.601562pt" height="1665.773438pt" viewBox="0 0 1922.601562 1665.773438" version="1.1">
<defs>
<g id="surface14631" clip-path="url(#clip1)">
<rect x="0" y="0" width="16777215" height="16777215" style="fill:rgb(100%,100%,100%);fill-opacity:1;stroke:none;"/>
<path style="fill:none;stroke-width:2;stroke-linecap:butt;stroke-linejoin:miter;stroke:rgb(0%,0%,0%);stroke-opacity:1;stroke-miterlimit:10;" d="M 30 0 L 15 -25.980469 L 45 -25.980469 L 30 0 L 60 0 L 30 -51.960938 L 60 -51.960938 L 45 -77.941406 L 75 -77.941406 L 60 -51.960938 L 90 -51.960938 L 60 0 L 90 0 L 75 -25.980469 L 105 -25.980469 L 90 0 L 120 0 L 60 -103.921875 L 90 -103.921875 L 75 -129.902344 L 105 -129.902344 L 90 -103.921875 L 120 -103.921875 L 90 -155.882812 L 120 -155.882812 L 105 -181.867188 L 135 -181.867188 L 120 -155.882812 L 150 -155.882812 L 120 -103.921875 L 150 -103.921875 L 135 -129.902344 L 165 -129.902344 L 150 -103.921875 L 180 -103.921875 L 120 0 L 150 0 L 135 -25.980469 L 165 -25.980469 L 150 0 L 180 0 L 150 -51.960938 L 180 -51.960938 L 165 -77.941406 L 195 -77.941406 L 180 -51.960938 L 210 -51.960938 L 180 0 L 210 0 L 195 -25.980469 L 225 -25.980469 L 210 0 L 240 0 L 150 -155.882812 L 135 -181.867188 L 120 -207.847656 L 150 -207.847656 L 135 -233.828125 L 165 -233.828125 L 150 -207.847656 L 180 -207.847656 L 150 -259.808594 L 180 -259.808594 L 165 -285.789062 L 195 -285.789062 L 180 -259.808594 L 210 -259.808594 L 180 -207.847656 L 210 -207.847656 L 195 -233.828125 L 225 -233.828125 L 210 -207.847656 L 240 -207.847656 L 180 -311.769531 L 210 -311.769531 L 195 -337.75 L 225 -337.75 L 210 -311.769531 L 240 -311.769531 L 210 -363.730469 L 240 -363.730469 L 225 -389.710938 L 255 -389.710938 L 240 -363.730469 L 270 -363.730469 L 240 -311.769531 L 270 -311.769531 L 255 -337.75 L 285 -337.75 L 270 -311.769531 L 300 -311.769531 L 240 -207.847656 L 270 -207.847656 L 255 -233.828125 L 285 -233.828125 L 270 -207.847656 L 300 -207.847656 L 270 -259.808594 L 300 -259.808594 L 285 -285.789062 L 315 -285.789062 L 300 -259.808594 L 330 -259.808594 L 300 -207.847656 L 330 -207.847656 L 315 -233.828125 L 345 -233.828125 L 330 -207.847656 L 360 -207.847656 L 345 -181.867188 L 330 -155.882812 L 240 0 L 270 0 L 255 -25.980469 L 285 -25.980469 L 270 0 L 300 0 L 270 -51.960938 L 300 -51.960938 L 285 -77.941406 L 315 -77.941406 L 300 -51.960938 L 330 -51.960938 L 300 0 L 330 0 L 315 -25.980469 L 345 -25.980469 L 330 0 L 360 0 L 300 -103.921875 L 330 -103.921875 L 315 -129.902344 L 345 -129.902344 L 330 -103.921875 L 360 -103.921875 L 330 -155.882812 L 360 -155.882812 L 345 -181.867188 L 375 -181.867188 L 360 -155.882812 L 390 -155.882812 L 360 -103.921875 L 390 -103.921875 L 375 -129.902344 L 405 -129.902344 L 390 -103.921875 L 420 -103.921875 L 360 0 L 390 0 L 375 -25.980469 L 405 -25.980469 L 390 0 L 420 0 L 390 -51.960938 L 420 -51.960938 L 405 -77.941406 L 435 -77.941406 L 420 -51.960938 L 450 -51.960938 L 420 0 L 450 0 L 435 -25.980469 L 465 -25.980469 L 450 0 L 480 0 L 390 -155.882812 L 375 -181.867188 L 240 -415.691406 L 270 -415.691406 L 255 -441.671875 L 285 -441.671875 L 270 -415.691406 L 300 -415.691406 L 270 -467.652344 L 300 -467.652344 L 285 -493.632812 L 315 -493.632812 L 300 -467.652344 L 330 -467.652344 L 300 -415.691406 L 330 -415.691406 L 315 -441.671875 L 345 -441.671875 L 330 -415.691406 L 360 -415.691406 L 315 -493.632812 L 300 -519.617188 L 330 -519.617188 L 315 -545.597656 L 345 -545.597656 L 330 -519.617188 L 360 -519.617188 L 330 -571.578125 L 360 -571.578125 L 345 -597.558594 L 375 -597.558594 L 360 -571.578125 L 390 -571.578125 L 360 -519.617188 L 390 -519.617188 L 375 -545.597656 L 405 -545.597656 L 390 -519.617188 L 420 -519.617188 L 405 -493.632812 L 360 -415.691406 L 390 -415.691406 L 375 -441.671875 L 405 -441.671875 L 390 -415.691406 L 420 -415.691406 L 390 -467.652344 L 420 -467.652344 L 405 -493.632812 L 435 -493.632812 L 420 -467.652344 L 450 -467.652344 L 420 -415.691406 L 450 -415.691406 L 435 -441.671875 L 465 -441.671875 L 450 -415.691406 L 480 -415.691406 L 435 -493.632812 L 420 -519.617188 L 360 -623.539062 L 390 -623.539062 L 375 -649.519531 L 405 -649.519531 L 390 -623.539062 L 420 -623.539062 L 390 -675.5 L 420 -675.5 L 405 -701.480469 L 435 -701.480469 L 420 -675.5 L 450 -675.5 L 420 -623.539062 L 450 -623.539062 L 435 -649.519531 L 465 -649.519531 L 450 -623.539062 L 480 -623.539062 L 420 -727.460938 L 450 -727.460938 L 435 -753.441406 L 465 -753.441406 L 450 -727.460938 L 480 -727.460938 L 450 -779.421875 L 480 -779.421875 L 465 -805.402344 L 495 -805.402344 L 480 -779.421875 L 510 -779.421875 L 480 -727.460938 L 510 -727.460938 L 495 -753.441406 L 525 -753.441406 L 510 -727.460938 L 540 -727.460938 L 480 -623.539062 L 510 -623.539062 L 495 -649.519531 L 525 -649.519531 L 510 -623.539062 L 540 -623.539062 L 510 -675.5 L 540 -675.5 L 525 -701.480469 L 555 -701.480469 L 540 -675.5 L 570 -675.5 L 540 -623.539062 L 570 -623.539062 L 555 -649.519531 L 585 -649.519531 L 570 -623.539062 L 600 -623.539062 L 540 -519.617188 L 525 -493.632812 L 480 -415.691406 L 510 -415.691406 L 495 -441.671875 L 525 -441.671875 L 510 -415.691406 L 540 -415.691406 L 510 -467.652344 L 540 -467.652344 L 525 -493.632812 L 555 -493.632812 L 540 -467.652344 L 570 -467.652344 L 540 -415.691406 L 570 -415.691406 L 555 -441.671875 L 585 -441.671875 L 570 -415.691406 L 600 -415.691406 L 555 -493.632812 L 540 -519.617188 L 570 -519.617188 L 555 -545.597656 L 585 -545.597656 L 570 -519.617188 L 600 -519.617188 L 570 -571.578125 L 600 -571.578125 L 585 -597.558594 L 615 -597.558594 L 600 -571.578125 L 630 -571.578125 L 600 -519.617188 L 630 -519.617188 L 615 -545.597656 L 645 -545.597656 L 630 -519.617188 L 660 -519.617188 L 645 -493.632812 L 600 -415.691406 L 630 -415.691406 L 615 -441.671875 L 645 -441.671875 L 630 -415.691406 L 660 -415.691406 L 630 -467.652344 L 660 -467.652344 L 645 -493.632812 L 675 -493.632812 L 660 -467.652344 L 690 -467.652344 L 660 -415.691406 L 690 -415.691406 L 675 -441.671875 L 705 -441.671875 L 690 -415.691406 L 720 -415.691406 L 585 -181.867188 L 570 -155.882812 L 480 0 L 510 0 L 495 -25.980469 L 525 -25.980469 L 510 0 L 540 0 L 510 -51.960938 L 540 -51.960938 L 525 -77.941406 L 555 -77.941406 L 540 -51.960938 L 570 -51.960938 L 540 0 L 570 0 L 555 -25.980469 L 585 -25.980469 L 570 0 L 600 0 L 540 -103.921875 L 570 -103.921875 L 555 -129.902344 L 585 -129.902344 L 570 -103.921875 L 600 -103.921875 L 570 -155.882812 L 600 -155.882812 L 585 -181.867188 L 615 -181.867188 L 600 -155.882812 L 630 -155.882812 L 600 -103.921875 L 630 -103.921875 L 615 -129.902344 L 645 -129.902344 L 630 -103.921875 L 660 -103.921875 L 600 0 L 630 0 L 615 -25.980469 L 645 -25.980469 L 630 0 L 660 0 L 630 -51.960938 L 660 -51.960938 L 645 -77.941406 L 675 -77.941406 L 660 -51.960938 L 690 -51.960938 L 660 0 L 690 0 L 675 -25.980469 L 705 -25.980469 L 690 0 L 720 0 L 630 -155.882812 L 615 -181.867188 L 600 -207.847656 L 630 -207.847656 L 615 -233.828125 L 645 -233.828125 L 630 -207.847656 L 660 -207.847656 L 630 -259.808594 L 660 -259.808594 L 645 -285.789062 L 675 -285.789062 L 660 -259.808594 L 690 -259.808594 L 660 -207.847656 L 690 -207.847656 L 675 -233.828125 L 705 -233.828125 L 690 -207.847656 L 720 -207.847656 L 660 -311.769531 L 690 -311.769531 L 675 -337.75 L 705 -337.75 L 690 -311.769531 L 720 -311.769531 L 690 -363.730469 L 720 -363.730469 L 705 -389.710938 L 735 -389.710938 L 720 -363.730469 L 750 -363.730469 L 720 -311.769531 L 750 -311.769531 L 735 -337.75 L 765 -337.75 L 750 -311.769531 L 780 -311.769531 L 720 -207.847656 L 750 -207.847656 L 735 -233.828125 L 765 -233.828125 L 750 -207.847656 L 780 -207.847656 L 750 -259.808594 L 780 -259.808594 L 765 -285.789062 L 795 -285.789062 L 780 -259.808594 L 810 -259.808594 L 780 -207.847656 L 810 -207.847656 L 795 -233.828125 L 825 -233.828125 L 810 -207.847656 L 840 -207.847656 L 825 -181.867188 L 810 -155.882812 L 720 0 L 750 0 L 735 -25.980469 L 765 -25.980469 L 750 0 L 780 0 L 750 -51.960938 L 780 -51.960938 L 765 -77.941406 L 795 -77.941406 L 780 -51.960938 L 810 -51.960938 L 780 0 L 810 0 L 795 -25.980469 L 825 -25.980469 L 810 0 L 840 0 L 780 -103.921875 L 810 -103.921875 L 795 -129.902344 L 825 -129.902344 L 810 -103.921875 L 840 -103.921875 L 810 -155.882812 L 840 -155.882812 L 825 -181.867188 L 855 -181.867188 L 840 -155.882812 L 870 -155.882812 L 840 -103.921875 L 870 -103.921875 L 855 -129.902344 L 885 -129.902344 L 870 -103.921875 L 900 -103.921875 L 840 0 L 870 0 L 855 -25.980469 L 885 -25.980469 L 870 0 L 900 0 L 870 -51.960938 L 900 -51.960938 L 885 -77.941406 L 915 -77.941406 L 900 -51.960938 L 930 -51.960938 L 900 0 L 930 0 L 915 -25.980469 L 945 -25.980469 L 930 0 L 960 0 L 870 -155.882812 L 855 -181.867188 L 675 -493.632812 L 660 -519.617188 L 480 -831.382812 L 510 -831.382812 L 495 -857.363281 L 525 -857.363281 L 510 -831.382812 L 540 -831.382812 L 525 -857.363281 L 510 -883.347656 L 540 -883.347656 L 525 -909.328125 L 555 -909.328125 L 540 -883.347656 L 570 -883.347656 L 555 -857.363281 L 540 -831.382812 L 570 -831.382812 L 555 -857.363281 L 585 -857.363281 L 570 -831.382812 L 600 -831.382812 L 585 -857.363281 L 570 -883.347656 L 540 -935.308594 L 570 -935.308594 L 555 -961.289062 L 585 -961.289062 L 570 -935.308594 L 600 -935.308594 L 570 -987.269531 L 600 -987.269531 L 585 -1013.25 L 615 -1013.25 L 600 -987.269531 L 630 -987.269531 L 600 -935.308594 L 630 -935.308594 L 615 -961.289062 L 645 -961.289062 L 630 -935.308594 L 660 -935.308594 L 630 -883.347656 L 615 -857.363281 L 600 -831.382812 L 630 -831.382812 L 615 -857.363281 L 645 -857.363281 L 630 -831.382812 L 660 -831.382812 L 645 -857.363281 L 630 -883.347656 L 660 -883.347656 L 645 -909.328125 L 675 -909.328125 L 660 -883.347656 L 690 -883.347656 L 675 -857.363281 L 660 -831.382812 L 690 -831.382812 L 675 -857.363281 L 705 -857.363281 L 690 -831.382812 L 720 -831.382812 L 705 -857.363281 L 690 -883.347656 L 600 -1039.230469 L 630 -1039.230469 L 615 -1065.210938 L 645 -1065.210938 L 630 -1039.230469 L 660 -1039.230469 L 630 -1091.191406 L 660 -1091.191406 L 645 -1117.171875 L 675 -1117.171875 L 660 -1091.191406 L 690 -1091.191406 L 660 -1039.230469 L 690 -1039.230469 L 675 -1065.210938 L 705 -1065.210938 L 690 -1039.230469 L 720 -1039.230469 L 660 -1143.152344 L 690 -1143.152344 L 675 -1169.132812 L 705 -1169.132812 L 690 -1143.152344 L 720 -1143.152344 L 690 -1195.113281 L 720 -1195.113281 L 705 -1221.097656 L 735 -1221.097656 L 720 -1195.113281 L 750 -1195.113281 L 720 -1143.152344 L 750 -1143.152344 L 735 -1169.132812 L 765 -1169.132812 L 750 -1143.152344 L 780 -1143.152344 L 720 -1039.230469 L 750 -1039.230469 L 735 -1065.210938 L 765 -1065.210938 L 750 -1039.230469 L 780 -1039.230469 L 750 -1091.191406 L 780 -1091.191406 L 765 -1117.171875 L 795 -1117.171875 L 780 -1091.191406 L 810 -1091.191406 L 780 -1039.230469 L 810 -1039.230469 L 795 -1065.210938 L 825 -1065.210938 L 810 -1039.230469 L 840 -1039.230469 L 750 -883.347656 L 735 -857.363281 L 720 -831.382812 L 750 -831.382812 L 735 -857.363281 L 765 -857.363281 L 750 -831.382812 L 780 -831.382812 L 765 -857.363281 L 750 -883.347656 L 780 -883.347656 L 765 -909.328125 L 795 -909.328125 L 780 -883.347656 L 810 -883.347656 L 795 -857.363281 L 780 -831.382812 L 810 -831.382812 L 795 -857.363281 L 825 -857.363281 L 810 -831.382812 L 840 -831.382812 L 825 -857.363281 L 810 -883.347656 L 780 -935.308594 L 810 -935.308594 L 795 -961.289062 L 825 -961.289062 L 810 -935.308594 L 840 -935.308594 L 810 -987.269531 L 840 -987.269531 L 825 -1013.25 L 855 -1013.25 L 840 -987.269531 L 870 -987.269531 L 840 -935.308594 L 870 -935.308594 L 855 -961.289062 L 885 -961.289062 L 870 -935.308594 L 900 -935.308594 L 870 -883.347656 L 855 -857.363281 L 840 -831.382812 L 870 -831.382812 L 855 -857.363281 L 885 -857.363281 L 870 -831.382812 L 900 -831.382812 L 885 -857.363281 L 870 -883.347656 L 900 -883.347656 L 885 -909.328125 L 915 -909.328125 L 900 -883.347656 L 930 -883.347656 L 915 -857.363281 L 900 -831.382812 L 930 -831.382812 L 915 -857.363281 L 945 -857.363281 L 930 -831.382812 L 960 -831.382812 L 945 -857.363281 L 930 -883.347656 L 750 -1195.113281 L 735 -1221.097656 L 720 -1247.078125 L 750 -1247.078125 L 735 -1273.058594 L 765 -1273.058594 L 750 -1247.078125 L 780 -1247.078125 L 750 -1299.039062 L 780 -1299.039062 L 765 -1325.019531 L 795 -1325.019531 L 780 -1299.039062 L 810 -1299.039062 L 780 -1247.078125 L 810 -1247.078125 L 795 -1273.058594 L 825 -1273.058594 L 810 -1247.078125 L 840 -1247.078125 L 780 -1351 L 810 -1351 L 795 -1376.980469 L 825 -1376.980469 L 810 -1351 L 840 -1351 L 810 -1402.960938 L 840 -1402.960938 L 825 -1428.941406 L 855 -1428.941406 L 840 -1402.960938 L 870 -1402.960938 L 840 -1351 L 870 -1351 L 855 -1376.980469 L 885 -1376.980469 L 870 -1351 L 900 -1351 L 840 -1247.078125 L 870 -1247.078125 L 855 -1273.058594 L 885 -1273.058594 L 870 -1247.078125 L 900 -1247.078125 L 870 -1299.039062 L 900 -1299.039062 L 885 -1325.019531 L 915 -1325.019531 L 900 -1299.039062 L 930 -1299.039062 L 900 -1247.078125 L 930 -1247.078125 L 915 -1273.058594 L 945 -1273.058594 L 930 -1247.078125 L 960 -1247.078125 L 840 -1454.921875 L 870 -1454.921875 L 855 -1480.902344 L 885 -1480.902344 L 870 -1454.921875 L 900 -1454.921875 L 870 -1506.882812 L 900 -1506.882812 L 885 -1532.863281 L 915 -1532.863281 L 900 -1506.882812 L 930 -1506.882812 L 900 -1454.921875 L 930 -1454.921875 L 915 -1480.902344 L 945 -1480.902344 L 930 -1454.921875 L 960 -1454.921875 L 915 -1532.863281 L 900 -1558.847656 L 930 -1558.847656 L 915 -1584.828125 L 945 -1584.828125 L 930 -1558.847656 L 960 -1558.847656 L 930 -1610.808594 L 960 -1610.808594 L 945 -1636.789062 L 975 -1636.789062 L 960 -1610.808594 L 990 -1610.808594 L 960 -1558.847656 L 990 -1558.847656 L 975 -1584.828125 L 1005 -1584.828125 L 990 -1558.847656 L 1020 -1558.847656 L 1005 -1532.863281 L 960 -1454.921875 L 990 -1454.921875 L 975 -1480.902344 L 1005 -1480.902344 L 990 -1454.921875 L 1020 -1454.921875 L 990 -1506.882812 L 1020 -1506.882812 L 1005 -1532.863281 L 1035 -1532.863281 L 1020 -1506.882812 L 1050 -1506.882812 L 1020 -1454.921875 L 1050 -1454.921875 L 1035 -1480.902344 L 1065 -1480.902344 L 1050 -1454.921875 L 1080 -1454.921875 L 960 -1247.078125 L 990 -1247.078125 L 975 -1273.058594 L 1005 -1273.058594 L 990 -1247.078125 L 1020 -1247.078125 L 990 -1299.039062 L 1020 -1299.039062 L 1005 -1325.019531 L 1035 -1325.019531 L 1020 -1299.039062 L 1050 -1299.039062 L 1020 -1247.078125 L 1050 -1247.078125 L 1035 -1273.058594 L 1065 -1273.058594 L 1050 -1247.078125 L 1080 -1247.078125 L 1020 -1351 L 1050 -1351 L 1035 -1376.980469 L 1065 -1376.980469 L 1050 -1351 L 1080 -1351 L 1050 -1402.960938 L 1080 -1402.960938 L 1065 -1428.941406 L 1095 -1428.941406 L 1080 -1402.960938 L 1110 -1402.960938 L 1080 -1351 L 1110 -1351 L 1095 -1376.980469 L 1125 -1376.980469 L 1110 -1351 L 1140 -1351 L 1080 -1247.078125 L 1110 -1247.078125 L 1095 -1273.058594 L 1125 -1273.058594 L 1110 -1247.078125 L 1140 -1247.078125 L 1110 -1299.039062 L 1140 -1299.039062 L 1125 -1325.019531 L 1155 -1325.019531 L 1140 -1299.039062 L 1170 -1299.039062 L 1140 -1247.078125 L 1170 -1247.078125 L 1155 -1273.058594 L 1185 -1273.058594 L 1170 -1247.078125 L 1200 -1247.078125 L 1185 -1221.097656 L 1170 -1195.113281 L 990 -883.347656 L 975 -857.363281 L 960 -831.382812 L 990 -831.382812 L 975 -857.363281 L 1005 -857.363281 L 990 -831.382812 L 1020 -831.382812 L 1005 -857.363281 L 990 -883.347656 L 1020 -883.347656 L 1005 -909.328125 L 1035 -909.328125 L 1020 -883.347656 L 1050 -883.347656 L 1035 -857.363281 L 1020 -831.382812 L 1050 -831.382812 L 1035 -857.363281 L 1065 -857.363281 L 1050 -831.382812 L 1080 -831.382812 L 1065 -857.363281 L 1050 -883.347656 L 1020 -935.308594 L 1050 -935.308594 L 1035 -961.289062 L 1065 -961.289062 L 1050 -935.308594 L 1080 -935.308594 L 1050 -987.269531 L 1080 -987.269531 L 1065 -1013.25 L 1095 -1013.25 L 1080 -987.269531 L 1110 -987.269531 L 1080 -935.308594 L 1110 -935.308594 L 1095 -961.289062 L 1125 -961.289062 L 1110 -935.308594 L 1140 -935.308594 L 1110 -883.347656 L 1095 -857.363281 L 1080 -831.382812 L 1110 -831.382812 L 1095 -857.363281 L 1125 -857.363281 L 1110 -831.382812 L 1140 -831.382812 L 1125 -857.363281 L 1110 -883.347656 L 1140 -883.347656 L 1125 -909.328125 L 1155 -909.328125 L 1140 -883.347656 L 1170 -883.347656 L 1155 -857.363281 L 1140 -831.382812 L 1170 -831.382812 L 1155 -857.363281 L 1185 -857.363281 L 1170 -831.382812 L 1200 -831.382812 L 1185 -857.363281 L 1170 -883.347656 L 1080 -1039.230469 L 1110 -1039.230469 L 1095 -1065.210938 L 1125 -1065.210938 L 1110 -1039.230469 L 1140 -1039.230469 L 1110 -1091.191406 L 1140 -1091.191406 L 1125 -1117.171875 L 1155 -1117.171875 L 1140 -1091.191406 L 1170 -1091.191406 L 1140 -1039.230469 L 1170 -1039.230469 L 1155 -1065.210938 L 1185 -1065.210938 L 1170 -1039.230469 L 1200 -1039.230469 L 1140 -1143.152344 L 1170 -1143.152344 L 1155 -1169.132812 L 1185 -1169.132812 L 1170 -1143.152344 L 1200 -1143.152344 L 1170 -1195.113281 L 1200 -1195.113281 L 1185 -1221.097656 L 1215 -1221.097656 L 1200 -1195.113281 L 1230 -1195.113281 L 1200 -1143.152344 L 1230 -1143.152344 L 1215 -1169.132812 L 1245 -1169.132812 L 1230 -1143.152344 L 1260 -1143.152344 L 1200 -1039.230469 L 1230 -1039.230469 L 1215 -1065.210938 L 1245 -1065.210938 L 1230 -1039.230469 L 1260 -1039.230469 L 1230 -1091.191406 L 1260 -1091.191406 L 1245 -1117.171875 L 1275 -1117.171875 L 1260 -1091.191406 L 1290 -1091.191406 L 1260 -1039.230469 L 1290 -1039.230469 L 1275 -1065.210938 L 1305 -1065.210938 L 1290 -1039.230469 L 1320 -1039.230469 L 1230 -883.347656 L 1215 -857.363281 L 1200 -831.382812 L 1230 -831.382812 L 1215 -857.363281 L 1245 -857.363281 L 1230 -831.382812 L 1260 -831.382812 L 1245 -857.363281 L 1230 -883.347656 L 1260 -883.347656 L 1245 -909.328125 L 1275 -909.328125 L 1260 -883.347656 L 1290 -883.347656 L 1275 -857.363281 L 1260 -831.382812 L 1290 -831.382812 L 1275 -857.363281 L 1305 -857.363281 L 1290 -831.382812 L 1320 -831.382812 L 1305 -857.363281 L 1290 -883.347656 L 1260 -935.308594 L 1290 -935.308594 L 1275 -961.289062 L 1305 -961.289062 L 1290 -935.308594 L 1320 -935.308594 L 1290 -987.269531 L 1320 -987.269531 L 1305 -1013.25 L 1335 -1013.25 L 1320 -987.269531 L 1350 -987.269531 L 1320 -935.308594 L 1350 -935.308594 L 1335 -961.289062 L 1365 -961.289062 L 1350 -935.308594 L 1380 -935.308594 L 1350 -883.347656 L 1335 -857.363281 L 1320 -831.382812 L 1350 -831.382812 L 1335 -857.363281 L 1365 -857.363281 L 1350 -831.382812 L 1380 -831.382812 L 1365 -857.363281 L 1350 -883.347656 L 1380 -883.347656 L 1365 -909.328125 L 1395 -909.328125 L 1380 -883.347656 L 1410 -883.347656 L 1395 -857.363281 L 1380 -831.382812 L 1410 -831.382812 L 1395 -857.363281 L 1425 -857.363281 L 1410 -831.382812 L 1440 -831.382812 L 1260 -519.617188 L 1245 -493.632812 L 1065 -181.867188 L 1050 -155.882812 L 960 0 L 990 0 L 975 -25.980469 L 1005 -25.980469 L 990 0 L 1020 0 L 990 -51.960938 L 1020 -51.960938 L 1005 -77.941406 L 1035 -77.941406 L 1020 -51.960938 L 1050 -51.960938 L 1020 0 L 1050 0 L 1035 -25.980469 L 1065 -25.980469 L 1050 0 L 1080 0 L 1020 -103.921875 L 1050 -103.921875 L 1035 -129.902344 L 1065 -129.902344 L 1050 -103.921875 L 1080 -103.921875 L 1050 -155.882812 L 1080 -155.882812 L 1065 -181.867188 L 1095 -181.867188 L 1080 -155.882812 L 1110 -155.882812 L 1080 -103.921875 L 1110 -103.921875 L 1095 -129.902344 L 1125 -129.902344 L 1110 -103.921875 L 1140 -103.921875 L 1080 0 L 1110 0 L 1095 -25.980469 L 1125 -25.980469 L 1110 0 L 1140 0 L 1110 -51.960938 L 1140 -51.960938 L 1125 -77.941406 L 1155 -77.941406 L 1140 -51.960938 L 1170 -51.960938 L 1140 0 L 1170 0 L 1155 -25.980469 L 1185 -25.980469 L 1170 0 L 1200 0 L 1110 -155.882812 L 1095 -181.867188 L 1080 -207.847656 L 1110 -207.847656 L 1095 -233.828125 L 1125 -233.828125 L 1110 -207.847656 L 1140 -207.847656 L 1110 -259.808594 L 1140 -259.808594 L 1125 -285.789062 L 1155 -285.789062 L 1140 -259.808594 L 1170 -259.808594 L 1140 -207.847656 L 1170 -207.847656 L 1155 -233.828125 L 1185 -233.828125 L 1170 -207.847656 L 1200 -207.847656 L 1140 -311.769531 L 1170 -311.769531 L 1155 -337.75 L 1185 -337.75 L 1170 -311.769531 L 1200 -311.769531 L 1170 -363.730469 L 1200 -363.730469 L 1185 -389.710938 L 1215 -389.710938 L 1200 -363.730469 L 1230 -363.730469 L 1200 -311.769531 L 1230 -311.769531 L 1215 -337.75 L 1245 -337.75 L 1230 -311.769531 L 1260 -311.769531 L 1200 -207.847656 L 1230 -207.847656 L 1215 -233.828125 L 1245 -233.828125 L 1230 -207.847656 L 1260 -207.847656 L 1230 -259.808594 L 1260 -259.808594 L 1245 -285.789062 L 1275 -285.789062 L 1260 -259.808594 L 1290 -259.808594 L 1260 -207.847656 L 1290 -207.847656 L 1275 -233.828125 L 1305 -233.828125 L 1290 -207.847656 L 1320 -207.847656 L 1305 -181.867188 L 1290 -155.882812 L 1200 0 L 1230 0 L 1215 -25.980469 L 1245 -25.980469 L 1230 0 L 1260 0 L 1230 -51.960938 L 1260 -51.960938 L 1245 -77.941406 L 1275 -77.941406 L 1260 -51.960938 L 1290 -51.960938 L 1260 0 L 1290 0 L 1275 -25.980469 L 1305 -25.980469 L 1290 0 L 1320 0 L 1260 -103.921875 L 1290 -103.921875 L 1275 -129.902344 L 1305 -129.902344 L 1290 -103.921875 L 1320 -103.921875 L 1290 -155.882812 L 1320 -155.882812 L 1305 -181.867188 L 1335 -181.867188 L 1320 -155.882812 L 1350 -155.882812 L 1320 -103.921875 L 1350 -103.921875 L 1335 -129.902344 L 1365 -129.902344 L 1350 -103.921875 L 1380 -103.921875 L 1320 0 L 1350 0 L 1335 -25.980469 L 1365 -25.980469 L 1350 0 L 1380 0 L 1350 -51.960938 L 1380 -51.960938 L 1365 -77.941406 L 1395 -77.941406 L 1380 -51.960938 L 1410 -51.960938 L 1380 0 L 1410 0 L 1395 -25.980469 L 1425 -25.980469 L 1410 0 L 1440 0 L 1350 -155.882812 L 1335 -181.867188 L 1200 -415.691406 L 1230 -415.691406 L 1215 -441.671875 L 1245 -441.671875 L 1230 -415.691406 L 1260 -415.691406 L 1230 -467.652344 L 1260 -467.652344 L 1245 -493.632812 L 1275 -493.632812 L 1260 -467.652344 L 1290 -467.652344 L 1260 -415.691406 L 1290 -415.691406 L 1275 -441.671875 L 1305 -441.671875 L 1290 -415.691406 L 1320 -415.691406 L 1275 -493.632812 L 1260 -519.617188 L 1290 -519.617188 L 1275 -545.597656 L 1305 -545.597656 L 1290 -519.617188 L 1320 -519.617188 L 1290 -571.578125 L 1320 -571.578125 L 1305 -597.558594 L 1335 -597.558594 L 1320 -571.578125 L 1350 -571.578125 L 1320 -519.617188 L 1350 -519.617188 L 1335 -545.597656 L 1365 -545.597656 L 1350 -519.617188 L 1380 -519.617188 L 1365 -493.632812 L 1320 -415.691406 L 1350 -415.691406 L 1335 -441.671875 L 1365 -441.671875 L 1350 -415.691406 L 1380 -415.691406 L 1350 -467.652344 L 1380 -467.652344 L 1365 -493.632812 L 1395 -493.632812 L 1380 -467.652344 L 1410 -467.652344 L 1380 -415.691406 L 1410 -415.691406 L 1395 -441.671875 L 1425 -441.671875 L 1410 -415.691406 L 1440 -415.691406 L 1395 -493.632812 L 1380 -519.617188 L 1320 -623.539062 L 1350 -623.539062 L 1335 -649.519531 L 1365 -649.519531 L 1350 -623.539062 L 1380 -623.539062 L 1350 -675.5 L 1380 -675.5 L 1365 -701.480469 L 1395 -701.480469 L 1380 -675.5 L 1410 -675.5 L 1380 -623.539062 L 1410 -623.539062 L 1395 -649.519531 L 1425 -649.519531 L 1410 -623.539062 L 1440 -623.539062 L 1380 -727.460938 L 1410 -727.460938 L 1395 -753.441406 L 1425 -753.441406 L 1410 -727.460938 L 1440 -727.460938 L 1410 -779.421875 L 1440 -779.421875 L 1425 -805.402344 L 1455 -805.402344 L 1440 -779.421875 L 1470 -779.421875 L 1440 -727.460938 L 1470 -727.460938 L 1455 -753.441406 L 1485 -753.441406 L 1470 -727.460938 L 1500 -727.460938 L 1440 -623.539062 L 1470 -623.539062 L 1455 -649.519531 L 1485 -649.519531 L 1470 -623.539062 L 1500 -623.539062 L 1470 -675.5 L 1500 -675.5 L 1485 -701.480469 L 1515 -701.480469 L 1500 -675.5 L 1530 -675.5 L 1500 -623.539062 L 1530 -623.539062 L 1515 -649.519531 L 1545 -649.519531 L 1530 -623.539062 L 1560 -623.539062 L 1500 -519.617188 L 1485 -493.632812 L 1440 -415.691406 L 1470 -415.691406 L 1455 -441.671875 L 1485 -441.671875 L 1470 -415.691406 L 1500 -415.691406 L 1470 -467.652344 L 1500 -467.652344 L 1485 -493.632812 L 1515 -493.632812 L 1500 -467.652344 L 1530 -467.652344 L 1500 -415.691406 L 1530 -415.691406 L 1515 -441.671875 L 1545 -441.671875 L 1530 -415.691406 L 1560 -415.691406 L 1515 -493.632812 L 1500 -519.617188 L 1530 -519.617188 L 1515 -545.597656 L 1545 -545.597656 L 1530 -519.617188 L 1560 -519.617188 L 1530 -571.578125 L 1560 -571.578125 L 1545 -597.558594 L 1575 -597.558594 L 1560 -571.578125 L 1590 -571.578125 L 1560 -519.617188 L 1590 -519.617188 L 1575 -545.597656 L 1605 -545.597656 L 1590 -519.617188 L 1620 -519.617188 L 1605 -493.632812 L 1560 -415.691406 L 1590 -415.691406 L 1575 -441.671875 L 1605 -441.671875 L 1590 -415.691406 L 1620 -415.691406 L 1590 -467.652344 L 1620 -467.652344 L 1605 -493.632812 L 1635 -493.632812 L 1620 -467.652344 L 1650 -467.652344 L 1620 -415.691406 L 1650 -415.691406 L 1635 -441.671875 L 1665 -441.671875 L 1650 -415.691406 L 1680 -415.691406 L 1545 -181.867188 L 1530 -155.882812 L 1440 0 L 1470 0 L 1455 -25.980469 L 1485 -25.980469 L 1470 0 L 1500 0 L 1470 -51.960938 L 1500 -51.960938 L 1485 -77.941406 L 1515 -77.941406 L 1500 -51.960938 L 1530 -51.960938 L 1500 0 L 1530 0 L 1515 -25.980469 L 1545 -25.980469 L 1530 0 L 1560 0 L 1500 -103.921875 L 1530 -103.921875 L 1515 -129.902344 L 1545 -129.902344 L 1530 -103.921875 L 1560 -103.921875 L 1530 -155.882812 L 1560 -155.882812 L 1545 -181.867188 L 1575 -181.867188 L 1560 -155.882812 L 1590 -155.882812 L 1560 -103.921875 L 1590 -103.921875 L 1575 -129.902344 L 1605 -129.902344 L 1590 -103.921875 L 1620 -103.921875 L 1560 0 L 1590 0 L 1575 -25.980469 L 1605 -25.980469 L 1590 0 L 1620 0 L 1590 -51.960938 L 1620 -51.960938 L 1605 -77.941406 L 1635 -77.941406 L 1620 -51.960938 L 1650 -51.960938 L 1620 0 L 1650 0 L 1635 -25.980469 L 1665 -25.980469 L 1650 0 L 1680 0 L 1590 -155.882812 L 1575 -181.867188 L 1560 -207.847656 L 1590 -207.847656 L 1575 -233.828125 L 1605 -233.828125 L 1590 -207.847656 L 1620 -207.847656 L 1590 -259.808594 L 1620 -259.808594 L 1605 -285.789062 L 1635 -285.789062 L 1620 -259.808594 L 1650 -259.808594 L 1620 -207.847656 L 1650 -207.847656 L 1635 -233.828125 L 1665 -233.828125 L 1650 -207.847656 L 1680 -207.847656 L 1620 -311.769531 L 1650 -311.769531 L 1635 -337.75 L 1665 -337.75 L 1650 -311.769531 L 1680 -311.769531 L 1650 -363.730469 L 1680 -363.730469 L 1665 -389.710938 L 1695 -389.710938 L 1680 -363.730469 L 1710 -363.730469 L 1680 -311.769531 L 1710 -311.769531 L 1695 -337.75 L 1725 -337.75 L 1710 -311.769531 L 1740 -311.769531 L 1680 -207.847656 L 1710 -207.847656 L 1695 -233.828125 L 1725 -233.828125 L 1710 -207.847656 L 1740 -207.847656 L 1710 -259.808594 L 1740 -259.808594 L 1725 -285.789062 L 1755 -285.789062 L 1740 -259.808594 L 1770 -259.808594 L 1740 -207.847656 L 1770 -207.847656 L 1755 -233.828125 L 1785 -233.828125 L 1770 -207.847656 L 1800 -207.847656 L 1785 -181.867188 L 1770 -155.882812 L 1680 0 L 1710 0 L 1695 -25.980469 L 1725 -25.980469 L 1710 0 L 1740 0 L 1710 -51.960938 L 1740 -51.960938 L 1725 -77.941406 L 1755 -77.941406 L 1740 -51.960938 L 1770 -51.960938 L 1740 0 L 1770 0 L 1755 -25.980469 L 1785 -25.980469 L 1770 0 L 1800 0 L 1740 -103.921875 L 1770 -103.921875 L 1755 -129.902344 L 1785 -129.902344 L 1770 -103.921875 L 1800 -103.921875 L 1770 -155.882812 L 1800 -155.882812 L 1785 -181.867188 L 1815 -181.867188 L 1800 -155.882812 L 1830 -155.882812 L 1800 -103.921875 L 1830 -103.921875 L 1815 -129.902344 L 1845 -129.902344 L 1830 -103.921875 L 1860 -103.921875 L 1800 0 L 1830 0 L 1815 -25.980469 L 1845 -25.980469 L 1830 0 L 1860 0 L 1830 -51.960938 L 1860 -51.960938 L 1845 -77.941406 L 1875 -77.941406 L 1860 -51.960938 L 1890 -51.960938 L 1860 0 L 1890 0 L 1875 -25.980469 L 1905 -25.980469 L 1890 0 L 1920 0 L 1830 -155.882812 L 1815 -181.867188 L 1635 -493.632812 L 1620 -519.617188 L 1425 -857.363281 L 1410 -883.347656 L 1230 -1195.113281 L 1215 -1221.097656 L 1035 -1532.863281 L 1020 -1558.847656 L 960 -1662.769531 L 900 -1558.847656 L 885 -1532.863281 L 705 -1221.097656 L 690 -1195.113281 L 510 -883.347656 L 495 -857.363281 L 300 -519.617188 L 285 -493.632812 L 105 -181.867188 L 90 -155.882812 L 0 0 Z M 30 0 "/>
</g>
</defs>
<g id="surface14628">
<use xlink:href="#surface14631" transform="matrix(1,0,0,1,0.867188,1664.773438)"/>
</g>
</svg>
